<?xml version="1.0" encoding="utf-8" standalone="no"?>
<!DOCTYPE svg PUBLIC "-//W3C//DTD SVG 1.1//EN"
  "http://www.w3.org/Graphics/SVG/1.1/DTD/svg11.dtd">
<!-- Created with matplotlib (http://matplotlib.org/) -->
<svg height="432pt" version="1.1" viewBox="0 0 864 432" width="864pt" xmlns="http://www.w3.org/2000/svg" xmlns:xlink="http://www.w3.org/1999/xlink">
 <defs>
  <style type="text/css">
*{stroke-linecap:butt;stroke-linejoin:round;}
  </style>
 </defs>
 <g id="figure_1">
  <g id="patch_1">
   <path d="M 0 432 
L 864 432 
L 864 0 
L 0 0 
z
" style="fill:#ffffff;"/>
  </g>
  <g id="axes_1">
   <g id="patch_2">
    <path d="M 108 384.48 
L 777.6 384.48 
L 777.6 51.84 
L 108 51.84 
z
" style="fill:#ffffff;"/>
   </g>
   <g id="patch_3">
    <path clip-path="url(#pd563a25654)" d="M 138.436364 384.48 
L 146.861655 384.48 
L 146.861655 384.48 
L 138.436364 384.48 
z
" style="fill:#c00000;"/>
   </g>
   <g id="patch_4">
    <path clip-path="url(#pd563a25654)" d="M 180.562818 384.48 
L 188.988109 384.48 
L 188.988109 384.48 
L 180.562818 384.48 
z
" style="fill:#c00000;"/>
   </g>
   <g id="patch_5">
    <path clip-path="url(#pd563a25654)" d="M 222.689273 384.48 
L 231.114564 384.48 
L 231.114564 384.48 
L 222.689273 384.48 
z
" style="fill:#c00000;"/>
   </g>
   <g id="patch_6">
    <path clip-path="url(#pd563a25654)" d="M 264.815728 384.48 
L 273.241019 384.48 
L 273.241019 384.48 
L 264.815728 384.48 
z
" style="fill:#c00000;"/>
   </g>
   <g id="patch_7">
    <path clip-path="url(#pd563a25654)" d="M 306.942183 384.48 
L 315.367474 384.48 
L 315.367474 384.48 
L 306.942183 384.48 
z
" style="fill:#c00000;"/>
   </g>
   <g id="patch_8">
    <path clip-path="url(#pd563a25654)" d="M 349.068638 384.48 
L 357.493929 384.48 
L 357.493929 376.812673 
L 349.068638 376.812673 
z
" style="fill:#c00000;"/>
   </g>
   <g id="patch_9">
    <path clip-path="url(#pd563a25654)" d="M 391.195093 384.48 
L 399.620384 384.48 
L 399.620384 376.115644 
L 391.195093 376.115644 
z
" style="fill:#c00000;"/>
   </g>
   <g id="patch_10">
    <path clip-path="url(#pd563a25654)" d="M 433.321548 384.48 
L 441.746839 384.48 
L 441.746839 374.373069 
L 433.321548 374.373069 
z
" style="fill:#c00000;"/>
   </g>
   <g id="patch_11">
    <path clip-path="url(#pd563a25654)" d="M 475.448003 384.48 
L 483.873293 384.48 
L 483.873293 372.630495 
L 475.448003 372.630495 
z
" style="fill:#c00000;"/>
   </g>
   <g id="patch_12">
    <path clip-path="url(#pd563a25654)" d="M 517.574457 384.48 
L 525.999748 384.48 
L 525.999748 371.58495 
L 517.574457 371.58495 
z
" style="fill:#c00000;"/>
   </g>
   <g id="patch_13">
    <path clip-path="url(#pd563a25654)" d="M 559.700912 384.48 
L 568.126203 384.48 
L 568.126203 343.703762 
L 559.700912 343.703762 
z
" style="fill:#c00000;"/>
   </g>
   <g id="patch_14">
    <path clip-path="url(#pd563a25654)" d="M 601.827367 384.48 
L 610.252658 384.48 
L 610.252658 334.642376 
L 601.827367 334.642376 
z
" style="fill:#c00000;"/>
   </g>
   <g id="patch_15">
    <path clip-path="url(#pd563a25654)" d="M 643.953822 384.48 
L 652.379113 384.48 
L 652.379113 330.460198 
L 643.953822 330.460198 
z
" style="fill:#c00000;"/>
   </g>
   <g id="patch_16">
    <path clip-path="url(#pd563a25654)" d="M 686.080277 384.48 
L 694.505568 384.48 
L 694.505568 325.929505 
L 686.080277 325.929505 
z
" style="fill:#c00000;"/>
   </g>
   <g id="patch_17">
    <path clip-path="url(#pd563a25654)" d="M 728.206732 384.48 
L 736.632023 384.48 
L 736.632023 334.990891 
L 728.206732 334.990891 
z
" style="fill:#c00000;"/>
   </g>
   <g id="patch_18">
    <path clip-path="url(#pd563a25654)" d="M 148.967977 384.48 
L 157.393268 384.48 
L 157.393268 384.48 
L 148.967977 384.48 
z
" style="fill:#a6a6a6;"/>
   </g>
   <g id="patch_19">
    <path clip-path="url(#pd563a25654)" d="M 191.094432 384.48 
L 199.519723 384.48 
L 199.519723 384.48 
L 191.094432 384.48 
z
" style="fill:#a6a6a6;"/>
   </g>
   <g id="patch_20">
    <path clip-path="url(#pd563a25654)" d="M 233.220887 384.48 
L 241.646178 384.48 
L 241.646178 384.48 
L 233.220887 384.48 
z
" style="fill:#a6a6a6;"/>
   </g>
   <g id="patch_21">
    <path clip-path="url(#pd563a25654)" d="M 275.347342 384.48 
L 283.772633 384.48 
L 283.772633 384.48 
L 275.347342 384.48 
z
" style="fill:#a6a6a6;"/>
   </g>
   <g id="patch_22">
    <path clip-path="url(#pd563a25654)" d="M 317.473797 384.48 
L 325.899088 384.48 
L 325.899088 384.48 
L 317.473797 384.48 
z
" style="fill:#a6a6a6;"/>
   </g>
   <g id="patch_23">
    <path clip-path="url(#pd563a25654)" d="M 359.600252 384.48 
L 368.025543 384.48 
L 368.025543 350.674059 
L 359.600252 350.674059 
z
" style="fill:#a6a6a6;"/>
   </g>
   <g id="patch_24">
    <path clip-path="url(#pd563a25654)" d="M 401.726707 384.48 
L 410.151997 384.48 
L 410.151997 337.430495 
L 401.726707 337.430495 
z
" style="fill:#a6a6a6;"/>
   </g>
   <g id="patch_25">
    <path clip-path="url(#pd563a25654)" d="M 443.853161 384.48 
L 452.278452 384.48 
L 452.278452 318.959208 
L 443.853161 318.959208 
z
" style="fill:#a6a6a6;"/>
   </g>
   <g id="patch_26">
    <path clip-path="url(#pd563a25654)" d="M 485.979616 384.48 
L 494.404907 384.48 
L 494.404907 290.032475 
L 485.979616 290.032475 
z
" style="fill:#a6a6a6;"/>
   </g>
   <g id="patch_27">
    <path clip-path="url(#pd563a25654)" d="M 528.106071 384.48 
L 536.531362 384.48 
L 536.531362 262.848317 
L 528.106071 262.848317 
z
" style="fill:#a6a6a6;"/>
   </g>
   <g id="patch_28">
    <path clip-path="url(#pd563a25654)" d="M 570.232526 384.48 
L 578.657817 384.48 
L 578.657817 216.844356 
L 570.232526 216.844356 
z
" style="fill:#a6a6a6;"/>
   </g>
   <g id="patch_29">
    <path clip-path="url(#pd563a25654)" d="M 612.358981 384.48 
L 620.784272 384.48 
L 620.784272 145.050297 
L 612.358981 145.050297 
z
" style="fill:#a6a6a6;"/>
   </g>
   <g id="patch_30">
    <path clip-path="url(#pd563a25654)" d="M 654.485436 384.48 
L 662.910727 384.48 
L 662.910727 140.171089 
L 654.485436 140.171089 
z
" style="fill:#a6a6a6;"/>
   </g>
   <g id="patch_31">
    <path clip-path="url(#pd563a25654)" d="M 696.611891 384.48 
L 705.037182 384.48 
L 705.037182 132.155248 
L 696.611891 132.155248 
z
" style="fill:#a6a6a6;"/>
   </g>
   <g id="patch_32">
    <path clip-path="url(#pd563a25654)" d="M 738.738345 384.48 
L 747.163636 384.48 
L 747.163636 67.68 
L 738.738345 67.68 
z
" style="fill:#a6a6a6;"/>
   </g>
   <g id="matplotlib.axis_1">
    <g id="xtick_1">
     <g id="line2d_1">
      <defs>
       <path d="M 0 0 
L 0 3.5 
" id="m2c755fdbd2" style="stroke:#000000;stroke-width:0.8;"/>
      </defs>
      <g>
       <use style="stroke:#000000;stroke-width:0.8;" x="147.914816" xlink:href="#m2c755fdbd2" y="384.48"/>
      </g>
     </g>
     <g id="text_1">
      <!-- 2002 -->
      <defs>
       <path d="M 19.1875 8.296875 
L 53.609375 8.296875 
L 53.609375 0 
L 7.328125 0 
L 7.328125 8.296875 
Q 12.9375 14.109375 22.625 23.890625 
Q 32.328125 33.6875 34.8125 36.53125 
Q 39.546875 41.84375 41.421875 45.53125 
Q 43.3125 49.21875 43.3125 52.78125 
Q 43.3125 58.59375 39.234375 62.25 
Q 35.15625 65.921875 28.609375 65.921875 
Q 23.96875 65.921875 18.8125 64.3125 
Q 13.671875 62.703125 7.8125 59.421875 
L 7.8125 69.390625 
Q 13.765625 71.78125 18.9375 73 
Q 24.125 74.21875 28.421875 74.21875 
Q 39.75 74.21875 46.484375 68.546875 
Q 53.21875 62.890625 53.21875 53.421875 
Q 53.21875 48.921875 51.53125 44.890625 
Q 49.859375 40.875 45.40625 35.40625 
Q 44.1875 33.984375 37.640625 27.21875 
Q 31.109375 20.453125 19.1875 8.296875 
z
" id="DejaVuSans-32"/>
       <path d="M 31.78125 66.40625 
Q 24.171875 66.40625 20.328125 58.90625 
Q 16.5 51.421875 16.5 36.375 
Q 16.5 21.390625 20.328125 13.890625 
Q 24.171875 6.390625 31.78125 6.390625 
Q 39.453125 6.390625 43.28125 13.890625 
Q 47.125 21.390625 47.125 36.375 
Q 47.125 51.421875 43.28125 58.90625 
Q 39.453125 66.40625 31.78125 66.40625 
z
M 31.78125 74.21875 
Q 44.046875 74.21875 50.515625 64.515625 
Q 56.984375 54.828125 56.984375 36.375 
Q 56.984375 17.96875 50.515625 8.265625 
Q 44.046875 -1.421875 31.78125 -1.421875 
Q 19.53125 -1.421875 13.0625 8.265625 
Q 6.59375 17.96875 6.59375 36.375 
Q 6.59375 54.828125 13.0625 64.515625 
Q 19.53125 74.21875 31.78125 74.21875 
z
" id="DejaVuSans-30"/>
      </defs>
      <g transform="translate(135.189816 399.078438)scale(0.1 -0.1)">
       <use xlink:href="#DejaVuSans-32"/>
       <use x="63.623047" xlink:href="#DejaVuSans-30"/>
       <use x="127.246094" xlink:href="#DejaVuSans-30"/>
       <use x="190.869141" xlink:href="#DejaVuSans-32"/>
      </g>
     </g>
    </g>
    <g id="xtick_2">
     <g id="line2d_2">
      <g>
       <use style="stroke:#000000;stroke-width:0.8;" x="190.041271" xlink:href="#m2c755fdbd2" y="384.48"/>
      </g>
     </g>
     <g id="text_2">
      <!-- 2003 -->
      <defs>
       <path d="M 40.578125 39.3125 
Q 47.65625 37.796875 51.625 33 
Q 55.609375 28.21875 55.609375 21.1875 
Q 55.609375 10.40625 48.1875 4.484375 
Q 40.765625 -1.421875 27.09375 -1.421875 
Q 22.515625 -1.421875 17.65625 -0.515625 
Q 12.796875 0.390625 7.625 2.203125 
L 7.625 11.71875 
Q 11.71875 9.328125 16.59375 8.109375 
Q 21.484375 6.890625 26.8125 6.890625 
Q 36.078125 6.890625 40.9375 10.546875 
Q 45.796875 14.203125 45.796875 21.1875 
Q 45.796875 27.640625 41.28125 31.265625 
Q 36.765625 34.90625 28.71875 34.90625 
L 20.21875 34.90625 
L 20.21875 43.015625 
L 29.109375 43.015625 
Q 36.375 43.015625 40.234375 45.921875 
Q 44.09375 48.828125 44.09375 54.296875 
Q 44.09375 59.90625 40.109375 62.90625 
Q 36.140625 65.921875 28.71875 65.921875 
Q 24.65625 65.921875 20.015625 65.03125 
Q 15.375 64.15625 9.8125 62.3125 
L 9.8125 71.09375 
Q 15.4375 72.65625 20.34375 73.4375 
Q 25.25 74.21875 29.59375 74.21875 
Q 40.828125 74.21875 47.359375 69.109375 
Q 53.90625 64.015625 53.90625 55.328125 
Q 53.90625 49.265625 50.4375 45.09375 
Q 46.96875 40.921875 40.578125 39.3125 
z
" id="DejaVuSans-33"/>
      </defs>
      <g transform="translate(177.316271 399.078438)scale(0.1 -0.1)">
       <use xlink:href="#DejaVuSans-32"/>
       <use x="63.623047" xlink:href="#DejaVuSans-30"/>
       <use x="127.246094" xlink:href="#DejaVuSans-30"/>
       <use x="190.869141" xlink:href="#DejaVuSans-33"/>
      </g>
     </g>
    </g>
    <g id="xtick_3">
     <g id="line2d_3">
      <g>
       <use style="stroke:#000000;stroke-width:0.8;" x="232.167726" xlink:href="#m2c755fdbd2" y="384.48"/>
      </g>
     </g>
     <g id="text_3">
      <!-- 2004 -->
      <defs>
       <path d="M 37.796875 64.3125 
L 12.890625 25.390625 
L 37.796875 25.390625 
z
M 35.203125 72.90625 
L 47.609375 72.90625 
L 47.609375 25.390625 
L 58.015625 25.390625 
L 58.015625 17.1875 
L 47.609375 17.1875 
L 47.609375 0 
L 37.796875 0 
L 37.796875 17.1875 
L 4.890625 17.1875 
L 4.890625 26.703125 
z
" id="DejaVuSans-34"/>
      </defs>
      <g transform="translate(219.442726 399.078438)scale(0.1 -0.1)">
       <use xlink:href="#DejaVuSans-32"/>
       <use x="63.623047" xlink:href="#DejaVuSans-30"/>
       <use x="127.246094" xlink:href="#DejaVuSans-30"/>
       <use x="190.869141" xlink:href="#DejaVuSans-34"/>
      </g>
     </g>
    </g>
    <g id="xtick_4">
     <g id="line2d_4">
      <g>
       <use style="stroke:#000000;stroke-width:0.8;" x="274.294181" xlink:href="#m2c755fdbd2" y="384.48"/>
      </g>
     </g>
     <g id="text_4">
      <!-- 2005 -->
      <defs>
       <path d="M 10.796875 72.90625 
L 49.515625 72.90625 
L 49.515625 64.59375 
L 19.828125 64.59375 
L 19.828125 46.734375 
Q 21.96875 47.46875 24.109375 47.828125 
Q 26.265625 48.1875 28.421875 48.1875 
Q 40.625 48.1875 47.75 41.5 
Q 54.890625 34.8125 54.890625 23.390625 
Q 54.890625 11.625 47.5625 5.09375 
Q 40.234375 -1.421875 26.90625 -1.421875 
Q 22.3125 -1.421875 17.546875 -0.640625 
Q 12.796875 0.140625 7.71875 1.703125 
L 7.71875 11.625 
Q 12.109375 9.234375 16.796875 8.0625 
Q 21.484375 6.890625 26.703125 6.890625 
Q 35.15625 6.890625 40.078125 11.328125 
Q 45.015625 15.765625 45.015625 23.390625 
Q 45.015625 31 40.078125 35.4375 
Q 35.15625 39.890625 26.703125 39.890625 
Q 22.75 39.890625 18.8125 39.015625 
Q 14.890625 38.140625 10.796875 36.28125 
z
" id="DejaVuSans-35"/>
      </defs>
      <g transform="translate(261.569181 399.078438)scale(0.1 -0.1)">
       <use xlink:href="#DejaVuSans-32"/>
       <use x="63.623047" xlink:href="#DejaVuSans-30"/>
       <use x="127.246094" xlink:href="#DejaVuSans-30"/>
       <use x="190.869141" xlink:href="#DejaVuSans-35"/>
      </g>
     </g>
    </g>
    <g id="xtick_5">
     <g id="line2d_5">
      <g>
       <use style="stroke:#000000;stroke-width:0.8;" x="316.420635" xlink:href="#m2c755fdbd2" y="384.48"/>
      </g>
     </g>
     <g id="text_5">
      <!-- 2006 -->
      <defs>
       <path d="M 33.015625 40.375 
Q 26.375 40.375 22.484375 35.828125 
Q 18.609375 31.296875 18.609375 23.390625 
Q 18.609375 15.53125 22.484375 10.953125 
Q 26.375 6.390625 33.015625 6.390625 
Q 39.65625 6.390625 43.53125 10.953125 
Q 47.40625 15.53125 47.40625 23.390625 
Q 47.40625 31.296875 43.53125 35.828125 
Q 39.65625 40.375 33.015625 40.375 
z
M 52.59375 71.296875 
L 52.59375 62.3125 
Q 48.875 64.0625 45.09375 64.984375 
Q 41.3125 65.921875 37.59375 65.921875 
Q 27.828125 65.921875 22.671875 59.328125 
Q 17.53125 52.734375 16.796875 39.40625 
Q 19.671875 43.65625 24.015625 45.921875 
Q 28.375 48.1875 33.59375 48.1875 
Q 44.578125 48.1875 50.953125 41.515625 
Q 57.328125 34.859375 57.328125 23.390625 
Q 57.328125 12.15625 50.6875 5.359375 
Q 44.046875 -1.421875 33.015625 -1.421875 
Q 20.359375 -1.421875 13.671875 8.265625 
Q 6.984375 17.96875 6.984375 36.375 
Q 6.984375 53.65625 15.1875 63.9375 
Q 23.390625 74.21875 37.203125 74.21875 
Q 40.921875 74.21875 44.703125 73.484375 
Q 48.484375 72.75 52.59375 71.296875 
z
" id="DejaVuSans-36"/>
      </defs>
      <g transform="translate(303.695635 399.078438)scale(0.1 -0.1)">
       <use xlink:href="#DejaVuSans-32"/>
       <use x="63.623047" xlink:href="#DejaVuSans-30"/>
       <use x="127.246094" xlink:href="#DejaVuSans-30"/>
       <use x="190.869141" xlink:href="#DejaVuSans-36"/>
      </g>
     </g>
    </g>
    <g id="xtick_6">
     <g id="line2d_6">
      <g>
       <use style="stroke:#000000;stroke-width:0.8;" x="358.54709" xlink:href="#m2c755fdbd2" y="384.48"/>
      </g>
     </g>
     <g id="text_6">
      <!-- 2007 -->
      <defs>
       <path d="M 8.203125 72.90625 
L 55.078125 72.90625 
L 55.078125 68.703125 
L 28.609375 0 
L 18.3125 0 
L 43.21875 64.59375 
L 8.203125 64.59375 
z
" id="DejaVuSans-37"/>
      </defs>
      <g transform="translate(345.82209 399.078438)scale(0.1 -0.1)">
       <use xlink:href="#DejaVuSans-32"/>
       <use x="63.623047" xlink:href="#DejaVuSans-30"/>
       <use x="127.246094" xlink:href="#DejaVuSans-30"/>
       <use x="190.869141" xlink:href="#DejaVuSans-37"/>
      </g>
     </g>
    </g>
    <g id="xtick_7">
     <g id="line2d_7">
      <g>
       <use style="stroke:#000000;stroke-width:0.8;" x="400.673545" xlink:href="#m2c755fdbd2" y="384.48"/>
      </g>
     </g>
     <g id="text_7">
      <!-- 2008 -->
      <defs>
       <path d="M 31.78125 34.625 
Q 24.75 34.625 20.71875 30.859375 
Q 16.703125 27.09375 16.703125 20.515625 
Q 16.703125 13.921875 20.71875 10.15625 
Q 24.75 6.390625 31.78125 6.390625 
Q 38.8125 6.390625 42.859375 10.171875 
Q 46.921875 13.96875 46.921875 20.515625 
Q 46.921875 27.09375 42.890625 30.859375 
Q 38.875 34.625 31.78125 34.625 
z
M 21.921875 38.8125 
Q 15.578125 40.375 12.03125 44.71875 
Q 8.5 49.078125 8.5 55.328125 
Q 8.5 64.0625 14.71875 69.140625 
Q 20.953125 74.21875 31.78125 74.21875 
Q 42.671875 74.21875 48.875 69.140625 
Q 55.078125 64.0625 55.078125 55.328125 
Q 55.078125 49.078125 51.53125 44.71875 
Q 48 40.375 41.703125 38.8125 
Q 48.828125 37.15625 52.796875 32.3125 
Q 56.78125 27.484375 56.78125 20.515625 
Q 56.78125 9.90625 50.3125 4.234375 
Q 43.84375 -1.421875 31.78125 -1.421875 
Q 19.734375 -1.421875 13.25 4.234375 
Q 6.78125 9.90625 6.78125 20.515625 
Q 6.78125 27.484375 10.78125 32.3125 
Q 14.796875 37.15625 21.921875 38.8125 
z
M 18.3125 54.390625 
Q 18.3125 48.734375 21.84375 45.5625 
Q 25.390625 42.390625 31.78125 42.390625 
Q 38.140625 42.390625 41.71875 45.5625 
Q 45.3125 48.734375 45.3125 54.390625 
Q 45.3125 60.0625 41.71875 63.234375 
Q 38.140625 66.40625 31.78125 66.40625 
Q 25.390625 66.40625 21.84375 63.234375 
Q 18.3125 60.0625 18.3125 54.390625 
z
" id="DejaVuSans-38"/>
      </defs>
      <g transform="translate(387.948545 399.078438)scale(0.1 -0.1)">
       <use xlink:href="#DejaVuSans-32"/>
       <use x="63.623047" xlink:href="#DejaVuSans-30"/>
       <use x="127.246094" xlink:href="#DejaVuSans-30"/>
       <use x="190.869141" xlink:href="#DejaVuSans-38"/>
      </g>
     </g>
    </g>
    <g id="xtick_8">
     <g id="line2d_8">
      <g>
       <use style="stroke:#000000;stroke-width:0.8;" x="442.8" xlink:href="#m2c755fdbd2" y="384.48"/>
      </g>
     </g>
     <g id="text_8">
      <!-- 2009 -->
      <defs>
       <path d="M 10.984375 1.515625 
L 10.984375 10.5 
Q 14.703125 8.734375 18.5 7.8125 
Q 22.3125 6.890625 25.984375 6.890625 
Q 35.75 6.890625 40.890625 13.453125 
Q 46.046875 20.015625 46.78125 33.40625 
Q 43.953125 29.203125 39.59375 26.953125 
Q 35.25 24.703125 29.984375 24.703125 
Q 19.046875 24.703125 12.671875 31.3125 
Q 6.296875 37.9375 6.296875 49.421875 
Q 6.296875 60.640625 12.9375 67.421875 
Q 19.578125 74.21875 30.609375 74.21875 
Q 43.265625 74.21875 49.921875 64.515625 
Q 56.59375 54.828125 56.59375 36.375 
Q 56.59375 19.140625 48.40625 8.859375 
Q 40.234375 -1.421875 26.421875 -1.421875 
Q 22.703125 -1.421875 18.890625 -0.6875 
Q 15.09375 0.046875 10.984375 1.515625 
z
M 30.609375 32.421875 
Q 37.25 32.421875 41.125 36.953125 
Q 45.015625 41.5 45.015625 49.421875 
Q 45.015625 57.28125 41.125 61.84375 
Q 37.25 66.40625 30.609375 66.40625 
Q 23.96875 66.40625 20.09375 61.84375 
Q 16.21875 57.28125 16.21875 49.421875 
Q 16.21875 41.5 20.09375 36.953125 
Q 23.96875 32.421875 30.609375 32.421875 
z
" id="DejaVuSans-39"/>
      </defs>
      <g transform="translate(430.075 399.078438)scale(0.1 -0.1)">
       <use xlink:href="#DejaVuSans-32"/>
       <use x="63.623047" xlink:href="#DejaVuSans-30"/>
       <use x="127.246094" xlink:href="#DejaVuSans-30"/>
       <use x="190.869141" xlink:href="#DejaVuSans-39"/>
      </g>
     </g>
    </g>
    <g id="xtick_9">
     <g id="line2d_9">
      <g>
       <use style="stroke:#000000;stroke-width:0.8;" x="484.926455" xlink:href="#m2c755fdbd2" y="384.48"/>
      </g>
     </g>
     <g id="text_9">
      <!-- 2010 -->
      <defs>
       <path d="M 12.40625 8.296875 
L 28.515625 8.296875 
L 28.515625 63.921875 
L 10.984375 60.40625 
L 10.984375 69.390625 
L 28.421875 72.90625 
L 38.28125 72.90625 
L 38.28125 8.296875 
L 54.390625 8.296875 
L 54.390625 0 
L 12.40625 0 
z
" id="DejaVuSans-31"/>
      </defs>
      <g transform="translate(472.201455 399.078438)scale(0.1 -0.1)">
       <use xlink:href="#DejaVuSans-32"/>
       <use x="63.623047" xlink:href="#DejaVuSans-30"/>
       <use x="127.246094" xlink:href="#DejaVuSans-31"/>
       <use x="190.869141" xlink:href="#DejaVuSans-30"/>
      </g>
     </g>
    </g>
    <g id="xtick_10">
     <g id="line2d_10">
      <g>
       <use style="stroke:#000000;stroke-width:0.8;" x="527.05291" xlink:href="#m2c755fdbd2" y="384.48"/>
      </g>
     </g>
     <g id="text_10">
      <!-- 2011 -->
      <g transform="translate(514.32791 399.078438)scale(0.1 -0.1)">
       <use xlink:href="#DejaVuSans-32"/>
       <use x="63.623047" xlink:href="#DejaVuSans-30"/>
       <use x="127.246094" xlink:href="#DejaVuSans-31"/>
       <use x="190.869141" xlink:href="#DejaVuSans-31"/>
      </g>
     </g>
    </g>
    <g id="xtick_11">
     <g id="line2d_11">
      <g>
       <use style="stroke:#000000;stroke-width:0.8;" x="569.179365" xlink:href="#m2c755fdbd2" y="384.48"/>
      </g>
     </g>
     <g id="text_11">
      <!-- 2012 -->
      <g transform="translate(556.454365 399.078438)scale(0.1 -0.1)">
       <use xlink:href="#DejaVuSans-32"/>
       <use x="63.623047" xlink:href="#DejaVuSans-30"/>
       <use x="127.246094" xlink:href="#DejaVuSans-31"/>
       <use x="190.869141" xlink:href="#DejaVuSans-32"/>
      </g>
     </g>
    </g>
    <g id="xtick_12">
     <g id="line2d_12">
      <g>
       <use style="stroke:#000000;stroke-width:0.8;" x="611.305819" xlink:href="#m2c755fdbd2" y="384.48"/>
      </g>
     </g>
     <g id="text_12">
      <!-- 2013 -->
      <g transform="translate(598.580819 399.078438)scale(0.1 -0.1)">
       <use xlink:href="#DejaVuSans-32"/>
       <use x="63.623047" xlink:href="#DejaVuSans-30"/>
       <use x="127.246094" xlink:href="#DejaVuSans-31"/>
       <use x="190.869141" xlink:href="#DejaVuSans-33"/>
      </g>
     </g>
    </g>
    <g id="xtick_13">
     <g id="line2d_13">
      <g>
       <use style="stroke:#000000;stroke-width:0.8;" x="653.432274" xlink:href="#m2c755fdbd2" y="384.48"/>
      </g>
     </g>
     <g id="text_13">
      <!-- 2014 -->
      <g transform="translate(640.707274 399.078438)scale(0.1 -0.1)">
       <use xlink:href="#DejaVuSans-32"/>
       <use x="63.623047" xlink:href="#DejaVuSans-30"/>
       <use x="127.246094" xlink:href="#DejaVuSans-31"/>
       <use x="190.869141" xlink:href="#DejaVuSans-34"/>
      </g>
     </g>
    </g>
    <g id="xtick_14">
     <g id="line2d_14">
      <g>
       <use style="stroke:#000000;stroke-width:0.8;" x="695.558729" xlink:href="#m2c755fdbd2" y="384.48"/>
      </g>
     </g>
     <g id="text_14">
      <!-- 2015 -->
      <g transform="translate(682.833729 399.078438)scale(0.1 -0.1)">
       <use xlink:href="#DejaVuSans-32"/>
       <use x="63.623047" xlink:href="#DejaVuSans-30"/>
       <use x="127.246094" xlink:href="#DejaVuSans-31"/>
       <use x="190.869141" xlink:href="#DejaVuSans-35"/>
      </g>
     </g>
    </g>
    <g id="xtick_15">
     <g id="line2d_15">
      <g>
       <use style="stroke:#000000;stroke-width:0.8;" x="737.685184" xlink:href="#m2c755fdbd2" y="384.48"/>
      </g>
     </g>
     <g id="text_15">
      <!-- 2016 -->
      <g transform="translate(724.960184 399.078438)scale(0.1 -0.1)">
       <use xlink:href="#DejaVuSans-32"/>
       <use x="63.623047" xlink:href="#DejaVuSans-30"/>
       <use x="127.246094" xlink:href="#DejaVuSans-31"/>
       <use x="190.869141" xlink:href="#DejaVuSans-36"/>
      </g>
     </g>
    </g>
   </g>
   <g id="matplotlib.axis_2">
    <g id="ytick_1">
     <g id="line2d_16">
      <path clip-path="url(#pd563a25654)" d="M 108 384.48 
L 777.6 384.48 
" style="fill:none;stroke:#b0b0b0;stroke-dasharray:2.96,1.28;stroke-dashoffset:0;stroke-width:0.8;"/>
     </g>
     <g id="line2d_17">
      <defs>
       <path d="M 0 0 
L -3.5 0 
" id="m6d29708e27" style="stroke:#000000;stroke-width:0.8;"/>
      </defs>
      <g>
       <use style="stroke:#000000;stroke-width:0.8;" x="108" xlink:href="#m6d29708e27" y="384.48"/>
      </g>
     </g>
     <g id="text_16">
      <!-- 0 -->
      <g transform="translate(94.6375 388.279219)scale(0.1 -0.1)">
       <use xlink:href="#DejaVuSans-30"/>
      </g>
     </g>
    </g>
    <g id="ytick_2">
     <g id="line2d_18">
      <path clip-path="url(#pd563a25654)" d="M 108 314.77703 
L 777.6 314.77703 
" style="fill:none;stroke:#b0b0b0;stroke-dasharray:2.96,1.28;stroke-dashoffset:0;stroke-width:0.8;"/>
     </g>
     <g id="line2d_19">
      <g>
       <use style="stroke:#000000;stroke-width:0.8;" x="108" xlink:href="#m6d29708e27" y="314.77703"/>
      </g>
     </g>
     <g id="text_17">
      <!-- 200 -->
      <g transform="translate(81.9125 318.576248)scale(0.1 -0.1)">
       <use xlink:href="#DejaVuSans-32"/>
       <use x="63.623047" xlink:href="#DejaVuSans-30"/>
       <use x="127.246094" xlink:href="#DejaVuSans-30"/>
      </g>
     </g>
    </g>
    <g id="ytick_3">
     <g id="line2d_20">
      <path clip-path="url(#pd563a25654)" d="M 108 245.074059 
L 777.6 245.074059 
" style="fill:none;stroke:#b0b0b0;stroke-dasharray:2.96,1.28;stroke-dashoffset:0;stroke-width:0.8;"/>
     </g>
     <g id="line2d_21">
      <g>
       <use style="stroke:#000000;stroke-width:0.8;" x="108" xlink:href="#m6d29708e27" y="245.074059"/>
      </g>
     </g>
     <g id="text_18">
      <!-- 400 -->
      <g transform="translate(81.9125 248.873278)scale(0.1 -0.1)">
       <use xlink:href="#DejaVuSans-34"/>
       <use x="63.623047" xlink:href="#DejaVuSans-30"/>
       <use x="127.246094" xlink:href="#DejaVuSans-30"/>
      </g>
     </g>
    </g>
    <g id="ytick_4">
     <g id="line2d_22">
      <path clip-path="url(#pd563a25654)" d="M 108 175.371089 
L 777.6 175.371089 
" style="fill:none;stroke:#b0b0b0;stroke-dasharray:2.96,1.28;stroke-dashoffset:0;stroke-width:0.8;"/>
     </g>
     <g id="line2d_23">
      <g>
       <use style="stroke:#000000;stroke-width:0.8;" x="108" xlink:href="#m6d29708e27" y="175.371089"/>
      </g>
     </g>
     <g id="text_19">
      <!-- 600 -->
      <g transform="translate(81.9125 179.170308)scale(0.1 -0.1)">
       <use xlink:href="#DejaVuSans-36"/>
       <use x="63.623047" xlink:href="#DejaVuSans-30"/>
       <use x="127.246094" xlink:href="#DejaVuSans-30"/>
      </g>
     </g>
    </g>
    <g id="ytick_5">
     <g id="line2d_24">
      <path clip-path="url(#pd563a25654)" d="M 108 105.668119 
L 777.6 105.668119 
" style="fill:none;stroke:#b0b0b0;stroke-dasharray:2.96,1.28;stroke-dashoffset:0;stroke-width:0.8;"/>
     </g>
     <g id="line2d_25">
      <g>
       <use style="stroke:#000000;stroke-width:0.8;" x="108" xlink:href="#m6d29708e27" y="105.668119"/>
      </g>
     </g>
     <g id="text_20">
      <!-- 800 -->
      <g transform="translate(81.9125 109.467338)scale(0.1 -0.1)">
       <use xlink:href="#DejaVuSans-38"/>
       <use x="63.623047" xlink:href="#DejaVuSans-30"/>
       <use x="127.246094" xlink:href="#DejaVuSans-30"/>
      </g>
     </g>
    </g>
   </g>
   <g id="patch_33">
    <path d="M 108 384.48 
L 108 51.84 
" style="fill:none;stroke:#000000;stroke-linecap:square;stroke-linejoin:miter;stroke-width:0.8;"/>
   </g>
   <g id="patch_34">
    <path d="M 777.6 384.48 
L 777.6 51.84 
" style="fill:none;stroke:#000000;stroke-linecap:square;stroke-linejoin:miter;stroke-width:0.8;"/>
   </g>
   <g id="patch_35">
    <path d="M 108 384.48 
L 777.6 384.48 
" style="fill:none;stroke:#000000;stroke-linecap:square;stroke-linejoin:miter;stroke-width:0.8;"/>
   </g>
   <g id="patch_36">
    <path d="M 108 51.84 
L 777.6 51.84 
" style="fill:none;stroke:#000000;stroke-linecap:square;stroke-linejoin:miter;stroke-width:0.8;"/>
   </g>
   <g id="text_21">
    <!-- 净资产收益率与公司价值估计 -->
    <defs>
     <path d="M 31.453125 19.96875 
L 55.859375 19.96875 
L 55.859375 30.421875 
L 26.65625 30.421875 
L 26.65625 37.453125 
L 55.859375 37.453125 
L 55.859375 47.796875 
L 33.203125 47.796875 
L 33.203125 51.515625 
Q 31.390625 49.65625 29.59375 47.90625 
Q 27.9375 49.65625 24.3125 53.375 
Q 36.71875 65.09375 47.65625 83.640625 
L 55.078125 81.6875 
Q 53.125 78.125 51.03125 74.75 
L 80.375 74.75 
L 80.375 68.21875 
L 69.046875 54.640625 
L 89.0625 54.640625 
L 89.0625 37.453125 
L 97.953125 37.453125 
L 97.953125 30.421875 
L 89.0625 30.421875 
L 89.0625 9.125 
L 81.640625 9.125 
L 81.640625 13.140625 
L 63.484375 13.140625 
L 63.484375 0.046875 
Q 63.484375 -11.96875 51.171875 -12.0625 
Q 44.734375 -12.0625 38.875 -12.0625 
Q 38.1875 -7.859375 37.3125 -3.953125 
Q 43.453125 -4.640625 49.421875 -4.640625 
Q 55.859375 -4.640625 55.859375 1.8125 
L 55.859375 13.140625 
L 31.453125 13.140625 
z
M 70.90625 68.015625 
L 46.625 68.015625 
Q 41.703125 60.890625 36.078125 54.640625 
L 60.109375 54.640625 
z
M 14.453125 36.46875 
Q 17.96875 34.71875 21.78125 33.15625 
Q 16.609375 15.484375 11.140625 -3.765625 
L 3.21875 -0.734375 
Q 9.96875 18.109375 14.453125 36.46875 
z
M 63.484375 19.96875 
L 81.640625 19.96875 
L 81.640625 30.421875 
L 63.484375 30.421875 
z
M 10.359375 76.421875 
Q 16.609375 65.671875 21.96875 54.828125 
Q 17.96875 52.6875 14.65625 51.125 
Q 9.671875 62.359375 4 73.09375 
z
M 81.640625 47.796875 
L 63.484375 47.796875 
L 63.484375 37.453125 
L 81.640625 37.453125 
z
" id="MicrosoftYaHei-51c0"/>
     <path d="M 28.609375 42.4375 
Q 57.90625 49.953125 60.359375 67.828125 
L 44.734375 67.828125 
Q 41.21875 60.59375 36.921875 54.828125 
Q 33.796875 56.984375 30.375 59.03125 
Q 39.546875 69.875 43.359375 84.125 
L 50.6875 82.375 
Q 49.21875 78.078125 47.65625 74.265625 
L 93.953125 74.265625 
L 93.953125 68.109375 
L 87.3125 54.828125 
Q 83.984375 56.390625 80.171875 57.859375 
L 85.359375 67.828125 
L 67.96875 67.828125 
Q 67.1875 64.703125 66.21875 61.765625 
Q 74.609375 47.90625 97.75 42.53125 
Q 95.015625 38.8125 92.875 35.40625 
Q 72.078125 42.046875 63.1875 54.9375 
Q 56.453125 43.21875 33.59375 35.984375 
Q 31.640625 38.921875 28.609375 42.4375 
z
M 16.015625 35.59375 
L 83.890625 35.59375 
L 83.890625 3.765625 
L 76.265625 3.765625 
L 76.265625 28.765625 
L 23.640625 28.765625 
L 23.640625 3.765625 
L 16.015625 3.765625 
z
M 27.25 61.28125 
Q 29 57.46875 31.0625 54.34375 
Q 19.4375 45.65625 6.84375 35.5 
L 1.765625 42.140625 
Q 15.53125 51.609375 27.25 61.28125 
z
M 9.859375 82.46875 
Q 18.265625 77.203125 26.171875 71.53125 
L 21.1875 65.484375 
Q 14.15625 71.046875 5.5625 77.09375 
z
M 53.8125 25.046875 
Q 53.71875 14.5 52.34375 8.84375 
Q 74.609375 1.609375 94.828125 -6.203125 
L 90.71875 -13.328125 
Q 72.265625 -5.71875 49.609375 2.390625 
Q 43.0625 -9.234375 7.90625 -13.71875 
Q 6.15625 -10.015625 3.71875 -6.109375 
Q 36.03125 -3.265625 42.78125 6 
Q 46.390625 10.890625 46.1875 25.046875 
z
" id="MicrosoftYaHei-8d44"/>
     <path d="M 11.625 43.890625 
L 57.8125 43.890625 
Q 64.40625 53.609375 69.625 63.234375 
L 77.15625 58.453125 
Q 71.96875 51.171875 66.3125 43.890625 
L 95.21875 43.890625 
L 95.21875 37.0625 
L 19.53125 37.0625 
L 19.53125 30.21875 
Q 19.53125 12.9375 16.890625 4.4375 
Q 14.15625 -5.03125 6.546875 -13.328125 
Q 4 -10.203125 1.265625 -6.6875 
Q 7.03125 -0.53125 9.375 7.765625 
Q 11.625 15.875 11.625 30.21875 
z
M 3.609375 71.828125 
L 48.1875 71.828125 
Q 46.046875 75.828125 43.453125 80.03125 
L 50.6875 83.640625 
Q 53.859375 78.46875 57.171875 71.828125 
L 97.75 71.828125 
L 97.75 64.890625 
L 3.609375 64.890625 
z
M 24.03125 59.328125 
L 30.46875 63.625 
Q 36.53125 56 41.21875 49.171875 
L 34.28125 44.390625 
Q 30.46875 50.828125 24.03125 59.328125 
z
" id="MicrosoftYaHei-4ea7"/>
     <path d="M 35.0625 41.546875 
Q 47.5625 63.234375 53.125 83.453125 
L 61.03125 81.203125 
Q 57.90625 72.171875 54.5 63.921875 
L 97.078125 63.921875 
L 97.078125 56.6875 
L 85.59375 56.6875 
Q 84.125 28.421875 71.09375 10.640625 
Q 81 1.859375 99.21875 -4.640625 
Q 96.1875 -8.453125 93.65625 -12.453125 
Q 76.265625 -5.03125 65.921875 4.6875 
Q 56.5 -4.59375 39.84375 -13.328125 
Q 37.796875 -10.109375 34.859375 -6.78125 
Q 51.515625 1.5625 60.59375 10.5 
Q 49.3125 24.609375 46 45.5625 
Q 43.265625 40.234375 40.328125 35.296875 
Q 38.484375 38.140625 35.0625 41.546875 
z
M 26.265625 82.671875 
L 33.6875 82.671875 
L 33.6875 -12.75 
L 26.265625 -12.75 
L 26.265625 17.390625 
Q 20.3125 14.0625 14.15625 10.015625 
Q 11.625 8.15625 9.1875 5.609375 
L 3.609375 12.15625 
Q 6.640625 15.375 6.640625 20.5625 
L 6.640625 69 
L 14.0625 69 
L 14.0625 19 
Q 19.875 22.078125 26.265625 25.53125 
z
M 77.875 56.6875 
L 51.90625 56.6875 
Q 53.328125 32.859375 65.671875 16.546875 
Q 76.8125 32.234375 77.875 56.6875 
z
" id="MicrosoftYaHei-6536"/>
     <path d="M 1.765625 -1.609375 
L 15.921875 -1.609375 
L 15.921875 31.203125 
L 84.46875 31.203125 
L 84.46875 -1.609375 
L 97.953125 -1.609375 
L 97.953125 -8.453125 
L 1.765625 -8.453125 
z
M 4.109375 64.3125 
L 57.375 64.3125 
Q 66.015625 72.65625 74.125 83.34375 
L 81.25 78.859375 
Q 74.609375 71.140625 67.671875 64.3125 
L 96.484375 64.3125 
L 96.484375 57.46875 
L 4.109375 57.46875 
z
M 77.4375 24.5625 
L 63.765625 24.5625 
L 63.765625 -1.609375 
L 77.4375 -1.609375 
z
M 22.953125 -1.609375 
L 36.53125 -1.609375 
L 36.53125 24.5625 
L 22.953125 24.5625 
z
M 43.359375 -1.609375 
L 56.9375 -1.609375 
L 56.9375 24.5625 
L 43.359375 24.5625 
z
M 36.53125 54.4375 
L 41.3125 48.09375 
Q 26.078125 38.8125 7.125 29.25 
Q 5.171875 33.0625 3.125 36.078125 
Q 21.390625 44.875 36.53125 54.4375 
z
M 59.28125 48.296875 
L 63.28125 54.25 
Q 82.8125 45.0625 97.078125 37.25 
L 92.78125 30.03125 
Q 73.53125 41.15625 59.28125 48.296875 
z
M 19.34375 78.375 
L 24.421875 83.453125 
Q 32.8125 77.390625 39.546875 71.625 
L 33.984375 65.765625 
Q 27.640625 71.828125 19.34375 78.375 
z
" id="MicrosoftYaHei-76ca"/>
     <path d="M 39.453125 31.390625 
Q 40.96875 31.5 61.375 32.515625 
Q 58.9375 35.9375 56.640625 38.921875 
L 61.921875 42.234375 
Q 68.953125 34.421875 74.90625 25.828125 
L 68.65625 21.921875 
Q 66.9375 24.515625 65.28125 26.953125 
Q 46.734375 25.921875 34.578125 24.953125 
Q 32.421875 24.75 29.390625 24.078125 
L 26.953125 30.71875 
Q 29.890625 31.6875 31.34375 32.5625 
Q 39.59375 38.140625 47.65625 45.515625 
Q 40.578125 45.21875 35.546875 44.78125 
Q 33.5 44.484375 31.0625 43.890625 
L 28.125 49.859375 
Q 30.5625 50.734375 32.625 52.59375 
Q 39.203125 58.15625 44.921875 66.0625 
L 3.609375 66.0625 
L 3.609375 72.90625 
L 47.359375 72.90625 
Q 44.96875 77.25 42.875 80.515625 
L 49.90625 83.9375 
Q 53.71875 78.125 56.5 72.90625 
L 96.484375 72.90625 
L 96.484375 66.0625 
L 47.703125 66.0625 
L 52.34375 63.625 
Q 44.4375 55.515625 38.96875 50.734375 
Q 44.53125 50.875 53.515625 51.078125 
Q 57.421875 54.984375 61.328125 59.328125 
L 68.0625 55.421875 
Q 52.546875 40.671875 39.453125 31.390625 
z
M 2.25 15.484375 
L 46.78125 15.484375 
L 46.78125 24.078125 
L 54.5 24.078125 
L 54.5 15.484375 
L 98.046875 15.484375 
L 98.046875 8.640625 
L 54.5 8.640625 
L 54.5 -13.328125 
L 46.78125 -13.328125 
L 46.78125 8.640625 
L 2.25 8.640625 
z
M 26.859375 41.75 
L 30.375 35.984375 
Q 18.75 29.15625 6.640625 22.015625 
L 2.546875 28.5625 
Q 12.703125 33.34375 26.859375 41.75 
z
M 75.875 41.84375 
Q 89.84375 33.9375 97.65625 28.375 
L 93.359375 22.015625 
Q 83.296875 29.828125 71.875 36.578125 
z
M 93.65625 56.109375 
Q 86.234375 49.65625 77.546875 43.890625 
L 72.5625 49.078125 
Q 81.9375 55.21875 88.09375 61.375 
z
M 5.671875 56.78125 
L 10.640625 61.578125 
Q 18.75 55.125 24.8125 49.359375 
L 19.34375 44 
Q 13.671875 49.953125 5.671875 56.78125 
z
" id="MicrosoftYaHei-7387"/>
     <path d="M 18.171875 37.25 
L 18.171875 44.671875 
L 22.078125 83.25 
L 30.171875 83.25 
L 28.65625 67.71875 
L 97.953125 67.71875 
L 97.953125 60.296875 
L 27.984375 60.296875 
L 26.46875 44.671875 
L 90.828125 44.671875 
Q 89.65625 24.171875 88.1875 6.5 
Q 86.8125 -3.859375 82.234375 -7.46875 
Q 77.828125 -10.984375 67.53125 -10.984375 
Q 57.90625 -10.890625 45.3125 -10.59375 
Q 44.734375 -7.28125 43.65625 -2.09375 
Q 58.5 -3.171875 65.828125 -3.265625 
Q 78.90625 -4.15625 80.078125 6.984375 
Q 81.34375 19.96875 82.234375 37.25 
z
M 1.65625 22.015625 
L 74.03125 22.015625 
L 74.03125 14.59375 
L 1.65625 14.59375 
z
" id="MicrosoftYaHei-4e0e"/>
     <path d="M 64.75 24.859375 
Q 78.8125 6.59375 88.484375 -8.34375 
L 81.0625 -13.234375 
Q 78.328125 -8.734375 75.25 -3.90625 
Q 43.015625 -5.46875 22.859375 -7.078125 
Q 19.140625 -7.46875 13.875 -8.734375 
L 9.578125 -0.4375 
Q 13.96875 1.3125 17.671875 4.9375 
Q 29.109375 18.109375 42.484375 43.890625 
L 50.875 40.09375 
Q 38.765625 19.28125 25 1.21875 
Q 45.171875 1.859375 70.65625 3.03125 
Q 65.09375 11.46875 58.40625 20.84375 
z
M 56.34375 77.390625 
L 63.578125 80.21875 
Q 73.046875 54.734375 98.828125 39.796875 
Q 96.1875 37.0625 92.78125 32.171875 
Q 65.828125 50.734375 56.34375 77.390625 
z
M 1.171875 36.96875 
Q 22.953125 54.734375 33.6875 78.859375 
L 41.40625 75.640625 
Q 28.21875 48.1875 7.421875 30.71875 
Q 4.890625 33.9375 1.171875 36.96875 
z
" id="MicrosoftYaHei-516c"/>
     <path d="M 12.5 40.09375 
L 63.765625 40.09375 
L 63.765625 5.515625 
L 20.21875 5.515625 
L 20.21875 -1.609375 
L 12.5 -1.609375 
z
M 8.40625 70.75 
L 8.40625 77.984375 
L 92.78125 77.984375 
L 92.78125 2 
Q 92.78125 -11.859375 80.28125 -11.859375 
Q 73.25 -11.859375 61.03125 -11.765625 
Q 60.75 -8.453125 59.375 -3.375 
Q 71.296875 -4.046875 78.03125 -4.046875 
Q 84.765625 -4.046875 84.765625 3.765625 
L 84.765625 70.75 
z
M 56.0625 12.546875 
L 56.0625 33.0625 
L 20.21875 33.0625 
L 20.21875 12.546875 
z
M 2.828125 58.84375 
L 77.25 58.84375 
L 77.25 51.609375 
L 2.828125 51.609375 
z
" id="MicrosoftYaHei-53f8"/>
     <path d="M 1.078125 33.84375 
Q 14.265625 54.4375 21.6875 82.171875 
L 29.296875 79.828125 
Q 25.78125 68.609375 21.875 58.84375 
L 21.875 -13.328125 
L 14.546875 -13.328125 
L 14.546875 42.53125 
Q 9.671875 32.953125 4.390625 25.34375 
Q 2.546875 30.609375 1.078125 33.84375 
z
M 67.484375 82.375 
L 66.109375 79.9375 
Q 78.21875 58.546875 98.734375 49.078125 
Q 96.1875 46.140625 93.359375 42.234375 
Q 73.53125 53.65625 62.109375 73.484375 
Q 51.171875 54.640625 31.25 40.671875 
Q 28.90625 44.09375 26.171875 46.828125 
Q 48.25 60.6875 58.6875 82.375 
z
M 51.765625 44.1875 
L 51.765625 30.328125 
Q 51.765625 2.09375 35.546875 -13.921875 
Q 32.71875 -11.078125 29 -8.453125 
Q 44.140625 5.421875 44.140625 29.640625 
L 44.140625 44.1875 
z
M 72.359375 44.1875 
L 79.984375 44.1875 
L 79.984375 -12.9375 
L 72.359375 -12.9375 
z
" id="MicrosoftYaHei-4ef7"/>
     <path d="M 25.296875 -3.375 
L 35.15625 -3.375 
L 35.15625 57.078125 
L 58.203125 57.078125 
L 58.203125 65.96875 
L 29.890625 65.96875 
L 29.890625 72.609375 
L 58.203125 72.609375 
L 58.203125 82.953125 
L 65.625 82.953125 
L 65.625 72.609375 
L 96.390625 72.609375 
L 96.390625 65.96875 
L 65.625 65.96875 
L 65.625 57.078125 
L 89.265625 57.078125 
L 89.265625 -3.375 
L 98.53125 -3.375 
L 98.53125 -10.015625 
L 25.296875 -10.015625 
z
M 1.078125 35.109375 
Q 14.15625 54.640625 21.390625 82.46875 
L 28.609375 80.328125 
Q 24.703125 67.71875 20.125 56.6875 
L 20.125 -12.75 
L 12.984375 -12.75 
L 12.984375 41.65625 
Q 8.796875 33.84375 4.109375 27.09375 
Q 2.734375 31.203125 1.078125 35.109375 
z
M 42.390625 -3.375 
L 82.03125 -3.375 
L 82.03125 5.515625 
L 42.390625 5.515625 
z
M 82.03125 50.640625 
L 42.390625 50.640625 
L 42.390625 41.84375 
L 82.03125 41.84375 
z
M 42.390625 26.8125 
L 82.03125 26.8125 
L 82.03125 35.59375 
L 42.390625 35.59375 
z
M 42.390625 11.765625 
L 82.03125 11.765625 
L 82.03125 20.5625 
L 42.390625 20.5625 
z
" id="MicrosoftYaHei-503c"/>
     <path d="M 35.15625 35.6875 
L 59.078125 35.6875 
L 59.078125 55.515625 
L 28.125 55.515625 
L 28.125 62.75 
L 59.078125 62.75 
L 59.078125 83.0625 
L 67.09375 83.0625 
L 67.09375 62.75 
L 98.4375 62.75 
L 98.4375 55.515625 
L 67.09375 55.515625 
L 67.09375 35.6875 
L 91.109375 35.6875 
L 91.109375 -13.140625 
L 83.109375 -13.140625 
L 83.109375 -5.515625 
L 43.171875 -5.515625 
L 43.171875 -13.140625 
L 35.15625 -13.140625 
z
M 83.109375 28.46875 
L 43.171875 28.46875 
L 43.171875 1.515625 
L 83.109375 1.515625 
z
M 0.6875 35.296875 
Q 14.359375 55.609375 22.359375 83.546875 
L 30.375 81.203125 
Q 26.765625 70.21875 22.75 60.59375 
L 22.75 -13.328125 
L 15.046875 -13.328125 
L 15.046875 44.28125 
Q 9.90625 34.578125 4.203125 26.8125 
Q 2.734375 31 0.6875 35.296875 
z
" id="MicrosoftYaHei-4f30"/>
     <path d="M 32.8125 49.265625 
L 61.234375 49.265625 
L 61.234375 82.859375 
L 69.625 82.859375 
L 69.625 49.265625 
L 98.25 49.265625 
L 98.25 42.234375 
L 69.625 42.234375 
L 69.625 -12.84375 
L 61.234375 -12.84375 
L 61.234375 42.234375 
L 32.8125 42.234375 
z
M 41.796875 14.109375 
Q 42.09375 9.03125 42.484375 5.609375 
Q 26.859375 -4.15625 16.703125 -11.375 
L 12.015625 -4.734375 
Q 15.4375 -1.8125 15.4375 4.15625 
L 15.4375 42.828125 
L 1.5625 42.828125 
L 1.5625 49.859375 
L 23.25 49.859375 
L 23.25 2.390625 
Q 31.734375 7.5625 41.796875 14.109375 
z
M 11.53125 81.59375 
Q 22.171875 70.65625 26.953125 65.375 
L 20.125 59.625 
Q 13.96875 67.71875 5.5625 76.421875 
z
" id="MicrosoftYaHei-8ba1"/>
    </defs>
    <g transform="translate(364.8 45.84)scale(0.12 -0.12)">
     <use xlink:href="#MicrosoftYaHei-51c0"/>
     <use x="100" xlink:href="#MicrosoftYaHei-8d44"/>
     <use x="200" xlink:href="#MicrosoftYaHei-4ea7"/>
     <use x="300" xlink:href="#MicrosoftYaHei-6536"/>
     <use x="400" xlink:href="#MicrosoftYaHei-76ca"/>
     <use x="500" xlink:href="#MicrosoftYaHei-7387"/>
     <use x="600" xlink:href="#MicrosoftYaHei-4e0e"/>
     <use x="700" xlink:href="#MicrosoftYaHei-516c"/>
     <use x="800" xlink:href="#MicrosoftYaHei-53f8"/>
     <use x="900" xlink:href="#MicrosoftYaHei-4ef7"/>
     <use x="1000" xlink:href="#MicrosoftYaHei-503c"/>
     <use x="1100" xlink:href="#MicrosoftYaHei-4f30"/>
     <use x="1200" xlink:href="#MicrosoftYaHei-8ba1"/>
    </g>
   </g>
  </g>
  <g id="axes_2">
   <g id="matplotlib.axis_3">
    <g id="ytick_6">
     <g id="line2d_26">
      <defs>
       <path d="M 0 0 
L 3.5 0 
" id="m60d2a92591" style="stroke:#000000;stroke-width:0.8;"/>
      </defs>
      <g>
       <use style="stroke:#000000;stroke-width:0.8;" x="777.6" xlink:href="#m60d2a92591" y="369.36"/>
      </g>
     </g>
     <g id="text_22">
      <!-- 0 -->
      <g transform="translate(784.6 373.159219)scale(0.1 -0.1)">
       <use xlink:href="#DejaVuSans-30"/>
      </g>
     </g>
    </g>
    <g id="ytick_7">
     <g id="line2d_27">
      <g>
       <use style="stroke:#000000;stroke-width:0.8;" x="777.6" xlink:href="#m60d2a92591" y="327.638146"/>
      </g>
     </g>
     <g id="text_23">
      <!-- 5 -->
      <g transform="translate(784.6 331.437364)scale(0.1 -0.1)">
       <use xlink:href="#DejaVuSans-35"/>
      </g>
     </g>
    </g>
    <g id="ytick_8">
     <g id="line2d_28">
      <g>
       <use style="stroke:#000000;stroke-width:0.8;" x="777.6" xlink:href="#m60d2a92591" y="285.916291"/>
      </g>
     </g>
     <g id="text_24">
      <!-- 10 -->
      <g transform="translate(784.6 289.71551)scale(0.1 -0.1)">
       <use xlink:href="#DejaVuSans-31"/>
       <use x="63.623047" xlink:href="#DejaVuSans-30"/>
      </g>
     </g>
    </g>
    <g id="ytick_9">
     <g id="line2d_29">
      <g>
       <use style="stroke:#000000;stroke-width:0.8;" x="777.6" xlink:href="#m60d2a92591" y="244.194437"/>
      </g>
     </g>
     <g id="text_25">
      <!-- 15 -->
      <g transform="translate(784.6 247.993656)scale(0.1 -0.1)">
       <use xlink:href="#DejaVuSans-31"/>
       <use x="63.623047" xlink:href="#DejaVuSans-35"/>
      </g>
     </g>
    </g>
    <g id="ytick_10">
     <g id="line2d_30">
      <g>
       <use style="stroke:#000000;stroke-width:0.8;" x="777.6" xlink:href="#m60d2a92591" y="202.472583"/>
      </g>
     </g>
     <g id="text_26">
      <!-- 20 -->
      <g transform="translate(784.6 206.271802)scale(0.1 -0.1)">
       <use xlink:href="#DejaVuSans-32"/>
       <use x="63.623047" xlink:href="#DejaVuSans-30"/>
      </g>
     </g>
    </g>
    <g id="ytick_11">
     <g id="line2d_31">
      <g>
       <use style="stroke:#000000;stroke-width:0.8;" x="777.6" xlink:href="#m60d2a92591" y="160.750728"/>
      </g>
     </g>
     <g id="text_27">
      <!-- 25 -->
      <g transform="translate(784.6 164.549947)scale(0.1 -0.1)">
       <use xlink:href="#DejaVuSans-32"/>
       <use x="63.623047" xlink:href="#DejaVuSans-35"/>
      </g>
     </g>
    </g>
    <g id="ytick_12">
     <g id="line2d_32">
      <g>
       <use style="stroke:#000000;stroke-width:0.8;" x="777.6" xlink:href="#m60d2a92591" y="119.028874"/>
      </g>
     </g>
     <g id="text_28">
      <!-- 30 -->
      <g transform="translate(784.6 122.828093)scale(0.1 -0.1)">
       <use xlink:href="#DejaVuSans-33"/>
       <use x="63.623047" xlink:href="#DejaVuSans-30"/>
      </g>
     </g>
    </g>
    <g id="ytick_13">
     <g id="line2d_33">
      <g>
       <use style="stroke:#000000;stroke-width:0.8;" x="777.6" xlink:href="#m60d2a92591" y="77.30702"/>
      </g>
     </g>
     <g id="text_29">
      <!-- 35 -->
      <g transform="translate(784.6 81.106239)scale(0.1 -0.1)">
       <use xlink:href="#DejaVuSans-33"/>
       <use x="63.623047" xlink:href="#DejaVuSans-35"/>
      </g>
     </g>
    </g>
   </g>
   <path clip-path="url(#pd563a25654)" d="M 144.649009 371.36 
L 186.775464 371.36 
L 228.901919 371.36 
L 271.028374 371.36 
L 313.154829 371.36 
L 355.281283 156.075232 
L 397.407738 127.537483 
L 439.534193 112.934834 
L 481.660648 88.736159 
L 523.787103 68.96 
L 565.913558 166.255364 
L 608.040013 146.979868 
L 650.166467 153.905695 
L 692.292922 159.913642 
L 734.419377 112.517616 
" style="fill:none;opacity:0.3;stroke:#000000;stroke-linecap:square;stroke-width:2.5;"/>
   <path clip-path="url(#pd563a25654)" d="M 142.649009 369.36 
L 184.775464 369.36 
L 226.901919 369.36 
L 269.028374 369.36 
L 311.154829 369.36 
L 353.281283 154.075232 
L 395.407738 125.537483 
L 437.534193 110.934834 
L 479.660648 86.736159 
L 521.787103 66.96 
L 563.913558 164.255364 
L 606.040013 144.979868 
L 648.166467 151.905695 
L 690.292922 157.913642 
L 732.419377 110.517616 
" style="fill:none;stroke:#c00000;stroke-linecap:square;stroke-width:2.5;"/>
   <path clip-path="url(#pd563a25654)" d="M 144.649009 368.36 
L 143.975467 370.432949 
L 141.79584 370.432949 
L 143.559195 371.714102 
L 142.885653 373.787051 
L 144.649009 372.505898 
L 146.412365 373.787051 
L 145.738823 371.714102 
L 147.502179 370.432949 
L 145.322551 370.432949 
z
" style="fill:none;opacity:0.3;stroke:#000000;stroke-linejoin:bevel;"/>
   <path clip-path="url(#pd563a25654)" d="M 186.775464 368.36 
L 186.101922 370.432949 
L 183.922294 370.432949 
L 185.68565 371.714102 
L 185.012108 373.787051 
L 186.775464 372.505898 
L 188.53882 373.787051 
L 187.865278 371.714102 
L 189.628634 370.432949 
L 187.449006 370.432949 
z
" style="fill:none;opacity:0.3;stroke:#000000;stroke-linejoin:bevel;"/>
   <path clip-path="url(#pd563a25654)" d="M 228.901919 368.36 
L 228.228377 370.432949 
L 226.048749 370.432949 
L 227.812105 371.714102 
L 227.138563 373.787051 
L 228.901919 372.505898 
L 230.665275 373.787051 
L 229.991733 371.714102 
L 231.755088 370.432949 
L 229.575461 370.432949 
z
" style="fill:none;opacity:0.3;stroke:#000000;stroke-linejoin:bevel;"/>
   <path clip-path="url(#pd563a25654)" d="M 271.028374 368.36 
L 270.354832 370.432949 
L 268.175204 370.432949 
L 269.93856 371.714102 
L 269.265018 373.787051 
L 271.028374 372.505898 
L 272.791729 373.787051 
L 272.118187 371.714102 
L 273.881543 370.432949 
L 271.701916 370.432949 
z
" style="fill:none;opacity:0.3;stroke:#000000;stroke-linejoin:bevel;"/>
   <path clip-path="url(#pd563a25654)" d="M 313.154829 368.36 
L 312.481287 370.432949 
L 310.301659 370.432949 
L 312.065015 371.714102 
L 311.391473 373.787051 
L 313.154829 372.505898 
L 314.918184 373.787051 
L 314.244642 371.714102 
L 316.007998 370.432949 
L 313.828371 370.432949 
z
" style="fill:none;opacity:0.3;stroke:#000000;stroke-linejoin:bevel;"/>
   <path clip-path="url(#pd563a25654)" d="M 355.281283 153.075232 
L 354.607741 155.148181 
L 352.428114 155.148181 
L 354.19147 156.429334 
L 353.517928 158.502283 
L 355.281283 157.22113 
L 357.044639 158.502283 
L 356.371097 156.429334 
L 358.134453 155.148181 
L 355.954825 155.148181 
z
" style="fill:none;opacity:0.3;stroke:#000000;stroke-linejoin:bevel;"/>
   <path clip-path="url(#pd563a25654)" d="M 397.407738 124.537483 
L 396.734196 126.610432 
L 394.554569 126.610432 
L 396.317925 127.891585 
L 395.644383 129.964534 
L 397.407738 128.683381 
L 399.171094 129.964534 
L 398.497552 127.891585 
L 400.260908 126.610432 
L 398.08128 126.610432 
z
" style="fill:none;opacity:0.3;stroke:#000000;stroke-linejoin:bevel;"/>
   <path clip-path="url(#pd563a25654)" d="M 439.534193 109.934834 
L 438.860651 112.007783 
L 436.681024 112.007783 
L 438.444379 113.288936 
L 437.770837 115.361885 
L 439.534193 114.080732 
L 441.297549 115.361885 
L 440.624007 113.288936 
L 442.387363 112.007783 
L 440.207735 112.007783 
z
" style="fill:none;opacity:0.3;stroke:#000000;stroke-linejoin:bevel;"/>
   <path clip-path="url(#pd563a25654)" d="M 481.660648 85.736159 
L 480.987106 87.809108 
L 478.807478 87.809108 
L 480.570834 89.090261 
L 479.897292 91.16321 
L 481.660648 89.882057 
L 483.424004 91.16321 
L 482.750462 89.090261 
L 484.513818 87.809108 
L 482.33419 87.809108 
z
" style="fill:none;opacity:0.3;stroke:#000000;stroke-linejoin:bevel;"/>
   <path clip-path="url(#pd563a25654)" d="M 523.787103 65.96 
L 523.113561 68.032949 
L 520.933933 68.032949 
L 522.697289 69.314102 
L 522.023747 71.387051 
L 523.787103 70.105898 
L 525.550459 71.387051 
L 524.876917 69.314102 
L 526.640272 68.032949 
L 524.460645 68.032949 
z
" style="fill:none;opacity:0.3;stroke:#000000;stroke-linejoin:bevel;"/>
   <path clip-path="url(#pd563a25654)" d="M 565.913558 163.255364 
L 565.240016 165.328313 
L 563.060388 165.328313 
L 564.823744 166.609466 
L 564.150202 168.682415 
L 565.913558 167.401262 
L 567.676913 168.682415 
L 567.003371 166.609466 
L 568.766727 165.328313 
L 566.5871 165.328313 
z
" style="fill:none;opacity:0.3;stroke:#000000;stroke-linejoin:bevel;"/>
   <path clip-path="url(#pd563a25654)" d="M 608.040013 143.979868 
L 607.366471 146.052817 
L 605.186843 146.052817 
L 606.950199 147.33397 
L 606.276657 149.406919 
L 608.040013 148.125766 
L 609.803368 149.406919 
L 609.129826 147.33397 
L 610.893182 146.052817 
L 608.713555 146.052817 
z
" style="fill:none;opacity:0.3;stroke:#000000;stroke-linejoin:bevel;"/>
   <path clip-path="url(#pd563a25654)" d="M 650.166467 150.905695 
L 649.492925 152.978644 
L 647.313298 152.978644 
L 649.076654 154.259797 
L 648.403112 156.332746 
L 650.166467 155.051593 
L 651.929823 156.332746 
L 651.256281 154.259797 
L 653.019637 152.978644 
L 650.840009 152.978644 
z
" style="fill:none;opacity:0.3;stroke:#000000;stroke-linejoin:bevel;"/>
   <path clip-path="url(#pd563a25654)" d="M 692.292922 156.913642 
L 691.61938 158.986591 
L 689.439753 158.986591 
L 691.203109 160.267744 
L 690.529567 162.340693 
L 692.292922 161.05954 
L 694.056278 162.340693 
L 693.382736 160.267744 
L 695.146092 158.986591 
L 692.966464 158.986591 
z
" style="fill:none;opacity:0.3;stroke:#000000;stroke-linejoin:bevel;"/>
   <path clip-path="url(#pd563a25654)" d="M 734.419377 109.517616 
L 733.745835 111.590565 
L 731.566208 111.590565 
L 733.329563 112.871718 
L 732.656021 114.944667 
L 734.419377 113.663514 
L 736.182733 114.944667 
L 735.509191 112.871718 
L 737.272547 111.590565 
L 735.092919 111.590565 
z
" style="fill:none;opacity:0.3;stroke:#000000;stroke-linejoin:bevel;"/>
   <path clip-path="url(#pd563a25654)" d="M 142.649009 366.36 
L 141.975467 368.432949 
L 139.79584 368.432949 
L 141.559195 369.714102 
L 140.885653 371.787051 
L 142.649009 370.505898 
L 144.412365 371.787051 
L 143.738823 369.714102 
L 145.502179 368.432949 
L 143.322551 368.432949 
z
" style="fill:#c00000;stroke:#c00000;stroke-linejoin:bevel;"/>
   <path clip-path="url(#pd563a25654)" d="M 184.775464 366.36 
L 184.101922 368.432949 
L 181.922294 368.432949 
L 183.68565 369.714102 
L 183.012108 371.787051 
L 184.775464 370.505898 
L 186.53882 371.787051 
L 185.865278 369.714102 
L 187.628634 368.432949 
L 185.449006 368.432949 
z
" style="fill:#c00000;stroke:#c00000;stroke-linejoin:bevel;"/>
   <path clip-path="url(#pd563a25654)" d="M 226.901919 366.36 
L 226.228377 368.432949 
L 224.048749 368.432949 
L 225.812105 369.714102 
L 225.138563 371.787051 
L 226.901919 370.505898 
L 228.665275 371.787051 
L 227.991733 369.714102 
L 229.755088 368.432949 
L 227.575461 368.432949 
z
" style="fill:#c00000;stroke:#c00000;stroke-linejoin:bevel;"/>
   <path clip-path="url(#pd563a25654)" d="M 269.028374 366.36 
L 268.354832 368.432949 
L 266.175204 368.432949 
L 267.93856 369.714102 
L 267.265018 371.787051 
L 269.028374 370.505898 
L 270.791729 371.787051 
L 270.118187 369.714102 
L 271.881543 368.432949 
L 269.701916 368.432949 
z
" style="fill:#c00000;stroke:#c00000;stroke-linejoin:bevel;"/>
   <path clip-path="url(#pd563a25654)" d="M 311.154829 366.36 
L 310.481287 368.432949 
L 308.301659 368.432949 
L 310.065015 369.714102 
L 309.391473 371.787051 
L 311.154829 370.505898 
L 312.918184 371.787051 
L 312.244642 369.714102 
L 314.007998 368.432949 
L 311.828371 368.432949 
z
" style="fill:#c00000;stroke:#c00000;stroke-linejoin:bevel;"/>
   <path clip-path="url(#pd563a25654)" d="M 353.281283 151.075232 
L 352.607741 153.148181 
L 350.428114 153.148181 
L 352.19147 154.429334 
L 351.517928 156.502283 
L 353.281283 155.22113 
L 355.044639 156.502283 
L 354.371097 154.429334 
L 356.134453 153.148181 
L 353.954825 153.148181 
z
" style="fill:#c00000;stroke:#c00000;stroke-linejoin:bevel;"/>
   <path clip-path="url(#pd563a25654)" d="M 395.407738 122.537483 
L 394.734196 124.610432 
L 392.554569 124.610432 
L 394.317925 125.891585 
L 393.644383 127.964534 
L 395.407738 126.683381 
L 397.171094 127.964534 
L 396.497552 125.891585 
L 398.260908 124.610432 
L 396.08128 124.610432 
z
" style="fill:#c00000;stroke:#c00000;stroke-linejoin:bevel;"/>
   <path clip-path="url(#pd563a25654)" d="M 437.534193 107.934834 
L 436.860651 110.007783 
L 434.681024 110.007783 
L 436.444379 111.288936 
L 435.770837 113.361885 
L 437.534193 112.080732 
L 439.297549 113.361885 
L 438.624007 111.288936 
L 440.387363 110.007783 
L 438.207735 110.007783 
z
" style="fill:#c00000;stroke:#c00000;stroke-linejoin:bevel;"/>
   <path clip-path="url(#pd563a25654)" d="M 479.660648 83.736159 
L 478.987106 85.809108 
L 476.807478 85.809108 
L 478.570834 87.090261 
L 477.897292 89.16321 
L 479.660648 87.882057 
L 481.424004 89.16321 
L 480.750462 87.090261 
L 482.513818 85.809108 
L 480.33419 85.809108 
z
" style="fill:#c00000;stroke:#c00000;stroke-linejoin:bevel;"/>
   <path clip-path="url(#pd563a25654)" d="M 521.787103 63.96 
L 521.113561 66.032949 
L 518.933933 66.032949 
L 520.697289 67.314102 
L 520.023747 69.387051 
L 521.787103 68.105898 
L 523.550459 69.387051 
L 522.876917 67.314102 
L 524.640272 66.032949 
L 522.460645 66.032949 
z
" style="fill:#c00000;stroke:#c00000;stroke-linejoin:bevel;"/>
   <path clip-path="url(#pd563a25654)" d="M 563.913558 161.255364 
L 563.240016 163.328313 
L 561.060388 163.328313 
L 562.823744 164.609466 
L 562.150202 166.682415 
L 563.913558 165.401262 
L 565.676913 166.682415 
L 565.003371 164.609466 
L 566.766727 163.328313 
L 564.5871 163.328313 
z
" style="fill:#c00000;stroke:#c00000;stroke-linejoin:bevel;"/>
   <path clip-path="url(#pd563a25654)" d="M 606.040013 141.979868 
L 605.366471 144.052817 
L 603.186843 144.052817 
L 604.950199 145.33397 
L 604.276657 147.406919 
L 606.040013 146.125766 
L 607.803368 147.406919 
L 607.129826 145.33397 
L 608.893182 144.052817 
L 606.713555 144.052817 
z
" style="fill:#c00000;stroke:#c00000;stroke-linejoin:bevel;"/>
   <path clip-path="url(#pd563a25654)" d="M 648.166467 148.905695 
L 647.492925 150.978644 
L 645.313298 150.978644 
L 647.076654 152.259797 
L 646.403112 154.332746 
L 648.166467 153.051593 
L 649.929823 154.332746 
L 649.256281 152.259797 
L 651.019637 150.978644 
L 648.840009 150.978644 
z
" style="fill:#c00000;stroke:#c00000;stroke-linejoin:bevel;"/>
   <path clip-path="url(#pd563a25654)" d="M 690.292922 154.913642 
L 689.61938 156.986591 
L 687.439753 156.986591 
L 689.203109 158.267744 
L 688.529567 160.340693 
L 690.292922 159.05954 
L 692.056278 160.340693 
L 691.382736 158.267744 
L 693.146092 156.986591 
L 690.966464 156.986591 
z
" style="fill:#c00000;stroke:#c00000;stroke-linejoin:bevel;"/>
   <path clip-path="url(#pd563a25654)" d="M 732.419377 107.517616 
L 731.745835 109.590565 
L 729.566208 109.590565 
L 731.329563 110.871718 
L 730.656021 112.944667 
L 732.419377 111.663514 
L 734.182733 112.944667 
L 733.509191 110.871718 
L 735.272547 109.590565 
L 733.092919 109.590565 
z
" style="fill:#c00000;stroke:#c00000;stroke-linejoin:bevel;"/>
   <g id="patch_37">
    <path d="M 108 384.48 
L 108 51.84 
" style="fill:none;stroke:#000000;stroke-linecap:square;stroke-linejoin:miter;stroke-width:0.8;"/>
   </g>
   <g id="patch_38">
    <path d="M 777.6 384.48 
L 777.6 51.84 
" style="fill:none;stroke:#000000;stroke-linecap:square;stroke-linejoin:miter;stroke-width:0.8;"/>
   </g>
   <g id="patch_39">
    <path d="M 108 384.48 
L 777.6 384.48 
" style="fill:none;stroke:#000000;stroke-linecap:square;stroke-linejoin:miter;stroke-width:0.8;"/>
   </g>
   <g id="patch_40">
    <path d="M 108 51.84 
L 777.6 51.84 
" style="fill:none;stroke:#000000;stroke-linecap:square;stroke-linejoin:miter;stroke-width:0.8;"/>
   </g>
   <g id="legend_1">
    <g id="patch_41">
     <path d="M 162 429.287625 
L 723.6 429.287625 
Q 726 429.287625 726 426.887625 
L 726 409.512 
Q 726 407.112 723.6 407.112 
L 162 407.112 
Q 159.6 407.112 159.6 409.512 
L 159.6 426.887625 
Q 159.6 429.287625 162 429.287625 
z
" style="fill:#ffffff;opacity:0.8;stroke:#cccccc;stroke-linejoin:miter;"/>
    </g>
    <g id="patch_42">
     <path d="M 164.4 421.5045 
L 188.4 421.5045 
L 188.4 413.1045 
L 164.4 413.1045 
z
" style="fill:#c00000;"/>
    </g>
    <g id="text_30">
     <!-- 归属股东权益（单位：亿元） -->
     <defs>
      <path d="M 38.28125 4.25 
L 84.671875 4.25 
L 84.671875 34.71875 
L 43.75 34.71875 
L 43.75 41.546875 
L 84.671875 41.546875 
L 84.671875 67.921875 
L 41.40625 67.921875 
L 41.40625 74.953125 
L 92.28125 74.953125 
L 92.28125 -9.234375 
L 84.671875 -9.234375 
L 84.671875 -2.59375 
L 38.28125 -2.59375 
z
M 28.125 82.5625 
L 35.84375 82.5625 
L 35.84375 42.828125 
Q 35.9375 1.609375 19.046875 -13.53125 
Q 16.703125 -10.5 13.1875 -6.984375 
Q 28.125 7.078125 28.125 39.703125 
z
M 8.015625 73 
L 15.625 73 
L 15.625 10.015625 
L 8.015625 10.015625 
z
" id="MicrosoftYaHei-5f52"/>
      <path d="M 29.203125 42.328125 
L 55.46875 42.328125 
L 55.46875 48.484375 
Q 41.40625 48 24.421875 47.515625 
Q 23.921875 50.140625 23.046875 53.375 
Q 69.53125 54.4375 91.40625 55.71875 
L 92.96875 50.046875 
Q 80.28125 49.359375 61.8125 48.6875 
L 61.8125 42.328125 
L 88.578125 42.328125 
L 88.578125 22.609375 
L 82.125 22.609375 
L 82.125 24.5625 
L 61.8125 24.5625 
L 61.8125 18.3125 
L 94.734375 18.3125 
L 94.734375 -2.875 
Q 94.734375 -12.84375 84.859375 -12.84375 
Q 79.984375 -12.84375 72.65625 -12.640625 
Q 72.171875 -9.90625 71.1875 -5.90625 
Q 78.03125 -6.5 82.8125 -6.5 
Q 88.09375 -6.5 88.09375 -1.515625 
L 88.09375 13.03125 
L 61.8125 13.03125 
L 61.8125 4.34375 
Q 67.484375 4.640625 73.046875 5.03125 
Q 71.96875 7.28125 70.796875 9.515625 
L 76.078125 11.96875 
Q 79.59375 5.609375 83.109375 -1.703125 
L 77.34375 -4.34375 
Q 76.46875 -2.296875 75.59375 -0.34375 
Q 59.1875 -1.03125 38.875 -2.984375 
L 37.703125 3.265625 
Q 46.6875 3.5625 55.46875 4.046875 
L 55.46875 13.03125 
L 31.25 13.03125 
L 31.25 -13.328125 
L 24.609375 -13.328125 
L 24.609375 18.3125 
L 55.46875 18.3125 
L 55.46875 24.5625 
L 35.640625 24.5625 
L 35.640625 22.609375 
L 29.203125 22.609375 
z
M 19.53125 36.375 
Q 19.53125 3.171875 5.859375 -13.71875 
Q 3.609375 -10.296875 0.984375 -7.171875 
Q 12.890625 6.5 12.796875 37.75 
L 12.796875 78.46875 
L 93.171875 78.46875 
L 93.171875 57.671875 
L 86.53125 57.671875 
L 86.53125 59.625 
L 19.53125 59.625 
z
M 86.53125 65.28125 
L 86.53125 72.796875 
L 19.53125 72.796875 
L 19.53125 65.28125 
z
M 82.125 37.0625 
L 61.8125 37.0625 
L 61.8125 29.828125 
L 82.125 29.828125 
z
M 35.640625 29.828125 
L 55.46875 29.828125 
L 55.46875 37.0625 
L 35.640625 37.0625 
z
" id="MicrosoftYaHei-5c5e"/>
      <path d="M 8.6875 78.078125 
L 37.59375 78.078125 
L 37.59375 -0.921875 
Q 37.59375 -11.28125 28.125 -11.28125 
Q 23.734375 -11.28125 18.5625 -11.078125 
Q 18.265625 -8.34375 17.390625 -3.859375 
Q 22.5625 -4.4375 26.265625 -4.4375 
Q 30.28125 -4.4375 30.28125 0.046875 
L 30.28125 22.125 
L 16.015625 22.125 
Q 15.765625 -1.21875 7.125 -13.234375 
Q 4.59375 -10.40625 1.078125 -7.765625 
Q 8.6875 2.875 8.6875 23.484375 
z
M 41.3125 30.8125 
L 41.3125 37.75 
L 89.359375 37.75 
L 89.359375 30.8125 
Q 83.6875 16.890625 73.78125 6.546875 
Q 83.796875 -0.390625 98.4375 -4.25 
Q 95.40625 -8.15625 93.453125 -11.765625 
Q 78.421875 -6.734375 68.0625 1.21875 
Q 57.625 -7.671875 43.265625 -13.328125 
Q 40.4375 -8.734375 38.578125 -6.59375 
Q 52.59375 -1.171875 62.359375 6.203125 
Q 52 16.5 47.90625 30.8125 
z
M 88.671875 50.046875 
Q 94.140625 49.953125 98.828125 50.34375 
L 97.46875 43.015625 
Q 91.3125 42.828125 86.8125 42.828125 
Q 76.953125 42.828125 76.953125 54.15625 
L 76.953125 71.046875 
L 58.890625 71.046875 
L 58.890625 65.1875 
Q 58.890625 48.390625 45.015625 39.3125 
Q 42.578125 42.234375 39.75 45.265625 
Q 51.5625 51.703125 51.5625 65.375 
L 51.5625 77.984375 
L 84.28125 77.984375 
L 84.28125 54.4375 
Q 84.28125 50.046875 88.671875 50.046875 
z
M 81.0625 30.8125 
L 55.375 30.8125 
Q 59.328125 19.28125 68.109375 11.140625 
Q 77.046875 19.828125 81.0625 30.8125 
z
M 16.015625 28.5625 
L 30.28125 28.5625 
L 30.28125 47.015625 
L 16.015625 47.015625 
z
M 30.28125 71.625 
L 16.015625 71.625 
L 16.015625 53.46875 
L 30.28125 53.46875 
z
" id="MicrosoftYaHei-80a1"/>
      <path d="M 11.03125 29.4375 
L 11.03125 36.859375 
L 22.21875 62.84375 
L 3.03125 62.84375 
L 3.03125 70.265625 
L 25.390625 70.265625 
L 31.15625 83.640625 
L 39.546875 81.890625 
L 34.46875 70.265625 
L 96.96875 70.265625 
L 96.96875 62.84375 
L 31.25 62.84375 
L 19.921875 36.859375 
L 49.3125 36.859375 
L 49.3125 58.25 
L 57.515625 58.25 
L 57.515625 36.859375 
L 92.390625 36.859375 
L 92.390625 29.4375 
L 57.515625 29.4375 
L 57.515625 0.640625 
Q 57.515625 -11.578125 44.828125 -11.578125 
Q 38.375 -11.578125 30.171875 -11.46875 
Q 29.59375 -7.671875 28.71875 -2.6875 
Q 35.15625 -3.515625 42.578125 -3.5625 
Q 49.3125 -3.609375 49.3125 3.375 
L 49.3125 29.4375 
z
M 25.296875 23.578125 
L 31.84375 18.609375 
Q 20.703125 5.515625 6.453125 -8.34375 
Q 3.90625 -5.609375 0.875 -2.875 
Q 13.875 9.421875 25.296875 23.578125 
z
M 67 17.046875 
L 72.46875 22.40625 
Q 85.9375 11.28125 99.421875 -0.921875 
L 93.359375 -7.078125 
Q 79.984375 6.109375 67 17.046875 
z
" id="MicrosoftYaHei-4e1c"/>
      <path d="M 36.421875 69 
L 36.421875 76.3125 
L 91.890625 76.3125 
L 91.890625 69.1875 
Q 87.3125 35.203125 71.1875 14.40625 
Q 81.734375 3.765625 99.125 -3.171875 
Q 94.921875 -7.765625 92.578125 -11.28125 
Q 75.78125 -2.59375 65.828125 8.0625 
Q 54.6875 -3.5625 34.765625 -13.625 
Q 32.625 -10.109375 29.296875 -6.203125 
Q 49.90625 3.46875 60.75 14.3125 
Q 46 32.859375 42.484375 69 
z
M 0.984375 21.046875 
Q 10.9375 36.28125 15.921875 55.125 
L 1.953125 55.125 
L 1.953125 61.96875 
L 17.1875 61.96875 
L 17.1875 82.671875 
L 24.609375 82.671875 
L 24.609375 61.96875 
L 38.375 61.96875 
L 38.375 55.125 
L 24.609375 55.125 
L 24.609375 42.234375 
L 28.8125 46.140625 
Q 37.59375 37.84375 42.96875 31.390625 
L 37.109375 25.921875 
Q 30.5625 34.234375 24.609375 40.484375 
L 24.609375 -13.328125 
L 17.1875 -13.328125 
L 17.1875 40.1875 
Q 11.921875 23.78125 4.296875 12.453125 
Q 2.9375 16.65625 0.984375 21.046875 
z
M 83.59375 69 
L 50.296875 69 
Q 53.21875 37.453125 66.015625 20.453125 
Q 79.5 38.53125 83.59375 69 
z
" id="MicrosoftYaHei-6743"/>
      <path d="M 57.625 -17.1875 
Q 40.1875 1.859375 40.1875 28.90625 
Q 40.1875 56.296875 57.625 75.59375 
L 66.015625 75.59375 
Q 48.6875 55.8125 48.6875 29 
Q 48.6875 2.59375 65.921875 -17.1875 
z
" id="MicrosoftYaHei-ff08"/>
      <path d="M 1.953125 14.203125 
L 46.1875 14.203125 
L 46.1875 25.25 
L 19.140625 25.25 
L 19.140625 20.65625 
L 11.71875 20.65625 
L 11.71875 68.015625 
L 31.984375 68.015625 
Q 27.296875 73.484375 21.875 79.25 
L 27.4375 83.84375 
Q 34.671875 76.90625 40.140625 71.046875 
L 36.53125 68.015625 
L 59.421875 68.015625 
Q 64.796875 75.140625 70.3125 83.546875 
L 78.125 79.34375 
Q 73.09375 73.25 68.40625 68.015625 
L 88.375 68.015625 
L 88.375 20.65625 
L 80.953125 20.65625 
L 80.953125 25.25 
L 53.8125 25.25 
L 53.8125 14.203125 
L 98.046875 14.203125 
L 98.046875 7.171875 
L 53.8125 7.171875 
L 53.8125 -13.421875 
L 46.1875 -13.421875 
L 46.1875 7.171875 
L 1.953125 7.171875 
z
M 53.8125 32.078125 
L 80.953125 32.078125 
L 80.953125 43.40625 
L 53.8125 43.40625 
z
M 19.140625 32.078125 
L 46.1875 32.078125 
L 46.1875 43.40625 
L 19.140625 43.40625 
z
M 80.953125 61.1875 
L 53.8125 61.1875 
L 53.8125 50.046875 
L 80.953125 50.046875 
z
M 19.140625 50.046875 
L 46.1875 50.046875 
L 46.1875 61.1875 
L 19.140625 61.1875 
z
" id="MicrosoftYaHei-5355"/>
      <path d="M 27.9375 -0.921875 
L 66.0625 -0.921875 
Q 73.09375 17.875 82.328125 52.6875 
L 91.109375 50.046875 
Q 85.203125 31.9375 74.3125 -0.921875 
L 98.734375 -0.921875 
L 98.734375 -8.15625 
L 27.9375 -8.15625 
z
M 1.265625 35.796875 
Q 15.234375 56.890625 22.359375 83.15625 
L 30.671875 81.109375 
Q 26.609375 68.703125 21.96875 57.953125 
L 21.96875 -13.328125 
L 14.65625 -13.328125 
L 14.65625 42.671875 
Q 10.0625 34.078125 4.984375 26.8125 
Q 3.609375 30.515625 1.265625 35.796875 
z
M 29.984375 65.484375 
L 64.40625 65.484375 
Q 60.0625 72.796875 54.78125 79.046875 
L 61.421875 83.640625 
Q 65.71875 78.65625 72.078125 70.265625 
L 64.84375 65.484375 
L 96.96875 65.484375 
L 96.96875 58.25 
L 29.984375 58.25 
z
M 43.265625 51.703125 
Q 49.703125 34.125 57.328125 9.125 
L 49.21875 6.78125 
Q 42.578125 30.71875 35.84375 49.171875 
z
" id="MicrosoftYaHei-4f4d"/>
      <path d="M 50.09375 55.171875 
Q 52.6875 55.171875 54.53125 53.359375 
Q 56.390625 51.5625 56.390625 49.03125 
Q 56.390625 46.484375 54.578125 44.65625 
Q 52.78125 42.828125 50.09375 42.828125 
Q 47.40625 42.828125 45.59375 44.65625 
Q 43.796875 46.484375 43.796875 49.03125 
Q 43.796875 51.5625 45.65625 53.359375 
Q 47.515625 55.171875 50.09375 55.171875 
z
M 50.09375 11.1875 
Q 52.6875 11.1875 54.53125 9.375 
Q 56.390625 7.5625 56.390625 4.984375 
Q 56.390625 2.34375 54.53125 0.5625 
Q 52.6875 -1.21875 50.09375 -1.21875 
Q 47.515625 -1.21875 45.65625 0.5625 
Q 43.796875 2.34375 43.796875 4.984375 
Q 43.796875 7.5625 45.65625 9.375 
Q 47.515625 11.1875 50.09375 11.1875 
z
" id="MicrosoftYaHei-ff1a"/>
      <path d="M 90.53125 25.828125 
Q 92.96875 24.65625 98.734375 22.90625 
Q 97.859375 12.0625 96.484375 4.046875 
Q 94.34375 -8.34375 79.203125 -8.453125 
Q 63.671875 -9.03125 49.703125 -8.453125 
Q 36.71875 -7.765625 33.984375 -0.140625 
Q 31.453125 7.671875 40.140625 19.78125 
Q 48.640625 31.390625 79.984375 67.625 
L 36.71875 67.625 
L 36.71875 75.34375 
L 90.140625 75.34375 
L 90.140625 66.265625 
Q 66.5 40.484375 49.03125 18.40625 
Q 40.828125 7.375 41.796875 3.375 
Q 42.1875 -0.734375 52.640625 -1.03125 
Q 64.546875 -1.515625 76.375 -0.921875 
Q 83.296875 -0.640625 85.546875 1.03125 
Q 88.09375 2.6875 88.875 7.859375 
Q 89.84375 13.234375 90.53125 25.828125 
z
M 1.375 34.515625 
Q 15.625 54.25 23.921875 82.859375 
L 31.9375 80.515625 
Q 27.9375 68.5625 23.25 58.0625 
L 23.25 -12.453125 
L 15.625 -12.453125 
L 15.625 42.828125 
Q 10.5 33.640625 4.6875 25.921875 
Q 3.328125 30.21875 1.375 34.515625 
z
" id="MicrosoftYaHei-4ebf"/>
      <path d="M 2.9375 48.1875 
L 97.265625 48.1875 
L 97.265625 40.765625 
L 66.40625 40.765625 
L 66.40625 2.6875 
Q 66.40625 -3.078125 72.265625 -3.078125 
L 80.671875 -3.078125 
Q 87.703125 -3.078125 88.671875 3.375 
Q 89.546875 8.84375 90.140625 17.234375 
Q 94.046875 15.875 98.640625 14.796875 
Q 97.65625 6.390625 96.578125 0.734375 
Q 94.625 -10.015625 82.421875 -10.015625 
L 70.515625 -10.015625 
Q 58.203125 -10.015625 58.203125 2 
L 58.203125 40.765625 
L 38.28125 40.765625 
L 38.28125 37.640625 
Q 38.28125 16.9375 32.03125 6.984375 
Q 25.78125 -3.859375 7.328125 -13.234375 
Q 3.8125 -8.9375 1.5625 -6.6875 
Q 18.453125 1.609375 24.3125 10.796875 
Q 30.078125 19.578125 30.078125 37.25 
L 30.078125 40.765625 
L 2.9375 40.765625 
z
M 12.3125 76.609375 
L 88.09375 76.609375 
L 88.09375 69.1875 
L 12.3125 69.1875 
z
" id="MicrosoftYaHei-5143"/>
      <path d="M 42.390625 -17.1875 
L 33.984375 -17.1875 
Q 51.3125 2.546875 51.3125 29.5 
Q 51.3125 55.953125 34.078125 75.59375 
L 42.390625 75.59375 
Q 59.71875 56.6875 59.71875 29.5 
Q 59.71875 2 42.390625 -17.1875 
z
" id="MicrosoftYaHei-ff09"/>
     </defs>
     <g transform="translate(198 421.5045)scale(0.12 -0.12)">
      <use xlink:href="#MicrosoftYaHei-5f52"/>
      <use x="100" xlink:href="#MicrosoftYaHei-5c5e"/>
      <use x="200" xlink:href="#MicrosoftYaHei-80a1"/>
      <use x="300" xlink:href="#MicrosoftYaHei-4e1c"/>
      <use x="400" xlink:href="#MicrosoftYaHei-6743"/>
      <use x="500" xlink:href="#MicrosoftYaHei-76ca"/>
      <use x="600" xlink:href="#MicrosoftYaHei-ff08"/>
      <use x="700" xlink:href="#MicrosoftYaHei-5355"/>
      <use x="800" xlink:href="#MicrosoftYaHei-4f4d"/>
      <use x="900" xlink:href="#MicrosoftYaHei-ff1a"/>
      <use x="1000" xlink:href="#MicrosoftYaHei-4ebf"/>
      <use x="1100" xlink:href="#MicrosoftYaHei-5143"/>
      <use x="1200" xlink:href="#MicrosoftYaHei-ff09"/>
     </g>
    </g>
    <g id="patch_43">
     <path d="M 378 421.5045 
L 402 421.5045 
L 402 413.1045 
L 378 413.1045 
z
" style="fill:#a6a6a6;"/>
    </g>
    <g id="text_31">
     <!-- 公司价值（单位：亿元） -->
     <g transform="translate(411.6 421.5045)scale(0.12 -0.12)">
      <use xlink:href="#MicrosoftYaHei-516c"/>
      <use x="100" xlink:href="#MicrosoftYaHei-53f8"/>
      <use x="200" xlink:href="#MicrosoftYaHei-4ef7"/>
      <use x="300" xlink:href="#MicrosoftYaHei-503c"/>
      <use x="400" xlink:href="#MicrosoftYaHei-ff08"/>
      <use x="500" xlink:href="#MicrosoftYaHei-5355"/>
      <use x="600" xlink:href="#MicrosoftYaHei-4f4d"/>
      <use x="700" xlink:href="#MicrosoftYaHei-ff1a"/>
      <use x="800" xlink:href="#MicrosoftYaHei-4ebf"/>
      <use x="900" xlink:href="#MicrosoftYaHei-5143"/>
      <use x="1000" xlink:href="#MicrosoftYaHei-ff09"/>
     </g>
    </g>
    <path d="M 569.6 419.3045 
L 593.6 419.3045 
" style="fill:none;opacity:0.3;stroke:#000000;stroke-linecap:square;stroke-width:2.5;"/>
    <path d="M 567.6 417.3045 
L 591.6 417.3045 
" style="fill:none;stroke:#c00000;stroke-linecap:square;stroke-width:2.5;"/>
    <path d="M 581.6 416.3045 
L 580.926458 418.377449 
L 578.74683 418.377449 
L 580.510186 419.658602 
L 579.836644 421.731551 
L 581.6 420.450398 
L 583.363356 421.731551 
L 582.689814 419.658602 
L 584.45317 418.377449 
L 582.273542 418.377449 
z
" style="fill:none;opacity:0.3;stroke:#000000;stroke-linejoin:bevel;"/>
    <path d="M 579.6 414.3045 
L 578.926458 416.377449 
L 576.74683 416.377449 
L 578.510186 417.658602 
L 577.836644 419.731551 
L 579.6 418.450398 
L 581.363356 419.731551 
L 580.689814 417.658602 
L 582.45317 416.377449 
L 580.273542 416.377449 
z
" style="fill:#c00000;stroke:#c00000;stroke-linejoin:bevel;"/>
    <g id="text_32">
     <!-- 净资产收益率（股东） -->
     <g transform="translate(601.2 421.5045)scale(0.12 -0.12)">
      <use xlink:href="#MicrosoftYaHei-51c0"/>
      <use x="100" xlink:href="#MicrosoftYaHei-8d44"/>
      <use x="200" xlink:href="#MicrosoftYaHei-4ea7"/>
      <use x="300" xlink:href="#MicrosoftYaHei-6536"/>
      <use x="400" xlink:href="#MicrosoftYaHei-76ca"/>
      <use x="500" xlink:href="#MicrosoftYaHei-7387"/>
      <use x="600" xlink:href="#MicrosoftYaHei-ff08"/>
      <use x="700" xlink:href="#MicrosoftYaHei-80a1"/>
      <use x="800" xlink:href="#MicrosoftYaHei-4e1c"/>
      <use x="900" xlink:href="#MicrosoftYaHei-ff09"/>
     </g>
    </g>
   </g>
  </g>
 </g>
 <defs>
  <clipPath id="pd563a25654">
   <rect height="332.64" width="669.6" x="108" y="51.84"/>
  </clipPath>
 </defs>
</svg>
