<?xml version="1.0" encoding="utf-8" standalone="no"?>
<!DOCTYPE svg PUBLIC "-//W3C//DTD SVG 1.1//EN"
  "http://www.w3.org/Graphics/SVG/1.1/DTD/svg11.dtd">
<!-- Created with matplotlib (http://matplotlib.org/) -->
<svg height="432pt" version="1.1" viewBox="0 0 864 432" width="864pt" xmlns="http://www.w3.org/2000/svg" xmlns:xlink="http://www.w3.org/1999/xlink">
 <defs>
  <style type="text/css">
*{stroke-linecap:butt;stroke-linejoin:round;}
  </style>
 </defs>
 <g id="figure_1">
  <g id="patch_1">
   <path d="M 0 432 
L 864 432 
L 864 0 
L 0 0 
z
" style="fill:#ffffff;"/>
  </g>
  <g id="axes_1">
   <g id="patch_2">
    <path d="M 108 384.48 
L 777.6 384.48 
L 777.6 51.84 
L 108 51.84 
z
" style="fill:#ffffff;"/>
   </g>
   <g id="matplotlib.axis_1">
    <g id="xtick_1">
     <g id="line2d_1">
      <defs>
       <path d="M 0 0 
L 0 3 
" id="mec6e9a201d" style="stroke:#000000;stroke-width:3;"/>
      </defs>
      <g>
       <use style="stroke:#000000;stroke-width:3;" x="138.436364" xlink:href="#mec6e9a201d" y="384.48"/>
      </g>
     </g>
     <g id="text_1">
      <!-- 2002 -->
      <defs>
       <path d="M 19.1875 8.296875 
L 53.609375 8.296875 
L 53.609375 0 
L 7.328125 0 
L 7.328125 8.296875 
Q 12.9375 14.109375 22.625 23.890625 
Q 32.328125 33.6875 34.8125 36.53125 
Q 39.546875 41.84375 41.421875 45.53125 
Q 43.3125 49.21875 43.3125 52.78125 
Q 43.3125 58.59375 39.234375 62.25 
Q 35.15625 65.921875 28.609375 65.921875 
Q 23.96875 65.921875 18.8125 64.3125 
Q 13.671875 62.703125 7.8125 59.421875 
L 7.8125 69.390625 
Q 13.765625 71.78125 18.9375 73 
Q 24.125 74.21875 28.421875 74.21875 
Q 39.75 74.21875 46.484375 68.546875 
Q 53.21875 62.890625 53.21875 53.421875 
Q 53.21875 48.921875 51.53125 44.890625 
Q 49.859375 40.875 45.40625 35.40625 
Q 44.1875 33.984375 37.640625 27.21875 
Q 31.109375 20.453125 19.1875 8.296875 
z
" id="DejaVuSans-32"/>
       <path d="M 31.78125 66.40625 
Q 24.171875 66.40625 20.328125 58.90625 
Q 16.5 51.421875 16.5 36.375 
Q 16.5 21.390625 20.328125 13.890625 
Q 24.171875 6.390625 31.78125 6.390625 
Q 39.453125 6.390625 43.28125 13.890625 
Q 47.125 21.390625 47.125 36.375 
Q 47.125 51.421875 43.28125 58.90625 
Q 39.453125 66.40625 31.78125 66.40625 
z
M 31.78125 74.21875 
Q 44.046875 74.21875 50.515625 64.515625 
Q 56.984375 54.828125 56.984375 36.375 
Q 56.984375 17.96875 50.515625 8.265625 
Q 44.046875 -1.421875 31.78125 -1.421875 
Q 19.53125 -1.421875 13.0625 8.265625 
Q 6.59375 17.96875 6.59375 36.375 
Q 6.59375 54.828125 13.0625 64.515625 
Q 19.53125 74.21875 31.78125 74.21875 
z
" id="DejaVuSans-30"/>
      </defs>
      <g transform="translate(125.711364 398.578438)scale(0.1 -0.1)">
       <use xlink:href="#DejaVuSans-32"/>
       <use x="63.623047" xlink:href="#DejaVuSans-30"/>
       <use x="127.246094" xlink:href="#DejaVuSans-30"/>
       <use x="190.869141" xlink:href="#DejaVuSans-32"/>
      </g>
     </g>
    </g>
    <g id="xtick_2">
     <g id="line2d_2">
      <g>
       <use style="stroke:#000000;stroke-width:3;" x="181.916883" xlink:href="#mec6e9a201d" y="384.48"/>
      </g>
     </g>
     <g id="text_2">
      <!-- 2003 -->
      <defs>
       <path d="M 40.578125 39.3125 
Q 47.65625 37.796875 51.625 33 
Q 55.609375 28.21875 55.609375 21.1875 
Q 55.609375 10.40625 48.1875 4.484375 
Q 40.765625 -1.421875 27.09375 -1.421875 
Q 22.515625 -1.421875 17.65625 -0.515625 
Q 12.796875 0.390625 7.625 2.203125 
L 7.625 11.71875 
Q 11.71875 9.328125 16.59375 8.109375 
Q 21.484375 6.890625 26.8125 6.890625 
Q 36.078125 6.890625 40.9375 10.546875 
Q 45.796875 14.203125 45.796875 21.1875 
Q 45.796875 27.640625 41.28125 31.265625 
Q 36.765625 34.90625 28.71875 34.90625 
L 20.21875 34.90625 
L 20.21875 43.015625 
L 29.109375 43.015625 
Q 36.375 43.015625 40.234375 45.921875 
Q 44.09375 48.828125 44.09375 54.296875 
Q 44.09375 59.90625 40.109375 62.90625 
Q 36.140625 65.921875 28.71875 65.921875 
Q 24.65625 65.921875 20.015625 65.03125 
Q 15.375 64.15625 9.8125 62.3125 
L 9.8125 71.09375 
Q 15.4375 72.65625 20.34375 73.4375 
Q 25.25 74.21875 29.59375 74.21875 
Q 40.828125 74.21875 47.359375 69.109375 
Q 53.90625 64.015625 53.90625 55.328125 
Q 53.90625 49.265625 50.4375 45.09375 
Q 46.96875 40.921875 40.578125 39.3125 
z
" id="DejaVuSans-33"/>
      </defs>
      <g transform="translate(169.191883 398.578438)scale(0.1 -0.1)">
       <use xlink:href="#DejaVuSans-32"/>
       <use x="63.623047" xlink:href="#DejaVuSans-30"/>
       <use x="127.246094" xlink:href="#DejaVuSans-30"/>
       <use x="190.869141" xlink:href="#DejaVuSans-33"/>
      </g>
     </g>
    </g>
    <g id="xtick_3">
     <g id="line2d_3">
      <g>
       <use style="stroke:#000000;stroke-width:3;" x="225.397403" xlink:href="#mec6e9a201d" y="384.48"/>
      </g>
     </g>
     <g id="text_3">
      <!-- 2004 -->
      <defs>
       <path d="M 37.796875 64.3125 
L 12.890625 25.390625 
L 37.796875 25.390625 
z
M 35.203125 72.90625 
L 47.609375 72.90625 
L 47.609375 25.390625 
L 58.015625 25.390625 
L 58.015625 17.1875 
L 47.609375 17.1875 
L 47.609375 0 
L 37.796875 0 
L 37.796875 17.1875 
L 4.890625 17.1875 
L 4.890625 26.703125 
z
" id="DejaVuSans-34"/>
      </defs>
      <g transform="translate(212.672403 398.578438)scale(0.1 -0.1)">
       <use xlink:href="#DejaVuSans-32"/>
       <use x="63.623047" xlink:href="#DejaVuSans-30"/>
       <use x="127.246094" xlink:href="#DejaVuSans-30"/>
       <use x="190.869141" xlink:href="#DejaVuSans-34"/>
      </g>
     </g>
    </g>
    <g id="xtick_4">
     <g id="line2d_4">
      <g>
       <use style="stroke:#000000;stroke-width:3;" x="268.877922" xlink:href="#mec6e9a201d" y="384.48"/>
      </g>
     </g>
     <g id="text_4">
      <!-- 2005 -->
      <defs>
       <path d="M 10.796875 72.90625 
L 49.515625 72.90625 
L 49.515625 64.59375 
L 19.828125 64.59375 
L 19.828125 46.734375 
Q 21.96875 47.46875 24.109375 47.828125 
Q 26.265625 48.1875 28.421875 48.1875 
Q 40.625 48.1875 47.75 41.5 
Q 54.890625 34.8125 54.890625 23.390625 
Q 54.890625 11.625 47.5625 5.09375 
Q 40.234375 -1.421875 26.90625 -1.421875 
Q 22.3125 -1.421875 17.546875 -0.640625 
Q 12.796875 0.140625 7.71875 1.703125 
L 7.71875 11.625 
Q 12.109375 9.234375 16.796875 8.0625 
Q 21.484375 6.890625 26.703125 6.890625 
Q 35.15625 6.890625 40.078125 11.328125 
Q 45.015625 15.765625 45.015625 23.390625 
Q 45.015625 31 40.078125 35.4375 
Q 35.15625 39.890625 26.703125 39.890625 
Q 22.75 39.890625 18.8125 39.015625 
Q 14.890625 38.140625 10.796875 36.28125 
z
" id="DejaVuSans-35"/>
      </defs>
      <g transform="translate(256.152922 398.578438)scale(0.1 -0.1)">
       <use xlink:href="#DejaVuSans-32"/>
       <use x="63.623047" xlink:href="#DejaVuSans-30"/>
       <use x="127.246094" xlink:href="#DejaVuSans-30"/>
       <use x="190.869141" xlink:href="#DejaVuSans-35"/>
      </g>
     </g>
    </g>
    <g id="xtick_5">
     <g id="line2d_5">
      <g>
       <use style="stroke:#000000;stroke-width:3;" x="312.358442" xlink:href="#mec6e9a201d" y="384.48"/>
      </g>
     </g>
     <g id="text_5">
      <!-- 2006 -->
      <defs>
       <path d="M 33.015625 40.375 
Q 26.375 40.375 22.484375 35.828125 
Q 18.609375 31.296875 18.609375 23.390625 
Q 18.609375 15.53125 22.484375 10.953125 
Q 26.375 6.390625 33.015625 6.390625 
Q 39.65625 6.390625 43.53125 10.953125 
Q 47.40625 15.53125 47.40625 23.390625 
Q 47.40625 31.296875 43.53125 35.828125 
Q 39.65625 40.375 33.015625 40.375 
z
M 52.59375 71.296875 
L 52.59375 62.3125 
Q 48.875 64.0625 45.09375 64.984375 
Q 41.3125 65.921875 37.59375 65.921875 
Q 27.828125 65.921875 22.671875 59.328125 
Q 17.53125 52.734375 16.796875 39.40625 
Q 19.671875 43.65625 24.015625 45.921875 
Q 28.375 48.1875 33.59375 48.1875 
Q 44.578125 48.1875 50.953125 41.515625 
Q 57.328125 34.859375 57.328125 23.390625 
Q 57.328125 12.15625 50.6875 5.359375 
Q 44.046875 -1.421875 33.015625 -1.421875 
Q 20.359375 -1.421875 13.671875 8.265625 
Q 6.984375 17.96875 6.984375 36.375 
Q 6.984375 53.65625 15.1875 63.9375 
Q 23.390625 74.21875 37.203125 74.21875 
Q 40.921875 74.21875 44.703125 73.484375 
Q 48.484375 72.75 52.59375 71.296875 
z
" id="DejaVuSans-36"/>
      </defs>
      <g transform="translate(299.633442 398.578438)scale(0.1 -0.1)">
       <use xlink:href="#DejaVuSans-32"/>
       <use x="63.623047" xlink:href="#DejaVuSans-30"/>
       <use x="127.246094" xlink:href="#DejaVuSans-30"/>
       <use x="190.869141" xlink:href="#DejaVuSans-36"/>
      </g>
     </g>
    </g>
    <g id="xtick_6">
     <g id="line2d_6">
      <g>
       <use style="stroke:#000000;stroke-width:3;" x="355.838961" xlink:href="#mec6e9a201d" y="384.48"/>
      </g>
     </g>
     <g id="text_6">
      <!-- 2007 -->
      <defs>
       <path d="M 8.203125 72.90625 
L 55.078125 72.90625 
L 55.078125 68.703125 
L 28.609375 0 
L 18.3125 0 
L 43.21875 64.59375 
L 8.203125 64.59375 
z
" id="DejaVuSans-37"/>
      </defs>
      <g transform="translate(343.113961 398.578438)scale(0.1 -0.1)">
       <use xlink:href="#DejaVuSans-32"/>
       <use x="63.623047" xlink:href="#DejaVuSans-30"/>
       <use x="127.246094" xlink:href="#DejaVuSans-30"/>
       <use x="190.869141" xlink:href="#DejaVuSans-37"/>
      </g>
     </g>
    </g>
    <g id="xtick_7">
     <g id="line2d_7">
      <g>
       <use style="stroke:#000000;stroke-width:3;" x="399.319481" xlink:href="#mec6e9a201d" y="384.48"/>
      </g>
     </g>
     <g id="text_7">
      <!-- 2008 -->
      <defs>
       <path d="M 31.78125 34.625 
Q 24.75 34.625 20.71875 30.859375 
Q 16.703125 27.09375 16.703125 20.515625 
Q 16.703125 13.921875 20.71875 10.15625 
Q 24.75 6.390625 31.78125 6.390625 
Q 38.8125 6.390625 42.859375 10.171875 
Q 46.921875 13.96875 46.921875 20.515625 
Q 46.921875 27.09375 42.890625 30.859375 
Q 38.875 34.625 31.78125 34.625 
z
M 21.921875 38.8125 
Q 15.578125 40.375 12.03125 44.71875 
Q 8.5 49.078125 8.5 55.328125 
Q 8.5 64.0625 14.71875 69.140625 
Q 20.953125 74.21875 31.78125 74.21875 
Q 42.671875 74.21875 48.875 69.140625 
Q 55.078125 64.0625 55.078125 55.328125 
Q 55.078125 49.078125 51.53125 44.71875 
Q 48 40.375 41.703125 38.8125 
Q 48.828125 37.15625 52.796875 32.3125 
Q 56.78125 27.484375 56.78125 20.515625 
Q 56.78125 9.90625 50.3125 4.234375 
Q 43.84375 -1.421875 31.78125 -1.421875 
Q 19.734375 -1.421875 13.25 4.234375 
Q 6.78125 9.90625 6.78125 20.515625 
Q 6.78125 27.484375 10.78125 32.3125 
Q 14.796875 37.15625 21.921875 38.8125 
z
M 18.3125 54.390625 
Q 18.3125 48.734375 21.84375 45.5625 
Q 25.390625 42.390625 31.78125 42.390625 
Q 38.140625 42.390625 41.71875 45.5625 
Q 45.3125 48.734375 45.3125 54.390625 
Q 45.3125 60.0625 41.71875 63.234375 
Q 38.140625 66.40625 31.78125 66.40625 
Q 25.390625 66.40625 21.84375 63.234375 
Q 18.3125 60.0625 18.3125 54.390625 
z
" id="DejaVuSans-38"/>
      </defs>
      <g transform="translate(386.594481 398.578438)scale(0.1 -0.1)">
       <use xlink:href="#DejaVuSans-32"/>
       <use x="63.623047" xlink:href="#DejaVuSans-30"/>
       <use x="127.246094" xlink:href="#DejaVuSans-30"/>
       <use x="190.869141" xlink:href="#DejaVuSans-38"/>
      </g>
     </g>
    </g>
    <g id="xtick_8">
     <g id="line2d_8">
      <g>
       <use style="stroke:#000000;stroke-width:3;" x="442.8" xlink:href="#mec6e9a201d" y="384.48"/>
      </g>
     </g>
     <g id="text_8">
      <!-- 2009 -->
      <defs>
       <path d="M 10.984375 1.515625 
L 10.984375 10.5 
Q 14.703125 8.734375 18.5 7.8125 
Q 22.3125 6.890625 25.984375 6.890625 
Q 35.75 6.890625 40.890625 13.453125 
Q 46.046875 20.015625 46.78125 33.40625 
Q 43.953125 29.203125 39.59375 26.953125 
Q 35.25 24.703125 29.984375 24.703125 
Q 19.046875 24.703125 12.671875 31.3125 
Q 6.296875 37.9375 6.296875 49.421875 
Q 6.296875 60.640625 12.9375 67.421875 
Q 19.578125 74.21875 30.609375 74.21875 
Q 43.265625 74.21875 49.921875 64.515625 
Q 56.59375 54.828125 56.59375 36.375 
Q 56.59375 19.140625 48.40625 8.859375 
Q 40.234375 -1.421875 26.421875 -1.421875 
Q 22.703125 -1.421875 18.890625 -0.6875 
Q 15.09375 0.046875 10.984375 1.515625 
z
M 30.609375 32.421875 
Q 37.25 32.421875 41.125 36.953125 
Q 45.015625 41.5 45.015625 49.421875 
Q 45.015625 57.28125 41.125 61.84375 
Q 37.25 66.40625 30.609375 66.40625 
Q 23.96875 66.40625 20.09375 61.84375 
Q 16.21875 57.28125 16.21875 49.421875 
Q 16.21875 41.5 20.09375 36.953125 
Q 23.96875 32.421875 30.609375 32.421875 
z
" id="DejaVuSans-39"/>
      </defs>
      <g transform="translate(430.075 398.578438)scale(0.1 -0.1)">
       <use xlink:href="#DejaVuSans-32"/>
       <use x="63.623047" xlink:href="#DejaVuSans-30"/>
       <use x="127.246094" xlink:href="#DejaVuSans-30"/>
       <use x="190.869141" xlink:href="#DejaVuSans-39"/>
      </g>
     </g>
    </g>
    <g id="xtick_9">
     <g id="line2d_9">
      <g>
       <use style="stroke:#000000;stroke-width:3;" x="486.280519" xlink:href="#mec6e9a201d" y="384.48"/>
      </g>
     </g>
     <g id="text_9">
      <!-- 2010 -->
      <defs>
       <path d="M 12.40625 8.296875 
L 28.515625 8.296875 
L 28.515625 63.921875 
L 10.984375 60.40625 
L 10.984375 69.390625 
L 28.421875 72.90625 
L 38.28125 72.90625 
L 38.28125 8.296875 
L 54.390625 8.296875 
L 54.390625 0 
L 12.40625 0 
z
" id="DejaVuSans-31"/>
      </defs>
      <g transform="translate(473.555519 398.578438)scale(0.1 -0.1)">
       <use xlink:href="#DejaVuSans-32"/>
       <use x="63.623047" xlink:href="#DejaVuSans-30"/>
       <use x="127.246094" xlink:href="#DejaVuSans-31"/>
       <use x="190.869141" xlink:href="#DejaVuSans-30"/>
      </g>
     </g>
    </g>
    <g id="xtick_10">
     <g id="line2d_10">
      <g>
       <use style="stroke:#000000;stroke-width:3;" x="529.761039" xlink:href="#mec6e9a201d" y="384.48"/>
      </g>
     </g>
     <g id="text_10">
      <!-- 2011 -->
      <g transform="translate(517.036039 398.578438)scale(0.1 -0.1)">
       <use xlink:href="#DejaVuSans-32"/>
       <use x="63.623047" xlink:href="#DejaVuSans-30"/>
       <use x="127.246094" xlink:href="#DejaVuSans-31"/>
       <use x="190.869141" xlink:href="#DejaVuSans-31"/>
      </g>
     </g>
    </g>
    <g id="xtick_11">
     <g id="line2d_11">
      <g>
       <use style="stroke:#000000;stroke-width:3;" x="573.241558" xlink:href="#mec6e9a201d" y="384.48"/>
      </g>
     </g>
     <g id="text_11">
      <!-- 2012 -->
      <g transform="translate(560.516558 398.578438)scale(0.1 -0.1)">
       <use xlink:href="#DejaVuSans-32"/>
       <use x="63.623047" xlink:href="#DejaVuSans-30"/>
       <use x="127.246094" xlink:href="#DejaVuSans-31"/>
       <use x="190.869141" xlink:href="#DejaVuSans-32"/>
      </g>
     </g>
    </g>
    <g id="xtick_12">
     <g id="line2d_12">
      <g>
       <use style="stroke:#000000;stroke-width:3;" x="616.722078" xlink:href="#mec6e9a201d" y="384.48"/>
      </g>
     </g>
     <g id="text_12">
      <!-- 2013 -->
      <g transform="translate(603.997078 398.578438)scale(0.1 -0.1)">
       <use xlink:href="#DejaVuSans-32"/>
       <use x="63.623047" xlink:href="#DejaVuSans-30"/>
       <use x="127.246094" xlink:href="#DejaVuSans-31"/>
       <use x="190.869141" xlink:href="#DejaVuSans-33"/>
      </g>
     </g>
    </g>
    <g id="xtick_13">
     <g id="line2d_13">
      <g>
       <use style="stroke:#000000;stroke-width:3;" x="660.202597" xlink:href="#mec6e9a201d" y="384.48"/>
      </g>
     </g>
     <g id="text_13">
      <!-- 2014 -->
      <g transform="translate(647.477597 398.578438)scale(0.1 -0.1)">
       <use xlink:href="#DejaVuSans-32"/>
       <use x="63.623047" xlink:href="#DejaVuSans-30"/>
       <use x="127.246094" xlink:href="#DejaVuSans-31"/>
       <use x="190.869141" xlink:href="#DejaVuSans-34"/>
      </g>
     </g>
    </g>
    <g id="xtick_14">
     <g id="line2d_14">
      <g>
       <use style="stroke:#000000;stroke-width:3;" x="703.683117" xlink:href="#mec6e9a201d" y="384.48"/>
      </g>
     </g>
     <g id="text_14">
      <!-- 2015 -->
      <g transform="translate(690.958117 398.578438)scale(0.1 -0.1)">
       <use xlink:href="#DejaVuSans-32"/>
       <use x="63.623047" xlink:href="#DejaVuSans-30"/>
       <use x="127.246094" xlink:href="#DejaVuSans-31"/>
       <use x="190.869141" xlink:href="#DejaVuSans-35"/>
      </g>
     </g>
    </g>
    <g id="xtick_15">
     <g id="line2d_15">
      <g>
       <use style="stroke:#000000;stroke-width:3;" x="747.163636" xlink:href="#mec6e9a201d" y="384.48"/>
      </g>
     </g>
     <g id="text_15">
      <!-- 2016 -->
      <g transform="translate(734.438636 398.578438)scale(0.1 -0.1)">
       <use xlink:href="#DejaVuSans-32"/>
       <use x="63.623047" xlink:href="#DejaVuSans-30"/>
       <use x="127.246094" xlink:href="#DejaVuSans-31"/>
       <use x="190.869141" xlink:href="#DejaVuSans-36"/>
      </g>
     </g>
    </g>
   </g>
   <g id="matplotlib.axis_2">
    <g id="ytick_1">
     <g id="line2d_16">
      <path clip-path="url(#p14416081ec)" d="M 108 357.554506 
L 777.6 357.554506 
" style="fill:none;stroke:#b0b0b0;stroke-dasharray:2.96,1.28;stroke-dashoffset:0;stroke-width:0.8;"/>
     </g>
     <g id="line2d_17">
      <defs>
       <path d="M 0 0 
L -3 0 
" id="m95ae031f1e" style="stroke:#000000;stroke-width:3;"/>
      </defs>
      <g>
       <use style="stroke:#000000;stroke-width:3;" x="108" xlink:href="#m95ae031f1e" y="357.554506"/>
      </g>
     </g>
     <g id="text_16">
      <!-- 10 -->
      <g transform="translate(88.775 361.353725)scale(0.1 -0.1)">
       <use xlink:href="#DejaVuSans-31"/>
       <use x="63.623047" xlink:href="#DejaVuSans-30"/>
      </g>
     </g>
    </g>
    <g id="ytick_2">
     <g id="line2d_18">
      <path clip-path="url(#p14416081ec)" d="M 108 300.797323 
L 777.6 300.797323 
" style="fill:none;stroke:#b0b0b0;stroke-dasharray:2.96,1.28;stroke-dashoffset:0;stroke-width:0.8;"/>
     </g>
     <g id="line2d_19">
      <g>
       <use style="stroke:#000000;stroke-width:3;" x="108" xlink:href="#m95ae031f1e" y="300.797323"/>
      </g>
     </g>
     <g id="text_17">
      <!-- 15 -->
      <g transform="translate(88.775 304.596542)scale(0.1 -0.1)">
       <use xlink:href="#DejaVuSans-31"/>
       <use x="63.623047" xlink:href="#DejaVuSans-35"/>
      </g>
     </g>
    </g>
    <g id="ytick_3">
     <g id="line2d_20">
      <path clip-path="url(#p14416081ec)" d="M 108 244.04014 
L 777.6 244.04014 
" style="fill:none;stroke:#b0b0b0;stroke-dasharray:2.96,1.28;stroke-dashoffset:0;stroke-width:0.8;"/>
     </g>
     <g id="line2d_21">
      <g>
       <use style="stroke:#000000;stroke-width:3;" x="108" xlink:href="#m95ae031f1e" y="244.04014"/>
      </g>
     </g>
     <g id="text_18">
      <!-- 20 -->
      <g transform="translate(88.775 247.839359)scale(0.1 -0.1)">
       <use xlink:href="#DejaVuSans-32"/>
       <use x="63.623047" xlink:href="#DejaVuSans-30"/>
      </g>
     </g>
    </g>
    <g id="ytick_4">
     <g id="line2d_22">
      <path clip-path="url(#p14416081ec)" d="M 108 187.282957 
L 777.6 187.282957 
" style="fill:none;stroke:#b0b0b0;stroke-dasharray:2.96,1.28;stroke-dashoffset:0;stroke-width:0.8;"/>
     </g>
     <g id="line2d_23">
      <g>
       <use style="stroke:#000000;stroke-width:3;" x="108" xlink:href="#m95ae031f1e" y="187.282957"/>
      </g>
     </g>
     <g id="text_19">
      <!-- 25 -->
      <g transform="translate(88.775 191.082176)scale(0.1 -0.1)">
       <use xlink:href="#DejaVuSans-32"/>
       <use x="63.623047" xlink:href="#DejaVuSans-35"/>
      </g>
     </g>
    </g>
    <g id="ytick_5">
     <g id="line2d_24">
      <path clip-path="url(#p14416081ec)" d="M 108 130.525775 
L 777.6 130.525775 
" style="fill:none;stroke:#b0b0b0;stroke-dasharray:2.96,1.28;stroke-dashoffset:0;stroke-width:0.8;"/>
     </g>
     <g id="line2d_25">
      <g>
       <use style="stroke:#000000;stroke-width:3;" x="108" xlink:href="#m95ae031f1e" y="130.525775"/>
      </g>
     </g>
     <g id="text_20">
      <!-- 30 -->
      <g transform="translate(88.775 134.324993)scale(0.1 -0.1)">
       <use xlink:href="#DejaVuSans-33"/>
       <use x="63.623047" xlink:href="#DejaVuSans-30"/>
      </g>
     </g>
    </g>
    <g id="ytick_6">
     <g id="line2d_26">
      <path clip-path="url(#p14416081ec)" d="M 108 73.768592 
L 777.6 73.768592 
" style="fill:none;stroke:#b0b0b0;stroke-dasharray:2.96,1.28;stroke-dashoffset:0;stroke-width:0.8;"/>
     </g>
     <g id="line2d_27">
      <g>
       <use style="stroke:#000000;stroke-width:3;" x="108" xlink:href="#m95ae031f1e" y="73.768592"/>
      </g>
     </g>
     <g id="text_21">
      <!-- 35 -->
      <g transform="translate(88.775 77.56781)scale(0.1 -0.1)">
       <use xlink:href="#DejaVuSans-33"/>
       <use x="63.623047" xlink:href="#DejaVuSans-35"/>
      </g>
     </g>
    </g>
   </g>
   <path clip-path="url(#p14416081ec)" d="M 140.436364 314.116976 
L 183.916883 322.429633 
L 227.397403 303.102677 
L 270.877922 262.918591 
L 314.358442 217.919226 
L 357.838961 175.63626 
L 401.319481 130.010296 
L 444.8 87.17338 
L 488.280519 68.96 
L 531.761039 102.848579 
L 575.241558 81.767826 
L 618.722078 147.660645 
L 662.202597 173.445433 
L 705.683117 182.19512 
L 749.163636 171.141091 
" style="fill:none;opacity:0.3;stroke:#000000;stroke-linecap:square;stroke-width:2.5;"/>
   <path clip-path="url(#p14416081ec)" d="M 138.436364 312.116976 
L 181.916883 320.429633 
L 225.397403 301.102677 
L 268.877922 260.918591 
L 312.358442 215.919226 
L 355.838961 173.63626 
L 399.319481 128.010296 
L 442.8 85.17338 
L 486.280519 66.96 
L 529.761039 100.848579 
L 573.241558 79.767826 
L 616.722078 145.660645 
L 660.202597 171.445433 
L 703.683117 180.19512 
L 747.163636 169.141091 
" style="fill:none;stroke:#7f7f7f;stroke-linecap:square;stroke-width:2.5;"/>
   <path clip-path="url(#p14416081ec)" d="M 137.436364 314.116976 
L 143.436364 314.116976 
M 140.436364 317.116976 
L 140.436364 311.116976 
" style="fill:none;opacity:0.3;stroke:#000000;"/>
   <path clip-path="url(#p14416081ec)" d="M 180.916883 322.429633 
L 186.916883 322.429633 
M 183.916883 325.429633 
L 183.916883 319.429633 
" style="fill:none;opacity:0.3;stroke:#000000;"/>
   <path clip-path="url(#p14416081ec)" d="M 224.397403 303.102677 
L 230.397403 303.102677 
M 227.397403 306.102677 
L 227.397403 300.102677 
" style="fill:none;opacity:0.3;stroke:#000000;"/>
   <path clip-path="url(#p14416081ec)" d="M 267.877922 262.918591 
L 273.877922 262.918591 
M 270.877922 265.918591 
L 270.877922 259.918591 
" style="fill:none;opacity:0.3;stroke:#000000;"/>
   <path clip-path="url(#p14416081ec)" d="M 311.358442 217.919226 
L 317.358442 217.919226 
M 314.358442 220.919226 
L 314.358442 214.919226 
" style="fill:none;opacity:0.3;stroke:#000000;"/>
   <path clip-path="url(#p14416081ec)" d="M 354.838961 175.63626 
L 360.838961 175.63626 
M 357.838961 178.63626 
L 357.838961 172.63626 
" style="fill:none;opacity:0.3;stroke:#000000;"/>
   <path clip-path="url(#p14416081ec)" d="M 398.319481 130.010296 
L 404.319481 130.010296 
M 401.319481 133.010296 
L 401.319481 127.010296 
" style="fill:none;opacity:0.3;stroke:#000000;"/>
   <path clip-path="url(#p14416081ec)" d="M 441.8 87.17338 
L 447.8 87.17338 
M 444.8 90.17338 
L 444.8 84.17338 
" style="fill:none;opacity:0.3;stroke:#000000;"/>
   <path clip-path="url(#p14416081ec)" d="M 485.280519 68.96 
L 491.280519 68.96 
M 488.280519 71.96 
L 488.280519 65.96 
" style="fill:none;opacity:0.3;stroke:#000000;"/>
   <path clip-path="url(#p14416081ec)" d="M 528.761039 102.848579 
L 534.761039 102.848579 
M 531.761039 105.848579 
L 531.761039 99.848579 
" style="fill:none;opacity:0.3;stroke:#000000;"/>
   <path clip-path="url(#p14416081ec)" d="M 572.241558 81.767826 
L 578.241558 81.767826 
M 575.241558 84.767826 
L 575.241558 78.767826 
" style="fill:none;opacity:0.3;stroke:#000000;"/>
   <path clip-path="url(#p14416081ec)" d="M 615.722078 147.660645 
L 621.722078 147.660645 
M 618.722078 150.660645 
L 618.722078 144.660645 
" style="fill:none;opacity:0.3;stroke:#000000;"/>
   <path clip-path="url(#p14416081ec)" d="M 659.202597 173.445433 
L 665.202597 173.445433 
M 662.202597 176.445433 
L 662.202597 170.445433 
" style="fill:none;opacity:0.3;stroke:#000000;"/>
   <path clip-path="url(#p14416081ec)" d="M 702.683117 182.19512 
L 708.683117 182.19512 
M 705.683117 185.19512 
L 705.683117 179.19512 
" style="fill:none;opacity:0.3;stroke:#000000;"/>
   <path clip-path="url(#p14416081ec)" d="M 746.163636 171.141091 
L 752.163636 171.141091 
M 749.163636 174.141091 
L 749.163636 168.141091 
" style="fill:none;opacity:0.3;stroke:#000000;"/>
   <path clip-path="url(#p14416081ec)" d="M 135.436364 312.116976 
L 141.436364 312.116976 
M 138.436364 315.116976 
L 138.436364 309.116976 
" style="fill:#7f7f7f;stroke:#7f7f7f;"/>
   <path clip-path="url(#p14416081ec)" d="M 178.916883 320.429633 
L 184.916883 320.429633 
M 181.916883 323.429633 
L 181.916883 317.429633 
" style="fill:#7f7f7f;stroke:#7f7f7f;"/>
   <path clip-path="url(#p14416081ec)" d="M 222.397403 301.102677 
L 228.397403 301.102677 
M 225.397403 304.102677 
L 225.397403 298.102677 
" style="fill:#7f7f7f;stroke:#7f7f7f;"/>
   <path clip-path="url(#p14416081ec)" d="M 265.877922 260.918591 
L 271.877922 260.918591 
M 268.877922 263.918591 
L 268.877922 257.918591 
" style="fill:#7f7f7f;stroke:#7f7f7f;"/>
   <path clip-path="url(#p14416081ec)" d="M 309.358442 215.919226 
L 315.358442 215.919226 
M 312.358442 218.919226 
L 312.358442 212.919226 
" style="fill:#7f7f7f;stroke:#7f7f7f;"/>
   <path clip-path="url(#p14416081ec)" d="M 352.838961 173.63626 
L 358.838961 173.63626 
M 355.838961 176.63626 
L 355.838961 170.63626 
" style="fill:#7f7f7f;stroke:#7f7f7f;"/>
   <path clip-path="url(#p14416081ec)" d="M 396.319481 128.010296 
L 402.319481 128.010296 
M 399.319481 131.010296 
L 399.319481 125.010296 
" style="fill:#7f7f7f;stroke:#7f7f7f;"/>
   <path clip-path="url(#p14416081ec)" d="M 439.8 85.17338 
L 445.8 85.17338 
M 442.8 88.17338 
L 442.8 82.17338 
" style="fill:#7f7f7f;stroke:#7f7f7f;"/>
   <path clip-path="url(#p14416081ec)" d="M 483.280519 66.96 
L 489.280519 66.96 
M 486.280519 69.96 
L 486.280519 63.96 
" style="fill:#7f7f7f;stroke:#7f7f7f;"/>
   <path clip-path="url(#p14416081ec)" d="M 526.761039 100.848579 
L 532.761039 100.848579 
M 529.761039 103.848579 
L 529.761039 97.848579 
" style="fill:#7f7f7f;stroke:#7f7f7f;"/>
   <path clip-path="url(#p14416081ec)" d="M 570.241558 79.767826 
L 576.241558 79.767826 
M 573.241558 82.767826 
L 573.241558 76.767826 
" style="fill:#7f7f7f;stroke:#7f7f7f;"/>
   <path clip-path="url(#p14416081ec)" d="M 613.722078 145.660645 
L 619.722078 145.660645 
M 616.722078 148.660645 
L 616.722078 142.660645 
" style="fill:#7f7f7f;stroke:#7f7f7f;"/>
   <path clip-path="url(#p14416081ec)" d="M 657.202597 171.445433 
L 663.202597 171.445433 
M 660.202597 174.445433 
L 660.202597 168.445433 
" style="fill:#7f7f7f;stroke:#7f7f7f;"/>
   <path clip-path="url(#p14416081ec)" d="M 700.683117 180.19512 
L 706.683117 180.19512 
M 703.683117 183.19512 
L 703.683117 177.19512 
" style="fill:#7f7f7f;stroke:#7f7f7f;"/>
   <path clip-path="url(#p14416081ec)" d="M 744.163636 169.141091 
L 750.163636 169.141091 
M 747.163636 172.141091 
L 747.163636 166.141091 
" style="fill:#7f7f7f;stroke:#7f7f7f;"/>
   <path clip-path="url(#p14416081ec)" d="M 140.436364 371.36 
L 183.916883 358.305848 
L 227.397403 345.024667 
L 270.877922 327.42994 
L 314.358442 302.116237 
L 357.838961 287.018826 
L 401.319481 264.770011 
L 444.8 254.894261 
L 488.280519 232.531931 
L 531.761039 261.024037 
L 575.241558 264.429467 
L 618.722078 239.115764 
L 662.202597 255.348318 
L 705.683117 253.986146 
L 749.163636 230.602187 
" style="fill:none;opacity:0.3;stroke:#000000;stroke-linecap:square;stroke-width:2.5;"/>
   <path clip-path="url(#p14416081ec)" d="M 138.436364 369.36 
L 181.916883 356.305848 
L 225.397403 343.024667 
L 268.877922 325.42994 
L 312.358442 300.116237 
L 355.838961 285.018826 
L 399.319481 262.770011 
L 442.8 252.894261 
L 486.280519 230.531931 
L 529.761039 259.024037 
L 573.241558 262.429467 
L 616.722078 237.115764 
L 660.202597 253.348318 
L 703.683117 251.986146 
L 747.163636 228.602187 
" style="fill:none;stroke:#c00000;stroke-linecap:square;stroke-width:2.5;"/>
   <path clip-path="url(#p14416081ec)" d="M 137.436364 371.36 
L 143.436364 371.36 
M 140.436364 374.36 
L 140.436364 368.36 
" style="fill:none;opacity:0.3;stroke:#000000;"/>
   <path clip-path="url(#p14416081ec)" d="M 180.916883 358.305848 
L 186.916883 358.305848 
M 183.916883 361.305848 
L 183.916883 355.305848 
" style="fill:none;opacity:0.3;stroke:#000000;"/>
   <path clip-path="url(#p14416081ec)" d="M 224.397403 345.024667 
L 230.397403 345.024667 
M 227.397403 348.024667 
L 227.397403 342.024667 
" style="fill:none;opacity:0.3;stroke:#000000;"/>
   <path clip-path="url(#p14416081ec)" d="M 267.877922 327.42994 
L 273.877922 327.42994 
M 270.877922 330.42994 
L 270.877922 324.42994 
" style="fill:none;opacity:0.3;stroke:#000000;"/>
   <path clip-path="url(#p14416081ec)" d="M 311.358442 302.116237 
L 317.358442 302.116237 
M 314.358442 305.116237 
L 314.358442 299.116237 
" style="fill:none;opacity:0.3;stroke:#000000;"/>
   <path clip-path="url(#p14416081ec)" d="M 354.838961 287.018826 
L 360.838961 287.018826 
M 357.838961 290.018826 
L 357.838961 284.018826 
" style="fill:none;opacity:0.3;stroke:#000000;"/>
   <path clip-path="url(#p14416081ec)" d="M 398.319481 264.770011 
L 404.319481 264.770011 
M 401.319481 267.770011 
L 401.319481 261.770011 
" style="fill:none;opacity:0.3;stroke:#000000;"/>
   <path clip-path="url(#p14416081ec)" d="M 441.8 254.894261 
L 447.8 254.894261 
M 444.8 257.894261 
L 444.8 251.894261 
" style="fill:none;opacity:0.3;stroke:#000000;"/>
   <path clip-path="url(#p14416081ec)" d="M 485.280519 232.531931 
L 491.280519 232.531931 
M 488.280519 235.531931 
L 488.280519 229.531931 
" style="fill:none;opacity:0.3;stroke:#000000;"/>
   <path clip-path="url(#p14416081ec)" d="M 528.761039 261.024037 
L 534.761039 261.024037 
M 531.761039 264.024037 
L 531.761039 258.024037 
" style="fill:none;opacity:0.3;stroke:#000000;"/>
   <path clip-path="url(#p14416081ec)" d="M 572.241558 264.429467 
L 578.241558 264.429467 
M 575.241558 267.429467 
L 575.241558 261.429467 
" style="fill:none;opacity:0.3;stroke:#000000;"/>
   <path clip-path="url(#p14416081ec)" d="M 615.722078 239.115764 
L 621.722078 239.115764 
M 618.722078 242.115764 
L 618.722078 236.115764 
" style="fill:none;opacity:0.3;stroke:#000000;"/>
   <path clip-path="url(#p14416081ec)" d="M 659.202597 255.348318 
L 665.202597 255.348318 
M 662.202597 258.348318 
L 662.202597 252.348318 
" style="fill:none;opacity:0.3;stroke:#000000;"/>
   <path clip-path="url(#p14416081ec)" d="M 702.683117 253.986146 
L 708.683117 253.986146 
M 705.683117 256.986146 
L 705.683117 250.986146 
" style="fill:none;opacity:0.3;stroke:#000000;"/>
   <path clip-path="url(#p14416081ec)" d="M 746.163636 230.602187 
L 752.163636 230.602187 
M 749.163636 233.602187 
L 749.163636 227.602187 
" style="fill:none;opacity:0.3;stroke:#000000;"/>
   <path clip-path="url(#p14416081ec)" d="M 135.436364 369.36 
L 141.436364 369.36 
M 138.436364 372.36 
L 138.436364 366.36 
" style="fill:#c00000;stroke:#c00000;"/>
   <path clip-path="url(#p14416081ec)" d="M 178.916883 356.305848 
L 184.916883 356.305848 
M 181.916883 359.305848 
L 181.916883 353.305848 
" style="fill:#c00000;stroke:#c00000;"/>
   <path clip-path="url(#p14416081ec)" d="M 222.397403 343.024667 
L 228.397403 343.024667 
M 225.397403 346.024667 
L 225.397403 340.024667 
" style="fill:#c00000;stroke:#c00000;"/>
   <path clip-path="url(#p14416081ec)" d="M 265.877922 325.42994 
L 271.877922 325.42994 
M 268.877922 328.42994 
L 268.877922 322.42994 
" style="fill:#c00000;stroke:#c00000;"/>
   <path clip-path="url(#p14416081ec)" d="M 309.358442 300.116237 
L 315.358442 300.116237 
M 312.358442 303.116237 
L 312.358442 297.116237 
" style="fill:#c00000;stroke:#c00000;"/>
   <path clip-path="url(#p14416081ec)" d="M 352.838961 285.018826 
L 358.838961 285.018826 
M 355.838961 288.018826 
L 355.838961 282.018826 
" style="fill:#c00000;stroke:#c00000;"/>
   <path clip-path="url(#p14416081ec)" d="M 396.319481 262.770011 
L 402.319481 262.770011 
M 399.319481 265.770011 
L 399.319481 259.770011 
" style="fill:#c00000;stroke:#c00000;"/>
   <path clip-path="url(#p14416081ec)" d="M 439.8 252.894261 
L 445.8 252.894261 
M 442.8 255.894261 
L 442.8 249.894261 
" style="fill:#c00000;stroke:#c00000;"/>
   <path clip-path="url(#p14416081ec)" d="M 483.280519 230.531931 
L 489.280519 230.531931 
M 486.280519 233.531931 
L 486.280519 227.531931 
" style="fill:#c00000;stroke:#c00000;"/>
   <path clip-path="url(#p14416081ec)" d="M 526.761039 259.024037 
L 532.761039 259.024037 
M 529.761039 262.024037 
L 529.761039 256.024037 
" style="fill:#c00000;stroke:#c00000;"/>
   <path clip-path="url(#p14416081ec)" d="M 570.241558 262.429467 
L 576.241558 262.429467 
M 573.241558 265.429467 
L 573.241558 259.429467 
" style="fill:#c00000;stroke:#c00000;"/>
   <path clip-path="url(#p14416081ec)" d="M 613.722078 237.115764 
L 619.722078 237.115764 
M 616.722078 240.115764 
L 616.722078 234.115764 
" style="fill:#c00000;stroke:#c00000;"/>
   <path clip-path="url(#p14416081ec)" d="M 657.202597 253.348318 
L 663.202597 253.348318 
M 660.202597 256.348318 
L 660.202597 250.348318 
" style="fill:#c00000;stroke:#c00000;"/>
   <path clip-path="url(#p14416081ec)" d="M 700.683117 251.986146 
L 706.683117 251.986146 
M 703.683117 254.986146 
L 703.683117 248.986146 
" style="fill:#c00000;stroke:#c00000;"/>
   <path clip-path="url(#p14416081ec)" d="M 744.163636 228.602187 
L 750.163636 228.602187 
M 747.163636 231.602187 
L 747.163636 225.602187 
" style="fill:#c00000;stroke:#c00000;"/>
   <g id="patch_3">
    <path d="M 108 384.48 
L 108 51.84 
" style="fill:none;stroke:#000000;stroke-linecap:square;stroke-linejoin:miter;stroke-width:0.8;"/>
   </g>
   <g id="patch_4">
    <path d="M 777.6 384.48 
L 777.6 51.84 
" style="fill:none;stroke:#000000;stroke-linecap:square;stroke-linejoin:miter;stroke-width:0.8;"/>
   </g>
   <g id="patch_5">
    <path d="M 108 384.48 
L 777.6 384.48 
" style="fill:none;stroke:#000000;stroke-linecap:square;stroke-linejoin:miter;stroke-width:0.8;"/>
   </g>
   <g id="patch_6">
    <path d="M 108 51.84 
L 777.6 51.84 
" style="fill:none;stroke:#000000;stroke-linecap:square;stroke-linejoin:miter;stroke-width:0.8;"/>
   </g>
   <g id="text_22">
    <!-- 投入资本回报率ROIC 与 总资产收益率ROA （单位：百分比%） -->
    <defs>
     <path d="M 38.28125 31.203125 
L 38.28125 38.03125 
L 88.484375 38.03125 
L 88.484375 31.296875 
Q 81.84375 15.828125 69.78125 5.28125 
Q 81.453125 -2.046875 99.125 -4.9375 
Q 96.390625 -8.546875 94.234375 -12.359375 
Q 75.984375 -8.34375 63.765625 0.59375 
Q 50.59375 -8.640625 32.125 -13.140625 
Q 29.984375 -9.125 27.828125 -6.296875 
Q 45.5625 -2.59375 58.015625 5.46875 
Q 47.265625 15.765625 42.671875 31.203125 
z
M 1.46875 30.71875 
Q 8.296875 32.5625 15.71875 34.859375 
L 15.71875 56.390625 
L 2.734375 56.390625 
L 2.734375 63.234375 
L 15.71875 63.234375 
L 15.71875 82.171875 
L 23.046875 82.171875 
L 23.046875 63.234375 
L 34.859375 63.234375 
L 34.859375 56.390625 
L 23.046875 56.390625 
L 23.046875 37.15625 
Q 28.078125 38.765625 33.40625 40.578125 
Q 33.296875 37.453125 33.59375 32.953125 
Q 28.265625 31.296875 23.046875 29.59375 
L 23.046875 -1.125 
Q 23.046875 -11.765625 13.578125 -11.765625 
L 4.109375 -11.765625 
Q 3.71875 -8.34375 2.828125 -3.46875 
Q 8.296875 -4.046875 11.71875 -4.046875 
Q 15.71875 -4.046875 15.71875 0.640625 
L 15.71875 27.203125 
Q 9.03125 24.953125 2.4375 22.609375 
z
M 87.796875 52.59375 
L 98.734375 52.59375 
Q 97.75 49.078125 97.078125 45.453125 
L 86.71875 45.453125 
Q 75.484375 45.453125 75.484375 56.203125 
L 75.484375 71.53125 
L 53.8125 71.53125 
L 53.8125 67.921875 
Q 53.90625 49.078125 38.875 39.796875 
Q 36.421875 43.015625 33.59375 45.75 
Q 46.484375 52.78125 46.484375 67.921875 
L 46.484375 78.375 
L 82.8125 78.375 
L 82.8125 57.28125 
Q 82.8125 52.59375 87.796875 52.59375 
z
M 80.375 31.203125 
L 49.75 31.203125 
Q 53.859375 18.21875 63.8125 9.671875 
Q 74.515625 18.40625 80.375 31.203125 
z
" id="MicrosoftYaHei-6295"/>
     <path d="M 28.609375 77.296875 
L 35.0625 81.890625 
Q 46 75.140625 59.078125 47.3125 
Q 77.34375 7.375 98.734375 -1.421875 
L 91.890625 -10.015625 
Q 70.515625 2.6875 52.34375 43.5 
Q 50.875 46.78125 49.46875 49.75 
Q 38.140625 10.9375 7.328125 -10.59375 
Q 4.6875 -6.6875 1.375 -3.265625 
Q 33.0625 16.703125 44.046875 59.90625 
Q 36.375 72.703125 28.609375 77.296875 
z
" id="MicrosoftYaHei-5165"/>
     <path d="M 28.609375 42.4375 
Q 57.90625 49.953125 60.359375 67.828125 
L 44.734375 67.828125 
Q 41.21875 60.59375 36.921875 54.828125 
Q 33.796875 56.984375 30.375 59.03125 
Q 39.546875 69.875 43.359375 84.125 
L 50.6875 82.375 
Q 49.21875 78.078125 47.65625 74.265625 
L 93.953125 74.265625 
L 93.953125 68.109375 
L 87.3125 54.828125 
Q 83.984375 56.390625 80.171875 57.859375 
L 85.359375 67.828125 
L 67.96875 67.828125 
Q 67.1875 64.703125 66.21875 61.765625 
Q 74.609375 47.90625 97.75 42.53125 
Q 95.015625 38.8125 92.875 35.40625 
Q 72.078125 42.046875 63.1875 54.9375 
Q 56.453125 43.21875 33.59375 35.984375 
Q 31.640625 38.921875 28.609375 42.4375 
z
M 16.015625 35.59375 
L 83.890625 35.59375 
L 83.890625 3.765625 
L 76.265625 3.765625 
L 76.265625 28.765625 
L 23.640625 28.765625 
L 23.640625 3.765625 
L 16.015625 3.765625 
z
M 27.25 61.28125 
Q 29 57.46875 31.0625 54.34375 
Q 19.4375 45.65625 6.84375 35.5 
L 1.765625 42.140625 
Q 15.53125 51.609375 27.25 61.28125 
z
M 9.859375 82.46875 
Q 18.265625 77.203125 26.171875 71.53125 
L 21.1875 65.484375 
Q 14.15625 71.046875 5.5625 77.09375 
z
M 53.8125 25.046875 
Q 53.71875 14.5 52.34375 8.84375 
Q 74.609375 1.609375 94.828125 -6.203125 
L 90.71875 -13.328125 
Q 72.265625 -5.71875 49.609375 2.390625 
Q 43.0625 -9.234375 7.90625 -13.71875 
Q 6.15625 -10.015625 3.71875 -6.109375 
Q 36.03125 -3.265625 42.78125 6 
Q 46.390625 10.890625 46.1875 25.046875 
z
" id="MicrosoftYaHei-8d44"/>
     <path d="M 98.140625 12.546875 
Q 95.609375 10.015625 91.5 5.71875 
Q 67.875 23.921875 53.8125 52.390625 
L 53.8125 13.71875 
L 76.171875 13.71875 
L 76.171875 6.890625 
L 53.8125 6.890625 
L 53.8125 -13.140625 
L 46.1875 -13.140625 
L 46.1875 6.890625 
L 23.046875 6.890625 
L 23.046875 13.71875 
L 46.1875 13.71875 
L 46.1875 52.390625 
Q 33.734375 27.59375 8.015625 4.546875 
Q 4.203125 8.15625 1.5625 10.40625 
Q 29.34375 33.203125 43.109375 58.640625 
L 3.71875 58.640625 
L 3.71875 65.875 
L 46.1875 65.875 
L 46.1875 83.453125 
L 53.8125 83.453125 
L 53.8125 65.875 
L 96.296875 65.875 
L 96.296875 58.640625 
L 56.59375 58.640625 
Q 72.125 29.4375 98.140625 12.546875 
z
" id="MicrosoftYaHei-672c"/>
     <path d="M 7.421875 77.296875 
L 92.78125 77.296875 
L 92.78125 -12.15625 
L 84.578125 -12.15625 
L 84.578125 -5.90625 
L 15.625 -5.90625 
L 15.625 -12.15625 
L 7.421875 -12.15625 
z
M 84.578125 70.0625 
L 15.625 70.0625 
L 15.625 1.125 
L 84.578125 1.125 
z
M 29.296875 55.125 
L 70.796875 55.125 
L 70.796875 12.453125 
L 63.1875 12.453125 
L 63.1875 17.921875 
L 36.921875 17.921875 
L 36.921875 12.453125 
L 29.296875 12.453125 
z
M 63.1875 48.296875 
L 36.921875 48.296875 
L 36.921875 24.75 
L 63.1875 24.75 
z
" id="MicrosoftYaHei-56de"/>
     <path d="M 38.578125 77.875 
L 92.578125 77.875 
Q 92.09375 67.921875 91.703125 62.84375 
Q 91.015625 50.734375 77.4375 50.734375 
Q 71.78125 50.734375 60.9375 50.921875 
Q 60.25 54.640625 59.375 58.734375 
Q 70.125 57.765625 76.5625 57.765625 
Q 83.890625 57.765625 84.375 63.71875 
Q 84.671875 66.84375 84.765625 71.046875 
L 46.1875 71.046875 
L 46.1875 43.109375 
L 93.171875 43.109375 
L 93.171875 36.375 
Q 88.421875 18.890625 77.296875 6.890625 
Q 86.234375 -0.390625 98.828125 -4.734375 
Q 95.40625 -9.03125 93.171875 -11.96875 
Q 80.671875 -5.953125 71.734375 1.703125 
Q 62.59375 -5.859375 50.6875 -12.75 
Q 48.921875 -9.8125 46.390625 -6.109375 
Q 57.90625 0.140625 66.265625 6.984375 
Q 56.203125 18.265625 52.09375 36.28125 
L 46.1875 36.28125 
L 46.1875 -13.421875 
L 38.578125 -13.421875 
z
M 1.46875 31.203125 
Q 8.84375 33.25 15.71875 35.25 
L 15.71875 56.390625 
L 2.734375 56.390625 
L 2.734375 63.140625 
L 15.71875 63.140625 
L 15.71875 82.171875 
L 23.25 82.171875 
L 23.25 63.140625 
L 34.859375 63.140625 
L 34.859375 56.390625 
L 23.25 56.390625 
L 23.25 37.546875 
Q 29.15625 39.40625 34.671875 41.265625 
Q 34.671875 36.578125 34.859375 33.640625 
Q 29.203125 31.84375 23.25 29.890625 
L 23.25 -1.03125 
Q 23.25 -11.578125 13.765625 -11.765625 
Q 9.859375 -11.859375 4.109375 -11.765625 
Q 3.515625 -7.671875 2.828125 -3.46875 
Q 8.59375 -4.046875 11.53125 -4.046875 
Q 15.71875 -4.046875 15.71875 0.734375 
L 15.71875 27.4375 
Q 9.234375 25.34375 2.4375 23.09375 
z
M 85.25 36.28125 
L 58.984375 36.28125 
Q 62.3125 22.015625 71.734375 11.96875 
Q 81.453125 22.171875 85.25 36.28125 
z
" id="MicrosoftYaHei-62a5"/>
     <path d="M 39.453125 31.390625 
Q 40.96875 31.5 61.375 32.515625 
Q 58.9375 35.9375 56.640625 38.921875 
L 61.921875 42.234375 
Q 68.953125 34.421875 74.90625 25.828125 
L 68.65625 21.921875 
Q 66.9375 24.515625 65.28125 26.953125 
Q 46.734375 25.921875 34.578125 24.953125 
Q 32.421875 24.75 29.390625 24.078125 
L 26.953125 30.71875 
Q 29.890625 31.6875 31.34375 32.5625 
Q 39.59375 38.140625 47.65625 45.515625 
Q 40.578125 45.21875 35.546875 44.78125 
Q 33.5 44.484375 31.0625 43.890625 
L 28.125 49.859375 
Q 30.5625 50.734375 32.625 52.59375 
Q 39.203125 58.15625 44.921875 66.0625 
L 3.609375 66.0625 
L 3.609375 72.90625 
L 47.359375 72.90625 
Q 44.96875 77.25 42.875 80.515625 
L 49.90625 83.9375 
Q 53.71875 78.125 56.5 72.90625 
L 96.484375 72.90625 
L 96.484375 66.0625 
L 47.703125 66.0625 
L 52.34375 63.625 
Q 44.4375 55.515625 38.96875 50.734375 
Q 44.53125 50.875 53.515625 51.078125 
Q 57.421875 54.984375 61.328125 59.328125 
L 68.0625 55.421875 
Q 52.546875 40.671875 39.453125 31.390625 
z
M 2.25 15.484375 
L 46.78125 15.484375 
L 46.78125 24.078125 
L 54.5 24.078125 
L 54.5 15.484375 
L 98.046875 15.484375 
L 98.046875 8.640625 
L 54.5 8.640625 
L 54.5 -13.328125 
L 46.78125 -13.328125 
L 46.78125 8.640625 
L 2.25 8.640625 
z
M 26.859375 41.75 
L 30.375 35.984375 
Q 18.75 29.15625 6.640625 22.015625 
L 2.546875 28.5625 
Q 12.703125 33.34375 26.859375 41.75 
z
M 75.875 41.84375 
Q 89.84375 33.9375 97.65625 28.375 
L 93.359375 22.015625 
Q 83.296875 29.828125 71.875 36.578125 
z
M 93.65625 56.109375 
Q 86.234375 49.65625 77.546875 43.890625 
L 72.5625 49.078125 
Q 81.9375 55.21875 88.09375 61.375 
z
M 5.671875 56.78125 
L 10.640625 61.578125 
Q 18.75 55.125 24.8125 49.359375 
L 19.34375 44 
Q 13.671875 49.953125 5.671875 56.78125 
z
" id="MicrosoftYaHei-7387"/>
     <path d="M 64.984375 0 
L 53.46875 0 
L 40.921875 21 
Q 37.15625 27.296875 34.03125 29.5625 
Q 30.90625 31.84375 26.5625 31.84375 
L 19.53125 31.84375 
L 19.53125 0 
L 9.765625 0 
L 9.765625 75.640625 
L 32.8125 75.640625 
Q 43.84375 75.640625 50.09375 70.3125 
Q 56.34375 64.984375 56.34375 55.421875 
Q 56.34375 39.703125 39.546875 35.015625 
L 39.546875 34.765625 
Q 42.671875 33.453125 44.9375 31 
Q 47.21875 28.5625 50.828125 22.65625 
z
M 19.53125 67.09375 
L 19.53125 40.375 
L 31.0625 40.375 
Q 37.75 40.375 41.921875 44.28125 
Q 46.09375 48.1875 46.09375 54.546875 
Q 46.09375 60.453125 42.28125 63.765625 
Q 38.484375 67.09375 31.203125 67.09375 
z
" id="MicrosoftYaHei-52"/>
     <path d="M 4.890625 36.921875 
Q 4.890625 55.21875 14.796875 66.0625 
Q 24.703125 76.90625 41.65625 76.90625 
Q 57.421875 76.90625 67.03125 66.3125 
Q 76.65625 55.71875 76.65625 38.71875 
Q 76.65625 20.3125 66.796875 9.515625 
Q 56.9375 -1.265625 40.4375 -1.265625 
Q 24.3125 -1.265625 14.59375 9.328125 
Q 4.890625 19.921875 4.890625 36.921875 
z
M 15.140625 37.703125 
Q 15.140625 23.96875 22.140625 15.6875 
Q 29.15625 7.421875 40.4375 7.421875 
Q 52.546875 7.421875 59.453125 15.359375 
Q 66.359375 23.296875 66.359375 37.546875 
Q 66.359375 52.203125 59.59375 60.15625 
Q 52.828125 68.109375 41.0625 68.109375 
Q 29.5 68.109375 22.3125 59.703125 
Q 15.140625 51.3125 15.140625 37.703125 
z
" id="MicrosoftYaHei-4f"/>
     <path d="M 26.8125 67.390625 
L 19.53125 67.390625 
L 19.53125 8.25 
L 26.8125 8.25 
L 26.8125 0 
L 2.484375 0 
L 2.484375 8.25 
L 9.765625 8.25 
L 9.765625 67.390625 
L 2.484375 67.390625 
L 2.484375 75.640625 
L 26.8125 75.640625 
z
" id="MicrosoftYaHei-49"/>
     <path d="M 61.53125 3.125 
Q 53.171875 -1.265625 40.578125 -1.265625 
Q 24.3125 -1.265625 14.59375 9.0625 
Q 4.890625 19.390625 4.890625 36.375 
Q 4.890625 54.640625 15.828125 65.765625 
Q 26.765625 76.90625 43.609375 76.90625 
Q 54.4375 76.90625 61.53125 73.828125 
L 61.53125 63.625 
Q 53.421875 68.109375 43.703125 68.109375 
Q 31.0625 68.109375 23.09375 59.6875 
Q 15.140625 51.265625 15.140625 36.96875 
Q 15.140625 23.390625 22.5625 15.40625 
Q 29.984375 7.421875 42 7.421875 
Q 53.21875 7.421875 61.53125 12.5 
z
" id="MicrosoftYaHei-43"/>
     <path id="MicrosoftYaHei-20"/>
     <path d="M 18.171875 37.25 
L 18.171875 44.671875 
L 22.078125 83.25 
L 30.171875 83.25 
L 28.65625 67.71875 
L 97.953125 67.71875 
L 97.953125 60.296875 
L 27.984375 60.296875 
L 26.46875 44.671875 
L 90.828125 44.671875 
Q 89.65625 24.171875 88.1875 6.5 
Q 86.8125 -3.859375 82.234375 -7.46875 
Q 77.828125 -10.984375 67.53125 -10.984375 
Q 57.90625 -10.890625 45.3125 -10.59375 
Q 44.734375 -7.28125 43.65625 -2.09375 
Q 58.5 -3.171875 65.828125 -3.265625 
Q 78.90625 -4.15625 80.078125 6.984375 
Q 81.34375 19.96875 82.234375 37.25 
z
M 1.65625 22.015625 
L 74.03125 22.015625 
L 74.03125 14.59375 
L 1.65625 14.59375 
z
" id="MicrosoftYaHei-4e0e"/>
     <path d="M 14.0625 66.453125 
L 56.734375 66.453125 
Q 62.84375 75.34375 67.671875 83.640625 
L 75.203125 79.734375 
Q 70.3125 73.046875 65.234375 66.453125 
L 85.9375 66.453125 
L 85.9375 26.609375 
L 78.125 26.609375 
L 78.125 30.90625 
L 21.875 30.90625 
L 21.875 26.609375 
L 14.0625 26.609375 
z
M 78.125 59.421875 
L 21.875 59.421875 
L 21.875 37.9375 
L 78.125 37.9375 
z
M 26.46875 21.53125 
L 34.078125 21.53125 
L 34.078125 4.4375 
Q 34.078125 -3.171875 40.921875 -3.171875 
L 60.546875 -3.171875 
Q 66.3125 -3.171875 67.78125 2.6875 
Q 68.65625 5.71875 69.53125 13.625 
Q 72.359375 12.359375 77.046875 10.6875 
Q 75.78125 3.265625 74.21875 -1.515625 
Q 71.1875 -10.015625 60.9375 -10.015625 
L 39.359375 -10.015625 
Q 26.46875 -10.015625 26.46875 3.078125 
z
M 11.234375 22.21875 
L 18.5625 19.875 
Q 14.546875 7.671875 8.40625 -5.21875 
Q 5.28125 -3.859375 1.265625 -2.09375 
Q 6.9375 9.328125 11.234375 22.21875 
z
M 76.265625 18.796875 
L 81.84375 23.09375 
Q 90.828125 13.140625 98.734375 3.078125 
L 92.1875 -2.09375 
Q 85.25 7.671875 76.265625 18.796875 
z
M 41.609375 24.859375 
L 47.5625 28.765625 
Q 54.5 21.4375 60.359375 13.140625 
L 53.8125 8.546875 
Q 47.953125 17.328125 41.609375 24.859375 
z
M 24.90625 79.828125 
L 30.859375 83.640625 
Q 36.71875 77.484375 41.40625 70.953125 
L 34.765625 66.65625 
Q 30.5625 72.703125 24.90625 79.828125 
z
" id="MicrosoftYaHei-603b"/>
     <path d="M 11.625 43.890625 
L 57.8125 43.890625 
Q 64.40625 53.609375 69.625 63.234375 
L 77.15625 58.453125 
Q 71.96875 51.171875 66.3125 43.890625 
L 95.21875 43.890625 
L 95.21875 37.0625 
L 19.53125 37.0625 
L 19.53125 30.21875 
Q 19.53125 12.9375 16.890625 4.4375 
Q 14.15625 -5.03125 6.546875 -13.328125 
Q 4 -10.203125 1.265625 -6.6875 
Q 7.03125 -0.53125 9.375 7.765625 
Q 11.625 15.875 11.625 30.21875 
z
M 3.609375 71.828125 
L 48.1875 71.828125 
Q 46.046875 75.828125 43.453125 80.03125 
L 50.6875 83.640625 
Q 53.859375 78.46875 57.171875 71.828125 
L 97.75 71.828125 
L 97.75 64.890625 
L 3.609375 64.890625 
z
M 24.03125 59.328125 
L 30.46875 63.625 
Q 36.53125 56 41.21875 49.171875 
L 34.28125 44.390625 
Q 30.46875 50.828125 24.03125 59.328125 
z
" id="MicrosoftYaHei-4ea7"/>
     <path d="M 35.0625 41.546875 
Q 47.5625 63.234375 53.125 83.453125 
L 61.03125 81.203125 
Q 57.90625 72.171875 54.5 63.921875 
L 97.078125 63.921875 
L 97.078125 56.6875 
L 85.59375 56.6875 
Q 84.125 28.421875 71.09375 10.640625 
Q 81 1.859375 99.21875 -4.640625 
Q 96.1875 -8.453125 93.65625 -12.453125 
Q 76.265625 -5.03125 65.921875 4.6875 
Q 56.5 -4.59375 39.84375 -13.328125 
Q 37.796875 -10.109375 34.859375 -6.78125 
Q 51.515625 1.5625 60.59375 10.5 
Q 49.3125 24.609375 46 45.5625 
Q 43.265625 40.234375 40.328125 35.296875 
Q 38.484375 38.140625 35.0625 41.546875 
z
M 26.265625 82.671875 
L 33.6875 82.671875 
L 33.6875 -12.75 
L 26.265625 -12.75 
L 26.265625 17.390625 
Q 20.3125 14.0625 14.15625 10.015625 
Q 11.625 8.15625 9.1875 5.609375 
L 3.609375 12.15625 
Q 6.640625 15.375 6.640625 20.5625 
L 6.640625 69 
L 14.0625 69 
L 14.0625 19 
Q 19.875 22.078125 26.265625 25.53125 
z
M 77.875 56.6875 
L 51.90625 56.6875 
Q 53.328125 32.859375 65.671875 16.546875 
Q 76.8125 32.234375 77.875 56.6875 
z
" id="MicrosoftYaHei-6536"/>
     <path d="M 1.765625 -1.609375 
L 15.921875 -1.609375 
L 15.921875 31.203125 
L 84.46875 31.203125 
L 84.46875 -1.609375 
L 97.953125 -1.609375 
L 97.953125 -8.453125 
L 1.765625 -8.453125 
z
M 4.109375 64.3125 
L 57.375 64.3125 
Q 66.015625 72.65625 74.125 83.34375 
L 81.25 78.859375 
Q 74.609375 71.140625 67.671875 64.3125 
L 96.484375 64.3125 
L 96.484375 57.46875 
L 4.109375 57.46875 
z
M 77.4375 24.5625 
L 63.765625 24.5625 
L 63.765625 -1.609375 
L 77.4375 -1.609375 
z
M 22.953125 -1.609375 
L 36.53125 -1.609375 
L 36.53125 24.5625 
L 22.953125 24.5625 
z
M 43.359375 -1.609375 
L 56.9375 -1.609375 
L 56.9375 24.5625 
L 43.359375 24.5625 
z
M 36.53125 54.4375 
L 41.3125 48.09375 
Q 26.078125 38.8125 7.125 29.25 
Q 5.171875 33.0625 3.125 36.078125 
Q 21.390625 44.875 36.53125 54.4375 
z
M 59.28125 48.296875 
L 63.28125 54.25 
Q 82.8125 45.0625 97.078125 37.25 
L 92.78125 30.03125 
Q 73.53125 41.15625 59.28125 48.296875 
z
M 19.34375 78.375 
L 24.421875 83.453125 
Q 32.8125 77.390625 39.546875 71.625 
L 33.984375 65.765625 
Q 27.640625 71.828125 19.34375 78.375 
z
" id="MicrosoftYaHei-76ca"/>
     <path d="M 69.1875 0 
L 58.40625 0 
L 50.6875 20.703125 
L 19.1875 20.703125 
L 11.921875 0 
L 1.125 0 
L 29.9375 75.640625 
L 40.375 75.640625 
z
M 47.65625 29.25 
L 36.234375 60.6875 
Q 35.6875 62.203125 35.0625 65.96875 
L 34.8125 65.96875 
Q 34.28125 62.546875 33.59375 60.6875 
L 22.265625 29.25 
z
" id="MicrosoftYaHei-41"/>
     <path d="M 57.625 -17.1875 
Q 40.1875 1.859375 40.1875 28.90625 
Q 40.1875 56.296875 57.625 75.59375 
L 66.015625 75.59375 
Q 48.6875 55.8125 48.6875 29 
Q 48.6875 2.59375 65.921875 -17.1875 
z
" id="MicrosoftYaHei-ff08"/>
     <path d="M 1.953125 14.203125 
L 46.1875 14.203125 
L 46.1875 25.25 
L 19.140625 25.25 
L 19.140625 20.65625 
L 11.71875 20.65625 
L 11.71875 68.015625 
L 31.984375 68.015625 
Q 27.296875 73.484375 21.875 79.25 
L 27.4375 83.84375 
Q 34.671875 76.90625 40.140625 71.046875 
L 36.53125 68.015625 
L 59.421875 68.015625 
Q 64.796875 75.140625 70.3125 83.546875 
L 78.125 79.34375 
Q 73.09375 73.25 68.40625 68.015625 
L 88.375 68.015625 
L 88.375 20.65625 
L 80.953125 20.65625 
L 80.953125 25.25 
L 53.8125 25.25 
L 53.8125 14.203125 
L 98.046875 14.203125 
L 98.046875 7.171875 
L 53.8125 7.171875 
L 53.8125 -13.421875 
L 46.1875 -13.421875 
L 46.1875 7.171875 
L 1.953125 7.171875 
z
M 53.8125 32.078125 
L 80.953125 32.078125 
L 80.953125 43.40625 
L 53.8125 43.40625 
z
M 19.140625 32.078125 
L 46.1875 32.078125 
L 46.1875 43.40625 
L 19.140625 43.40625 
z
M 80.953125 61.1875 
L 53.8125 61.1875 
L 53.8125 50.046875 
L 80.953125 50.046875 
z
M 19.140625 50.046875 
L 46.1875 50.046875 
L 46.1875 61.1875 
L 19.140625 61.1875 
z
" id="MicrosoftYaHei-5355"/>
     <path d="M 27.9375 -0.921875 
L 66.0625 -0.921875 
Q 73.09375 17.875 82.328125 52.6875 
L 91.109375 50.046875 
Q 85.203125 31.9375 74.3125 -0.921875 
L 98.734375 -0.921875 
L 98.734375 -8.15625 
L 27.9375 -8.15625 
z
M 1.265625 35.796875 
Q 15.234375 56.890625 22.359375 83.15625 
L 30.671875 81.109375 
Q 26.609375 68.703125 21.96875 57.953125 
L 21.96875 -13.328125 
L 14.65625 -13.328125 
L 14.65625 42.671875 
Q 10.0625 34.078125 4.984375 26.8125 
Q 3.609375 30.515625 1.265625 35.796875 
z
M 29.984375 65.484375 
L 64.40625 65.484375 
Q 60.0625 72.796875 54.78125 79.046875 
L 61.421875 83.640625 
Q 65.71875 78.65625 72.078125 70.265625 
L 64.84375 65.484375 
L 96.96875 65.484375 
L 96.96875 58.25 
L 29.984375 58.25 
z
M 43.265625 51.703125 
Q 49.703125 34.125 57.328125 9.125 
L 49.21875 6.78125 
Q 42.578125 30.71875 35.84375 49.171875 
z
" id="MicrosoftYaHei-4f4d"/>
     <path d="M 50.09375 55.171875 
Q 52.6875 55.171875 54.53125 53.359375 
Q 56.390625 51.5625 56.390625 49.03125 
Q 56.390625 46.484375 54.578125 44.65625 
Q 52.78125 42.828125 50.09375 42.828125 
Q 47.40625 42.828125 45.59375 44.65625 
Q 43.796875 46.484375 43.796875 49.03125 
Q 43.796875 51.5625 45.65625 53.359375 
Q 47.515625 55.171875 50.09375 55.171875 
z
M 50.09375 11.1875 
Q 52.6875 11.1875 54.53125 9.375 
Q 56.390625 7.5625 56.390625 4.984375 
Q 56.390625 2.34375 54.53125 0.5625 
Q 52.6875 -1.21875 50.09375 -1.21875 
Q 47.515625 -1.21875 45.65625 0.5625 
Q 43.796875 2.34375 43.796875 4.984375 
Q 43.796875 7.5625 45.65625 9.375 
Q 47.515625 11.1875 50.09375 11.1875 
z
" id="MicrosoftYaHei-ff1a"/>
     <path d="M 12.703125 57.078125 
L 42.71875 57.078125 
L 45.40625 70.359375 
L 2.546875 70.359375 
L 2.546875 77.59375 
L 97.5625 77.59375 
L 97.5625 70.359375 
L 53.375 70.359375 
L 50.25 57.078125 
L 87.5 57.078125 
L 87.5 -12.25 
L 79.6875 -12.25 
L 79.6875 -5.03125 
L 20.515625 -5.03125 
L 20.515625 -12.25 
L 12.703125 -12.25 
z
M 20.515625 2 
L 79.6875 2 
L 79.6875 22.703125 
L 20.515625 22.703125 
z
M 79.6875 50.046875 
L 20.515625 50.046875 
L 20.515625 29.734375 
L 79.6875 29.734375 
z
" id="MicrosoftYaHei-767e"/>
     <path d="M 14.0625 39.984375 
L 79 39.984375 
Q 78.515625 23.390625 77.546875 7.5625 
Q 76.375 -10.6875 60.25 -10.59375 
Q 52.34375 -10.6875 43.5625 -10.109375 
Q 42.96875 -6 42.1875 -1.8125 
Q 49.703125 -2.875 58.984375 -2.984375 
Q 68.75 -3.171875 69.734375 8.453125 
Q 70.515625 19 70.90625 32.765625 
L 40.875 32.765625 
Q 39.703125 16.453125 34.078125 6.5 
Q 26.65625 -6.59375 9.1875 -13.71875 
Q 6.640625 -10.40625 3.609375 -7.171875 
Q 19.828125 -1.125 26.953125 10.40625 
Q 32.078125 19.140625 32.859375 32.765625 
L 14.0625 32.765625 
z
M 54.5 80.609375 
L 61.53125 83.640625 
Q 72.265625 57.46875 99.21875 44.484375 
Q 94.828125 39.890625 92.875 37.0625 
Q 66.015625 52.59375 54.5 80.609375 
z
M 0.78125 43.21875 
Q 20.90625 57.46875 35.15625 82.078125 
L 42.09375 78.265625 
Q 27.25 52.296875 6.453125 36.578125 
Q 4.390625 39.59375 0.78125 43.21875 
z
" id="MicrosoftYaHei-5206"/>
     <path d="M 50.390625 83.0625 
L 58.5 83.0625 
L 58.5 41.75 
Q 77.484375 55.46875 89.75 70.453125 
L 96.6875 65.28125 
Q 80.859375 47.859375 58.5 32.125 
L 58.5 3.859375 
Q 58.5 -2.59375 64.15625 -2.59375 
L 80.859375 -2.59375 
Q 87.3125 -2.59375 88.28125 3.171875 
Q 89.453125 10.59375 90.046875 19.484375 
Q 94.140625 17.921875 98.4375 16.65625 
Q 97.5625 7.5625 96.09375 0.34375 
Q 94.046875 -9.71875 83.109375 -9.71875 
L 61.625 -9.71875 
Q 50.390625 -9.71875 50.390625 2.484375 
z
M 16.609375 80.515625 
L 16.609375 51.21875 
L 44.140625 51.21875 
L 44.140625 43.890625 
L 16.609375 43.890625 
L 16.609375 2.390625 
Q 26.765625 6.6875 43.171875 14.5 
Q 43.171875 9.90625 43.5625 5.71875 
Q 29.203125 -0.046875 19.234375 -5.125 
Q 14.9375 -7.375 11.328125 -10.5 
L 5.375 -2.875 
Q 8.5 -0.53125 8.5 4.25 
L 8.5 80.515625 
z
" id="MicrosoftYaHei-6bd4"/>
     <path d="M 4.25 56.546875 
Q 4.25 65.828125 9.203125 71.296875 
Q 14.15625 76.765625 22.5625 76.765625 
Q 30.609375 76.765625 35.125 71.734375 
Q 39.65625 66.703125 39.65625 57.71875 
Q 39.65625 48.78125 34.671875 43.203125 
Q 29.6875 37.640625 21.4375 37.640625 
Q 13.625 37.640625 8.9375 42.8125 
Q 4.25 48 4.25 56.546875 
z
M 11.765625 57.03125 
Q 11.765625 50.734375 14.5 47.3125 
Q 17.234375 43.890625 21.96875 43.890625 
Q 26.859375 43.890625 29.515625 47.4375 
Q 32.171875 50.984375 32.171875 57.421875 
Q 32.171875 63.71875 29.5625 67.15625 
Q 26.953125 70.609375 22.21875 70.609375 
Q 17.390625 70.609375 14.578125 67.015625 
Q 11.765625 63.421875 11.765625 57.03125 
z
M 72.609375 75.640625 
L 24.03125 -0.484375 
L 15.875 -0.484375 
L 64.453125 75.640625 
z
M 49.5625 17.71875 
Q 49.5625 27 54.515625 32.546875 
Q 59.46875 38.09375 67.828125 38.09375 
Q 75.828125 38.09375 80.359375 33.03125 
Q 84.90625 27.984375 84.90625 18.796875 
Q 84.90625 9.90625 79.875 4.359375 
Q 74.859375 -1.171875 66.75 -1.171875 
Q 58.890625 -1.171875 54.21875 4.078125 
Q 49.5625 9.328125 49.5625 17.71875 
z
M 57.03125 18.171875 
Q 57.03125 12.015625 59.765625 8.5625 
Q 62.5 5.125 67.234375 5.125 
Q 72.125 5.125 74.78125 8.6875 
Q 77.4375 12.25 77.4375 18.65625 
Q 77.4375 25 74.78125 28.359375 
Q 72.125 31.734375 67.484375 31.734375 
Q 62.5 31.734375 59.765625 28.140625 
Q 57.03125 24.5625 57.03125 18.171875 
z
" id="MicrosoftYaHei-25"/>
     <path d="M 42.390625 -17.1875 
L 33.984375 -17.1875 
Q 51.3125 2.546875 51.3125 29.5 
Q 51.3125 55.953125 34.078125 75.59375 
L 42.390625 75.59375 
Q 59.71875 56.6875 59.71875 29.5 
Q 59.71875 2 42.390625 -17.1875 
z
" id="MicrosoftYaHei-ff09"/>
    </defs>
    <g transform="translate(272.525625 45.84)scale(0.12 -0.12)">
     <use xlink:href="#MicrosoftYaHei-6295"/>
     <use x="100" xlink:href="#MicrosoftYaHei-5165"/>
     <use x="200" xlink:href="#MicrosoftYaHei-8d44"/>
     <use x="300" xlink:href="#MicrosoftYaHei-672c"/>
     <use x="400" xlink:href="#MicrosoftYaHei-56de"/>
     <use x="500" xlink:href="#MicrosoftYaHei-62a5"/>
     <use x="600" xlink:href="#MicrosoftYaHei-7387"/>
     <use x="700" xlink:href="#MicrosoftYaHei-52"/>
     <use x="765.267578" xlink:href="#MicrosoftYaHei-4f"/>
     <use x="846.761719" xlink:href="#MicrosoftYaHei-49"/>
     <use x="876.15625" xlink:href="#MicrosoftYaHei-43"/>
     <use x="943.050781" xlink:href="#MicrosoftYaHei-20"/>
     <use x="972.640625" xlink:href="#MicrosoftYaHei-4e0e"/>
     <use x="1072.640625" xlink:href="#MicrosoftYaHei-20"/>
     <use x="1102.230469" xlink:href="#MicrosoftYaHei-603b"/>
     <use x="1202.230469" xlink:href="#MicrosoftYaHei-8d44"/>
     <use x="1302.230469" xlink:href="#MicrosoftYaHei-4ea7"/>
     <use x="1402.230469" xlink:href="#MicrosoftYaHei-6536"/>
     <use x="1502.230469" xlink:href="#MicrosoftYaHei-76ca"/>
     <use x="1602.230469" xlink:href="#MicrosoftYaHei-7387"/>
     <use x="1702.230469" xlink:href="#MicrosoftYaHei-52"/>
     <use x="1767.498047" xlink:href="#MicrosoftYaHei-4f"/>
     <use x="1848.976562" xlink:href="#MicrosoftYaHei-41"/>
     <use x="1919.337891" xlink:href="#MicrosoftYaHei-20"/>
     <use x="1948.927734" xlink:href="#MicrosoftYaHei-ff08"/>
     <use x="2048.927734" xlink:href="#MicrosoftYaHei-5355"/>
     <use x="2148.927734" xlink:href="#MicrosoftYaHei-4f4d"/>
     <use x="2248.927734" xlink:href="#MicrosoftYaHei-ff1a"/>
     <use x="2348.927734" xlink:href="#MicrosoftYaHei-767e"/>
     <use x="2448.927734" xlink:href="#MicrosoftYaHei-5206"/>
     <use x="2548.927734" xlink:href="#MicrosoftYaHei-6bd4"/>
     <use x="2648.927734" xlink:href="#MicrosoftYaHei-25"/>
     <use x="2737.892578" xlink:href="#MicrosoftYaHei-ff09"/>
    </g>
   </g>
   <g id="legend_1">
    <g id="patch_7">
     <path d="M 316.8 429.287625 
L 568.8 429.287625 
Q 571.2 429.287625 571.2 426.887625 
L 571.2 409.512 
Q 571.2 407.112 568.8 407.112 
L 316.8 407.112 
Q 314.4 407.112 314.4 409.512 
L 314.4 426.887625 
Q 314.4 429.287625 316.8 429.287625 
z
" style="fill:#ffffff;opacity:0.8;stroke:#cccccc;stroke-linejoin:miter;"/>
    </g>
    <path d="M 321.2 419.3045 
L 345.2 419.3045 
" style="fill:none;opacity:0.3;stroke:#000000;stroke-linecap:square;stroke-width:2.5;"/>
    <path d="M 319.2 417.3045 
L 343.2 417.3045 
" style="fill:none;stroke:#7f7f7f;stroke-linecap:square;stroke-width:2.5;"/>
    <path d="M 330.2 419.3045 
L 336.2 419.3045 
M 333.2 422.3045 
L 333.2 416.3045 
" style="fill:none;opacity:0.3;stroke:#000000;"/>
    <path d="M 328.2 417.3045 
L 334.2 417.3045 
M 331.2 420.3045 
L 331.2 414.3045 
" style="fill:#7f7f7f;stroke:#7f7f7f;"/>
    <g id="text_23">
     <!-- 投入资本回报率 -->
     <g transform="translate(352.8 421.5045)scale(0.12 -0.12)">
      <use xlink:href="#MicrosoftYaHei-6295"/>
      <use x="100" xlink:href="#MicrosoftYaHei-5165"/>
      <use x="200" xlink:href="#MicrosoftYaHei-8d44"/>
      <use x="300" xlink:href="#MicrosoftYaHei-672c"/>
      <use x="400" xlink:href="#MicrosoftYaHei-56de"/>
      <use x="500" xlink:href="#MicrosoftYaHei-62a5"/>
      <use x="600" xlink:href="#MicrosoftYaHei-7387"/>
     </g>
    </g>
    <path d="M 462.8 419.3045 
L 486.8 419.3045 
" style="fill:none;opacity:0.3;stroke:#000000;stroke-linecap:square;stroke-width:2.5;"/>
    <path d="M 460.8 417.3045 
L 484.8 417.3045 
" style="fill:none;stroke:#c00000;stroke-linecap:square;stroke-width:2.5;"/>
    <path d="M 471.8 419.3045 
L 477.8 419.3045 
M 474.8 422.3045 
L 474.8 416.3045 
" style="fill:none;opacity:0.3;stroke:#000000;"/>
    <path d="M 469.8 417.3045 
L 475.8 417.3045 
M 472.8 420.3045 
L 472.8 414.3045 
" style="fill:#c00000;stroke:#c00000;"/>
    <g id="text_24">
     <!-- 总资产收益率 -->
     <g transform="translate(494.4 421.5045)scale(0.12 -0.12)">
      <use xlink:href="#MicrosoftYaHei-603b"/>
      <use x="100" xlink:href="#MicrosoftYaHei-8d44"/>
      <use x="200" xlink:href="#MicrosoftYaHei-4ea7"/>
      <use x="300" xlink:href="#MicrosoftYaHei-6536"/>
      <use x="400" xlink:href="#MicrosoftYaHei-76ca"/>
      <use x="500" xlink:href="#MicrosoftYaHei-7387"/>
     </g>
    </g>
   </g>
  </g>
 </g>
 <defs>
  <clipPath id="p14416081ec">
   <rect height="332.64" width="669.6" x="108" y="51.84"/>
  </clipPath>
 </defs>
</svg>
