<?xml version="1.0" encoding="utf-8" standalone="no"?>
<!DOCTYPE svg PUBLIC "-//W3C//DTD SVG 1.1//EN"
  "http://www.w3.org/Graphics/SVG/1.1/DTD/svg11.dtd">
<!-- Created with matplotlib (http://matplotlib.org/) -->
<svg height="432pt" version="1.1" viewBox="0 0 864 432" width="864pt" xmlns="http://www.w3.org/2000/svg" xmlns:xlink="http://www.w3.org/1999/xlink">
 <defs>
  <style type="text/css">
*{stroke-linecap:butt;stroke-linejoin:round;}
  </style>
 </defs>
 <g id="figure_1">
  <g id="patch_1">
   <path d="M 0 432 
L 864 432 
L 864 0 
L 0 0 
z
" style="fill:#ffffff;"/>
  </g>
  <g id="axes_1">
   <g id="patch_2">
    <path d="M 108 384.48 
L 777.6 384.48 
L 777.6 51.84 
L 108 51.84 
z
" style="fill:#ffffff;"/>
   </g>
   <g id="matplotlib.axis_1">
    <g id="xtick_1">
     <g id="line2d_1">
      <defs>
       <path d="M 0 0 
L 0 3 
" id="ma23d0f1834" style="stroke:#000000;stroke-width:3;"/>
      </defs>
      <g>
       <use style="stroke:#000000;stroke-width:3;" x="138.436364" xlink:href="#ma23d0f1834" y="384.48"/>
      </g>
     </g>
     <g id="text_1">
      <!-- 2002 -->
      <defs>
       <path d="M 19.1875 8.296875 
L 53.609375 8.296875 
L 53.609375 0 
L 7.328125 0 
L 7.328125 8.296875 
Q 12.9375 14.109375 22.625 23.890625 
Q 32.328125 33.6875 34.8125 36.53125 
Q 39.546875 41.84375 41.421875 45.53125 
Q 43.3125 49.21875 43.3125 52.78125 
Q 43.3125 58.59375 39.234375 62.25 
Q 35.15625 65.921875 28.609375 65.921875 
Q 23.96875 65.921875 18.8125 64.3125 
Q 13.671875 62.703125 7.8125 59.421875 
L 7.8125 69.390625 
Q 13.765625 71.78125 18.9375 73 
Q 24.125 74.21875 28.421875 74.21875 
Q 39.75 74.21875 46.484375 68.546875 
Q 53.21875 62.890625 53.21875 53.421875 
Q 53.21875 48.921875 51.53125 44.890625 
Q 49.859375 40.875 45.40625 35.40625 
Q 44.1875 33.984375 37.640625 27.21875 
Q 31.109375 20.453125 19.1875 8.296875 
z
" id="DejaVuSans-32"/>
       <path d="M 31.78125 66.40625 
Q 24.171875 66.40625 20.328125 58.90625 
Q 16.5 51.421875 16.5 36.375 
Q 16.5 21.390625 20.328125 13.890625 
Q 24.171875 6.390625 31.78125 6.390625 
Q 39.453125 6.390625 43.28125 13.890625 
Q 47.125 21.390625 47.125 36.375 
Q 47.125 51.421875 43.28125 58.90625 
Q 39.453125 66.40625 31.78125 66.40625 
z
M 31.78125 74.21875 
Q 44.046875 74.21875 50.515625 64.515625 
Q 56.984375 54.828125 56.984375 36.375 
Q 56.984375 17.96875 50.515625 8.265625 
Q 44.046875 -1.421875 31.78125 -1.421875 
Q 19.53125 -1.421875 13.0625 8.265625 
Q 6.59375 17.96875 6.59375 36.375 
Q 6.59375 54.828125 13.0625 64.515625 
Q 19.53125 74.21875 31.78125 74.21875 
z
" id="DejaVuSans-30"/>
      </defs>
      <g transform="translate(125.711364 398.578438)scale(0.1 -0.1)">
       <use xlink:href="#DejaVuSans-32"/>
       <use x="63.623047" xlink:href="#DejaVuSans-30"/>
       <use x="127.246094" xlink:href="#DejaVuSans-30"/>
       <use x="190.869141" xlink:href="#DejaVuSans-32"/>
      </g>
     </g>
    </g>
    <g id="xtick_2">
     <g id="line2d_2">
      <g>
       <use style="stroke:#000000;stroke-width:3;" x="181.916883" xlink:href="#ma23d0f1834" y="384.48"/>
      </g>
     </g>
     <g id="text_2">
      <!-- 2003 -->
      <defs>
       <path d="M 40.578125 39.3125 
Q 47.65625 37.796875 51.625 33 
Q 55.609375 28.21875 55.609375 21.1875 
Q 55.609375 10.40625 48.1875 4.484375 
Q 40.765625 -1.421875 27.09375 -1.421875 
Q 22.515625 -1.421875 17.65625 -0.515625 
Q 12.796875 0.390625 7.625 2.203125 
L 7.625 11.71875 
Q 11.71875 9.328125 16.59375 8.109375 
Q 21.484375 6.890625 26.8125 6.890625 
Q 36.078125 6.890625 40.9375 10.546875 
Q 45.796875 14.203125 45.796875 21.1875 
Q 45.796875 27.640625 41.28125 31.265625 
Q 36.765625 34.90625 28.71875 34.90625 
L 20.21875 34.90625 
L 20.21875 43.015625 
L 29.109375 43.015625 
Q 36.375 43.015625 40.234375 45.921875 
Q 44.09375 48.828125 44.09375 54.296875 
Q 44.09375 59.90625 40.109375 62.90625 
Q 36.140625 65.921875 28.71875 65.921875 
Q 24.65625 65.921875 20.015625 65.03125 
Q 15.375 64.15625 9.8125 62.3125 
L 9.8125 71.09375 
Q 15.4375 72.65625 20.34375 73.4375 
Q 25.25 74.21875 29.59375 74.21875 
Q 40.828125 74.21875 47.359375 69.109375 
Q 53.90625 64.015625 53.90625 55.328125 
Q 53.90625 49.265625 50.4375 45.09375 
Q 46.96875 40.921875 40.578125 39.3125 
z
" id="DejaVuSans-33"/>
      </defs>
      <g transform="translate(169.191883 398.578438)scale(0.1 -0.1)">
       <use xlink:href="#DejaVuSans-32"/>
       <use x="63.623047" xlink:href="#DejaVuSans-30"/>
       <use x="127.246094" xlink:href="#DejaVuSans-30"/>
       <use x="190.869141" xlink:href="#DejaVuSans-33"/>
      </g>
     </g>
    </g>
    <g id="xtick_3">
     <g id="line2d_3">
      <g>
       <use style="stroke:#000000;stroke-width:3;" x="225.397403" xlink:href="#ma23d0f1834" y="384.48"/>
      </g>
     </g>
     <g id="text_3">
      <!-- 2004 -->
      <defs>
       <path d="M 37.796875 64.3125 
L 12.890625 25.390625 
L 37.796875 25.390625 
z
M 35.203125 72.90625 
L 47.609375 72.90625 
L 47.609375 25.390625 
L 58.015625 25.390625 
L 58.015625 17.1875 
L 47.609375 17.1875 
L 47.609375 0 
L 37.796875 0 
L 37.796875 17.1875 
L 4.890625 17.1875 
L 4.890625 26.703125 
z
" id="DejaVuSans-34"/>
      </defs>
      <g transform="translate(212.672403 398.578438)scale(0.1 -0.1)">
       <use xlink:href="#DejaVuSans-32"/>
       <use x="63.623047" xlink:href="#DejaVuSans-30"/>
       <use x="127.246094" xlink:href="#DejaVuSans-30"/>
       <use x="190.869141" xlink:href="#DejaVuSans-34"/>
      </g>
     </g>
    </g>
    <g id="xtick_4">
     <g id="line2d_4">
      <g>
       <use style="stroke:#000000;stroke-width:3;" x="268.877922" xlink:href="#ma23d0f1834" y="384.48"/>
      </g>
     </g>
     <g id="text_4">
      <!-- 2005 -->
      <defs>
       <path d="M 10.796875 72.90625 
L 49.515625 72.90625 
L 49.515625 64.59375 
L 19.828125 64.59375 
L 19.828125 46.734375 
Q 21.96875 47.46875 24.109375 47.828125 
Q 26.265625 48.1875 28.421875 48.1875 
Q 40.625 48.1875 47.75 41.5 
Q 54.890625 34.8125 54.890625 23.390625 
Q 54.890625 11.625 47.5625 5.09375 
Q 40.234375 -1.421875 26.90625 -1.421875 
Q 22.3125 -1.421875 17.546875 -0.640625 
Q 12.796875 0.140625 7.71875 1.703125 
L 7.71875 11.625 
Q 12.109375 9.234375 16.796875 8.0625 
Q 21.484375 6.890625 26.703125 6.890625 
Q 35.15625 6.890625 40.078125 11.328125 
Q 45.015625 15.765625 45.015625 23.390625 
Q 45.015625 31 40.078125 35.4375 
Q 35.15625 39.890625 26.703125 39.890625 
Q 22.75 39.890625 18.8125 39.015625 
Q 14.890625 38.140625 10.796875 36.28125 
z
" id="DejaVuSans-35"/>
      </defs>
      <g transform="translate(256.152922 398.578438)scale(0.1 -0.1)">
       <use xlink:href="#DejaVuSans-32"/>
       <use x="63.623047" xlink:href="#DejaVuSans-30"/>
       <use x="127.246094" xlink:href="#DejaVuSans-30"/>
       <use x="190.869141" xlink:href="#DejaVuSans-35"/>
      </g>
     </g>
    </g>
    <g id="xtick_5">
     <g id="line2d_5">
      <g>
       <use style="stroke:#000000;stroke-width:3;" x="312.358442" xlink:href="#ma23d0f1834" y="384.48"/>
      </g>
     </g>
     <g id="text_5">
      <!-- 2006 -->
      <defs>
       <path d="M 33.015625 40.375 
Q 26.375 40.375 22.484375 35.828125 
Q 18.609375 31.296875 18.609375 23.390625 
Q 18.609375 15.53125 22.484375 10.953125 
Q 26.375 6.390625 33.015625 6.390625 
Q 39.65625 6.390625 43.53125 10.953125 
Q 47.40625 15.53125 47.40625 23.390625 
Q 47.40625 31.296875 43.53125 35.828125 
Q 39.65625 40.375 33.015625 40.375 
z
M 52.59375 71.296875 
L 52.59375 62.3125 
Q 48.875 64.0625 45.09375 64.984375 
Q 41.3125 65.921875 37.59375 65.921875 
Q 27.828125 65.921875 22.671875 59.328125 
Q 17.53125 52.734375 16.796875 39.40625 
Q 19.671875 43.65625 24.015625 45.921875 
Q 28.375 48.1875 33.59375 48.1875 
Q 44.578125 48.1875 50.953125 41.515625 
Q 57.328125 34.859375 57.328125 23.390625 
Q 57.328125 12.15625 50.6875 5.359375 
Q 44.046875 -1.421875 33.015625 -1.421875 
Q 20.359375 -1.421875 13.671875 8.265625 
Q 6.984375 17.96875 6.984375 36.375 
Q 6.984375 53.65625 15.1875 63.9375 
Q 23.390625 74.21875 37.203125 74.21875 
Q 40.921875 74.21875 44.703125 73.484375 
Q 48.484375 72.75 52.59375 71.296875 
z
" id="DejaVuSans-36"/>
      </defs>
      <g transform="translate(299.633442 398.578438)scale(0.1 -0.1)">
       <use xlink:href="#DejaVuSans-32"/>
       <use x="63.623047" xlink:href="#DejaVuSans-30"/>
       <use x="127.246094" xlink:href="#DejaVuSans-30"/>
       <use x="190.869141" xlink:href="#DejaVuSans-36"/>
      </g>
     </g>
    </g>
    <g id="xtick_6">
     <g id="line2d_6">
      <g>
       <use style="stroke:#000000;stroke-width:3;" x="355.838961" xlink:href="#ma23d0f1834" y="384.48"/>
      </g>
     </g>
     <g id="text_6">
      <!-- 2007 -->
      <defs>
       <path d="M 8.203125 72.90625 
L 55.078125 72.90625 
L 55.078125 68.703125 
L 28.609375 0 
L 18.3125 0 
L 43.21875 64.59375 
L 8.203125 64.59375 
z
" id="DejaVuSans-37"/>
      </defs>
      <g transform="translate(343.113961 398.578438)scale(0.1 -0.1)">
       <use xlink:href="#DejaVuSans-32"/>
       <use x="63.623047" xlink:href="#DejaVuSans-30"/>
       <use x="127.246094" xlink:href="#DejaVuSans-30"/>
       <use x="190.869141" xlink:href="#DejaVuSans-37"/>
      </g>
     </g>
    </g>
    <g id="xtick_7">
     <g id="line2d_7">
      <g>
       <use style="stroke:#000000;stroke-width:3;" x="399.319481" xlink:href="#ma23d0f1834" y="384.48"/>
      </g>
     </g>
     <g id="text_7">
      <!-- 2008 -->
      <defs>
       <path d="M 31.78125 34.625 
Q 24.75 34.625 20.71875 30.859375 
Q 16.703125 27.09375 16.703125 20.515625 
Q 16.703125 13.921875 20.71875 10.15625 
Q 24.75 6.390625 31.78125 6.390625 
Q 38.8125 6.390625 42.859375 10.171875 
Q 46.921875 13.96875 46.921875 20.515625 
Q 46.921875 27.09375 42.890625 30.859375 
Q 38.875 34.625 31.78125 34.625 
z
M 21.921875 38.8125 
Q 15.578125 40.375 12.03125 44.71875 
Q 8.5 49.078125 8.5 55.328125 
Q 8.5 64.0625 14.71875 69.140625 
Q 20.953125 74.21875 31.78125 74.21875 
Q 42.671875 74.21875 48.875 69.140625 
Q 55.078125 64.0625 55.078125 55.328125 
Q 55.078125 49.078125 51.53125 44.71875 
Q 48 40.375 41.703125 38.8125 
Q 48.828125 37.15625 52.796875 32.3125 
Q 56.78125 27.484375 56.78125 20.515625 
Q 56.78125 9.90625 50.3125 4.234375 
Q 43.84375 -1.421875 31.78125 -1.421875 
Q 19.734375 -1.421875 13.25 4.234375 
Q 6.78125 9.90625 6.78125 20.515625 
Q 6.78125 27.484375 10.78125 32.3125 
Q 14.796875 37.15625 21.921875 38.8125 
z
M 18.3125 54.390625 
Q 18.3125 48.734375 21.84375 45.5625 
Q 25.390625 42.390625 31.78125 42.390625 
Q 38.140625 42.390625 41.71875 45.5625 
Q 45.3125 48.734375 45.3125 54.390625 
Q 45.3125 60.0625 41.71875 63.234375 
Q 38.140625 66.40625 31.78125 66.40625 
Q 25.390625 66.40625 21.84375 63.234375 
Q 18.3125 60.0625 18.3125 54.390625 
z
" id="DejaVuSans-38"/>
      </defs>
      <g transform="translate(386.594481 398.578438)scale(0.1 -0.1)">
       <use xlink:href="#DejaVuSans-32"/>
       <use x="63.623047" xlink:href="#DejaVuSans-30"/>
       <use x="127.246094" xlink:href="#DejaVuSans-30"/>
       <use x="190.869141" xlink:href="#DejaVuSans-38"/>
      </g>
     </g>
    </g>
    <g id="xtick_8">
     <g id="line2d_8">
      <g>
       <use style="stroke:#000000;stroke-width:3;" x="442.8" xlink:href="#ma23d0f1834" y="384.48"/>
      </g>
     </g>
     <g id="text_8">
      <!-- 2009 -->
      <defs>
       <path d="M 10.984375 1.515625 
L 10.984375 10.5 
Q 14.703125 8.734375 18.5 7.8125 
Q 22.3125 6.890625 25.984375 6.890625 
Q 35.75 6.890625 40.890625 13.453125 
Q 46.046875 20.015625 46.78125 33.40625 
Q 43.953125 29.203125 39.59375 26.953125 
Q 35.25 24.703125 29.984375 24.703125 
Q 19.046875 24.703125 12.671875 31.3125 
Q 6.296875 37.9375 6.296875 49.421875 
Q 6.296875 60.640625 12.9375 67.421875 
Q 19.578125 74.21875 30.609375 74.21875 
Q 43.265625 74.21875 49.921875 64.515625 
Q 56.59375 54.828125 56.59375 36.375 
Q 56.59375 19.140625 48.40625 8.859375 
Q 40.234375 -1.421875 26.421875 -1.421875 
Q 22.703125 -1.421875 18.890625 -0.6875 
Q 15.09375 0.046875 10.984375 1.515625 
z
M 30.609375 32.421875 
Q 37.25 32.421875 41.125 36.953125 
Q 45.015625 41.5 45.015625 49.421875 
Q 45.015625 57.28125 41.125 61.84375 
Q 37.25 66.40625 30.609375 66.40625 
Q 23.96875 66.40625 20.09375 61.84375 
Q 16.21875 57.28125 16.21875 49.421875 
Q 16.21875 41.5 20.09375 36.953125 
Q 23.96875 32.421875 30.609375 32.421875 
z
" id="DejaVuSans-39"/>
      </defs>
      <g transform="translate(430.075 398.578438)scale(0.1 -0.1)">
       <use xlink:href="#DejaVuSans-32"/>
       <use x="63.623047" xlink:href="#DejaVuSans-30"/>
       <use x="127.246094" xlink:href="#DejaVuSans-30"/>
       <use x="190.869141" xlink:href="#DejaVuSans-39"/>
      </g>
     </g>
    </g>
    <g id="xtick_9">
     <g id="line2d_9">
      <g>
       <use style="stroke:#000000;stroke-width:3;" x="486.280519" xlink:href="#ma23d0f1834" y="384.48"/>
      </g>
     </g>
     <g id="text_9">
      <!-- 2010 -->
      <defs>
       <path d="M 12.40625 8.296875 
L 28.515625 8.296875 
L 28.515625 63.921875 
L 10.984375 60.40625 
L 10.984375 69.390625 
L 28.421875 72.90625 
L 38.28125 72.90625 
L 38.28125 8.296875 
L 54.390625 8.296875 
L 54.390625 0 
L 12.40625 0 
z
" id="DejaVuSans-31"/>
      </defs>
      <g transform="translate(473.555519 398.578438)scale(0.1 -0.1)">
       <use xlink:href="#DejaVuSans-32"/>
       <use x="63.623047" xlink:href="#DejaVuSans-30"/>
       <use x="127.246094" xlink:href="#DejaVuSans-31"/>
       <use x="190.869141" xlink:href="#DejaVuSans-30"/>
      </g>
     </g>
    </g>
    <g id="xtick_10">
     <g id="line2d_10">
      <g>
       <use style="stroke:#000000;stroke-width:3;" x="529.761039" xlink:href="#ma23d0f1834" y="384.48"/>
      </g>
     </g>
     <g id="text_10">
      <!-- 2011 -->
      <g transform="translate(517.036039 398.578438)scale(0.1 -0.1)">
       <use xlink:href="#DejaVuSans-32"/>
       <use x="63.623047" xlink:href="#DejaVuSans-30"/>
       <use x="127.246094" xlink:href="#DejaVuSans-31"/>
       <use x="190.869141" xlink:href="#DejaVuSans-31"/>
      </g>
     </g>
    </g>
    <g id="xtick_11">
     <g id="line2d_11">
      <g>
       <use style="stroke:#000000;stroke-width:3;" x="573.241558" xlink:href="#ma23d0f1834" y="384.48"/>
      </g>
     </g>
     <g id="text_11">
      <!-- 2012 -->
      <g transform="translate(560.516558 398.578438)scale(0.1 -0.1)">
       <use xlink:href="#DejaVuSans-32"/>
       <use x="63.623047" xlink:href="#DejaVuSans-30"/>
       <use x="127.246094" xlink:href="#DejaVuSans-31"/>
       <use x="190.869141" xlink:href="#DejaVuSans-32"/>
      </g>
     </g>
    </g>
    <g id="xtick_12">
     <g id="line2d_12">
      <g>
       <use style="stroke:#000000;stroke-width:3;" x="616.722078" xlink:href="#ma23d0f1834" y="384.48"/>
      </g>
     </g>
     <g id="text_12">
      <!-- 2013 -->
      <g transform="translate(603.997078 398.578438)scale(0.1 -0.1)">
       <use xlink:href="#DejaVuSans-32"/>
       <use x="63.623047" xlink:href="#DejaVuSans-30"/>
       <use x="127.246094" xlink:href="#DejaVuSans-31"/>
       <use x="190.869141" xlink:href="#DejaVuSans-33"/>
      </g>
     </g>
    </g>
    <g id="xtick_13">
     <g id="line2d_13">
      <g>
       <use style="stroke:#000000;stroke-width:3;" x="660.202597" xlink:href="#ma23d0f1834" y="384.48"/>
      </g>
     </g>
     <g id="text_13">
      <!-- 2014 -->
      <g transform="translate(647.477597 398.578438)scale(0.1 -0.1)">
       <use xlink:href="#DejaVuSans-32"/>
       <use x="63.623047" xlink:href="#DejaVuSans-30"/>
       <use x="127.246094" xlink:href="#DejaVuSans-31"/>
       <use x="190.869141" xlink:href="#DejaVuSans-34"/>
      </g>
     </g>
    </g>
    <g id="xtick_14">
     <g id="line2d_14">
      <g>
       <use style="stroke:#000000;stroke-width:3;" x="703.683117" xlink:href="#ma23d0f1834" y="384.48"/>
      </g>
     </g>
     <g id="text_14">
      <!-- 2015 -->
      <g transform="translate(690.958117 398.578438)scale(0.1 -0.1)">
       <use xlink:href="#DejaVuSans-32"/>
       <use x="63.623047" xlink:href="#DejaVuSans-30"/>
       <use x="127.246094" xlink:href="#DejaVuSans-31"/>
       <use x="190.869141" xlink:href="#DejaVuSans-35"/>
      </g>
     </g>
    </g>
    <g id="xtick_15">
     <g id="line2d_15">
      <g>
       <use style="stroke:#000000;stroke-width:3;" x="747.163636" xlink:href="#ma23d0f1834" y="384.48"/>
      </g>
     </g>
     <g id="text_15">
      <!-- 2016 -->
      <g transform="translate(734.438636 398.578438)scale(0.1 -0.1)">
       <use xlink:href="#DejaVuSans-32"/>
       <use x="63.623047" xlink:href="#DejaVuSans-30"/>
       <use x="127.246094" xlink:href="#DejaVuSans-31"/>
       <use x="190.869141" xlink:href="#DejaVuSans-36"/>
      </g>
     </g>
    </g>
   </g>
   <g id="matplotlib.axis_2">
    <g id="ytick_1">
     <g id="line2d_16">
      <path clip-path="url(#pe4653826f4)" d="M 108 378.219242 
L 777.6 378.219242 
" style="fill:none;stroke:#b0b0b0;stroke-dasharray:2.96,1.28;stroke-dashoffset:0;stroke-width:0.8;"/>
     </g>
     <g id="line2d_17">
      <defs>
       <path d="M 0 0 
L -3 0 
" id="md51f7a9814" style="stroke:#000000;stroke-width:3;"/>
      </defs>
      <g>
       <use style="stroke:#000000;stroke-width:3;" x="108" xlink:href="#md51f7a9814" y="378.219242"/>
      </g>
     </g>
     <g id="text_16">
      <!-- 2.5 -->
      <defs>
       <path d="M 10.6875 12.40625 
L 21 12.40625 
L 21 0 
L 10.6875 0 
z
" id="DejaVuSans-2e"/>
      </defs>
      <g transform="translate(85.596875 382.018461)scale(0.1 -0.1)">
       <use xlink:href="#DejaVuSans-32"/>
       <use x="63.623047" xlink:href="#DejaVuSans-2e"/>
       <use x="95.410156" xlink:href="#DejaVuSans-35"/>
      </g>
     </g>
    </g>
    <g id="ytick_2">
     <g id="line2d_18">
      <path clip-path="url(#pe4653826f4)" d="M 108 335.626733 
L 777.6 335.626733 
" style="fill:none;stroke:#b0b0b0;stroke-dasharray:2.96,1.28;stroke-dashoffset:0;stroke-width:0.8;"/>
     </g>
     <g id="line2d_19">
      <g>
       <use style="stroke:#000000;stroke-width:3;" x="108" xlink:href="#md51f7a9814" y="335.626733"/>
      </g>
     </g>
     <g id="text_17">
      <!-- 5.0 -->
      <g transform="translate(85.596875 339.425952)scale(0.1 -0.1)">
       <use xlink:href="#DejaVuSans-35"/>
       <use x="63.623047" xlink:href="#DejaVuSans-2e"/>
       <use x="95.410156" xlink:href="#DejaVuSans-30"/>
      </g>
     </g>
    </g>
    <g id="ytick_3">
     <g id="line2d_20">
      <path clip-path="url(#pe4653826f4)" d="M 108 293.034224 
L 777.6 293.034224 
" style="fill:none;stroke:#b0b0b0;stroke-dasharray:2.96,1.28;stroke-dashoffset:0;stroke-width:0.8;"/>
     </g>
     <g id="line2d_21">
      <g>
       <use style="stroke:#000000;stroke-width:3;" x="108" xlink:href="#md51f7a9814" y="293.034224"/>
      </g>
     </g>
     <g id="text_18">
      <!-- 7.5 -->
      <g transform="translate(85.596875 296.833442)scale(0.1 -0.1)">
       <use xlink:href="#DejaVuSans-37"/>
       <use x="63.623047" xlink:href="#DejaVuSans-2e"/>
       <use x="95.410156" xlink:href="#DejaVuSans-35"/>
      </g>
     </g>
    </g>
    <g id="ytick_4">
     <g id="line2d_22">
      <path clip-path="url(#pe4653826f4)" d="M 108 250.441715 
L 777.6 250.441715 
" style="fill:none;stroke:#b0b0b0;stroke-dasharray:2.96,1.28;stroke-dashoffset:0;stroke-width:0.8;"/>
     </g>
     <g id="line2d_23">
      <g>
       <use style="stroke:#000000;stroke-width:3;" x="108" xlink:href="#md51f7a9814" y="250.441715"/>
      </g>
     </g>
     <g id="text_19">
      <!-- 10.0 -->
      <g transform="translate(79.234375 254.240933)scale(0.1 -0.1)">
       <use xlink:href="#DejaVuSans-31"/>
       <use x="63.623047" xlink:href="#DejaVuSans-30"/>
       <use x="127.246094" xlink:href="#DejaVuSans-2e"/>
       <use x="159.033203" xlink:href="#DejaVuSans-30"/>
      </g>
     </g>
    </g>
    <g id="ytick_5">
     <g id="line2d_24">
      <path clip-path="url(#pe4653826f4)" d="M 108 207.849205 
L 777.6 207.849205 
" style="fill:none;stroke:#b0b0b0;stroke-dasharray:2.96,1.28;stroke-dashoffset:0;stroke-width:0.8;"/>
     </g>
     <g id="line2d_25">
      <g>
       <use style="stroke:#000000;stroke-width:3;" x="108" xlink:href="#md51f7a9814" y="207.849205"/>
      </g>
     </g>
     <g id="text_20">
      <!-- 12.5 -->
      <g transform="translate(79.234375 211.648424)scale(0.1 -0.1)">
       <use xlink:href="#DejaVuSans-31"/>
       <use x="63.623047" xlink:href="#DejaVuSans-32"/>
       <use x="127.246094" xlink:href="#DejaVuSans-2e"/>
       <use x="159.033203" xlink:href="#DejaVuSans-35"/>
      </g>
     </g>
    </g>
    <g id="ytick_6">
     <g id="line2d_26">
      <path clip-path="url(#pe4653826f4)" d="M 108 165.256696 
L 777.6 165.256696 
" style="fill:none;stroke:#b0b0b0;stroke-dasharray:2.96,1.28;stroke-dashoffset:0;stroke-width:0.8;"/>
     </g>
     <g id="line2d_27">
      <g>
       <use style="stroke:#000000;stroke-width:3;" x="108" xlink:href="#md51f7a9814" y="165.256696"/>
      </g>
     </g>
     <g id="text_21">
      <!-- 15.0 -->
      <g transform="translate(79.234375 169.055915)scale(0.1 -0.1)">
       <use xlink:href="#DejaVuSans-31"/>
       <use x="63.623047" xlink:href="#DejaVuSans-35"/>
       <use x="127.246094" xlink:href="#DejaVuSans-2e"/>
       <use x="159.033203" xlink:href="#DejaVuSans-30"/>
      </g>
     </g>
    </g>
    <g id="ytick_7">
     <g id="line2d_28">
      <path clip-path="url(#pe4653826f4)" d="M 108 122.664187 
L 777.6 122.664187 
" style="fill:none;stroke:#b0b0b0;stroke-dasharray:2.96,1.28;stroke-dashoffset:0;stroke-width:0.8;"/>
     </g>
     <g id="line2d_29">
      <g>
       <use style="stroke:#000000;stroke-width:3;" x="108" xlink:href="#md51f7a9814" y="122.664187"/>
      </g>
     </g>
     <g id="text_22">
      <!-- 17.5 -->
      <g transform="translate(79.234375 126.463406)scale(0.1 -0.1)">
       <use xlink:href="#DejaVuSans-31"/>
       <use x="63.623047" xlink:href="#DejaVuSans-37"/>
       <use x="127.246094" xlink:href="#DejaVuSans-2e"/>
       <use x="159.033203" xlink:href="#DejaVuSans-35"/>
      </g>
     </g>
    </g>
    <g id="ytick_8">
     <g id="line2d_30">
      <path clip-path="url(#pe4653826f4)" d="M 108 80.071678 
L 777.6 80.071678 
" style="fill:none;stroke:#b0b0b0;stroke-dasharray:2.96,1.28;stroke-dashoffset:0;stroke-width:0.8;"/>
     </g>
     <g id="line2d_31">
      <g>
       <use style="stroke:#000000;stroke-width:3;" x="108" xlink:href="#md51f7a9814" y="80.071678"/>
      </g>
     </g>
     <g id="text_23">
      <!-- 20.0 -->
      <g transform="translate(79.234375 83.870897)scale(0.1 -0.1)">
       <use xlink:href="#DejaVuSans-32"/>
       <use x="63.623047" xlink:href="#DejaVuSans-30"/>
       <use x="127.246094" xlink:href="#DejaVuSans-2e"/>
       <use x="159.033203" xlink:href="#DejaVuSans-30"/>
      </g>
     </g>
    </g>
   </g>
   <path clip-path="url(#pe4653826f4)" d="M 140.436364 152.712206 
L 183.916883 192.909313 
L 227.397403 245.724024 
L 270.877922 232.612346 
L 314.358442 219.744297 
L 357.838961 272.322194 
L 401.319481 266.619909 
L 444.8 256.155781 
L 488.280519 260.564958 
L 531.761039 194.417087 
L 575.241558 116.399537 
L 618.722078 91.767437 
L 662.202597 83.271083 
L 705.683117 68.96 
L 749.163636 114.344874 
" style="fill:none;opacity:0.3;stroke:#000000;stroke-linecap:square;stroke-width:2.5;"/>
   <path clip-path="url(#pe4653826f4)" d="M 138.436364 150.712206 
L 181.916883 190.909313 
L 225.397403 243.724024 
L 268.877922 230.612346 
L 312.358442 217.744297 
L 355.838961 270.322194 
L 399.319481 264.619909 
L 442.8 254.155781 
L 486.280519 258.564958 
L 529.761039 192.417087 
L 573.241558 114.399537 
L 616.722078 89.767437 
L 660.202597 81.271083 
L 703.683117 66.96 
L 747.163636 112.344874 
" style="fill:none;stroke:#0070c0;stroke-linecap:square;stroke-width:2.5;"/>
   <path clip-path="url(#pe4653826f4)" d="M 137.436364 152.712206 
L 143.436364 152.712206 
M 140.436364 155.712206 
L 140.436364 149.712206 
" style="fill:none;opacity:0.3;stroke:#000000;"/>
   <path clip-path="url(#pe4653826f4)" d="M 180.916883 192.909313 
L 186.916883 192.909313 
M 183.916883 195.909313 
L 183.916883 189.909313 
" style="fill:none;opacity:0.3;stroke:#000000;"/>
   <path clip-path="url(#pe4653826f4)" d="M 224.397403 245.724024 
L 230.397403 245.724024 
M 227.397403 248.724024 
L 227.397403 242.724024 
" style="fill:none;opacity:0.3;stroke:#000000;"/>
   <path clip-path="url(#pe4653826f4)" d="M 267.877922 232.612346 
L 273.877922 232.612346 
M 270.877922 235.612346 
L 270.877922 229.612346 
" style="fill:none;opacity:0.3;stroke:#000000;"/>
   <path clip-path="url(#pe4653826f4)" d="M 311.358442 219.744297 
L 317.358442 219.744297 
M 314.358442 222.744297 
L 314.358442 216.744297 
" style="fill:none;opacity:0.3;stroke:#000000;"/>
   <path clip-path="url(#pe4653826f4)" d="M 354.838961 272.322194 
L 360.838961 272.322194 
M 357.838961 275.322194 
L 357.838961 269.322194 
" style="fill:none;opacity:0.3;stroke:#000000;"/>
   <path clip-path="url(#pe4653826f4)" d="M 398.319481 266.619909 
L 404.319481 266.619909 
M 401.319481 269.619909 
L 401.319481 263.619909 
" style="fill:none;opacity:0.3;stroke:#000000;"/>
   <path clip-path="url(#pe4653826f4)" d="M 441.8 256.155781 
L 447.8 256.155781 
M 444.8 259.155781 
L 444.8 253.155781 
" style="fill:none;opacity:0.3;stroke:#000000;"/>
   <path clip-path="url(#pe4653826f4)" d="M 485.280519 260.564958 
L 491.280519 260.564958 
M 488.280519 263.564958 
L 488.280519 257.564958 
" style="fill:none;opacity:0.3;stroke:#000000;"/>
   <path clip-path="url(#pe4653826f4)" d="M 528.761039 194.417087 
L 534.761039 194.417087 
M 531.761039 197.417087 
L 531.761039 191.417087 
" style="fill:none;opacity:0.3;stroke:#000000;"/>
   <path clip-path="url(#pe4653826f4)" d="M 572.241558 116.399537 
L 578.241558 116.399537 
M 575.241558 119.399537 
L 575.241558 113.399537 
" style="fill:none;opacity:0.3;stroke:#000000;"/>
   <path clip-path="url(#pe4653826f4)" d="M 615.722078 91.767437 
L 621.722078 91.767437 
M 618.722078 94.767437 
L 618.722078 88.767437 
" style="fill:none;opacity:0.3;stroke:#000000;"/>
   <path clip-path="url(#pe4653826f4)" d="M 659.202597 83.271083 
L 665.202597 83.271083 
M 662.202597 86.271083 
L 662.202597 80.271083 
" style="fill:none;opacity:0.3;stroke:#000000;"/>
   <path clip-path="url(#pe4653826f4)" d="M 702.683117 68.96 
L 708.683117 68.96 
M 705.683117 71.96 
L 705.683117 65.96 
" style="fill:none;opacity:0.3;stroke:#000000;"/>
   <path clip-path="url(#pe4653826f4)" d="M 746.163636 114.344874 
L 752.163636 114.344874 
M 749.163636 117.344874 
L 749.163636 111.344874 
" style="fill:none;opacity:0.3;stroke:#000000;"/>
   <path clip-path="url(#pe4653826f4)" d="M 135.436364 150.712206 
L 141.436364 150.712206 
M 138.436364 153.712206 
L 138.436364 147.712206 
" style="fill:#0070c0;stroke:#0070c0;"/>
   <path clip-path="url(#pe4653826f4)" d="M 178.916883 190.909313 
L 184.916883 190.909313 
M 181.916883 193.909313 
L 181.916883 187.909313 
" style="fill:#0070c0;stroke:#0070c0;"/>
   <path clip-path="url(#pe4653826f4)" d="M 222.397403 243.724024 
L 228.397403 243.724024 
M 225.397403 246.724024 
L 225.397403 240.724024 
" style="fill:#0070c0;stroke:#0070c0;"/>
   <path clip-path="url(#pe4653826f4)" d="M 265.877922 230.612346 
L 271.877922 230.612346 
M 268.877922 233.612346 
L 268.877922 227.612346 
" style="fill:#0070c0;stroke:#0070c0;"/>
   <path clip-path="url(#pe4653826f4)" d="M 309.358442 217.744297 
L 315.358442 217.744297 
M 312.358442 220.744297 
L 312.358442 214.744297 
" style="fill:#0070c0;stroke:#0070c0;"/>
   <path clip-path="url(#pe4653826f4)" d="M 352.838961 270.322194 
L 358.838961 270.322194 
M 355.838961 273.322194 
L 355.838961 267.322194 
" style="fill:#0070c0;stroke:#0070c0;"/>
   <path clip-path="url(#pe4653826f4)" d="M 396.319481 264.619909 
L 402.319481 264.619909 
M 399.319481 267.619909 
L 399.319481 261.619909 
" style="fill:#0070c0;stroke:#0070c0;"/>
   <path clip-path="url(#pe4653826f4)" d="M 439.8 254.155781 
L 445.8 254.155781 
M 442.8 257.155781 
L 442.8 251.155781 
" style="fill:#0070c0;stroke:#0070c0;"/>
   <path clip-path="url(#pe4653826f4)" d="M 483.280519 258.564958 
L 489.280519 258.564958 
M 486.280519 261.564958 
L 486.280519 255.564958 
" style="fill:#0070c0;stroke:#0070c0;"/>
   <path clip-path="url(#pe4653826f4)" d="M 526.761039 192.417087 
L 532.761039 192.417087 
M 529.761039 195.417087 
L 529.761039 189.417087 
" style="fill:#0070c0;stroke:#0070c0;"/>
   <path clip-path="url(#pe4653826f4)" d="M 570.241558 114.399537 
L 576.241558 114.399537 
M 573.241558 117.399537 
L 573.241558 111.399537 
" style="fill:#0070c0;stroke:#0070c0;"/>
   <path clip-path="url(#pe4653826f4)" d="M 613.722078 89.767437 
L 619.722078 89.767437 
M 616.722078 92.767437 
L 616.722078 86.767437 
" style="fill:#0070c0;stroke:#0070c0;"/>
   <path clip-path="url(#pe4653826f4)" d="M 657.202597 81.271083 
L 663.202597 81.271083 
M 660.202597 84.271083 
L 660.202597 78.271083 
" style="fill:#0070c0;stroke:#0070c0;"/>
   <path clip-path="url(#pe4653826f4)" d="M 700.683117 66.96 
L 706.683117 66.96 
M 703.683117 69.96 
L 703.683117 63.96 
" style="fill:#0070c0;stroke:#0070c0;"/>
   <path clip-path="url(#pe4653826f4)" d="M 744.163636 112.344874 
L 750.163636 112.344874 
M 747.163636 115.344874 
L 747.163636 109.344874 
" style="fill:#0070c0;stroke:#0070c0;"/>
   <path clip-path="url(#pe4653826f4)" d="M 140.436364 299.804585 
L 183.916883 321.952689 
L 227.397403 336.263772 
L 270.877922 336.774883 
L 314.358442 343.930424 
L 357.838961 353.811886 
L 401.319481 355.515587 
L 444.8 342.908204 
L 488.280519 341.545244 
L 531.761039 332.515632 
L 575.241558 254.486155 
L 618.722078 229.44176 
L 662.202597 223.989918 
L 705.683117 206.612175 
L 749.163636 230.80472 
" style="fill:none;opacity:0.3;stroke:#000000;stroke-linecap:square;stroke-width:2.5;"/>
   <path clip-path="url(#pe4653826f4)" d="M 138.436364 297.804585 
L 181.916883 319.952689 
L 225.397403 334.263772 
L 268.877922 334.774883 
L 312.358442 341.930424 
L 355.838961 351.811886 
L 399.319481 353.515587 
L 442.8 340.908204 
L 486.280519 339.545244 
L 529.761039 330.515632 
L 573.241558 252.486155 
L 616.722078 227.44176 
L 660.202597 221.989918 
L 703.683117 204.612175 
L 747.163636 228.80472 
" style="fill:none;stroke:#c00000;stroke-linecap:square;stroke-width:2.5;"/>
   <path clip-path="url(#pe4653826f4)" d="M 137.436364 299.804585 
L 143.436364 299.804585 
M 140.436364 302.804585 
L 140.436364 296.804585 
" style="fill:none;opacity:0.3;stroke:#000000;"/>
   <path clip-path="url(#pe4653826f4)" d="M 180.916883 321.952689 
L 186.916883 321.952689 
M 183.916883 324.952689 
L 183.916883 318.952689 
" style="fill:none;opacity:0.3;stroke:#000000;"/>
   <path clip-path="url(#pe4653826f4)" d="M 224.397403 336.263772 
L 230.397403 336.263772 
M 227.397403 339.263772 
L 227.397403 333.263772 
" style="fill:none;opacity:0.3;stroke:#000000;"/>
   <path clip-path="url(#pe4653826f4)" d="M 267.877922 336.774883 
L 273.877922 336.774883 
M 270.877922 339.774883 
L 270.877922 333.774883 
" style="fill:none;opacity:0.3;stroke:#000000;"/>
   <path clip-path="url(#pe4653826f4)" d="M 311.358442 343.930424 
L 317.358442 343.930424 
M 314.358442 346.930424 
L 314.358442 340.930424 
" style="fill:none;opacity:0.3;stroke:#000000;"/>
   <path clip-path="url(#pe4653826f4)" d="M 354.838961 353.811886 
L 360.838961 353.811886 
M 357.838961 356.811886 
L 357.838961 350.811886 
" style="fill:none;opacity:0.3;stroke:#000000;"/>
   <path clip-path="url(#pe4653826f4)" d="M 398.319481 355.515587 
L 404.319481 355.515587 
M 401.319481 358.515587 
L 401.319481 352.515587 
" style="fill:none;opacity:0.3;stroke:#000000;"/>
   <path clip-path="url(#pe4653826f4)" d="M 441.8 342.908204 
L 447.8 342.908204 
M 444.8 345.908204 
L 444.8 339.908204 
" style="fill:none;opacity:0.3;stroke:#000000;"/>
   <path clip-path="url(#pe4653826f4)" d="M 485.280519 341.545244 
L 491.280519 341.545244 
M 488.280519 344.545244 
L 488.280519 338.545244 
" style="fill:none;opacity:0.3;stroke:#000000;"/>
   <path clip-path="url(#pe4653826f4)" d="M 528.761039 332.515632 
L 534.761039 332.515632 
M 531.761039 335.515632 
L 531.761039 329.515632 
" style="fill:none;opacity:0.3;stroke:#000000;"/>
   <path clip-path="url(#pe4653826f4)" d="M 572.241558 254.486155 
L 578.241558 254.486155 
M 575.241558 257.486155 
L 575.241558 251.486155 
" style="fill:none;opacity:0.3;stroke:#000000;"/>
   <path clip-path="url(#pe4653826f4)" d="M 615.722078 229.44176 
L 621.722078 229.44176 
M 618.722078 232.44176 
L 618.722078 226.44176 
" style="fill:none;opacity:0.3;stroke:#000000;"/>
   <path clip-path="url(#pe4653826f4)" d="M 659.202597 223.989918 
L 665.202597 223.989918 
M 662.202597 226.989918 
L 662.202597 220.989918 
" style="fill:none;opacity:0.3;stroke:#000000;"/>
   <path clip-path="url(#pe4653826f4)" d="M 702.683117 206.612175 
L 708.683117 206.612175 
M 705.683117 209.612175 
L 705.683117 203.612175 
" style="fill:none;opacity:0.3;stroke:#000000;"/>
   <path clip-path="url(#pe4653826f4)" d="M 746.163636 230.80472 
L 752.163636 230.80472 
M 749.163636 233.80472 
L 749.163636 227.80472 
" style="fill:none;opacity:0.3;stroke:#000000;"/>
   <path clip-path="url(#pe4653826f4)" d="M 135.436364 297.804585 
L 141.436364 297.804585 
M 138.436364 300.804585 
L 138.436364 294.804585 
" style="fill:#c00000;stroke:#c00000;"/>
   <path clip-path="url(#pe4653826f4)" d="M 178.916883 319.952689 
L 184.916883 319.952689 
M 181.916883 322.952689 
L 181.916883 316.952689 
" style="fill:#c00000;stroke:#c00000;"/>
   <path clip-path="url(#pe4653826f4)" d="M 222.397403 334.263772 
L 228.397403 334.263772 
M 225.397403 337.263772 
L 225.397403 331.263772 
" style="fill:#c00000;stroke:#c00000;"/>
   <path clip-path="url(#pe4653826f4)" d="M 265.877922 334.774883 
L 271.877922 334.774883 
M 268.877922 337.774883 
L 268.877922 331.774883 
" style="fill:#c00000;stroke:#c00000;"/>
   <path clip-path="url(#pe4653826f4)" d="M 309.358442 341.930424 
L 315.358442 341.930424 
M 312.358442 344.930424 
L 312.358442 338.930424 
" style="fill:#c00000;stroke:#c00000;"/>
   <path clip-path="url(#pe4653826f4)" d="M 352.838961 351.811886 
L 358.838961 351.811886 
M 355.838961 354.811886 
L 355.838961 348.811886 
" style="fill:#c00000;stroke:#c00000;"/>
   <path clip-path="url(#pe4653826f4)" d="M 396.319481 353.515587 
L 402.319481 353.515587 
M 399.319481 356.515587 
L 399.319481 350.515587 
" style="fill:#c00000;stroke:#c00000;"/>
   <path clip-path="url(#pe4653826f4)" d="M 439.8 340.908204 
L 445.8 340.908204 
M 442.8 343.908204 
L 442.8 337.908204 
" style="fill:#c00000;stroke:#c00000;"/>
   <path clip-path="url(#pe4653826f4)" d="M 483.280519 339.545244 
L 489.280519 339.545244 
M 486.280519 342.545244 
L 486.280519 336.545244 
" style="fill:#c00000;stroke:#c00000;"/>
   <path clip-path="url(#pe4653826f4)" d="M 526.761039 330.515632 
L 532.761039 330.515632 
M 529.761039 333.515632 
L 529.761039 327.515632 
" style="fill:#c00000;stroke:#c00000;"/>
   <path clip-path="url(#pe4653826f4)" d="M 570.241558 252.486155 
L 576.241558 252.486155 
M 573.241558 255.486155 
L 573.241558 249.486155 
" style="fill:#c00000;stroke:#c00000;"/>
   <path clip-path="url(#pe4653826f4)" d="M 613.722078 227.44176 
L 619.722078 227.44176 
M 616.722078 230.44176 
L 616.722078 224.44176 
" style="fill:#c00000;stroke:#c00000;"/>
   <path clip-path="url(#pe4653826f4)" d="M 657.202597 221.989918 
L 663.202597 221.989918 
M 660.202597 224.989918 
L 660.202597 218.989918 
" style="fill:#c00000;stroke:#c00000;"/>
   <path clip-path="url(#pe4653826f4)" d="M 700.683117 204.612175 
L 706.683117 204.612175 
M 703.683117 207.612175 
L 703.683117 201.612175 
" style="fill:#c00000;stroke:#c00000;"/>
   <path clip-path="url(#pe4653826f4)" d="M 744.163636 228.80472 
L 750.163636 228.80472 
M 747.163636 231.80472 
L 747.163636 225.80472 
" style="fill:#c00000;stroke:#c00000;"/>
   <path clip-path="url(#pe4653826f4)" d="M 140.436364 338.819323 
L 183.916883 348.360045 
L 227.397403 360.285948 
L 270.877922 365.908159 
L 314.358442 361.308168 
L 357.838961 371.36 
L 401.319481 369.31556 
L 444.8 356.367437 
L 488.280519 356.197067 
L 531.761039 353.130406 
L 575.241558 291.115713 
L 618.722078 268.626868 
L 662.202597 265.560207 
L 705.683117 254.486155 
L 749.163636 272.886119 
" style="fill:none;opacity:0.3;stroke:#000000;stroke-linecap:square;stroke-width:2.5;"/>
   <path clip-path="url(#pe4653826f4)" d="M 138.436364 336.819323 
L 181.916883 346.360045 
L 225.397403 358.285948 
L 268.877922 363.908159 
L 312.358442 359.308168 
L 355.838961 369.36 
L 399.319481 367.31556 
L 442.8 354.367437 
L 486.280519 354.197067 
L 529.761039 351.130406 
L 573.241558 289.115713 
L 616.722078 266.626868 
L 660.202597 263.560207 
L 703.683117 252.486155 
L 747.163636 270.886119 
" style="fill:none;stroke:#7f7f7f;stroke-linecap:square;stroke-width:2.5;"/>
   <path clip-path="url(#pe4653826f4)" d="M 137.436364 338.819323 
L 143.436364 338.819323 
M 140.436364 341.819323 
L 140.436364 335.819323 
" style="fill:none;opacity:0.3;stroke:#000000;"/>
   <path clip-path="url(#pe4653826f4)" d="M 180.916883 348.360045 
L 186.916883 348.360045 
M 183.916883 351.360045 
L 183.916883 345.360045 
" style="fill:none;opacity:0.3;stroke:#000000;"/>
   <path clip-path="url(#pe4653826f4)" d="M 224.397403 360.285948 
L 230.397403 360.285948 
M 227.397403 363.285948 
L 227.397403 357.285948 
" style="fill:none;opacity:0.3;stroke:#000000;"/>
   <path clip-path="url(#pe4653826f4)" d="M 267.877922 365.908159 
L 273.877922 365.908159 
M 270.877922 368.908159 
L 270.877922 362.908159 
" style="fill:none;opacity:0.3;stroke:#000000;"/>
   <path clip-path="url(#pe4653826f4)" d="M 311.358442 361.308168 
L 317.358442 361.308168 
M 314.358442 364.308168 
L 314.358442 358.308168 
" style="fill:none;opacity:0.3;stroke:#000000;"/>
   <path clip-path="url(#pe4653826f4)" d="M 354.838961 371.36 
L 360.838961 371.36 
M 357.838961 374.36 
L 357.838961 368.36 
" style="fill:none;opacity:0.3;stroke:#000000;"/>
   <path clip-path="url(#pe4653826f4)" d="M 398.319481 369.31556 
L 404.319481 369.31556 
M 401.319481 372.31556 
L 401.319481 366.31556 
" style="fill:none;opacity:0.3;stroke:#000000;"/>
   <path clip-path="url(#pe4653826f4)" d="M 441.8 356.367437 
L 447.8 356.367437 
M 444.8 359.367437 
L 444.8 353.367437 
" style="fill:none;opacity:0.3;stroke:#000000;"/>
   <path clip-path="url(#pe4653826f4)" d="M 485.280519 356.197067 
L 491.280519 356.197067 
M 488.280519 359.197067 
L 488.280519 353.197067 
" style="fill:none;opacity:0.3;stroke:#000000;"/>
   <path clip-path="url(#pe4653826f4)" d="M 528.761039 353.130406 
L 534.761039 353.130406 
M 531.761039 356.130406 
L 531.761039 350.130406 
" style="fill:none;opacity:0.3;stroke:#000000;"/>
   <path clip-path="url(#pe4653826f4)" d="M 572.241558 291.115713 
L 578.241558 291.115713 
M 575.241558 294.115713 
L 575.241558 288.115713 
" style="fill:none;opacity:0.3;stroke:#000000;"/>
   <path clip-path="url(#pe4653826f4)" d="M 615.722078 268.626868 
L 621.722078 268.626868 
M 618.722078 271.626868 
L 618.722078 265.626868 
" style="fill:none;opacity:0.3;stroke:#000000;"/>
   <path clip-path="url(#pe4653826f4)" d="M 659.202597 265.560207 
L 665.202597 265.560207 
M 662.202597 268.560207 
L 662.202597 262.560207 
" style="fill:none;opacity:0.3;stroke:#000000;"/>
   <path clip-path="url(#pe4653826f4)" d="M 702.683117 254.486155 
L 708.683117 254.486155 
M 705.683117 257.486155 
L 705.683117 251.486155 
" style="fill:none;opacity:0.3;stroke:#000000;"/>
   <path clip-path="url(#pe4653826f4)" d="M 746.163636 272.886119 
L 752.163636 272.886119 
M 749.163636 275.886119 
L 749.163636 269.886119 
" style="fill:none;opacity:0.3;stroke:#000000;"/>
   <path clip-path="url(#pe4653826f4)" d="M 135.436364 336.819323 
L 141.436364 336.819323 
M 138.436364 339.819323 
L 138.436364 333.819323 
" style="fill:#7f7f7f;stroke:#7f7f7f;"/>
   <path clip-path="url(#pe4653826f4)" d="M 178.916883 346.360045 
L 184.916883 346.360045 
M 181.916883 349.360045 
L 181.916883 343.360045 
" style="fill:#7f7f7f;stroke:#7f7f7f;"/>
   <path clip-path="url(#pe4653826f4)" d="M 222.397403 358.285948 
L 228.397403 358.285948 
M 225.397403 361.285948 
L 225.397403 355.285948 
" style="fill:#7f7f7f;stroke:#7f7f7f;"/>
   <path clip-path="url(#pe4653826f4)" d="M 265.877922 363.908159 
L 271.877922 363.908159 
M 268.877922 366.908159 
L 268.877922 360.908159 
" style="fill:#7f7f7f;stroke:#7f7f7f;"/>
   <path clip-path="url(#pe4653826f4)" d="M 309.358442 359.308168 
L 315.358442 359.308168 
M 312.358442 362.308168 
L 312.358442 356.308168 
" style="fill:#7f7f7f;stroke:#7f7f7f;"/>
   <path clip-path="url(#pe4653826f4)" d="M 352.838961 369.36 
L 358.838961 369.36 
M 355.838961 372.36 
L 355.838961 366.36 
" style="fill:#7f7f7f;stroke:#7f7f7f;"/>
   <path clip-path="url(#pe4653826f4)" d="M 396.319481 367.31556 
L 402.319481 367.31556 
M 399.319481 370.31556 
L 399.319481 364.31556 
" style="fill:#7f7f7f;stroke:#7f7f7f;"/>
   <path clip-path="url(#pe4653826f4)" d="M 439.8 354.367437 
L 445.8 354.367437 
M 442.8 357.367437 
L 442.8 351.367437 
" style="fill:#7f7f7f;stroke:#7f7f7f;"/>
   <path clip-path="url(#pe4653826f4)" d="M 483.280519 354.197067 
L 489.280519 354.197067 
M 486.280519 357.197067 
L 486.280519 351.197067 
" style="fill:#7f7f7f;stroke:#7f7f7f;"/>
   <path clip-path="url(#pe4653826f4)" d="M 526.761039 351.130406 
L 532.761039 351.130406 
M 529.761039 354.130406 
L 529.761039 348.130406 
" style="fill:#7f7f7f;stroke:#7f7f7f;"/>
   <path clip-path="url(#pe4653826f4)" d="M 570.241558 289.115713 
L 576.241558 289.115713 
M 573.241558 292.115713 
L 573.241558 286.115713 
" style="fill:#7f7f7f;stroke:#7f7f7f;"/>
   <path clip-path="url(#pe4653826f4)" d="M 613.722078 266.626868 
L 619.722078 266.626868 
M 616.722078 269.626868 
L 616.722078 263.626868 
" style="fill:#7f7f7f;stroke:#7f7f7f;"/>
   <path clip-path="url(#pe4653826f4)" d="M 657.202597 263.560207 
L 663.202597 263.560207 
M 660.202597 266.560207 
L 660.202597 260.560207 
" style="fill:#7f7f7f;stroke:#7f7f7f;"/>
   <path clip-path="url(#pe4653826f4)" d="M 700.683117 252.486155 
L 706.683117 252.486155 
M 703.683117 255.486155 
L 703.683117 249.486155 
" style="fill:#7f7f7f;stroke:#7f7f7f;"/>
   <path clip-path="url(#pe4653826f4)" d="M 744.163636 270.886119 
L 750.163636 270.886119 
M 747.163636 273.886119 
L 747.163636 267.886119 
" style="fill:#7f7f7f;stroke:#7f7f7f;"/>
   <g id="patch_3">
    <path d="M 108 384.48 
L 108 51.84 
" style="fill:none;stroke:#000000;stroke-linecap:square;stroke-linejoin:miter;stroke-width:0.8;"/>
   </g>
   <g id="patch_4">
    <path d="M 777.6 384.48 
L 777.6 51.84 
" style="fill:none;stroke:#000000;stroke-linecap:square;stroke-linejoin:miter;stroke-width:0.8;"/>
   </g>
   <g id="patch_5">
    <path d="M 108 384.48 
L 777.6 384.48 
" style="fill:none;stroke:#000000;stroke-linecap:square;stroke-linejoin:miter;stroke-width:0.8;"/>
   </g>
   <g id="patch_6">
    <path d="M 108 51.84 
L 777.6 51.84 
" style="fill:none;stroke:#000000;stroke-linecap:square;stroke-linejoin:miter;stroke-width:0.8;"/>
   </g>
   <g id="text_24">
    <!-- 利润率状况 -->
    <defs>
     <path d="M 1.171875 11.578125 
Q 14.265625 25.828125 23.25 46.828125 
L 1.65625 46.828125 
L 1.65625 53.953125 
L 25.09375 53.953125 
L 25.09375 68.609375 
Q 15.046875 67.625 5.171875 66.75 
Q 4.5 70.359375 3.21875 74.171875 
Q 26.65625 76.03125 51.078125 79.15625 
L 53.03125 71.734375 
Q 42.671875 70.453125 32.515625 69.390625 
L 32.515625 53.953125 
L 54.6875 53.953125 
L 54.6875 46.828125 
L 32.515625 46.828125 
L 32.515625 33.734375 
L 36.8125 37.84375 
Q 46 30.03125 55.078125 21.046875 
L 49.125 14.984375 
Q 43.171875 21.921875 32.515625 32.078125 
L 32.515625 -12.9375 
L 25.09375 -12.9375 
L 25.09375 35.890625 
Q 16.703125 16.9375 5.078125 2.78125 
Q 2.4375 9.125 1.171875 11.578125 
z
M 85.0625 81.203125 
L 92.78125 81.203125 
L 92.78125 -0.140625 
Q 92.78125 -12.546875 80.28125 -12.453125 
Q 76.265625 -12.453125 67.28125 -12.359375 
Q 66.703125 -8.34375 65.828125 -3.5625 
Q 73.734375 -4.4375 77.828125 -4.4375 
Q 85.0625 -4.546875 85.0625 2.875 
z
M 61.921875 71.4375 
L 69.34375 71.4375 
L 69.34375 9.71875 
L 61.921875 9.71875 
z
" id="MicrosoftYaHei-5229"/>
     <path d="M 54.6875 76.8125 
L 95.125 76.8125 
L 95.125 -0.53125 
Q 95.125 -11.96875 83.40625 -11.96875 
Q 77.9375 -11.96875 70.21875 -11.859375 
Q 69.734375 -8.640625 68.75 -4.34375 
Q 76.953125 -4.9375 81.453125 -4.9375 
Q 87.703125 -4.9375 87.703125 0.734375 
L 87.703125 70.171875 
L 54.6875 70.171875 
z
M 40.828125 14.703125 
L 58.59375 14.703125 
L 58.59375 31.203125 
L 43.359375 31.203125 
L 43.359375 37.25 
L 58.59375 37.25 
L 58.59375 52.296875 
L 41.890625 52.296875 
L 41.890625 58.546875 
L 82.328125 58.546875 
L 82.328125 52.296875 
L 65.625 52.296875 
L 65.625 37.25 
L 81.0625 37.25 
L 81.0625 31.203125 
L 65.625 31.203125 
L 65.625 14.703125 
L 83.59375 14.703125 
L 83.59375 8.453125 
L 40.828125 8.453125 
z
M 36.71875 -13.234375 
L 29.296875 -13.234375 
L 29.296875 65.484375 
L 36.71875 65.484375 
z
M 4 -9.90625 
Q 9.671875 6.890625 14.0625 27.875 
Q 18.359375 26.03125 21.96875 24.859375 
Q 15.921875 1.125 12.59375 -12.546875 
z
M 5.078125 75.828125 
L 10.15625 81 
Q 16.609375 76.125 26.953125 67.234375 
Q 23.640625 64.015625 21.09375 61.46875 
Q 11.03125 70.953125 5.078125 75.828125 
z
M 1.265625 50.34375 
L 6.25 55.90625 
Q 14.65625 50.140625 23.046875 43.40625 
Q 19.828125 39.984375 17.390625 37.0625 
Q 7.8125 45.5625 1.265625 50.34375 
z
M 34.1875 78.46875 
L 39.65625 82.671875 
Q 45.515625 76.21875 50.390625 70.171875 
L 44.046875 65.484375 
Q 39.9375 71.4375 34.1875 78.46875 
z
" id="MicrosoftYaHei-6da6"/>
     <path d="M 39.453125 31.390625 
Q 40.96875 31.5 61.375 32.515625 
Q 58.9375 35.9375 56.640625 38.921875 
L 61.921875 42.234375 
Q 68.953125 34.421875 74.90625 25.828125 
L 68.65625 21.921875 
Q 66.9375 24.515625 65.28125 26.953125 
Q 46.734375 25.921875 34.578125 24.953125 
Q 32.421875 24.75 29.390625 24.078125 
L 26.953125 30.71875 
Q 29.890625 31.6875 31.34375 32.5625 
Q 39.59375 38.140625 47.65625 45.515625 
Q 40.578125 45.21875 35.546875 44.78125 
Q 33.5 44.484375 31.0625 43.890625 
L 28.125 49.859375 
Q 30.5625 50.734375 32.625 52.59375 
Q 39.203125 58.15625 44.921875 66.0625 
L 3.609375 66.0625 
L 3.609375 72.90625 
L 47.359375 72.90625 
Q 44.96875 77.25 42.875 80.515625 
L 49.90625 83.9375 
Q 53.71875 78.125 56.5 72.90625 
L 96.484375 72.90625 
L 96.484375 66.0625 
L 47.703125 66.0625 
L 52.34375 63.625 
Q 44.4375 55.515625 38.96875 50.734375 
Q 44.53125 50.875 53.515625 51.078125 
Q 57.421875 54.984375 61.328125 59.328125 
L 68.0625 55.421875 
Q 52.546875 40.671875 39.453125 31.390625 
z
M 2.25 15.484375 
L 46.78125 15.484375 
L 46.78125 24.078125 
L 54.5 24.078125 
L 54.5 15.484375 
L 98.046875 15.484375 
L 98.046875 8.640625 
L 54.5 8.640625 
L 54.5 -13.328125 
L 46.78125 -13.328125 
L 46.78125 8.640625 
L 2.25 8.640625 
z
M 26.859375 41.75 
L 30.375 35.984375 
Q 18.75 29.15625 6.640625 22.015625 
L 2.546875 28.5625 
Q 12.703125 33.34375 26.859375 41.75 
z
M 75.875 41.84375 
Q 89.84375 33.9375 97.65625 28.375 
L 93.359375 22.015625 
Q 83.296875 29.828125 71.875 36.578125 
z
M 93.65625 56.109375 
Q 86.234375 49.65625 77.546875 43.890625 
L 72.5625 49.078125 
Q 81.9375 55.21875 88.09375 61.375 
z
M 5.671875 56.78125 
L 10.640625 61.578125 
Q 18.75 55.125 24.8125 49.359375 
L 19.34375 44 
Q 13.671875 49.953125 5.671875 56.78125 
z
" id="MicrosoftYaHei-7387"/>
     <path d="M 34.578125 54.9375 
L 59.234375 54.9375 
Q 59.765625 68.265625 59.765625 82.765625 
L 67.578125 82.765625 
Q 67.578125 67.78125 67.09375 54.9375 
L 96.484375 54.9375 
L 96.484375 47.609375 
L 67.328125 47.609375 
Q 76.3125 9.8125 98.640625 -3.5625 
Q 94.828125 -7.671875 92.28125 -10.984375 
Q 72.46875 4.15625 64.359375 32.90625 
Q 58.84375 6.453125 36.921875 -12.640625 
Q 33.890625 -8.453125 31.453125 -6 
Q 56.25 13.328125 58.84375 47.609375 
L 34.578125 47.609375 
z
M 23.34375 83.0625 
L 31.15625 83.0625 
L 31.15625 -13.03125 
L 23.34375 -13.03125 
L 23.34375 25.09375 
Q 14.3125 17.484375 6.25 10.796875 
L 1.171875 17.53125 
Q 12.015625 25.4375 23.34375 34.71875 
z
M 3.421875 64.59375 
L 10.0625 67.71875 
Q 15.921875 57.375 20.40625 45.0625 
L 12.984375 41.65625 
Q 8.109375 55.328125 3.421875 64.59375 
z
M 78.21875 78.953125 
Q 86.71875 72.515625 92.96875 66.84375 
Q 90.234375 63.71875 87.59375 60.6875 
Q 80.46875 67.625 73.140625 73.6875 
z
" id="MicrosoftYaHei-72b6"/>
     <path d="M 39.84375 31 
L 32.234375 31 
L 32.234375 78.078125 
L 90.046875 78.078125 
L 90.046875 31 
L 82.421875 31 
L 82.421875 35.296875 
L 73.046875 35.296875 
L 73.046875 1.125 
Q 73.046875 -3.765625 77.640625 -3.765625 
L 84.375 -3.765625 
Q 89.0625 -3.765625 89.65625 1.421875 
Q 90.328125 6 90.53125 13.53125 
Q 93.84375 12.15625 98.4375 10.59375 
Q 97.75 2.875 96.78125 -2.296875 
Q 95.40625 -10.796875 86.03125 -10.796875 
L 76.375 -10.796875 
Q 65.4375 -10.796875 65.4375 -0.140625 
L 65.4375 35.296875 
L 55.328125 35.296875 
Q 54.984375 16.703125 49.421875 7.078125 
Q 43.359375 -3.953125 25.984375 -13.53125 
Q 23.828125 -10.203125 21.09375 -6.890625 
Q 37.109375 1.90625 42.578125 11.1875 
Q 47.46875 19 47.796875 35.296875 
L 39.84375 35.296875 
z
M 82.421875 71.046875 
L 39.84375 71.046875 
L 39.84375 42.328125 
L 82.421875 42.328125 
z
M 18.453125 37.75 
Q 22.65625 34.8125 25.984375 32.859375 
Q 17.78125 13.421875 9.1875 -7.765625 
L 1.375 -3.078125 
Q 10.640625 14.984375 18.453125 37.75 
z
M 8.296875 76.3125 
Q 17.28125 67.53125 26.078125 57.375 
L 19.34375 51.3125 
Q 11.328125 61.765625 2.546875 71.140625 
z
" id="MicrosoftYaHei-51b5"/>
    </defs>
    <g transform="translate(412.8 45.84)scale(0.12 -0.12)">
     <use xlink:href="#MicrosoftYaHei-5229"/>
     <use x="100" xlink:href="#MicrosoftYaHei-6da6"/>
     <use x="200" xlink:href="#MicrosoftYaHei-7387"/>
     <use x="300" xlink:href="#MicrosoftYaHei-72b6"/>
     <use x="400" xlink:href="#MicrosoftYaHei-51b5"/>
    </g>
   </g>
   <g id="legend_1">
    <g id="patch_7">
     <path d="M 282 429.287625 
L 603.6 429.287625 
Q 606 429.287625 606 426.887625 
L 606 409.512 
Q 606 407.112 603.6 407.112 
L 282 407.112 
Q 279.6 407.112 279.6 409.512 
L 279.6 426.887625 
Q 279.6 429.287625 282 429.287625 
z
" style="fill:#ffffff;opacity:0.8;stroke:#cccccc;stroke-linejoin:miter;"/>
    </g>
    <path d="M 286.4 419.3045 
L 310.4 419.3045 
" style="fill:none;opacity:0.3;stroke:#000000;stroke-linecap:square;stroke-width:2.5;"/>
    <path d="M 284.4 417.3045 
L 308.4 417.3045 
" style="fill:none;stroke:#0070c0;stroke-linecap:square;stroke-width:2.5;"/>
    <path d="M 295.4 419.3045 
L 301.4 419.3045 
M 298.4 422.3045 
L 298.4 416.3045 
" style="fill:none;opacity:0.3;stroke:#000000;"/>
    <path d="M 293.4 417.3045 
L 299.4 417.3045 
M 296.4 420.3045 
L 296.4 414.3045 
" style="fill:#0070c0;stroke:#0070c0;"/>
    <g id="text_25">
     <!-- 毛利润率 -->
     <defs>
      <path d="M 3.8125 23 
L 43.5625 26.46875 
L 43.5625 44.4375 
L 9.078125 41.84375 
L 8.59375 48.6875 
L 43.5625 51.3125 
L 43.5625 69.140625 
Q 25.6875 67.96875 9.46875 67.046875 
Q 9.078125 70.453125 7.90625 74.171875 
Q 48.34375 75.828125 87.796875 79.828125 
L 89.0625 72.515625 
Q 69.390625 70.953125 51.375 69.671875 
L 51.375 51.90625 
L 90.921875 54.9375 
L 91.3125 48.09375 
L 51.375 45.015625 
L 51.375 27.15625 
L 95.90625 31.109375 
L 96.296875 24.265625 
L 51.375 20.3125 
L 51.375 3.078125 
Q 51.375 -2.59375 56.453125 -2.59375 
L 80.28125 -2.59375 
Q 88.28125 -2.59375 89.9375 3.953125 
Q 91.40625 9.8125 92 16.84375 
Q 95.90625 14.890625 99.421875 13.71875 
Q 98.34375 6.203125 96.875 0.640625 
Q 94.34375 -9.625 82.625 -9.625 
L 54.984375 -9.625 
Q 43.5625 -9.625 43.5625 2.484375 
L 43.5625 19.625 
L 4.296875 16.15625 
z
" id="MicrosoftYaHei-6bdb"/>
     </defs>
     <g transform="translate(318 421.5045)scale(0.12 -0.12)">
      <use xlink:href="#MicrosoftYaHei-6bdb"/>
      <use x="100" xlink:href="#MicrosoftYaHei-5229"/>
      <use x="200" xlink:href="#MicrosoftYaHei-6da6"/>
      <use x="300" xlink:href="#MicrosoftYaHei-7387"/>
     </g>
    </g>
    <path d="M 392 419.3045 
L 416 419.3045 
" style="fill:none;opacity:0.3;stroke:#000000;stroke-linecap:square;stroke-width:2.5;"/>
    <path d="M 390 417.3045 
L 414 417.3045 
" style="fill:none;stroke:#c00000;stroke-linecap:square;stroke-width:2.5;"/>
    <path d="M 401 419.3045 
L 407 419.3045 
M 404 422.3045 
L 404 416.3045 
" style="fill:none;opacity:0.3;stroke:#000000;"/>
    <path d="M 399 417.3045 
L 405 417.3045 
M 402 420.3045 
L 402 414.3045 
" style="fill:#c00000;stroke:#c00000;"/>
    <g id="text_26">
     <!-- 息税前利润率 -->
     <defs>
      <path d="M 14.265625 73.578125 
L 38.140625 73.578125 
Q 40.234375 78.8125 41.609375 83.640625 
L 49.21875 81.59375 
Q 47.609375 77.4375 45.84375 73.578125 
L 84.765625 73.578125 
L 84.765625 20.265625 
L 77.25 20.265625 
L 77.25 23.296875 
L 21.78125 23.296875 
L 21.78125 20.265625 
L 14.265625 20.265625 
z
M 24.515625 16.546875 
L 31.9375 16.546875 
L 31.9375 2.203125 
Q 31.9375 -3.859375 38.375 -3.859375 
L 60.0625 -3.859375 
Q 67.875 -3.859375 69.140625 1.515625 
Q 70.125 5.03125 71.09375 12.15625 
Q 74.703125 10.6875 78.71875 9.328125 
Q 77.546875 2.59375 76.375 -1.515625 
Q 74.125 -10.796875 61.8125 -10.796875 
L 37.203125 -10.796875 
Q 24.515625 -10.796875 24.515625 1.3125 
z
M 21.78125 44.390625 
L 77.25 44.390625 
L 77.25 52.59375 
L 21.78125 52.59375 
z
M 21.78125 29.9375 
L 77.25 29.9375 
L 77.25 38.140625 
L 21.78125 38.140625 
z
M 77.25 66.9375 
L 21.78125 66.9375 
L 21.78125 58.84375 
L 77.25 58.84375 
z
M 9.96875 17.53125 
L 17.09375 15.09375 
Q 12.796875 3.375 8.109375 -6.296875 
Q 4.984375 -4.9375 0.875 -3.46875 
Q 5.671875 5.03125 9.96875 17.53125 
z
M 79.984375 14.40625 
L 85.640625 18.796875 
Q 92.578125 11.28125 99.8125 2.296875 
L 93.5625 -2.484375 
Q 86.921875 6.5 79.984375 14.40625 
z
M 41.609375 17.625 
L 46.875 22.125 
Q 52.828125 16.65625 59.96875 9.03125 
L 54 3.953125 
Q 46.78125 12.453125 41.609375 17.625 
z
" id="MicrosoftYaHei-606f"/>
      <path d="M 39.75 64.015625 
L 92 64.015625 
L 92 24.859375 
L 84.765625 24.859375 
L 84.765625 28.46875 
L 75.875 28.46875 
L 75.875 1.703125 
Q 75.875 -3.765625 80.671875 -3.765625 
L 83.796875 -3.765625 
Q 88.578125 -3.765625 89.15625 1.515625 
Q 89.65625 6.78125 89.9375 14.109375 
Q 92.96875 12.75 97.265625 10.984375 
Q 96.578125 3.375 95.796875 -1.90625 
Q 94.4375 -10.890625 85.25 -10.890625 
L 78.609375 -10.890625 
Q 68.65625 -10.890625 68.65625 0.25 
L 68.65625 28.46875 
L 60.640625 28.46875 
Q 60.359375 -0.4375 36.328125 -13.03125 
Q 34.46875 -9.8125 31.640625 -6.296875 
Q 53.21875 3.859375 53.421875 28.46875 
L 46.96875 28.46875 
L 46.96875 24.859375 
L 39.75 24.859375 
z
M 1.171875 13.328125 
Q 10.84375 29.640625 15.4375 47.703125 
L 3.328125 47.703125 
L 3.328125 54.34375 
L 16.703125 54.34375 
L 16.703125 68.40625 
Q 10.84375 67.921875 4.5 67.4375 
Q 4 71.046875 3.03125 74.265625 
Q 21 75.140625 35.84375 77.390625 
L 37.40625 70.75 
Q 31.0625 69.875 23.53125 69.09375 
L 23.53125 54.34375 
L 36.53125 54.34375 
L 36.53125 47.703125 
L 23.53125 47.703125 
L 23.53125 39.015625 
L 27.734375 41.84375 
Q 32.625 35.109375 37.109375 27.78125 
L 31.0625 23.875 
Q 27.4375 30.609375 23.53125 36.671875 
L 23.53125 -12.84375 
L 16.703125 -12.84375 
L 16.703125 33.640625 
Q 11.921875 17.4375 4.59375 4.9375 
Q 3.03125 9.03125 1.171875 13.328125 
z
M 84.765625 57.171875 
L 46.96875 57.171875 
L 46.96875 35.296875 
L 84.765625 35.296875 
z
M 87.109375 78.953125 
Q 82.421875 71.828125 76.765625 64.5 
L 70.40625 68.3125 
Q 77.15625 76.21875 80.46875 82.375 
z
M 43.84375 78.65625 
L 50 82.078125 
Q 55.671875 75.4375 59.96875 69 
L 53.328125 64.984375 
Q 49.3125 71.734375 43.84375 78.65625 
z
" id="MicrosoftYaHei-7a0e"/>
      <path d="M 16.21875 -13.140625 
L 8.796875 -13.140625 
L 8.796875 51.90625 
L 51.5625 51.90625 
L 51.5625 -2.6875 
Q 51.5625 -12.25 41.703125 -12.0625 
Q 37.59375 -12.0625 30.46875 -11.859375 
Q 29.890625 -8.0625 29 -4.640625 
Q 34.96875 -5.125 40.046875 -5.125 
Q 44.140625 -5.21875 44.140625 -1.125 
L 44.140625 11.28125 
L 16.21875 11.28125 
z
M 2.34375 68.3125 
L 33.890625 68.3125 
Q 30.671875 73.390625 25.6875 79.34375 
L 31.84375 83.546875 
Q 37.890625 76.8125 41.609375 71.53125 
L 36.765625 68.3125 
L 63.484375 68.3125 
L 59.578125 70.453125 
Q 64.75 76.8125 68.5625 83.734375 
L 75.984375 79.4375 
Q 71.484375 73.296875 66.9375 68.3125 
L 97.859375 68.3125 
L 97.859375 61.46875 
L 2.34375 61.46875 
z
M 83.296875 55.03125 
L 90.921875 55.03125 
L 90.921875 0.4375 
Q 90.921875 -11.578125 79.59375 -11.671875 
Q 74.421875 -11.765625 66.703125 -11.578125 
Q 66.21875 -7.5625 65.328125 -3.375 
Q 72.5625 -4.15625 77.046875 -4.15625 
Q 83.296875 -4.15625 83.296875 2.203125 
z
M 63.1875 50.34375 
L 70.609375 50.34375 
L 70.609375 6.390625 
L 63.1875 6.390625 
z
M 44.140625 45.265625 
L 16.21875 45.265625 
L 16.21875 34.8125 
L 44.140625 34.8125 
z
M 16.21875 17.828125 
L 44.140625 17.828125 
L 44.140625 28.265625 
L 16.21875 28.265625 
z
" id="MicrosoftYaHei-524d"/>
     </defs>
     <g transform="translate(423.6 421.5045)scale(0.12 -0.12)">
      <use xlink:href="#MicrosoftYaHei-606f"/>
      <use x="100" xlink:href="#MicrosoftYaHei-7a0e"/>
      <use x="200" xlink:href="#MicrosoftYaHei-524d"/>
      <use x="300" xlink:href="#MicrosoftYaHei-5229"/>
      <use x="400" xlink:href="#MicrosoftYaHei-6da6"/>
      <use x="500" xlink:href="#MicrosoftYaHei-7387"/>
     </g>
    </g>
    <path d="M 521.6 419.3045 
L 545.6 419.3045 
" style="fill:none;opacity:0.3;stroke:#000000;stroke-linecap:square;stroke-width:2.5;"/>
    <path d="M 519.6 417.3045 
L 543.6 417.3045 
" style="fill:none;stroke:#7f7f7f;stroke-linecap:square;stroke-width:2.5;"/>
    <path d="M 530.6 419.3045 
L 536.6 419.3045 
M 533.6 422.3045 
L 533.6 416.3045 
" style="fill:none;opacity:0.3;stroke:#000000;"/>
    <path d="M 528.6 417.3045 
L 534.6 417.3045 
M 531.6 420.3045 
L 531.6 414.3045 
" style="fill:#7f7f7f;stroke:#7f7f7f;"/>
    <g id="text_27">
     <!-- 净利润率 -->
     <defs>
      <path d="M 31.453125 19.96875 
L 55.859375 19.96875 
L 55.859375 30.421875 
L 26.65625 30.421875 
L 26.65625 37.453125 
L 55.859375 37.453125 
L 55.859375 47.796875 
L 33.203125 47.796875 
L 33.203125 51.515625 
Q 31.390625 49.65625 29.59375 47.90625 
Q 27.9375 49.65625 24.3125 53.375 
Q 36.71875 65.09375 47.65625 83.640625 
L 55.078125 81.6875 
Q 53.125 78.125 51.03125 74.75 
L 80.375 74.75 
L 80.375 68.21875 
L 69.046875 54.640625 
L 89.0625 54.640625 
L 89.0625 37.453125 
L 97.953125 37.453125 
L 97.953125 30.421875 
L 89.0625 30.421875 
L 89.0625 9.125 
L 81.640625 9.125 
L 81.640625 13.140625 
L 63.484375 13.140625 
L 63.484375 0.046875 
Q 63.484375 -11.96875 51.171875 -12.0625 
Q 44.734375 -12.0625 38.875 -12.0625 
Q 38.1875 -7.859375 37.3125 -3.953125 
Q 43.453125 -4.640625 49.421875 -4.640625 
Q 55.859375 -4.640625 55.859375 1.8125 
L 55.859375 13.140625 
L 31.453125 13.140625 
z
M 70.90625 68.015625 
L 46.625 68.015625 
Q 41.703125 60.890625 36.078125 54.640625 
L 60.109375 54.640625 
z
M 14.453125 36.46875 
Q 17.96875 34.71875 21.78125 33.15625 
Q 16.609375 15.484375 11.140625 -3.765625 
L 3.21875 -0.734375 
Q 9.96875 18.109375 14.453125 36.46875 
z
M 63.484375 19.96875 
L 81.640625 19.96875 
L 81.640625 30.421875 
L 63.484375 30.421875 
z
M 10.359375 76.421875 
Q 16.609375 65.671875 21.96875 54.828125 
Q 17.96875 52.6875 14.65625 51.125 
Q 9.671875 62.359375 4 73.09375 
z
M 81.640625 47.796875 
L 63.484375 47.796875 
L 63.484375 37.453125 
L 81.640625 37.453125 
z
" id="MicrosoftYaHei-51c0"/>
     </defs>
     <g transform="translate(553.2 421.5045)scale(0.12 -0.12)">
      <use xlink:href="#MicrosoftYaHei-51c0"/>
      <use x="100" xlink:href="#MicrosoftYaHei-5229"/>
      <use x="200" xlink:href="#MicrosoftYaHei-6da6"/>
      <use x="300" xlink:href="#MicrosoftYaHei-7387"/>
     </g>
    </g>
   </g>
  </g>
 </g>
 <defs>
  <clipPath id="pe4653826f4">
   <rect height="332.64" width="669.6" x="108" y="51.84"/>
  </clipPath>
 </defs>
</svg>
