<?xml version="1.0" encoding="utf-8" standalone="no"?>
<!DOCTYPE svg PUBLIC "-//W3C//DTD SVG 1.1//EN"
  "http://www.w3.org/Graphics/SVG/1.1/DTD/svg11.dtd">
<!-- Created with matplotlib (http://matplotlib.org/) -->
<svg height="432pt" version="1.1" viewBox="0 0 864 432" width="864pt" xmlns="http://www.w3.org/2000/svg" xmlns:xlink="http://www.w3.org/1999/xlink">
 <defs>
  <style type="text/css">
*{stroke-linecap:butt;stroke-linejoin:round;}
  </style>
 </defs>
 <g id="figure_1">
  <g id="patch_1">
   <path d="M 0 432 
L 864 432 
L 864 0 
L 0 0 
z
" style="fill:#ffffff;"/>
  </g>
  <g id="axes_1">
   <g id="patch_2">
    <path d="M 108 384.48 
L 777.6 384.48 
L 777.6 51.84 
L 108 51.84 
z
" style="fill:#ffffff;"/>
   </g>
   <g id="patch_3">
    <path clip-path="url(#pc126ceef8d)" d="M 138.436364 207.2736 
L 147.997525 207.2736 
L 147.997525 187.92 
L 138.436364 187.92 
z
" style="fill:#c00000;"/>
   </g>
   <g id="patch_4">
    <path clip-path="url(#pc126ceef8d)" d="M 202.177439 207.2736 
L 211.738601 207.2736 
L 211.738601 180.6624 
L 202.177439 180.6624 
z
" style="fill:#c00000;"/>
   </g>
   <g id="patch_5">
    <path clip-path="url(#pc126ceef8d)" d="M 265.918515 207.2736 
L 275.479676 207.2736 
L 275.479676 173.4048 
L 265.918515 173.4048 
z
" style="fill:#c00000;"/>
   </g>
   <g id="patch_6">
    <path clip-path="url(#pc126ceef8d)" d="M 329.659591 207.2736 
L 339.220752 207.2736 
L 339.220752 170.9856 
L 329.659591 170.9856 
z
" style="fill:#c00000;"/>
   </g>
   <g id="patch_7">
    <path clip-path="url(#pc126ceef8d)" d="M 393.400666 207.2736 
L 402.961828 207.2736 
L 402.961828 183.0816 
L 393.400666 183.0816 
z
" style="fill:#c00000;"/>
   </g>
   <g id="patch_8">
    <path clip-path="url(#pc126ceef8d)" d="M 457.141742 207.2736 
L 466.702903 207.2736 
L 466.702903 95.9904 
L 457.141742 95.9904 
z
" style="fill:#c00000;"/>
   </g>
   <g id="patch_9">
    <path clip-path="url(#pc126ceef8d)" d="M 520.882818 207.2736 
L 530.443979 207.2736 
L 530.443979 112.9248 
L 520.882818 112.9248 
z
" style="fill:#c00000;"/>
   </g>
   <g id="patch_10">
    <path clip-path="url(#pc126ceef8d)" d="M 584.623893 207.2736 
L 594.185055 207.2736 
L 594.185055 93.5712 
L 584.623893 93.5712 
z
" style="fill:#c00000;"/>
   </g>
   <g id="patch_11">
    <path clip-path="url(#pc126ceef8d)" d="M 648.364969 207.2736 
L 657.92613 207.2736 
L 657.92613 66.96 
L 648.364969 66.96 
z
" style="fill:#c00000;"/>
   </g>
   <g id="patch_12">
    <path clip-path="url(#pc126ceef8d)" d="M 712.106045 207.2736 
L 721.667206 207.2736 
L 721.667206 74.2176 
L 712.106045 74.2176 
z
" style="fill:#c00000;"/>
   </g>
   <g id="patch_13">
    <path clip-path="url(#pc126ceef8d)" d="M 151.184579 207.2736 
L 160.74574 207.2736 
L 160.74574 209.6928 
L 151.184579 209.6928 
z
" style="fill:#0070c0;"/>
   </g>
   <g id="patch_14">
    <path clip-path="url(#pc126ceef8d)" d="M 214.925654 207.2736 
L 224.486816 207.2736 
L 224.486816 212.112 
L 214.925654 212.112 
z
" style="fill:#0070c0;"/>
   </g>
   <g id="patch_15">
    <path clip-path="url(#pc126ceef8d)" d="M 278.66673 207.2736 
L 288.227891 207.2736 
L 288.227891 216.9504 
L 278.66673 216.9504 
z
" style="fill:#0070c0;"/>
   </g>
   <g id="patch_16">
    <path clip-path="url(#pc126ceef8d)" d="M 342.407806 207.2736 
L 351.968967 207.2736 
L 351.968967 216.9504 
L 342.407806 216.9504 
z
" style="fill:#0070c0;"/>
   </g>
   <g id="patch_17">
    <path clip-path="url(#pc126ceef8d)" d="M 406.148881 207.2736 
L 415.710043 207.2736 
L 415.710043 233.8848 
L 406.148881 233.8848 
z
" style="fill:#0070c0;"/>
   </g>
   <g id="patch_18">
    <path clip-path="url(#pc126ceef8d)" d="M 469.889957 207.2736 
L 479.451119 207.2736 
L 479.451119 243.5616 
L 469.889957 243.5616 
z
" style="fill:#0070c0;"/>
   </g>
   <g id="patch_19">
    <path clip-path="url(#pc126ceef8d)" d="M 533.631033 207.2736 
L 543.192194 207.2736 
L 543.192194 255.6576 
L 533.631033 255.6576 
z
" style="fill:#0070c0;"/>
   </g>
   <g id="patch_20">
    <path clip-path="url(#pc126ceef8d)" d="M 597.372109 207.2736 
L 606.93327 207.2736 
L 606.93327 260.496 
L 597.372109 260.496 
z
" style="fill:#0070c0;"/>
   </g>
   <g id="patch_21">
    <path clip-path="url(#pc126ceef8d)" d="M 661.113184 207.2736 
L 670.674346 207.2736 
L 670.674346 287.1072 
L 661.113184 287.1072 
z
" style="fill:#0070c0;"/>
   </g>
   <g id="patch_22">
    <path clip-path="url(#pc126ceef8d)" d="M 724.85426 207.2736 
L 734.415421 207.2736 
L 734.415421 163.728 
L 724.85426 163.728 
z
" style="fill:#0070c0;"/>
   </g>
   <g id="patch_23">
    <path clip-path="url(#pc126ceef8d)" d="M 163.932794 207.2736 
L 173.493955 207.2736 
L 173.493955 219.3696 
L 163.932794 219.3696 
z
" style="fill:#7f7f7f;"/>
   </g>
   <g id="patch_24">
    <path clip-path="url(#pc126ceef8d)" d="M 227.67387 207.2736 
L 237.235031 207.2736 
L 237.235031 221.7888 
L 227.67387 221.7888 
z
" style="fill:#7f7f7f;"/>
   </g>
   <g id="patch_25">
    <path clip-path="url(#pc126ceef8d)" d="M 291.414945 207.2736 
L 300.976107 207.2736 
L 300.976107 216.9504 
L 291.414945 216.9504 
z
" style="fill:#7f7f7f;"/>
   </g>
   <g id="patch_26">
    <path clip-path="url(#pc126ceef8d)" d="M 355.156021 207.2736 
L 364.717182 207.2736 
L 364.717182 221.7888 
L 355.156021 221.7888 
z
" style="fill:#7f7f7f;"/>
   </g>
   <g id="patch_27">
    <path clip-path="url(#pc126ceef8d)" d="M 418.897097 207.2736 
L 428.458258 207.2736 
L 428.458258 209.6928 
L 418.897097 209.6928 
z
" style="fill:#7f7f7f;"/>
   </g>
   <g id="patch_28">
    <path clip-path="url(#pc126ceef8d)" d="M 482.638172 207.2736 
L 492.199334 207.2736 
L 492.199334 241.1424 
L 482.638172 241.1424 
z
" style="fill:#7f7f7f;"/>
   </g>
   <g id="patch_29">
    <path clip-path="url(#pc126ceef8d)" d="M 546.379248 207.2736 
L 555.940409 207.2736 
L 555.940409 260.496 
L 546.379248 260.496 
z
" style="fill:#7f7f7f;"/>
   </g>
   <g id="patch_30">
    <path clip-path="url(#pc126ceef8d)" d="M 610.120324 207.2736 
L 619.681485 207.2736 
L 619.681485 289.5264 
L 610.120324 289.5264 
z
" style="fill:#7f7f7f;"/>
   </g>
   <g id="patch_31">
    <path clip-path="url(#pc126ceef8d)" d="M 673.861399 207.2736 
L 683.422561 207.2736 
L 683.422561 279.8496 
L 673.861399 279.8496 
z
" style="fill:#7f7f7f;"/>
   </g>
   <g id="patch_32">
    <path clip-path="url(#pc126ceef8d)" d="M 737.602475 207.2736 
L 747.163636 207.2736 
L 747.163636 369.36 
L 737.602475 369.36 
z
" style="fill:#7f7f7f;"/>
   </g>
   <g id="matplotlib.axis_1">
    <g id="xtick_1">
     <g id="line2d_1">
      <defs>
       <path d="M 0 0 
L 0 2 
" id="m98ff2d6190" style="stroke:#000000;stroke-width:2;"/>
      </defs>
      <g>
       <use style="stroke:#000000;stroke-width:2;" x="155.965159" xlink:href="#m98ff2d6190" y="384.48"/>
      </g>
     </g>
     <g id="text_1">
      <!-- 2007 -->
      <defs>
       <path d="M 19.1875 8.296875 
L 53.609375 8.296875 
L 53.609375 0 
L 7.328125 0 
L 7.328125 8.296875 
Q 12.9375 14.109375 22.625 23.890625 
Q 32.328125 33.6875 34.8125 36.53125 
Q 39.546875 41.84375 41.421875 45.53125 
Q 43.3125 49.21875 43.3125 52.78125 
Q 43.3125 58.59375 39.234375 62.25 
Q 35.15625 65.921875 28.609375 65.921875 
Q 23.96875 65.921875 18.8125 64.3125 
Q 13.671875 62.703125 7.8125 59.421875 
L 7.8125 69.390625 
Q 13.765625 71.78125 18.9375 73 
Q 24.125 74.21875 28.421875 74.21875 
Q 39.75 74.21875 46.484375 68.546875 
Q 53.21875 62.890625 53.21875 53.421875 
Q 53.21875 48.921875 51.53125 44.890625 
Q 49.859375 40.875 45.40625 35.40625 
Q 44.1875 33.984375 37.640625 27.21875 
Q 31.109375 20.453125 19.1875 8.296875 
z
" id="DejaVuSans-32"/>
       <path d="M 31.78125 66.40625 
Q 24.171875 66.40625 20.328125 58.90625 
Q 16.5 51.421875 16.5 36.375 
Q 16.5 21.390625 20.328125 13.890625 
Q 24.171875 6.390625 31.78125 6.390625 
Q 39.453125 6.390625 43.28125 13.890625 
Q 47.125 21.390625 47.125 36.375 
Q 47.125 51.421875 43.28125 58.90625 
Q 39.453125 66.40625 31.78125 66.40625 
z
M 31.78125 74.21875 
Q 44.046875 74.21875 50.515625 64.515625 
Q 56.984375 54.828125 56.984375 36.375 
Q 56.984375 17.96875 50.515625 8.265625 
Q 44.046875 -1.421875 31.78125 -1.421875 
Q 19.53125 -1.421875 13.0625 8.265625 
Q 6.59375 17.96875 6.59375 36.375 
Q 6.59375 54.828125 13.0625 64.515625 
Q 19.53125 74.21875 31.78125 74.21875 
z
" id="DejaVuSans-30"/>
       <path d="M 8.203125 72.90625 
L 55.078125 72.90625 
L 55.078125 68.703125 
L 28.609375 0 
L 18.3125 0 
L 43.21875 64.59375 
L 8.203125 64.59375 
z
" id="DejaVuSans-37"/>
      </defs>
      <g transform="translate(143.240159 397.578438)scale(0.1 -0.1)">
       <use xlink:href="#DejaVuSans-32"/>
       <use x="63.623047" xlink:href="#DejaVuSans-30"/>
       <use x="127.246094" xlink:href="#DejaVuSans-30"/>
       <use x="190.869141" xlink:href="#DejaVuSans-37"/>
      </g>
     </g>
    </g>
    <g id="xtick_2">
     <g id="line2d_2">
      <g>
       <use style="stroke:#000000;stroke-width:2;" x="219.706235" xlink:href="#m98ff2d6190" y="384.48"/>
      </g>
     </g>
     <g id="text_2">
      <!-- 2008 -->
      <defs>
       <path d="M 31.78125 34.625 
Q 24.75 34.625 20.71875 30.859375 
Q 16.703125 27.09375 16.703125 20.515625 
Q 16.703125 13.921875 20.71875 10.15625 
Q 24.75 6.390625 31.78125 6.390625 
Q 38.8125 6.390625 42.859375 10.171875 
Q 46.921875 13.96875 46.921875 20.515625 
Q 46.921875 27.09375 42.890625 30.859375 
Q 38.875 34.625 31.78125 34.625 
z
M 21.921875 38.8125 
Q 15.578125 40.375 12.03125 44.71875 
Q 8.5 49.078125 8.5 55.328125 
Q 8.5 64.0625 14.71875 69.140625 
Q 20.953125 74.21875 31.78125 74.21875 
Q 42.671875 74.21875 48.875 69.140625 
Q 55.078125 64.0625 55.078125 55.328125 
Q 55.078125 49.078125 51.53125 44.71875 
Q 48 40.375 41.703125 38.8125 
Q 48.828125 37.15625 52.796875 32.3125 
Q 56.78125 27.484375 56.78125 20.515625 
Q 56.78125 9.90625 50.3125 4.234375 
Q 43.84375 -1.421875 31.78125 -1.421875 
Q 19.734375 -1.421875 13.25 4.234375 
Q 6.78125 9.90625 6.78125 20.515625 
Q 6.78125 27.484375 10.78125 32.3125 
Q 14.796875 37.15625 21.921875 38.8125 
z
M 18.3125 54.390625 
Q 18.3125 48.734375 21.84375 45.5625 
Q 25.390625 42.390625 31.78125 42.390625 
Q 38.140625 42.390625 41.71875 45.5625 
Q 45.3125 48.734375 45.3125 54.390625 
Q 45.3125 60.0625 41.71875 63.234375 
Q 38.140625 66.40625 31.78125 66.40625 
Q 25.390625 66.40625 21.84375 63.234375 
Q 18.3125 60.0625 18.3125 54.390625 
z
" id="DejaVuSans-38"/>
      </defs>
      <g transform="translate(206.981235 397.578438)scale(0.1 -0.1)">
       <use xlink:href="#DejaVuSans-32"/>
       <use x="63.623047" xlink:href="#DejaVuSans-30"/>
       <use x="127.246094" xlink:href="#DejaVuSans-30"/>
       <use x="190.869141" xlink:href="#DejaVuSans-38"/>
      </g>
     </g>
    </g>
    <g id="xtick_3">
     <g id="line2d_3">
      <g>
       <use style="stroke:#000000;stroke-width:2;" x="283.447311" xlink:href="#m98ff2d6190" y="384.48"/>
      </g>
     </g>
     <g id="text_3">
      <!-- 2009 -->
      <defs>
       <path d="M 10.984375 1.515625 
L 10.984375 10.5 
Q 14.703125 8.734375 18.5 7.8125 
Q 22.3125 6.890625 25.984375 6.890625 
Q 35.75 6.890625 40.890625 13.453125 
Q 46.046875 20.015625 46.78125 33.40625 
Q 43.953125 29.203125 39.59375 26.953125 
Q 35.25 24.703125 29.984375 24.703125 
Q 19.046875 24.703125 12.671875 31.3125 
Q 6.296875 37.9375 6.296875 49.421875 
Q 6.296875 60.640625 12.9375 67.421875 
Q 19.578125 74.21875 30.609375 74.21875 
Q 43.265625 74.21875 49.921875 64.515625 
Q 56.59375 54.828125 56.59375 36.375 
Q 56.59375 19.140625 48.40625 8.859375 
Q 40.234375 -1.421875 26.421875 -1.421875 
Q 22.703125 -1.421875 18.890625 -0.6875 
Q 15.09375 0.046875 10.984375 1.515625 
z
M 30.609375 32.421875 
Q 37.25 32.421875 41.125 36.953125 
Q 45.015625 41.5 45.015625 49.421875 
Q 45.015625 57.28125 41.125 61.84375 
Q 37.25 66.40625 30.609375 66.40625 
Q 23.96875 66.40625 20.09375 61.84375 
Q 16.21875 57.28125 16.21875 49.421875 
Q 16.21875 41.5 20.09375 36.953125 
Q 23.96875 32.421875 30.609375 32.421875 
z
" id="DejaVuSans-39"/>
      </defs>
      <g transform="translate(270.722311 397.578438)scale(0.1 -0.1)">
       <use xlink:href="#DejaVuSans-32"/>
       <use x="63.623047" xlink:href="#DejaVuSans-30"/>
       <use x="127.246094" xlink:href="#DejaVuSans-30"/>
       <use x="190.869141" xlink:href="#DejaVuSans-39"/>
      </g>
     </g>
    </g>
    <g id="xtick_4">
     <g id="line2d_4">
      <g>
       <use style="stroke:#000000;stroke-width:2;" x="347.188386" xlink:href="#m98ff2d6190" y="384.48"/>
      </g>
     </g>
     <g id="text_4">
      <!-- 2010 -->
      <defs>
       <path d="M 12.40625 8.296875 
L 28.515625 8.296875 
L 28.515625 63.921875 
L 10.984375 60.40625 
L 10.984375 69.390625 
L 28.421875 72.90625 
L 38.28125 72.90625 
L 38.28125 8.296875 
L 54.390625 8.296875 
L 54.390625 0 
L 12.40625 0 
z
" id="DejaVuSans-31"/>
      </defs>
      <g transform="translate(334.463386 397.578438)scale(0.1 -0.1)">
       <use xlink:href="#DejaVuSans-32"/>
       <use x="63.623047" xlink:href="#DejaVuSans-30"/>
       <use x="127.246094" xlink:href="#DejaVuSans-31"/>
       <use x="190.869141" xlink:href="#DejaVuSans-30"/>
      </g>
     </g>
    </g>
    <g id="xtick_5">
     <g id="line2d_5">
      <g>
       <use style="stroke:#000000;stroke-width:2;" x="410.929462" xlink:href="#m98ff2d6190" y="384.48"/>
      </g>
     </g>
     <g id="text_5">
      <!-- 2011 -->
      <g transform="translate(398.204462 397.578438)scale(0.1 -0.1)">
       <use xlink:href="#DejaVuSans-32"/>
       <use x="63.623047" xlink:href="#DejaVuSans-30"/>
       <use x="127.246094" xlink:href="#DejaVuSans-31"/>
       <use x="190.869141" xlink:href="#DejaVuSans-31"/>
      </g>
     </g>
    </g>
    <g id="xtick_6">
     <g id="line2d_6">
      <g>
       <use style="stroke:#000000;stroke-width:2;" x="474.670538" xlink:href="#m98ff2d6190" y="384.48"/>
      </g>
     </g>
     <g id="text_6">
      <!-- 2012 -->
      <g transform="translate(461.945538 397.578438)scale(0.1 -0.1)">
       <use xlink:href="#DejaVuSans-32"/>
       <use x="63.623047" xlink:href="#DejaVuSans-30"/>
       <use x="127.246094" xlink:href="#DejaVuSans-31"/>
       <use x="190.869141" xlink:href="#DejaVuSans-32"/>
      </g>
     </g>
    </g>
    <g id="xtick_7">
     <g id="line2d_7">
      <g>
       <use style="stroke:#000000;stroke-width:2;" x="538.411614" xlink:href="#m98ff2d6190" y="384.48"/>
      </g>
     </g>
     <g id="text_7">
      <!-- 2013 -->
      <defs>
       <path d="M 40.578125 39.3125 
Q 47.65625 37.796875 51.625 33 
Q 55.609375 28.21875 55.609375 21.1875 
Q 55.609375 10.40625 48.1875 4.484375 
Q 40.765625 -1.421875 27.09375 -1.421875 
Q 22.515625 -1.421875 17.65625 -0.515625 
Q 12.796875 0.390625 7.625 2.203125 
L 7.625 11.71875 
Q 11.71875 9.328125 16.59375 8.109375 
Q 21.484375 6.890625 26.8125 6.890625 
Q 36.078125 6.890625 40.9375 10.546875 
Q 45.796875 14.203125 45.796875 21.1875 
Q 45.796875 27.640625 41.28125 31.265625 
Q 36.765625 34.90625 28.71875 34.90625 
L 20.21875 34.90625 
L 20.21875 43.015625 
L 29.109375 43.015625 
Q 36.375 43.015625 40.234375 45.921875 
Q 44.09375 48.828125 44.09375 54.296875 
Q 44.09375 59.90625 40.109375 62.90625 
Q 36.140625 65.921875 28.71875 65.921875 
Q 24.65625 65.921875 20.015625 65.03125 
Q 15.375 64.15625 9.8125 62.3125 
L 9.8125 71.09375 
Q 15.4375 72.65625 20.34375 73.4375 
Q 25.25 74.21875 29.59375 74.21875 
Q 40.828125 74.21875 47.359375 69.109375 
Q 53.90625 64.015625 53.90625 55.328125 
Q 53.90625 49.265625 50.4375 45.09375 
Q 46.96875 40.921875 40.578125 39.3125 
z
" id="DejaVuSans-33"/>
      </defs>
      <g transform="translate(525.686614 397.578438)scale(0.1 -0.1)">
       <use xlink:href="#DejaVuSans-32"/>
       <use x="63.623047" xlink:href="#DejaVuSans-30"/>
       <use x="127.246094" xlink:href="#DejaVuSans-31"/>
       <use x="190.869141" xlink:href="#DejaVuSans-33"/>
      </g>
     </g>
    </g>
    <g id="xtick_8">
     <g id="line2d_8">
      <g>
       <use style="stroke:#000000;stroke-width:2;" x="602.152689" xlink:href="#m98ff2d6190" y="384.48"/>
      </g>
     </g>
     <g id="text_8">
      <!-- 2014 -->
      <defs>
       <path d="M 37.796875 64.3125 
L 12.890625 25.390625 
L 37.796875 25.390625 
z
M 35.203125 72.90625 
L 47.609375 72.90625 
L 47.609375 25.390625 
L 58.015625 25.390625 
L 58.015625 17.1875 
L 47.609375 17.1875 
L 47.609375 0 
L 37.796875 0 
L 37.796875 17.1875 
L 4.890625 17.1875 
L 4.890625 26.703125 
z
" id="DejaVuSans-34"/>
      </defs>
      <g transform="translate(589.427689 397.578438)scale(0.1 -0.1)">
       <use xlink:href="#DejaVuSans-32"/>
       <use x="63.623047" xlink:href="#DejaVuSans-30"/>
       <use x="127.246094" xlink:href="#DejaVuSans-31"/>
       <use x="190.869141" xlink:href="#DejaVuSans-34"/>
      </g>
     </g>
    </g>
    <g id="xtick_9">
     <g id="line2d_9">
      <g>
       <use style="stroke:#000000;stroke-width:2;" x="665.893765" xlink:href="#m98ff2d6190" y="384.48"/>
      </g>
     </g>
     <g id="text_9">
      <!-- 2015 -->
      <defs>
       <path d="M 10.796875 72.90625 
L 49.515625 72.90625 
L 49.515625 64.59375 
L 19.828125 64.59375 
L 19.828125 46.734375 
Q 21.96875 47.46875 24.109375 47.828125 
Q 26.265625 48.1875 28.421875 48.1875 
Q 40.625 48.1875 47.75 41.5 
Q 54.890625 34.8125 54.890625 23.390625 
Q 54.890625 11.625 47.5625 5.09375 
Q 40.234375 -1.421875 26.90625 -1.421875 
Q 22.3125 -1.421875 17.546875 -0.640625 
Q 12.796875 0.140625 7.71875 1.703125 
L 7.71875 11.625 
Q 12.109375 9.234375 16.796875 8.0625 
Q 21.484375 6.890625 26.703125 6.890625 
Q 35.15625 6.890625 40.078125 11.328125 
Q 45.015625 15.765625 45.015625 23.390625 
Q 45.015625 31 40.078125 35.4375 
Q 35.15625 39.890625 26.703125 39.890625 
Q 22.75 39.890625 18.8125 39.015625 
Q 14.890625 38.140625 10.796875 36.28125 
z
" id="DejaVuSans-35"/>
      </defs>
      <g transform="translate(653.168765 397.578438)scale(0.1 -0.1)">
       <use xlink:href="#DejaVuSans-32"/>
       <use x="63.623047" xlink:href="#DejaVuSans-30"/>
       <use x="127.246094" xlink:href="#DejaVuSans-31"/>
       <use x="190.869141" xlink:href="#DejaVuSans-35"/>
      </g>
     </g>
    </g>
    <g id="xtick_10">
     <g id="line2d_10">
      <g>
       <use style="stroke:#000000;stroke-width:2;" x="729.634841" xlink:href="#m98ff2d6190" y="384.48"/>
      </g>
     </g>
     <g id="text_10">
      <!-- 2016 -->
      <defs>
       <path d="M 33.015625 40.375 
Q 26.375 40.375 22.484375 35.828125 
Q 18.609375 31.296875 18.609375 23.390625 
Q 18.609375 15.53125 22.484375 10.953125 
Q 26.375 6.390625 33.015625 6.390625 
Q 39.65625 6.390625 43.53125 10.953125 
Q 47.40625 15.53125 47.40625 23.390625 
Q 47.40625 31.296875 43.53125 35.828125 
Q 39.65625 40.375 33.015625 40.375 
z
M 52.59375 71.296875 
L 52.59375 62.3125 
Q 48.875 64.0625 45.09375 64.984375 
Q 41.3125 65.921875 37.59375 65.921875 
Q 27.828125 65.921875 22.671875 59.328125 
Q 17.53125 52.734375 16.796875 39.40625 
Q 19.671875 43.65625 24.015625 45.921875 
Q 28.375 48.1875 33.59375 48.1875 
Q 44.578125 48.1875 50.953125 41.515625 
Q 57.328125 34.859375 57.328125 23.390625 
Q 57.328125 12.15625 50.6875 5.359375 
Q 44.046875 -1.421875 33.015625 -1.421875 
Q 20.359375 -1.421875 13.671875 8.265625 
Q 6.984375 17.96875 6.984375 36.375 
Q 6.984375 53.65625 15.1875 63.9375 
Q 23.390625 74.21875 37.203125 74.21875 
Q 40.921875 74.21875 44.703125 73.484375 
Q 48.484375 72.75 52.59375 71.296875 
z
" id="DejaVuSans-36"/>
      </defs>
      <g transform="translate(716.909841 397.578438)scale(0.1 -0.1)">
       <use xlink:href="#DejaVuSans-32"/>
       <use x="63.623047" xlink:href="#DejaVuSans-30"/>
       <use x="127.246094" xlink:href="#DejaVuSans-31"/>
       <use x="190.869141" xlink:href="#DejaVuSans-36"/>
      </g>
     </g>
    </g>
   </g>
   <g id="matplotlib.axis_2">
    <g id="ytick_1">
     <g id="line2d_11">
      <path clip-path="url(#pc126ceef8d)" d="M 108 352.4256 
L 777.6 352.4256 
" style="fill:none;stroke:#b0b0b0;stroke-dasharray:2.96,1.28;stroke-dashoffset:0;stroke-width:0.8;"/>
     </g>
     <g id="line2d_12">
      <defs>
       <path d="M 0 0 
L -2 0 
" id="ma125dbe289" style="stroke:#000000;stroke-width:2;"/>
      </defs>
      <g>
       <use style="stroke:#000000;stroke-width:2;" x="108" xlink:href="#ma125dbe289" y="352.4256"/>
      </g>
     </g>
     <g id="text_11">
      <!-- −60 -->
      <defs>
       <path d="M 10.59375 35.5 
L 73.1875 35.5 
L 73.1875 27.203125 
L 10.59375 27.203125 
z
" id="DejaVuSans-2212"/>
      </defs>
      <g transform="translate(81.395313 356.224819)scale(0.1 -0.1)">
       <use xlink:href="#DejaVuSans-2212"/>
       <use x="83.789062" xlink:href="#DejaVuSans-36"/>
       <use x="147.412109" xlink:href="#DejaVuSans-30"/>
      </g>
     </g>
    </g>
    <g id="ytick_2">
     <g id="line2d_13">
      <path clip-path="url(#pc126ceef8d)" d="M 108 304.0416 
L 777.6 304.0416 
" style="fill:none;stroke:#b0b0b0;stroke-dasharray:2.96,1.28;stroke-dashoffset:0;stroke-width:0.8;"/>
     </g>
     <g id="line2d_14">
      <g>
       <use style="stroke:#000000;stroke-width:2;" x="108" xlink:href="#ma125dbe289" y="304.0416"/>
      </g>
     </g>
     <g id="text_12">
      <!-- −40 -->
      <g transform="translate(81.395313 307.840819)scale(0.1 -0.1)">
       <use xlink:href="#DejaVuSans-2212"/>
       <use x="83.789062" xlink:href="#DejaVuSans-34"/>
       <use x="147.412109" xlink:href="#DejaVuSans-30"/>
      </g>
     </g>
    </g>
    <g id="ytick_3">
     <g id="line2d_15">
      <path clip-path="url(#pc126ceef8d)" d="M 108 255.6576 
L 777.6 255.6576 
" style="fill:none;stroke:#b0b0b0;stroke-dasharray:2.96,1.28;stroke-dashoffset:0;stroke-width:0.8;"/>
     </g>
     <g id="line2d_16">
      <g>
       <use style="stroke:#000000;stroke-width:2;" x="108" xlink:href="#ma125dbe289" y="255.6576"/>
      </g>
     </g>
     <g id="text_13">
      <!-- −20 -->
      <g transform="translate(81.395313 259.456819)scale(0.1 -0.1)">
       <use xlink:href="#DejaVuSans-2212"/>
       <use x="83.789062" xlink:href="#DejaVuSans-32"/>
       <use x="147.412109" xlink:href="#DejaVuSans-30"/>
      </g>
     </g>
    </g>
    <g id="ytick_4">
     <g id="line2d_17">
      <path clip-path="url(#pc126ceef8d)" d="M 108 207.2736 
L 777.6 207.2736 
" style="fill:none;stroke:#b0b0b0;stroke-dasharray:2.96,1.28;stroke-dashoffset:0;stroke-width:0.8;"/>
     </g>
     <g id="line2d_18">
      <g>
       <use style="stroke:#000000;stroke-width:2;" x="108" xlink:href="#ma125dbe289" y="207.2736"/>
      </g>
     </g>
     <g id="text_14">
      <!-- 0 -->
      <g transform="translate(96.1375 211.072819)scale(0.1 -0.1)">
       <use xlink:href="#DejaVuSans-30"/>
      </g>
     </g>
    </g>
    <g id="ytick_5">
     <g id="line2d_19">
      <path clip-path="url(#pc126ceef8d)" d="M 108 158.8896 
L 777.6 158.8896 
" style="fill:none;stroke:#b0b0b0;stroke-dasharray:2.96,1.28;stroke-dashoffset:0;stroke-width:0.8;"/>
     </g>
     <g id="line2d_20">
      <g>
       <use style="stroke:#000000;stroke-width:2;" x="108" xlink:href="#ma125dbe289" y="158.8896"/>
      </g>
     </g>
     <g id="text_15">
      <!-- 20 -->
      <g transform="translate(89.775 162.688819)scale(0.1 -0.1)">
       <use xlink:href="#DejaVuSans-32"/>
       <use x="63.623047" xlink:href="#DejaVuSans-30"/>
      </g>
     </g>
    </g>
    <g id="ytick_6">
     <g id="line2d_21">
      <path clip-path="url(#pc126ceef8d)" d="M 108 110.5056 
L 777.6 110.5056 
" style="fill:none;stroke:#b0b0b0;stroke-dasharray:2.96,1.28;stroke-dashoffset:0;stroke-width:0.8;"/>
     </g>
     <g id="line2d_22">
      <g>
       <use style="stroke:#000000;stroke-width:2;" x="108" xlink:href="#ma125dbe289" y="110.5056"/>
      </g>
     </g>
     <g id="text_16">
      <!-- 40 -->
      <g transform="translate(89.775 114.304819)scale(0.1 -0.1)">
       <use xlink:href="#DejaVuSans-34"/>
       <use x="63.623047" xlink:href="#DejaVuSans-30"/>
      </g>
     </g>
    </g>
    <g id="ytick_7">
     <g id="line2d_23">
      <path clip-path="url(#pc126ceef8d)" d="M 108 62.1216 
L 777.6 62.1216 
" style="fill:none;stroke:#b0b0b0;stroke-dasharray:2.96,1.28;stroke-dashoffset:0;stroke-width:0.8;"/>
     </g>
     <g id="line2d_24">
      <g>
       <use style="stroke:#000000;stroke-width:2;" x="108" xlink:href="#ma125dbe289" y="62.1216"/>
      </g>
     </g>
     <g id="text_17">
      <!-- 60 -->
      <g transform="translate(89.775 65.920819)scale(0.1 -0.1)">
       <use xlink:href="#DejaVuSans-36"/>
       <use x="63.623047" xlink:href="#DejaVuSans-30"/>
      </g>
     </g>
    </g>
   </g>
   <g id="patch_33">
    <path d="M 108 384.48 
L 108 51.84 
" style="fill:none;stroke:#000000;stroke-linecap:square;stroke-linejoin:miter;stroke-width:0.8;"/>
   </g>
   <g id="patch_34">
    <path d="M 777.6 384.48 
L 777.6 51.84 
" style="fill:none;stroke:#000000;stroke-linecap:square;stroke-linejoin:miter;stroke-width:0.8;"/>
   </g>
   <g id="patch_35">
    <path d="M 108 384.48 
L 777.6 384.48 
" style="fill:none;stroke:#000000;stroke-linecap:square;stroke-linejoin:miter;stroke-width:0.8;"/>
   </g>
   <g id="patch_36">
    <path d="M 108 51.84 
L 777.6 51.84 
" style="fill:none;stroke:#000000;stroke-linecap:square;stroke-linejoin:miter;stroke-width:0.8;"/>
   </g>
   <g id="text_18">
    <!-- 现金流状况（单位：亿元） -->
    <defs>
     <path d="M 60.9375 64.703125 
L 68.5625 64.703125 
L 68.5625 48.296875 
Q 68.5625 35.75 66.40625 26.21875 
L 72.859375 26.21875 
L 72.859375 1.609375 
Q 72.859375 -3.5625 78.515625 -3.5625 
L 83.203125 -3.5625 
Q 89.0625 -3.5625 89.65625 1.703125 
Q 90.234375 6.203125 90.625 14.5 
Q 93.953125 13.140625 98.640625 11.46875 
Q 97.859375 2.875 97.078125 -1.421875 
Q 95.609375 -10.40625 84.28125 -10.40625 
L 77.046875 -10.40625 
Q 65.4375 -10.40625 65.4375 0.640625 
L 65.4375 22.265625 
Q 63.421875 15.328125 60.15625 10.203125 
Q 51.859375 -3.171875 32.71875 -13.03125 
Q 30.171875 -9.421875 27.4375 -6.59375 
Q 46.484375 2.59375 53.90625 14.703125 
Q 60.9375 25.640625 60.9375 47.703125 
z
M 40.4375 78.65625 
L 90.328125 78.65625 
L 90.328125 20.0625 
L 82.71875 20.0625 
L 82.71875 71.4375 
L 48.046875 71.4375 
L 48.046875 18.703125 
L 40.4375 18.703125 
z
M 1.265625 6 
Q 8.296875 7.90625 16.015625 10.109375 
L 16.015625 38.53125 
L 3.125 38.53125 
L 3.125 45.5625 
L 16.015625 45.5625 
L 16.015625 68.21875 
L 2.34375 68.21875 
L 2.34375 75.25 
L 37.5 75.25 
L 37.5 68.21875 
L 23.640625 68.21875 
L 23.640625 45.5625 
L 36.140625 45.5625 
L 36.140625 38.53125 
L 23.640625 38.53125 
L 23.640625 12.359375 
Q 30.5625 14.453125 37.984375 16.75 
Q 38.1875 13.03125 38.671875 9.421875 
Q 21.875 4.25 4 -1.515625 
z
" id="MicrosoftYaHei-73b0"/>
     <path d="M 4.6875 -2.203125 
L 46.09375 -2.203125 
L 46.09375 21.625 
L 11.140625 21.625 
L 11.140625 28.765625 
L 46.09375 28.765625 
L 46.09375 42.4375 
L 20.703125 42.4375 
L 20.703125 49.265625 
Q 13.765625 44.875 5.671875 40.484375 
Q 3.609375 44.1875 0.78125 47.796875 
Q 33.296875 63.03125 46.78125 82.765625 
L 57.421875 82.765625 
L 55.171875 80.03125 
Q 70.703125 60.203125 99.125 49.171875 
Q 96.484375 45.453125 93.953125 41.359375 
Q 86.328125 44.578125 79.203125 49.078125 
L 79.203125 42.4375 
L 53.90625 42.4375 
L 53.90625 28.765625 
L 88.671875 28.765625 
L 88.671875 21.625 
L 53.90625 21.625 
L 53.90625 -2.203125 
L 95.515625 -2.203125 
L 95.515625 -9.421875 
L 4.6875 -9.421875 
z
M 50.09375 74.46875 
Q 40.046875 61.765625 21.09375 49.5625 
L 78.421875 49.5625 
Q 63.1875 59.234375 50.09375 74.46875 
z
M 63.96875 4.4375 
Q 71.875 12.640625 77.34375 20.453125 
L 84.1875 16.0625 
Q 77.34375 7.5625 69.828125 -0.25 
z
M 15.625 15.671875 
L 21.390625 20.265625 
Q 28.515625 13.03125 35.359375 5.21875 
L 28.71875 -0.046875 
Q 22.859375 7.671875 15.625 15.671875 
z
" id="MicrosoftYaHei-91d1"/>
     <path d="M 78.328125 58.453125 
Q 85.9375 49.65625 95.21875 37.0625 
Q 91.609375 34.8125 88.1875 32.46875 
Q 85.75 36.03125 83.453125 39.3125 
Q 59.46875 38.234375 39.359375 37.15625 
Q 36.234375 37.0625 31.546875 35.984375 
L 28.21875 43.3125 
Q 31.84375 45.171875 35.0625 47.796875 
Q 42.625 54.25 50.09375 63.71875 
L 28.421875 63.71875 
L 28.421875 70.65625 
L 59.421875 70.65625 
Q 55.71875 76.421875 52.34375 80.71875 
L 58.796875 84.71875 
Q 62.40625 80.125 67 73.96875 
L 61.921875 70.65625 
L 95.125 70.65625 
L 95.125 63.71875 
L 51.953125 63.71875 
L 58.40625 60.984375 
Q 49.3125 51.21875 41.40625 44.578125 
Q 57.171875 45.0625 78.765625 45.84375 
Q 75.34375 50.4375 72.265625 54.34375 
z
M 73.140625 32.953125 
L 80.46875 32.953125 
L 80.46875 0.25 
Q 80.46875 -4.25 83.984375 -4.25 
L 87.40625 -4.25 
Q 90.4375 -4.25 91.21875 0.734375 
Q 91.890625 6 92.09375 13.03125 
Q 95.515625 11.46875 99.421875 10.203125 
Q 98.734375 2 97.953125 -2.390625 
Q 96.78125 -11.078125 88.671875 -11.078125 
L 82.625 -11.078125 
Q 73.140625 -11.078125 73.140625 0.34375 
z
M 36.03125 32.5625 
L 43.453125 32.5625 
Q 43.453125 11.1875 39.453125 2.59375 
Q 35.453125 -6.890625 23.25 -13.53125 
Q 21 -9.90625 18.265625 -7.078125 
Q 29.390625 -1.21875 32.421875 6.390625 
Q 36.03125 13.8125 36.03125 32.5625 
z
M 4.296875 -9.625 
Q 10.15625 7.5625 14.453125 28.265625 
Q 18.75 26.421875 22.359375 25.25 
Q 17.96875 8.34375 12.890625 -12.25 
z
M 55.28125 32.5625 
L 62.59375 32.5625 
L 62.59375 -10.984375 
L 55.28125 -10.984375 
z
M 1.265625 50.734375 
L 6.15625 56.390625 
Q 14.0625 50.921875 22.75 43.796875 
Q 19.234375 39.703125 17.09375 37.453125 
Q 6.9375 46.53125 1.265625 50.734375 
z
M 5.078125 76.21875 
L 10.0625 81.390625 
Q 17.1875 75.734375 25.984375 67.921875 
L 20.21875 62.15625 
Q 12.109375 70.359375 5.078125 76.21875 
z
" id="MicrosoftYaHei-6d41"/>
     <path d="M 34.578125 54.9375 
L 59.234375 54.9375 
Q 59.765625 68.265625 59.765625 82.765625 
L 67.578125 82.765625 
Q 67.578125 67.78125 67.09375 54.9375 
L 96.484375 54.9375 
L 96.484375 47.609375 
L 67.328125 47.609375 
Q 76.3125 9.8125 98.640625 -3.5625 
Q 94.828125 -7.671875 92.28125 -10.984375 
Q 72.46875 4.15625 64.359375 32.90625 
Q 58.84375 6.453125 36.921875 -12.640625 
Q 33.890625 -8.453125 31.453125 -6 
Q 56.25 13.328125 58.84375 47.609375 
L 34.578125 47.609375 
z
M 23.34375 83.0625 
L 31.15625 83.0625 
L 31.15625 -13.03125 
L 23.34375 -13.03125 
L 23.34375 25.09375 
Q 14.3125 17.484375 6.25 10.796875 
L 1.171875 17.53125 
Q 12.015625 25.4375 23.34375 34.71875 
z
M 3.421875 64.59375 
L 10.0625 67.71875 
Q 15.921875 57.375 20.40625 45.0625 
L 12.984375 41.65625 
Q 8.109375 55.328125 3.421875 64.59375 
z
M 78.21875 78.953125 
Q 86.71875 72.515625 92.96875 66.84375 
Q 90.234375 63.71875 87.59375 60.6875 
Q 80.46875 67.625 73.140625 73.6875 
z
" id="MicrosoftYaHei-72b6"/>
     <path d="M 39.84375 31 
L 32.234375 31 
L 32.234375 78.078125 
L 90.046875 78.078125 
L 90.046875 31 
L 82.421875 31 
L 82.421875 35.296875 
L 73.046875 35.296875 
L 73.046875 1.125 
Q 73.046875 -3.765625 77.640625 -3.765625 
L 84.375 -3.765625 
Q 89.0625 -3.765625 89.65625 1.421875 
Q 90.328125 6 90.53125 13.53125 
Q 93.84375 12.15625 98.4375 10.59375 
Q 97.75 2.875 96.78125 -2.296875 
Q 95.40625 -10.796875 86.03125 -10.796875 
L 76.375 -10.796875 
Q 65.4375 -10.796875 65.4375 -0.140625 
L 65.4375 35.296875 
L 55.328125 35.296875 
Q 54.984375 16.703125 49.421875 7.078125 
Q 43.359375 -3.953125 25.984375 -13.53125 
Q 23.828125 -10.203125 21.09375 -6.890625 
Q 37.109375 1.90625 42.578125 11.1875 
Q 47.46875 19 47.796875 35.296875 
L 39.84375 35.296875 
z
M 82.421875 71.046875 
L 39.84375 71.046875 
L 39.84375 42.328125 
L 82.421875 42.328125 
z
M 18.453125 37.75 
Q 22.65625 34.8125 25.984375 32.859375 
Q 17.78125 13.421875 9.1875 -7.765625 
L 1.375 -3.078125 
Q 10.640625 14.984375 18.453125 37.75 
z
M 8.296875 76.3125 
Q 17.28125 67.53125 26.078125 57.375 
L 19.34375 51.3125 
Q 11.328125 61.765625 2.546875 71.140625 
z
" id="MicrosoftYaHei-51b5"/>
     <path d="M 57.625 -17.1875 
Q 40.1875 1.859375 40.1875 28.90625 
Q 40.1875 56.296875 57.625 75.59375 
L 66.015625 75.59375 
Q 48.6875 55.8125 48.6875 29 
Q 48.6875 2.59375 65.921875 -17.1875 
z
" id="MicrosoftYaHei-ff08"/>
     <path d="M 1.953125 14.203125 
L 46.1875 14.203125 
L 46.1875 25.25 
L 19.140625 25.25 
L 19.140625 20.65625 
L 11.71875 20.65625 
L 11.71875 68.015625 
L 31.984375 68.015625 
Q 27.296875 73.484375 21.875 79.25 
L 27.4375 83.84375 
Q 34.671875 76.90625 40.140625 71.046875 
L 36.53125 68.015625 
L 59.421875 68.015625 
Q 64.796875 75.140625 70.3125 83.546875 
L 78.125 79.34375 
Q 73.09375 73.25 68.40625 68.015625 
L 88.375 68.015625 
L 88.375 20.65625 
L 80.953125 20.65625 
L 80.953125 25.25 
L 53.8125 25.25 
L 53.8125 14.203125 
L 98.046875 14.203125 
L 98.046875 7.171875 
L 53.8125 7.171875 
L 53.8125 -13.421875 
L 46.1875 -13.421875 
L 46.1875 7.171875 
L 1.953125 7.171875 
z
M 53.8125 32.078125 
L 80.953125 32.078125 
L 80.953125 43.40625 
L 53.8125 43.40625 
z
M 19.140625 32.078125 
L 46.1875 32.078125 
L 46.1875 43.40625 
L 19.140625 43.40625 
z
M 80.953125 61.1875 
L 53.8125 61.1875 
L 53.8125 50.046875 
L 80.953125 50.046875 
z
M 19.140625 50.046875 
L 46.1875 50.046875 
L 46.1875 61.1875 
L 19.140625 61.1875 
z
" id="MicrosoftYaHei-5355"/>
     <path d="M 27.9375 -0.921875 
L 66.0625 -0.921875 
Q 73.09375 17.875 82.328125 52.6875 
L 91.109375 50.046875 
Q 85.203125 31.9375 74.3125 -0.921875 
L 98.734375 -0.921875 
L 98.734375 -8.15625 
L 27.9375 -8.15625 
z
M 1.265625 35.796875 
Q 15.234375 56.890625 22.359375 83.15625 
L 30.671875 81.109375 
Q 26.609375 68.703125 21.96875 57.953125 
L 21.96875 -13.328125 
L 14.65625 -13.328125 
L 14.65625 42.671875 
Q 10.0625 34.078125 4.984375 26.8125 
Q 3.609375 30.515625 1.265625 35.796875 
z
M 29.984375 65.484375 
L 64.40625 65.484375 
Q 60.0625 72.796875 54.78125 79.046875 
L 61.421875 83.640625 
Q 65.71875 78.65625 72.078125 70.265625 
L 64.84375 65.484375 
L 96.96875 65.484375 
L 96.96875 58.25 
L 29.984375 58.25 
z
M 43.265625 51.703125 
Q 49.703125 34.125 57.328125 9.125 
L 49.21875 6.78125 
Q 42.578125 30.71875 35.84375 49.171875 
z
" id="MicrosoftYaHei-4f4d"/>
     <path d="M 50.09375 55.171875 
Q 52.6875 55.171875 54.53125 53.359375 
Q 56.390625 51.5625 56.390625 49.03125 
Q 56.390625 46.484375 54.578125 44.65625 
Q 52.78125 42.828125 50.09375 42.828125 
Q 47.40625 42.828125 45.59375 44.65625 
Q 43.796875 46.484375 43.796875 49.03125 
Q 43.796875 51.5625 45.65625 53.359375 
Q 47.515625 55.171875 50.09375 55.171875 
z
M 50.09375 11.1875 
Q 52.6875 11.1875 54.53125 9.375 
Q 56.390625 7.5625 56.390625 4.984375 
Q 56.390625 2.34375 54.53125 0.5625 
Q 52.6875 -1.21875 50.09375 -1.21875 
Q 47.515625 -1.21875 45.65625 0.5625 
Q 43.796875 2.34375 43.796875 4.984375 
Q 43.796875 7.5625 45.65625 9.375 
Q 47.515625 11.1875 50.09375 11.1875 
z
" id="MicrosoftYaHei-ff1a"/>
     <path d="M 90.53125 25.828125 
Q 92.96875 24.65625 98.734375 22.90625 
Q 97.859375 12.0625 96.484375 4.046875 
Q 94.34375 -8.34375 79.203125 -8.453125 
Q 63.671875 -9.03125 49.703125 -8.453125 
Q 36.71875 -7.765625 33.984375 -0.140625 
Q 31.453125 7.671875 40.140625 19.78125 
Q 48.640625 31.390625 79.984375 67.625 
L 36.71875 67.625 
L 36.71875 75.34375 
L 90.140625 75.34375 
L 90.140625 66.265625 
Q 66.5 40.484375 49.03125 18.40625 
Q 40.828125 7.375 41.796875 3.375 
Q 42.1875 -0.734375 52.640625 -1.03125 
Q 64.546875 -1.515625 76.375 -0.921875 
Q 83.296875 -0.640625 85.546875 1.03125 
Q 88.09375 2.6875 88.875 7.859375 
Q 89.84375 13.234375 90.53125 25.828125 
z
M 1.375 34.515625 
Q 15.625 54.25 23.921875 82.859375 
L 31.9375 80.515625 
Q 27.9375 68.5625 23.25 58.0625 
L 23.25 -12.453125 
L 15.625 -12.453125 
L 15.625 42.828125 
Q 10.5 33.640625 4.6875 25.921875 
Q 3.328125 30.21875 1.375 34.515625 
z
" id="MicrosoftYaHei-4ebf"/>
     <path d="M 2.9375 48.1875 
L 97.265625 48.1875 
L 97.265625 40.765625 
L 66.40625 40.765625 
L 66.40625 2.6875 
Q 66.40625 -3.078125 72.265625 -3.078125 
L 80.671875 -3.078125 
Q 87.703125 -3.078125 88.671875 3.375 
Q 89.546875 8.84375 90.140625 17.234375 
Q 94.046875 15.875 98.640625 14.796875 
Q 97.65625 6.390625 96.578125 0.734375 
Q 94.625 -10.015625 82.421875 -10.015625 
L 70.515625 -10.015625 
Q 58.203125 -10.015625 58.203125 2 
L 58.203125 40.765625 
L 38.28125 40.765625 
L 38.28125 37.640625 
Q 38.28125 16.9375 32.03125 6.984375 
Q 25.78125 -3.859375 7.328125 -13.234375 
Q 3.8125 -8.9375 1.5625 -6.6875 
Q 18.453125 1.609375 24.3125 10.796875 
Q 30.078125 19.578125 30.078125 37.25 
L 30.078125 40.765625 
L 2.9375 40.765625 
z
M 12.3125 76.609375 
L 88.09375 76.609375 
L 88.09375 69.1875 
L 12.3125 69.1875 
z
" id="MicrosoftYaHei-5143"/>
     <path d="M 42.390625 -17.1875 
L 33.984375 -17.1875 
Q 51.3125 2.546875 51.3125 29.5 
Q 51.3125 55.953125 34.078125 75.59375 
L 42.390625 75.59375 
Q 59.71875 56.6875 59.71875 29.5 
Q 59.71875 2 42.390625 -17.1875 
z
" id="MicrosoftYaHei-ff09"/>
    </defs>
    <g transform="translate(370.8 45.84)scale(0.12 -0.12)">
     <use xlink:href="#MicrosoftYaHei-73b0"/>
     <use x="100" xlink:href="#MicrosoftYaHei-91d1"/>
     <use x="200" xlink:href="#MicrosoftYaHei-6d41"/>
     <use x="300" xlink:href="#MicrosoftYaHei-72b6"/>
     <use x="400" xlink:href="#MicrosoftYaHei-51b5"/>
     <use x="500" xlink:href="#MicrosoftYaHei-ff08"/>
     <use x="600" xlink:href="#MicrosoftYaHei-5355"/>
     <use x="700" xlink:href="#MicrosoftYaHei-4f4d"/>
     <use x="800" xlink:href="#MicrosoftYaHei-ff1a"/>
     <use x="900" xlink:href="#MicrosoftYaHei-4ebf"/>
     <use x="1000" xlink:href="#MicrosoftYaHei-5143"/>
     <use x="1100" xlink:href="#MicrosoftYaHei-ff09"/>
    </g>
   </g>
   <g id="legend_1">
    <g id="patch_37">
     <path d="M 240 429.287625 
L 645.6 429.287625 
Q 648 429.287625 648 426.887625 
L 648 409.512 
Q 648 407.112 645.6 407.112 
L 240 407.112 
Q 237.6 407.112 237.6 409.512 
L 237.6 426.887625 
Q 237.6 429.287625 240 429.287625 
z
" style="fill:#ffffff;opacity:0.8;stroke:#cccccc;stroke-linejoin:miter;"/>
    </g>
    <g id="patch_38">
     <path d="M 242.4 421.5045 
L 266.4 421.5045 
L 266.4 413.1045 
L 242.4 413.1045 
z
" style="fill:#c00000;"/>
    </g>
    <g id="text_19">
     <!-- 经营活动现金流 -->
     <defs>
      <path d="M 39.84375 71.4375 
L 39.84375 78.46875 
L 86.921875 78.46875 
L 86.921875 71.34375 
Q 80.5625 62.203125 71.96875 54.390625 
Q 86.671875 46.828125 98.734375 39.5 
L 93.75 32.859375 
Q 81.25 41.453125 66.453125 49.65625 
Q 54.828125 40.140625 36.8125 33.0625 
Q 34.859375 36.578125 32.125 39.796875 
Q 60.546875 49.078125 77.9375 71.4375 
z
M 33.59375 -1.3125 
L 61.421875 -1.3125 
L 61.421875 22.515625 
L 40.234375 22.515625 
L 40.234375 29.546875 
L 89.84375 29.546875 
L 89.84375 22.515625 
L 69.140625 22.515625 
L 69.140625 -1.3125 
L 96.484375 -1.3125 
L 96.484375 -8.34375 
L 33.59375 -8.34375 
z
M 13.875 24.859375 
Q 23.4375 26.125 34.859375 27.984375 
Q 34.28125 23.875 33.984375 20.75 
Q 21.96875 19.09375 4.890625 16.15625 
L 3.125 23.390625 
Q 10.6875 31.203125 18.5625 43.0625 
Q 9.078125 42.484375 3.90625 42.046875 
L 2.046875 48.6875 
Q 12.703125 62.84375 21.78125 83.546875 
L 29.203125 80.609375 
Q 20.125 63.140625 10.84375 49.265625 
Q 17.046875 49.421875 22.703125 49.5625 
Q 26.515625 55.765625 30.375 62.9375 
L 37.59375 59.328125 
Q 25 39.015625 13.875 24.859375 
z
M 1.953125 2.203125 
Q 22.265625 6.296875 36.234375 9.8125 
Q 35.9375 5.8125 35.9375 2.59375 
Q 22.65625 -0.140625 4.203125 -5.03125 
z
" id="MicrosoftYaHei-7ecf"/>
      <path d="M 13.484375 16.546875 
L 86.53125 16.546875 
L 86.53125 -13.234375 
L 79.109375 -13.234375 
L 79.109375 -8.34375 
L 20.90625 -8.34375 
L 20.90625 -13.234375 
L 13.484375 -13.234375 
z
M 20.515625 46.625 
L 79.5 46.625 
L 79.5 22.21875 
L 72.078125 22.21875 
L 72.078125 24.46875 
L 27.9375 24.46875 
L 27.9375 22.21875 
L 20.515625 22.21875 
z
M 61.53125 83.25 
L 68.65625 83.25 
L 68.65625 75.25 
L 97.953125 75.25 
L 97.953125 68.796875 
L 68.65625 68.796875 
L 68.65625 62.9375 
L 61.53125 62.9375 
L 61.53125 68.796875 
L 38.375 68.796875 
L 38.375 62.9375 
L 31.25 62.9375 
L 31.25 68.796875 
L 2.34375 68.796875 
L 2.34375 75.25 
L 31.25 75.25 
L 31.25 83.25 
L 38.375 83.25 
L 38.375 75.25 
L 61.53125 75.25 
z
M 5.28125 60.296875 
L 94.734375 60.296875 
L 94.734375 42.4375 
L 87.3125 42.4375 
L 87.3125 53.859375 
L 12.703125 53.859375 
L 12.703125 42.4375 
L 5.28125 42.4375 
z
M 79.109375 10.5 
L 20.90625 10.5 
L 20.90625 -2.296875 
L 79.109375 -2.296875 
z
M 72.078125 40.578125 
L 27.9375 40.578125 
L 27.9375 30.515625 
L 72.078125 30.515625 
z
" id="MicrosoftYaHei-8425"/>
      <path d="M 34.671875 28.765625 
L 58.890625 28.765625 
L 58.890625 45.171875 
L 28.125 45.171875 
L 28.125 52.59375 
L 58.890625 52.59375 
L 58.890625 68.953125 
Q 46.921875 68.359375 32.8125 67.828125 
Q 32.125 71.34375 31.34375 75.25 
Q 64.9375 76.125 93.953125 79.25 
L 95.515625 71.53125 
Q 83.6875 70.359375 66.796875 69.390625 
L 66.796875 52.59375 
L 98.640625 52.59375 
L 98.640625 45.171875 
L 66.796875 45.171875 
L 66.796875 28.765625 
L 91.015625 28.765625 
L 91.015625 -13.234375 
L 83.40625 -13.234375 
L 83.40625 -7.375 
L 42.28125 -7.375 
L 42.28125 -13.234375 
L 34.671875 -13.234375 
z
M 83.40625 21.734375 
L 42.28125 21.734375 
L 42.28125 -0.34375 
L 83.40625 -0.34375 
z
M 15.921875 27.59375 
Q 20.90625 24.953125 24.21875 23.6875 
Q 18.453125 5.328125 12.984375 -12.0625 
L 4.296875 -8.0625 
Q 11.03125 8.15625 15.921875 27.59375 
z
M 5.375 56.5 
Q 15.4375 50.4375 24.03125 44 
Q 21.09375 40.09375 18.65625 36.96875 
Q 7.8125 45.65625 0.6875 50.25 
z
M 10.0625 81.890625 
Q 19.4375 75.4375 27.640625 68.796875 
Q 25 65.484375 22.265625 62.15625 
Q 13.1875 70.0625 5.171875 76.125 
z
" id="MicrosoftYaHei-6d3b"/>
      <path d="M 46.484375 62.84375 
L 61.03125 62.84375 
Q 61.1875 72.65625 61.140625 82.953125 
L 69.140625 82.953125 
Q 69.09375 72.75 68.890625 62.84375 
L 95.21875 62.84375 
Q 94.53125 25.921875 93.265625 3.375 
Q 92.1875 -10.40625 80.46875 -10.59375 
Q 74.421875 -10.59375 67.28125 -10.296875 
Q 66.609375 -6.203125 65.71875 -1.703125 
Q 72.46875 -2.59375 78.03125 -2.6875 
Q 85.25 -2.6875 85.546875 5.421875 
Q 87.015625 29.640625 87.3125 55.421875 
L 68.75 55.421875 
Q 68.65625 51.21875 68.5625 47.125 
Q 68.0625 8.640625 45.3125 -13.625 
Q 42.578125 -10.296875 39.453125 -6.984375 
Q 59.859375 11.1875 60.75 47.3125 
Q 60.84375 51.3125 60.9375 55.421875 
L 46.484375 55.421875 
z
M 36.53125 29.15625 
Q 42.671875 15.875 47.859375 2.78125 
Q 43.5625 0.921875 40.53125 -0.4375 
Q 39.84375 1.421875 39.15625 3.265625 
Q 20.5625 1.515625 5.28125 -0.25 
L 1.859375 7.671875 
Q 6.15625 10.109375 8.796875 15.578125 
Q 13.578125 25.203125 18.75 39.984375 
L 2.25 39.984375 
L 2.25 47.21875 
L 49.421875 47.21875 
L 49.421875 39.984375 
L 26.953125 39.984375 
Q 18.609375 19.1875 12.5 7.671875 
Q 23.734375 8.5 36.671875 9.859375 
Q 33.40625 18.171875 29.78125 26.125 
z
M 6.34375 74.65625 
L 45.515625 74.65625 
L 45.515625 67.4375 
L 6.34375 67.4375 
z
" id="MicrosoftYaHei-52a8"/>
     </defs>
     <g transform="translate(276 421.5045)scale(0.12 -0.12)">
      <use xlink:href="#MicrosoftYaHei-7ecf"/>
      <use x="100" xlink:href="#MicrosoftYaHei-8425"/>
      <use x="200" xlink:href="#MicrosoftYaHei-6d3b"/>
      <use x="300" xlink:href="#MicrosoftYaHei-52a8"/>
      <use x="400" xlink:href="#MicrosoftYaHei-73b0"/>
      <use x="500" xlink:href="#MicrosoftYaHei-91d1"/>
      <use x="600" xlink:href="#MicrosoftYaHei-6d41"/>
     </g>
    </g>
    <g id="patch_39">
     <path d="M 384 421.5045 
L 408 421.5045 
L 408 413.1045 
L 384 413.1045 
z
" style="fill:#0070c0;"/>
    </g>
    <g id="text_20">
     <!-- 投资活动现金流 -->
     <defs>
      <path d="M 38.28125 31.203125 
L 38.28125 38.03125 
L 88.484375 38.03125 
L 88.484375 31.296875 
Q 81.84375 15.828125 69.78125 5.28125 
Q 81.453125 -2.046875 99.125 -4.9375 
Q 96.390625 -8.546875 94.234375 -12.359375 
Q 75.984375 -8.34375 63.765625 0.59375 
Q 50.59375 -8.640625 32.125 -13.140625 
Q 29.984375 -9.125 27.828125 -6.296875 
Q 45.5625 -2.59375 58.015625 5.46875 
Q 47.265625 15.765625 42.671875 31.203125 
z
M 1.46875 30.71875 
Q 8.296875 32.5625 15.71875 34.859375 
L 15.71875 56.390625 
L 2.734375 56.390625 
L 2.734375 63.234375 
L 15.71875 63.234375 
L 15.71875 82.171875 
L 23.046875 82.171875 
L 23.046875 63.234375 
L 34.859375 63.234375 
L 34.859375 56.390625 
L 23.046875 56.390625 
L 23.046875 37.15625 
Q 28.078125 38.765625 33.40625 40.578125 
Q 33.296875 37.453125 33.59375 32.953125 
Q 28.265625 31.296875 23.046875 29.59375 
L 23.046875 -1.125 
Q 23.046875 -11.765625 13.578125 -11.765625 
L 4.109375 -11.765625 
Q 3.71875 -8.34375 2.828125 -3.46875 
Q 8.296875 -4.046875 11.71875 -4.046875 
Q 15.71875 -4.046875 15.71875 0.640625 
L 15.71875 27.203125 
Q 9.03125 24.953125 2.4375 22.609375 
z
M 87.796875 52.59375 
L 98.734375 52.59375 
Q 97.75 49.078125 97.078125 45.453125 
L 86.71875 45.453125 
Q 75.484375 45.453125 75.484375 56.203125 
L 75.484375 71.53125 
L 53.8125 71.53125 
L 53.8125 67.921875 
Q 53.90625 49.078125 38.875 39.796875 
Q 36.421875 43.015625 33.59375 45.75 
Q 46.484375 52.78125 46.484375 67.921875 
L 46.484375 78.375 
L 82.8125 78.375 
L 82.8125 57.28125 
Q 82.8125 52.59375 87.796875 52.59375 
z
M 80.375 31.203125 
L 49.75 31.203125 
Q 53.859375 18.21875 63.8125 9.671875 
Q 74.515625 18.40625 80.375 31.203125 
z
" id="MicrosoftYaHei-6295"/>
      <path d="M 28.609375 42.4375 
Q 57.90625 49.953125 60.359375 67.828125 
L 44.734375 67.828125 
Q 41.21875 60.59375 36.921875 54.828125 
Q 33.796875 56.984375 30.375 59.03125 
Q 39.546875 69.875 43.359375 84.125 
L 50.6875 82.375 
Q 49.21875 78.078125 47.65625 74.265625 
L 93.953125 74.265625 
L 93.953125 68.109375 
L 87.3125 54.828125 
Q 83.984375 56.390625 80.171875 57.859375 
L 85.359375 67.828125 
L 67.96875 67.828125 
Q 67.1875 64.703125 66.21875 61.765625 
Q 74.609375 47.90625 97.75 42.53125 
Q 95.015625 38.8125 92.875 35.40625 
Q 72.078125 42.046875 63.1875 54.9375 
Q 56.453125 43.21875 33.59375 35.984375 
Q 31.640625 38.921875 28.609375 42.4375 
z
M 16.015625 35.59375 
L 83.890625 35.59375 
L 83.890625 3.765625 
L 76.265625 3.765625 
L 76.265625 28.765625 
L 23.640625 28.765625 
L 23.640625 3.765625 
L 16.015625 3.765625 
z
M 27.25 61.28125 
Q 29 57.46875 31.0625 54.34375 
Q 19.4375 45.65625 6.84375 35.5 
L 1.765625 42.140625 
Q 15.53125 51.609375 27.25 61.28125 
z
M 9.859375 82.46875 
Q 18.265625 77.203125 26.171875 71.53125 
L 21.1875 65.484375 
Q 14.15625 71.046875 5.5625 77.09375 
z
M 53.8125 25.046875 
Q 53.71875 14.5 52.34375 8.84375 
Q 74.609375 1.609375 94.828125 -6.203125 
L 90.71875 -13.328125 
Q 72.265625 -5.71875 49.609375 2.390625 
Q 43.0625 -9.234375 7.90625 -13.71875 
Q 6.15625 -10.015625 3.71875 -6.109375 
Q 36.03125 -3.265625 42.78125 6 
Q 46.390625 10.890625 46.1875 25.046875 
z
" id="MicrosoftYaHei-8d44"/>
     </defs>
     <g transform="translate(417.6 421.5045)scale(0.12 -0.12)">
      <use xlink:href="#MicrosoftYaHei-6295"/>
      <use x="100" xlink:href="#MicrosoftYaHei-8d44"/>
      <use x="200" xlink:href="#MicrosoftYaHei-6d3b"/>
      <use x="300" xlink:href="#MicrosoftYaHei-52a8"/>
      <use x="400" xlink:href="#MicrosoftYaHei-73b0"/>
      <use x="500" xlink:href="#MicrosoftYaHei-91d1"/>
      <use x="600" xlink:href="#MicrosoftYaHei-6d41"/>
     </g>
    </g>
    <g id="patch_40">
     <path d="M 525.6 421.5045 
L 549.6 421.5045 
L 549.6 413.1045 
L 525.6 413.1045 
z
" style="fill:#7f7f7f;"/>
    </g>
    <g id="text_21">
     <!-- 筹资活动现金流 -->
     <defs>
      <path d="M 72.46875 22.21875 
L 80.078125 22.21875 
L 80.078125 16.0625 
L 97.859375 16.0625 
L 97.859375 10.203125 
L 80.078125 10.203125 
L 80.078125 -1.515625 
Q 80.078125 -11.859375 67.578125 -11.859375 
Q 60.359375 -11.859375 52.34375 -11.671875 
Q 51.859375 -7.859375 51.078125 -4.25 
Q 59.28125 -4.828125 66.703125 -4.828125 
Q 72.46875 -4.828125 72.46875 -0.140625 
L 72.46875 10.203125 
L 27.046875 10.203125 
Q 18.453125 1.421875 6.640625 -6.59375 
Q 4.5 -3.375 1.46875 -0.640625 
Q 19.53125 10.109375 29.78125 24.078125 
L 2.828125 24.078125 
L 2.828125 29.9375 
L 33.59375 29.9375 
Q 35.640625 33.25 37.203125 36.765625 
L 11.921875 36.765625 
L 11.921875 42.4375 
L 39.359375 42.4375 
Q 40.4375 45.5625 41.21875 48.875 
L 5.671875 48.875 
L 5.671875 54.734375 
L 42.390625 54.734375 
Q 42.96875 58.34375 43.171875 62.15625 
L 50.6875 62.15625 
Q 50.296875 58.34375 49.609375 54.734375 
L 95.125 54.734375 
L 95.125 48.875 
L 48.53125 48.875 
Q 47.859375 45.5625 46.875 42.4375 
L 89.15625 42.4375 
L 89.15625 36.765625 
L 44.921875 36.765625 
Q 43.5625 33.34375 41.796875 29.9375 
L 97.5625 29.9375 
L 97.5625 24.078125 
L 38.28125 24.078125 
Q 35.640625 19.96875 32.328125 16.0625 
L 72.46875 16.0625 
z
M 31.15625 56 
Q 27.546875 60.796875 23.046875 65.96875 
L 27.15625 68.890625 
L 19.734375 68.890625 
Q 13.875 61.28125 6.453125 55.421875 
Q 4.5 57.765625 1.5625 60.890625 
Q 13.28125 69.875 20.21875 83.25 
L 28.609375 83.25 
Q 26.46875 78.859375 23.921875 74.953125 
L 52.046875 74.953125 
L 52.046875 68.890625 
L 28.8125 68.890625 
Q 33.015625 64.703125 36.921875 60.40625 
z
M 76.953125 56.109375 
Q 72.859375 61.375 68.65625 66.0625 
L 72.65625 68.890625 
L 64.15625 68.890625 
Q 60.75 63.328125 56.734375 58.34375 
Q 54.59375 60.5 50.78125 63.140625 
Q 58.40625 71.734375 63.28125 83.25 
L 71.6875 83.25 
Q 69.828125 78.953125 67.671875 74.953125 
L 98.53125 74.953125 
L 98.53125 68.890625 
L 74.515625 68.890625 
Q 78.609375 64.984375 82.71875 60.5 
z
M 31.453125 3.765625 
L 35.359375 9.03125 
Q 44.4375 5.21875 52.34375 1.03125 
L 47.953125 -4.640625 
Q 40.4375 -0.34375 31.453125 3.765625 
z
" id="MicrosoftYaHei-7b79"/>
     </defs>
     <g transform="translate(559.2 421.5045)scale(0.12 -0.12)">
      <use xlink:href="#MicrosoftYaHei-7b79"/>
      <use x="100" xlink:href="#MicrosoftYaHei-8d44"/>
      <use x="200" xlink:href="#MicrosoftYaHei-6d3b"/>
      <use x="300" xlink:href="#MicrosoftYaHei-52a8"/>
      <use x="400" xlink:href="#MicrosoftYaHei-73b0"/>
      <use x="500" xlink:href="#MicrosoftYaHei-91d1"/>
      <use x="600" xlink:href="#MicrosoftYaHei-6d41"/>
     </g>
    </g>
   </g>
  </g>
 </g>
 <defs>
  <clipPath id="pc126ceef8d">
   <rect height="332.64" width="669.6" x="108" y="51.84"/>
  </clipPath>
 </defs>
</svg>
