<?xml version="1.0" encoding="utf-8" standalone="no"?>
<!DOCTYPE svg PUBLIC "-//W3C//DTD SVG 1.1//EN"
  "http://www.w3.org/Graphics/SVG/1.1/DTD/svg11.dtd">
<!-- Created with matplotlib (http://matplotlib.org/) -->
<svg height="432pt" version="1.1" viewBox="0 0 864 432" width="864pt" xmlns="http://www.w3.org/2000/svg" xmlns:xlink="http://www.w3.org/1999/xlink">
 <defs>
  <style type="text/css">
*{stroke-linecap:butt;stroke-linejoin:round;}
  </style>
 </defs>
 <g id="figure_1">
  <g id="patch_1">
   <path d="M 0 432 
L 864 432 
L 864 0 
L 0 0 
z
" style="fill:#ffffff;"/>
  </g>
  <g id="axes_1">
   <g id="patch_2">
    <path d="M 108 384.48 
L 777.6 384.48 
L 777.6 51.84 
L 108 51.84 
z
" style="fill:#ffffff;"/>
   </g>
   <g id="patch_3">
    <path clip-path="url(#p9b0acc7555)" d="M 138.436364 384.48 
L 158.072727 384.48 
L 158.072727 250.998408 
L 138.436364 250.998408 
z
" style="fill:#a6a6a6;stroke-dasharray:11.1,4.8;stroke-dashoffset:0;"/>
   </g>
   <g id="patch_4">
    <path clip-path="url(#p9b0acc7555)" d="M 203.890909 384.48 
L 223.527273 384.48 
L 223.527273 225.545601 
L 203.890909 225.545601 
z
" style="fill:#a6a6a6;stroke-dasharray:11.1,4.8;stroke-dashoffset:0;"/>
   </g>
   <g id="patch_5">
    <path clip-path="url(#p9b0acc7555)" d="M 269.345455 384.48 
L 288.981818 384.48 
L 288.981818 211.238683 
L 269.345455 211.238683 
z
" style="fill:#a6a6a6;stroke-dasharray:11.1,4.8;stroke-dashoffset:0;"/>
   </g>
   <g id="patch_6">
    <path clip-path="url(#p9b0acc7555)" d="M 334.8 384.48 
L 354.436364 384.48 
L 354.436364 162.605626 
L 334.8 162.605626 
z
" style="fill:#a6a6a6;stroke-dasharray:11.1,4.8;stroke-dashoffset:0;"/>
   </g>
   <g id="patch_7">
    <path clip-path="url(#p9b0acc7555)" d="M 400.254545 384.48 
L 419.890909 384.48 
L 419.890909 165.529117 
L 400.254545 165.529117 
z
" style="fill:#a6a6a6;stroke-dasharray:11.1,4.8;stroke-dashoffset:0;"/>
   </g>
   <g id="patch_8">
    <path clip-path="url(#p9b0acc7555)" d="M 465.709091 384.48 
L 485.345455 384.48 
L 485.345455 141.864783 
L 465.709091 141.864783 
z
" style="fill:#a6a6a6;stroke-dasharray:11.1,4.8;stroke-dashoffset:0;"/>
   </g>
   <g id="patch_9">
    <path clip-path="url(#p9b0acc7555)" d="M 531.163636 384.48 
L 550.8 384.48 
L 550.8 109.809574 
L 531.163636 109.809574 
z
" style="fill:#a6a6a6;stroke-dasharray:11.1,4.8;stroke-dashoffset:0;"/>
   </g>
   <g id="patch_10">
    <path clip-path="url(#p9b0acc7555)" d="M 596.618182 384.48 
L 616.254545 384.48 
L 616.254545 105.255588 
L 596.618182 105.255588 
z
" style="fill:#a6a6a6;stroke-dasharray:11.1,4.8;stroke-dashoffset:0;"/>
   </g>
   <g id="patch_11">
    <path clip-path="url(#p9b0acc7555)" d="M 662.072727 384.48 
L 681.709091 384.48 
L 681.709091 111.360365 
L 662.072727 111.360365 
z
" style="fill:#a6a6a6;stroke-dasharray:11.1,4.8;stroke-dashoffset:0;"/>
   </g>
   <g id="patch_12">
    <path clip-path="url(#p9b0acc7555)" d="M 727.527273 384.48 
L 747.163636 384.48 
L 747.163636 67.68 
L 727.527273 67.68 
z
" style="fill:#a6a6a6;stroke-dasharray:11.1,4.8;stroke-dashoffset:0;"/>
   </g>
   <g id="matplotlib.axis_1">
    <g id="xtick_1">
     <g id="line2d_1">
      <defs>
       <path d="M 0 0 
L 0 2 
" id="mef79ec5da1" style="stroke:#000000;stroke-width:2;"/>
      </defs>
      <g>
       <use style="stroke:#000000;stroke-width:2;" x="148.254545" xlink:href="#mef79ec5da1" y="384.48"/>
      </g>
     </g>
     <g id="text_1">
      <!-- 2007 -->
      <defs>
       <path d="M 19.1875 8.296875 
L 53.609375 8.296875 
L 53.609375 0 
L 7.328125 0 
L 7.328125 8.296875 
Q 12.9375 14.109375 22.625 23.890625 
Q 32.328125 33.6875 34.8125 36.53125 
Q 39.546875 41.84375 41.421875 45.53125 
Q 43.3125 49.21875 43.3125 52.78125 
Q 43.3125 58.59375 39.234375 62.25 
Q 35.15625 65.921875 28.609375 65.921875 
Q 23.96875 65.921875 18.8125 64.3125 
Q 13.671875 62.703125 7.8125 59.421875 
L 7.8125 69.390625 
Q 13.765625 71.78125 18.9375 73 
Q 24.125 74.21875 28.421875 74.21875 
Q 39.75 74.21875 46.484375 68.546875 
Q 53.21875 62.890625 53.21875 53.421875 
Q 53.21875 48.921875 51.53125 44.890625 
Q 49.859375 40.875 45.40625 35.40625 
Q 44.1875 33.984375 37.640625 27.21875 
Q 31.109375 20.453125 19.1875 8.296875 
z
" id="DejaVuSans-32"/>
       <path d="M 31.78125 66.40625 
Q 24.171875 66.40625 20.328125 58.90625 
Q 16.5 51.421875 16.5 36.375 
Q 16.5 21.390625 20.328125 13.890625 
Q 24.171875 6.390625 31.78125 6.390625 
Q 39.453125 6.390625 43.28125 13.890625 
Q 47.125 21.390625 47.125 36.375 
Q 47.125 51.421875 43.28125 58.90625 
Q 39.453125 66.40625 31.78125 66.40625 
z
M 31.78125 74.21875 
Q 44.046875 74.21875 50.515625 64.515625 
Q 56.984375 54.828125 56.984375 36.375 
Q 56.984375 17.96875 50.515625 8.265625 
Q 44.046875 -1.421875 31.78125 -1.421875 
Q 19.53125 -1.421875 13.0625 8.265625 
Q 6.59375 17.96875 6.59375 36.375 
Q 6.59375 54.828125 13.0625 64.515625 
Q 19.53125 74.21875 31.78125 74.21875 
z
" id="DejaVuSans-30"/>
       <path d="M 8.203125 72.90625 
L 55.078125 72.90625 
L 55.078125 68.703125 
L 28.609375 0 
L 18.3125 0 
L 43.21875 64.59375 
L 8.203125 64.59375 
z
" id="DejaVuSans-37"/>
      </defs>
      <g transform="translate(135.529545 397.578438)scale(0.1 -0.1)">
       <use xlink:href="#DejaVuSans-32"/>
       <use x="63.623047" xlink:href="#DejaVuSans-30"/>
       <use x="127.246094" xlink:href="#DejaVuSans-30"/>
       <use x="190.869141" xlink:href="#DejaVuSans-37"/>
      </g>
     </g>
    </g>
    <g id="xtick_2">
     <g id="line2d_2">
      <g>
       <use style="stroke:#000000;stroke-width:2;" x="213.709091" xlink:href="#mef79ec5da1" y="384.48"/>
      </g>
     </g>
     <g id="text_2">
      <!-- 2008 -->
      <defs>
       <path d="M 31.78125 34.625 
Q 24.75 34.625 20.71875 30.859375 
Q 16.703125 27.09375 16.703125 20.515625 
Q 16.703125 13.921875 20.71875 10.15625 
Q 24.75 6.390625 31.78125 6.390625 
Q 38.8125 6.390625 42.859375 10.171875 
Q 46.921875 13.96875 46.921875 20.515625 
Q 46.921875 27.09375 42.890625 30.859375 
Q 38.875 34.625 31.78125 34.625 
z
M 21.921875 38.8125 
Q 15.578125 40.375 12.03125 44.71875 
Q 8.5 49.078125 8.5 55.328125 
Q 8.5 64.0625 14.71875 69.140625 
Q 20.953125 74.21875 31.78125 74.21875 
Q 42.671875 74.21875 48.875 69.140625 
Q 55.078125 64.0625 55.078125 55.328125 
Q 55.078125 49.078125 51.53125 44.71875 
Q 48 40.375 41.703125 38.8125 
Q 48.828125 37.15625 52.796875 32.3125 
Q 56.78125 27.484375 56.78125 20.515625 
Q 56.78125 9.90625 50.3125 4.234375 
Q 43.84375 -1.421875 31.78125 -1.421875 
Q 19.734375 -1.421875 13.25 4.234375 
Q 6.78125 9.90625 6.78125 20.515625 
Q 6.78125 27.484375 10.78125 32.3125 
Q 14.796875 37.15625 21.921875 38.8125 
z
M 18.3125 54.390625 
Q 18.3125 48.734375 21.84375 45.5625 
Q 25.390625 42.390625 31.78125 42.390625 
Q 38.140625 42.390625 41.71875 45.5625 
Q 45.3125 48.734375 45.3125 54.390625 
Q 45.3125 60.0625 41.71875 63.234375 
Q 38.140625 66.40625 31.78125 66.40625 
Q 25.390625 66.40625 21.84375 63.234375 
Q 18.3125 60.0625 18.3125 54.390625 
z
" id="DejaVuSans-38"/>
      </defs>
      <g transform="translate(200.984091 397.578438)scale(0.1 -0.1)">
       <use xlink:href="#DejaVuSans-32"/>
       <use x="63.623047" xlink:href="#DejaVuSans-30"/>
       <use x="127.246094" xlink:href="#DejaVuSans-30"/>
       <use x="190.869141" xlink:href="#DejaVuSans-38"/>
      </g>
     </g>
    </g>
    <g id="xtick_3">
     <g id="line2d_3">
      <g>
       <use style="stroke:#000000;stroke-width:2;" x="279.163636" xlink:href="#mef79ec5da1" y="384.48"/>
      </g>
     </g>
     <g id="text_3">
      <!-- 2009 -->
      <defs>
       <path d="M 10.984375 1.515625 
L 10.984375 10.5 
Q 14.703125 8.734375 18.5 7.8125 
Q 22.3125 6.890625 25.984375 6.890625 
Q 35.75 6.890625 40.890625 13.453125 
Q 46.046875 20.015625 46.78125 33.40625 
Q 43.953125 29.203125 39.59375 26.953125 
Q 35.25 24.703125 29.984375 24.703125 
Q 19.046875 24.703125 12.671875 31.3125 
Q 6.296875 37.9375 6.296875 49.421875 
Q 6.296875 60.640625 12.9375 67.421875 
Q 19.578125 74.21875 30.609375 74.21875 
Q 43.265625 74.21875 49.921875 64.515625 
Q 56.59375 54.828125 56.59375 36.375 
Q 56.59375 19.140625 48.40625 8.859375 
Q 40.234375 -1.421875 26.421875 -1.421875 
Q 22.703125 -1.421875 18.890625 -0.6875 
Q 15.09375 0.046875 10.984375 1.515625 
z
M 30.609375 32.421875 
Q 37.25 32.421875 41.125 36.953125 
Q 45.015625 41.5 45.015625 49.421875 
Q 45.015625 57.28125 41.125 61.84375 
Q 37.25 66.40625 30.609375 66.40625 
Q 23.96875 66.40625 20.09375 61.84375 
Q 16.21875 57.28125 16.21875 49.421875 
Q 16.21875 41.5 20.09375 36.953125 
Q 23.96875 32.421875 30.609375 32.421875 
z
" id="DejaVuSans-39"/>
      </defs>
      <g transform="translate(266.438636 397.578438)scale(0.1 -0.1)">
       <use xlink:href="#DejaVuSans-32"/>
       <use x="63.623047" xlink:href="#DejaVuSans-30"/>
       <use x="127.246094" xlink:href="#DejaVuSans-30"/>
       <use x="190.869141" xlink:href="#DejaVuSans-39"/>
      </g>
     </g>
    </g>
    <g id="xtick_4">
     <g id="line2d_4">
      <g>
       <use style="stroke:#000000;stroke-width:2;" x="344.618182" xlink:href="#mef79ec5da1" y="384.48"/>
      </g>
     </g>
     <g id="text_4">
      <!-- 2010 -->
      <defs>
       <path d="M 12.40625 8.296875 
L 28.515625 8.296875 
L 28.515625 63.921875 
L 10.984375 60.40625 
L 10.984375 69.390625 
L 28.421875 72.90625 
L 38.28125 72.90625 
L 38.28125 8.296875 
L 54.390625 8.296875 
L 54.390625 0 
L 12.40625 0 
z
" id="DejaVuSans-31"/>
      </defs>
      <g transform="translate(331.893182 397.578438)scale(0.1 -0.1)">
       <use xlink:href="#DejaVuSans-32"/>
       <use x="63.623047" xlink:href="#DejaVuSans-30"/>
       <use x="127.246094" xlink:href="#DejaVuSans-31"/>
       <use x="190.869141" xlink:href="#DejaVuSans-30"/>
      </g>
     </g>
    </g>
    <g id="xtick_5">
     <g id="line2d_5">
      <g>
       <use style="stroke:#000000;stroke-width:2;" x="410.072727" xlink:href="#mef79ec5da1" y="384.48"/>
      </g>
     </g>
     <g id="text_5">
      <!-- 2011 -->
      <g transform="translate(397.347727 397.578438)scale(0.1 -0.1)">
       <use xlink:href="#DejaVuSans-32"/>
       <use x="63.623047" xlink:href="#DejaVuSans-30"/>
       <use x="127.246094" xlink:href="#DejaVuSans-31"/>
       <use x="190.869141" xlink:href="#DejaVuSans-31"/>
      </g>
     </g>
    </g>
    <g id="xtick_6">
     <g id="line2d_6">
      <g>
       <use style="stroke:#000000;stroke-width:2;" x="475.527273" xlink:href="#mef79ec5da1" y="384.48"/>
      </g>
     </g>
     <g id="text_6">
      <!-- 2012 -->
      <g transform="translate(462.802273 397.578438)scale(0.1 -0.1)">
       <use xlink:href="#DejaVuSans-32"/>
       <use x="63.623047" xlink:href="#DejaVuSans-30"/>
       <use x="127.246094" xlink:href="#DejaVuSans-31"/>
       <use x="190.869141" xlink:href="#DejaVuSans-32"/>
      </g>
     </g>
    </g>
    <g id="xtick_7">
     <g id="line2d_7">
      <g>
       <use style="stroke:#000000;stroke-width:2;" x="540.981818" xlink:href="#mef79ec5da1" y="384.48"/>
      </g>
     </g>
     <g id="text_7">
      <!-- 2013 -->
      <defs>
       <path d="M 40.578125 39.3125 
Q 47.65625 37.796875 51.625 33 
Q 55.609375 28.21875 55.609375 21.1875 
Q 55.609375 10.40625 48.1875 4.484375 
Q 40.765625 -1.421875 27.09375 -1.421875 
Q 22.515625 -1.421875 17.65625 -0.515625 
Q 12.796875 0.390625 7.625 2.203125 
L 7.625 11.71875 
Q 11.71875 9.328125 16.59375 8.109375 
Q 21.484375 6.890625 26.8125 6.890625 
Q 36.078125 6.890625 40.9375 10.546875 
Q 45.796875 14.203125 45.796875 21.1875 
Q 45.796875 27.640625 41.28125 31.265625 
Q 36.765625 34.90625 28.71875 34.90625 
L 20.21875 34.90625 
L 20.21875 43.015625 
L 29.109375 43.015625 
Q 36.375 43.015625 40.234375 45.921875 
Q 44.09375 48.828125 44.09375 54.296875 
Q 44.09375 59.90625 40.109375 62.90625 
Q 36.140625 65.921875 28.71875 65.921875 
Q 24.65625 65.921875 20.015625 65.03125 
Q 15.375 64.15625 9.8125 62.3125 
L 9.8125 71.09375 
Q 15.4375 72.65625 20.34375 73.4375 
Q 25.25 74.21875 29.59375 74.21875 
Q 40.828125 74.21875 47.359375 69.109375 
Q 53.90625 64.015625 53.90625 55.328125 
Q 53.90625 49.265625 50.4375 45.09375 
Q 46.96875 40.921875 40.578125 39.3125 
z
" id="DejaVuSans-33"/>
      </defs>
      <g transform="translate(528.256818 397.578438)scale(0.1 -0.1)">
       <use xlink:href="#DejaVuSans-32"/>
       <use x="63.623047" xlink:href="#DejaVuSans-30"/>
       <use x="127.246094" xlink:href="#DejaVuSans-31"/>
       <use x="190.869141" xlink:href="#DejaVuSans-33"/>
      </g>
     </g>
    </g>
    <g id="xtick_8">
     <g id="line2d_8">
      <g>
       <use style="stroke:#000000;stroke-width:2;" x="606.436364" xlink:href="#mef79ec5da1" y="384.48"/>
      </g>
     </g>
     <g id="text_8">
      <!-- 2014 -->
      <defs>
       <path d="M 37.796875 64.3125 
L 12.890625 25.390625 
L 37.796875 25.390625 
z
M 35.203125 72.90625 
L 47.609375 72.90625 
L 47.609375 25.390625 
L 58.015625 25.390625 
L 58.015625 17.1875 
L 47.609375 17.1875 
L 47.609375 0 
L 37.796875 0 
L 37.796875 17.1875 
L 4.890625 17.1875 
L 4.890625 26.703125 
z
" id="DejaVuSans-34"/>
      </defs>
      <g transform="translate(593.711364 397.578438)scale(0.1 -0.1)">
       <use xlink:href="#DejaVuSans-32"/>
       <use x="63.623047" xlink:href="#DejaVuSans-30"/>
       <use x="127.246094" xlink:href="#DejaVuSans-31"/>
       <use x="190.869141" xlink:href="#DejaVuSans-34"/>
      </g>
     </g>
    </g>
    <g id="xtick_9">
     <g id="line2d_9">
      <g>
       <use style="stroke:#000000;stroke-width:2;" x="671.890909" xlink:href="#mef79ec5da1" y="384.48"/>
      </g>
     </g>
     <g id="text_9">
      <!-- 2015 -->
      <defs>
       <path d="M 10.796875 72.90625 
L 49.515625 72.90625 
L 49.515625 64.59375 
L 19.828125 64.59375 
L 19.828125 46.734375 
Q 21.96875 47.46875 24.109375 47.828125 
Q 26.265625 48.1875 28.421875 48.1875 
Q 40.625 48.1875 47.75 41.5 
Q 54.890625 34.8125 54.890625 23.390625 
Q 54.890625 11.625 47.5625 5.09375 
Q 40.234375 -1.421875 26.90625 -1.421875 
Q 22.3125 -1.421875 17.546875 -0.640625 
Q 12.796875 0.140625 7.71875 1.703125 
L 7.71875 11.625 
Q 12.109375 9.234375 16.796875 8.0625 
Q 21.484375 6.890625 26.703125 6.890625 
Q 35.15625 6.890625 40.078125 11.328125 
Q 45.015625 15.765625 45.015625 23.390625 
Q 45.015625 31 40.078125 35.4375 
Q 35.15625 39.890625 26.703125 39.890625 
Q 22.75 39.890625 18.8125 39.015625 
Q 14.890625 38.140625 10.796875 36.28125 
z
" id="DejaVuSans-35"/>
      </defs>
      <g transform="translate(659.165909 397.578438)scale(0.1 -0.1)">
       <use xlink:href="#DejaVuSans-32"/>
       <use x="63.623047" xlink:href="#DejaVuSans-30"/>
       <use x="127.246094" xlink:href="#DejaVuSans-31"/>
       <use x="190.869141" xlink:href="#DejaVuSans-35"/>
      </g>
     </g>
    </g>
    <g id="xtick_10">
     <g id="line2d_10">
      <g>
       <use style="stroke:#000000;stroke-width:2;" x="737.345455" xlink:href="#mef79ec5da1" y="384.48"/>
      </g>
     </g>
     <g id="text_10">
      <!-- 2016 -->
      <defs>
       <path d="M 33.015625 40.375 
Q 26.375 40.375 22.484375 35.828125 
Q 18.609375 31.296875 18.609375 23.390625 
Q 18.609375 15.53125 22.484375 10.953125 
Q 26.375 6.390625 33.015625 6.390625 
Q 39.65625 6.390625 43.53125 10.953125 
Q 47.40625 15.53125 47.40625 23.390625 
Q 47.40625 31.296875 43.53125 35.828125 
Q 39.65625 40.375 33.015625 40.375 
z
M 52.59375 71.296875 
L 52.59375 62.3125 
Q 48.875 64.0625 45.09375 64.984375 
Q 41.3125 65.921875 37.59375 65.921875 
Q 27.828125 65.921875 22.671875 59.328125 
Q 17.53125 52.734375 16.796875 39.40625 
Q 19.671875 43.65625 24.015625 45.921875 
Q 28.375 48.1875 33.59375 48.1875 
Q 44.578125 48.1875 50.953125 41.515625 
Q 57.328125 34.859375 57.328125 23.390625 
Q 57.328125 12.15625 50.6875 5.359375 
Q 44.046875 -1.421875 33.015625 -1.421875 
Q 20.359375 -1.421875 13.671875 8.265625 
Q 6.984375 17.96875 6.984375 36.375 
Q 6.984375 53.65625 15.1875 63.9375 
Q 23.390625 74.21875 37.203125 74.21875 
Q 40.921875 74.21875 44.703125 73.484375 
Q 48.484375 72.75 52.59375 71.296875 
z
" id="DejaVuSans-36"/>
      </defs>
      <g transform="translate(724.620455 397.578438)scale(0.1 -0.1)">
       <use xlink:href="#DejaVuSans-32"/>
       <use x="63.623047" xlink:href="#DejaVuSans-30"/>
       <use x="127.246094" xlink:href="#DejaVuSans-31"/>
       <use x="190.869141" xlink:href="#DejaVuSans-36"/>
      </g>
     </g>
    </g>
   </g>
   <g id="matplotlib.axis_2">
    <g id="ytick_1">
     <g id="line2d_11">
      <defs>
       <path d="M 0 0 
L -2 0 
" id="m12f55055f7" style="stroke:#000000;stroke-width:2;"/>
      </defs>
      <g>
       <use style="stroke:#000000;stroke-width:2;" x="108" xlink:href="#m12f55055f7" y="384.48"/>
      </g>
     </g>
     <g id="text_11">
      <!-- 0 -->
      <g transform="translate(96.1375 388.279219)scale(0.1 -0.1)">
       <use xlink:href="#DejaVuSans-30"/>
      </g>
     </g>
    </g>
    <g id="ytick_2">
     <g id="line2d_12">
      <g>
       <use style="stroke:#000000;stroke-width:2;" x="108" xlink:href="#m12f55055f7" y="323.374855"/>
      </g>
     </g>
     <g id="text_12">
      <!-- 100 -->
      <g transform="translate(83.4125 327.174074)scale(0.1 -0.1)">
       <use xlink:href="#DejaVuSans-31"/>
       <use x="63.623047" xlink:href="#DejaVuSans-30"/>
       <use x="127.246094" xlink:href="#DejaVuSans-30"/>
      </g>
     </g>
    </g>
    <g id="ytick_3">
     <g id="line2d_13">
      <g>
       <use style="stroke:#000000;stroke-width:2;" x="108" xlink:href="#m12f55055f7" y="262.26971"/>
      </g>
     </g>
     <g id="text_13">
      <!-- 200 -->
      <g transform="translate(83.4125 266.068929)scale(0.1 -0.1)">
       <use xlink:href="#DejaVuSans-32"/>
       <use x="63.623047" xlink:href="#DejaVuSans-30"/>
       <use x="127.246094" xlink:href="#DejaVuSans-30"/>
      </g>
     </g>
    </g>
    <g id="ytick_4">
     <g id="line2d_14">
      <g>
       <use style="stroke:#000000;stroke-width:2;" x="108" xlink:href="#m12f55055f7" y="201.164566"/>
      </g>
     </g>
     <g id="text_14">
      <!-- 300 -->
      <g transform="translate(83.4125 204.963784)scale(0.1 -0.1)">
       <use xlink:href="#DejaVuSans-33"/>
       <use x="63.623047" xlink:href="#DejaVuSans-30"/>
       <use x="127.246094" xlink:href="#DejaVuSans-30"/>
      </g>
     </g>
    </g>
    <g id="ytick_5">
     <g id="line2d_15">
      <g>
       <use style="stroke:#000000;stroke-width:2;" x="108" xlink:href="#m12f55055f7" y="140.059421"/>
      </g>
     </g>
     <g id="text_15">
      <!-- 400 -->
      <g transform="translate(83.4125 143.85864)scale(0.1 -0.1)">
       <use xlink:href="#DejaVuSans-34"/>
       <use x="63.623047" xlink:href="#DejaVuSans-30"/>
       <use x="127.246094" xlink:href="#DejaVuSans-30"/>
      </g>
     </g>
    </g>
    <g id="ytick_6">
     <g id="line2d_16">
      <g>
       <use style="stroke:#000000;stroke-width:2;" x="108" xlink:href="#m12f55055f7" y="78.954276"/>
      </g>
     </g>
     <g id="text_16">
      <!-- 500 -->
      <g transform="translate(83.4125 82.753495)scale(0.1 -0.1)">
       <use xlink:href="#DejaVuSans-35"/>
       <use x="63.623047" xlink:href="#DejaVuSans-30"/>
       <use x="127.246094" xlink:href="#DejaVuSans-30"/>
      </g>
     </g>
    </g>
   </g>
   <g id="patch_13">
    <path d="M 108 384.48 
L 108 51.84 
" style="fill:none;stroke:#000000;stroke-linecap:square;stroke-linejoin:miter;stroke-width:0.8;"/>
   </g>
   <g id="patch_14">
    <path d="M 777.6 384.48 
L 777.6 51.84 
" style="fill:none;stroke:#000000;stroke-linecap:square;stroke-linejoin:miter;stroke-width:0.8;"/>
   </g>
   <g id="patch_15">
    <path d="M 108 384.48 
L 777.6 384.48 
" style="fill:none;stroke:#000000;stroke-linecap:square;stroke-linejoin:miter;stroke-width:0.8;"/>
   </g>
   <g id="patch_16">
    <path d="M 108 51.84 
L 777.6 51.84 
" style="fill:none;stroke:#000000;stroke-linecap:square;stroke-linejoin:miter;stroke-width:0.8;"/>
   </g>
  </g>
  <g id="axes_2">
   <g id="matplotlib.axis_3">
    <g id="ytick_7">
     <g id="line2d_17">
      <path clip-path="url(#p9b0acc7555)" d="M 108 370.241633 
L 777.6 370.241633 
" style="fill:none;stroke:#b0b0b0;stroke-dasharray:2.96,1.28;stroke-dashoffset:0;stroke-width:0.8;"/>
     </g>
     <g id="line2d_18">
      <defs>
       <path d="M 0 0 
L 2 0 
" id="m994a89c273" style="stroke:#cd0000;stroke-width:2;"/>
      </defs>
      <g>
       <use style="fill:#cd0000;stroke:#cd0000;stroke-width:2;" x="777.6" xlink:href="#m994a89c273" y="370.241633"/>
      </g>
     </g>
     <g id="text_17">
      <!-- 3 -->
      <g style="fill:#cd0000;" transform="translate(783.1 374.040851)scale(0.1 -0.1)">
       <use xlink:href="#DejaVuSans-33"/>
      </g>
     </g>
    </g>
    <g id="ytick_8">
     <g id="line2d_19">
      <path clip-path="url(#p9b0acc7555)" d="M 108 326.16 
L 777.6 326.16 
" style="fill:none;stroke:#b0b0b0;stroke-dasharray:2.96,1.28;stroke-dashoffset:0;stroke-width:0.8;"/>
     </g>
     <g id="line2d_20">
      <g>
       <use style="fill:#cd0000;stroke:#cd0000;stroke-width:2;" x="777.6" xlink:href="#m994a89c273" y="326.16"/>
      </g>
     </g>
     <g id="text_18">
      <!-- 4 -->
      <g style="fill:#cd0000;" transform="translate(783.1 329.959219)scale(0.1 -0.1)">
       <use xlink:href="#DejaVuSans-34"/>
      </g>
     </g>
    </g>
    <g id="ytick_9">
     <g id="line2d_21">
      <path clip-path="url(#p9b0acc7555)" d="M 108 282.078367 
L 777.6 282.078367 
" style="fill:none;stroke:#b0b0b0;stroke-dasharray:2.96,1.28;stroke-dashoffset:0;stroke-width:0.8;"/>
     </g>
     <g id="line2d_22">
      <g>
       <use style="fill:#cd0000;stroke:#cd0000;stroke-width:2;" x="777.6" xlink:href="#m994a89c273" y="282.078367"/>
      </g>
     </g>
     <g id="text_19">
      <!-- 5 -->
      <g style="fill:#cd0000;" transform="translate(783.1 285.877586)scale(0.1 -0.1)">
       <use xlink:href="#DejaVuSans-35"/>
      </g>
     </g>
    </g>
    <g id="ytick_10">
     <g id="line2d_23">
      <path clip-path="url(#p9b0acc7555)" d="M 108 237.996735 
L 777.6 237.996735 
" style="fill:none;stroke:#b0b0b0;stroke-dasharray:2.96,1.28;stroke-dashoffset:0;stroke-width:0.8;"/>
     </g>
     <g id="line2d_24">
      <g>
       <use style="fill:#cd0000;stroke:#cd0000;stroke-width:2;" x="777.6" xlink:href="#m994a89c273" y="237.996735"/>
      </g>
     </g>
     <g id="text_20">
      <!-- 6 -->
      <g style="fill:#cd0000;" transform="translate(783.1 241.795953)scale(0.1 -0.1)">
       <use xlink:href="#DejaVuSans-36"/>
      </g>
     </g>
    </g>
    <g id="ytick_11">
     <g id="line2d_25">
      <path clip-path="url(#p9b0acc7555)" d="M 108 193.915102 
L 777.6 193.915102 
" style="fill:none;stroke:#b0b0b0;stroke-dasharray:2.96,1.28;stroke-dashoffset:0;stroke-width:0.8;"/>
     </g>
     <g id="line2d_26">
      <g>
       <use style="fill:#cd0000;stroke:#cd0000;stroke-width:2;" x="777.6" xlink:href="#m994a89c273" y="193.915102"/>
      </g>
     </g>
     <g id="text_21">
      <!-- 7 -->
      <g style="fill:#cd0000;" transform="translate(783.1 197.714321)scale(0.1 -0.1)">
       <use xlink:href="#DejaVuSans-37"/>
      </g>
     </g>
    </g>
    <g id="ytick_12">
     <g id="line2d_27">
      <path clip-path="url(#p9b0acc7555)" d="M 108 149.833469 
L 777.6 149.833469 
" style="fill:none;stroke:#b0b0b0;stroke-dasharray:2.96,1.28;stroke-dashoffset:0;stroke-width:0.8;"/>
     </g>
     <g id="line2d_28">
      <g>
       <use style="fill:#cd0000;stroke:#cd0000;stroke-width:2;" x="777.6" xlink:href="#m994a89c273" y="149.833469"/>
      </g>
     </g>
     <g id="text_22">
      <!-- 8 -->
      <g style="fill:#cd0000;" transform="translate(783.1 153.632688)scale(0.1 -0.1)">
       <use xlink:href="#DejaVuSans-38"/>
      </g>
     </g>
    </g>
    <g id="ytick_13">
     <g id="line2d_29">
      <path clip-path="url(#p9b0acc7555)" d="M 108 105.751837 
L 777.6 105.751837 
" style="fill:none;stroke:#b0b0b0;stroke-dasharray:2.96,1.28;stroke-dashoffset:0;stroke-width:0.8;"/>
     </g>
     <g id="line2d_30">
      <g>
       <use style="fill:#cd0000;stroke:#cd0000;stroke-width:2;" x="777.6" xlink:href="#m994a89c273" y="105.751837"/>
      </g>
     </g>
     <g id="text_23">
      <!-- 9 -->
      <g style="fill:#cd0000;" transform="translate(783.1 109.551055)scale(0.1 -0.1)">
       <use xlink:href="#DejaVuSans-39"/>
      </g>
     </g>
    </g>
    <g id="ytick_14">
     <g id="line2d_31">
      <path clip-path="url(#p9b0acc7555)" d="M 108 61.670204 
L 777.6 61.670204 
" style="fill:none;stroke:#b0b0b0;stroke-dasharray:2.96,1.28;stroke-dashoffset:0;stroke-width:0.8;"/>
     </g>
     <g id="line2d_32">
      <g>
       <use style="fill:#cd0000;stroke:#cd0000;stroke-width:2;" x="777.6" xlink:href="#m994a89c273" y="61.670204"/>
      </g>
     </g>
     <g id="text_24">
      <!-- 10 -->
      <g style="fill:#cd0000;" transform="translate(783.1 65.469423)scale(0.1 -0.1)">
       <use xlink:href="#DejaVuSans-31"/>
       <use x="63.623047" xlink:href="#DejaVuSans-30"/>
      </g>
     </g>
    </g>
   </g>
   <path clip-path="url(#p9b0acc7555)" d="M 150.254545 371.36 
L 215.709091 366.070204 
L 281.163636 332.568163 
L 346.618182 332.127347 
L 412.072727 324.192653 
L 477.527273 163.73551 
L 542.981818 105.547755 
L 608.436364 97.613061 
L 673.890909 68.96 
L 739.345455 116.568163 
" style="fill:none;opacity:0.3;stroke:#000000;stroke-linecap:square;stroke-width:2;"/>
   <path clip-path="url(#p9b0acc7555)" d="M 148.254545 369.36 
L 213.709091 364.070204 
L 279.163636 330.568163 
L 344.618182 330.127347 
L 410.072727 322.192653 
L 475.527273 161.73551 
L 540.981818 103.547755 
L 606.436364 95.613061 
L 671.890909 66.96 
L 737.345455 114.568163 
" style="fill:none;stroke:#c00000;stroke-linecap:square;stroke-width:2;"/>
   <path clip-path="url(#p9b0acc7555)" d="M 150.254545 368.36 
L 149.581004 370.432949 
L 147.401376 370.432949 
L 149.164732 371.714102 
L 148.49119 373.787051 
L 150.254545 372.505898 
L 152.017901 373.787051 
L 151.344359 371.714102 
L 153.107715 370.432949 
L 150.928087 370.432949 
z
" style="fill:none;opacity:0.3;stroke:#000000;stroke-linejoin:bevel;"/>
   <path clip-path="url(#p9b0acc7555)" d="M 215.709091 363.070204 
L 215.035549 365.143153 
L 212.855921 365.143153 
L 214.619277 366.424306 
L 213.945735 368.497255 
L 215.709091 367.216102 
L 217.472447 368.497255 
L 216.798905 366.424306 
L 218.56226 365.143153 
L 216.382633 365.143153 
z
" style="fill:none;opacity:0.3;stroke:#000000;stroke-linejoin:bevel;"/>
   <path clip-path="url(#p9b0acc7555)" d="M 281.163636 329.568163 
L 280.490094 331.641112 
L 278.310467 331.641112 
L 280.073823 332.922265 
L 279.400281 334.995214 
L 281.163636 333.714061 
L 282.926992 334.995214 
L 282.25345 332.922265 
L 284.016806 331.641112 
L 281.837178 331.641112 
z
" style="fill:none;opacity:0.3;stroke:#000000;stroke-linejoin:bevel;"/>
   <path clip-path="url(#p9b0acc7555)" d="M 346.618182 329.127347 
L 345.94464 331.200296 
L 343.765012 331.200296 
L 345.528368 332.481449 
L 344.854826 334.554398 
L 346.618182 333.273245 
L 348.381538 334.554398 
L 347.707996 332.481449 
L 349.471351 331.200296 
L 347.291724 331.200296 
z
" style="fill:none;opacity:0.3;stroke:#000000;stroke-linejoin:bevel;"/>
   <path clip-path="url(#p9b0acc7555)" d="M 412.072727 321.192653 
L 411.399185 323.265602 
L 409.219558 323.265602 
L 410.982914 324.546755 
L 410.309372 326.619704 
L 412.072727 325.338551 
L 413.836083 326.619704 
L 413.162541 324.546755 
L 414.925897 323.265602 
L 412.746269 323.265602 
z
" style="fill:none;opacity:0.3;stroke:#000000;stroke-linejoin:bevel;"/>
   <path clip-path="url(#p9b0acc7555)" d="M 477.527273 160.73551 
L 476.853731 162.808459 
L 474.674103 162.808459 
L 476.437459 164.089612 
L 475.763917 166.162561 
L 477.527273 164.881408 
L 479.290628 166.162561 
L 478.617086 164.089612 
L 480.380442 162.808459 
L 478.200815 162.808459 
z
" style="fill:none;opacity:0.3;stroke:#000000;stroke-linejoin:bevel;"/>
   <path clip-path="url(#p9b0acc7555)" d="M 542.981818 102.547755 
L 542.308276 104.620704 
L 540.128649 104.620704 
L 541.892004 105.901857 
L 541.218462 107.974806 
L 542.981818 106.693653 
L 544.745174 107.974806 
L 544.071632 105.901857 
L 545.834988 104.620704 
L 543.65536 104.620704 
z
" style="fill:none;opacity:0.3;stroke:#000000;stroke-linejoin:bevel;"/>
   <path clip-path="url(#p9b0acc7555)" d="M 608.436364 94.613061 
L 607.762822 96.68601 
L 605.583194 96.68601 
L 607.34655 97.967163 
L 606.673008 100.040112 
L 608.436364 98.758959 
L 610.199719 100.040112 
L 609.526177 97.967163 
L 611.289533 96.68601 
L 609.109906 96.68601 
z
" style="fill:none;opacity:0.3;stroke:#000000;stroke-linejoin:bevel;"/>
   <path clip-path="url(#p9b0acc7555)" d="M 673.890909 65.96 
L 673.217367 68.032949 
L 671.03774 68.032949 
L 672.801095 69.314102 
L 672.127553 71.387051 
L 673.890909 70.105898 
L 675.654265 71.387051 
L 674.980723 69.314102 
L 676.744079 68.032949 
L 674.564451 68.032949 
z
" style="fill:none;opacity:0.3;stroke:#000000;stroke-linejoin:bevel;"/>
   <path clip-path="url(#p9b0acc7555)" d="M 739.345455 113.568163 
L 738.671913 115.641112 
L 736.492285 115.641112 
L 738.255641 116.922265 
L 737.582099 118.995214 
L 739.345455 117.714061 
L 741.10881 118.995214 
L 740.435268 116.922265 
L 742.198624 115.641112 
L 740.018996 115.641112 
z
" style="fill:none;opacity:0.3;stroke:#000000;stroke-linejoin:bevel;"/>
   <path clip-path="url(#p9b0acc7555)" d="M 148.254545 366.36 
L 147.581004 368.432949 
L 145.401376 368.432949 
L 147.164732 369.714102 
L 146.49119 371.787051 
L 148.254545 370.505898 
L 150.017901 371.787051 
L 149.344359 369.714102 
L 151.107715 368.432949 
L 148.928087 368.432949 
z
" style="fill:#c00000;stroke:#c00000;stroke-linejoin:bevel;"/>
   <path clip-path="url(#p9b0acc7555)" d="M 213.709091 361.070204 
L 213.035549 363.143153 
L 210.855921 363.143153 
L 212.619277 364.424306 
L 211.945735 366.497255 
L 213.709091 365.216102 
L 215.472447 366.497255 
L 214.798905 364.424306 
L 216.56226 363.143153 
L 214.382633 363.143153 
z
" style="fill:#c00000;stroke:#c00000;stroke-linejoin:bevel;"/>
   <path clip-path="url(#p9b0acc7555)" d="M 279.163636 327.568163 
L 278.490094 329.641112 
L 276.310467 329.641112 
L 278.073823 330.922265 
L 277.400281 332.995214 
L 279.163636 331.714061 
L 280.926992 332.995214 
L 280.25345 330.922265 
L 282.016806 329.641112 
L 279.837178 329.641112 
z
" style="fill:#c00000;stroke:#c00000;stroke-linejoin:bevel;"/>
   <path clip-path="url(#p9b0acc7555)" d="M 344.618182 327.127347 
L 343.94464 329.200296 
L 341.765012 329.200296 
L 343.528368 330.481449 
L 342.854826 332.554398 
L 344.618182 331.273245 
L 346.381538 332.554398 
L 345.707996 330.481449 
L 347.471351 329.200296 
L 345.291724 329.200296 
z
" style="fill:#c00000;stroke:#c00000;stroke-linejoin:bevel;"/>
   <path clip-path="url(#p9b0acc7555)" d="M 410.072727 319.192653 
L 409.399185 321.265602 
L 407.219558 321.265602 
L 408.982914 322.546755 
L 408.309372 324.619704 
L 410.072727 323.338551 
L 411.836083 324.619704 
L 411.162541 322.546755 
L 412.925897 321.265602 
L 410.746269 321.265602 
z
" style="fill:#c00000;stroke:#c00000;stroke-linejoin:bevel;"/>
   <path clip-path="url(#p9b0acc7555)" d="M 475.527273 158.73551 
L 474.853731 160.808459 
L 472.674103 160.808459 
L 474.437459 162.089612 
L 473.763917 164.162561 
L 475.527273 162.881408 
L 477.290628 164.162561 
L 476.617086 162.089612 
L 478.380442 160.808459 
L 476.200815 160.808459 
z
" style="fill:#c00000;stroke:#c00000;stroke-linejoin:bevel;"/>
   <path clip-path="url(#p9b0acc7555)" d="M 540.981818 100.547755 
L 540.308276 102.620704 
L 538.128649 102.620704 
L 539.892004 103.901857 
L 539.218462 105.974806 
L 540.981818 104.693653 
L 542.745174 105.974806 
L 542.071632 103.901857 
L 543.834988 102.620704 
L 541.65536 102.620704 
z
" style="fill:#c00000;stroke:#c00000;stroke-linejoin:bevel;"/>
   <path clip-path="url(#p9b0acc7555)" d="M 606.436364 92.613061 
L 605.762822 94.68601 
L 603.583194 94.68601 
L 605.34655 95.967163 
L 604.673008 98.040112 
L 606.436364 96.758959 
L 608.199719 98.040112 
L 607.526177 95.967163 
L 609.289533 94.68601 
L 607.109906 94.68601 
z
" style="fill:#c00000;stroke:#c00000;stroke-linejoin:bevel;"/>
   <path clip-path="url(#p9b0acc7555)" d="M 671.890909 63.96 
L 671.217367 66.032949 
L 669.03774 66.032949 
L 670.801095 67.314102 
L 670.127553 69.387051 
L 671.890909 68.105898 
L 673.654265 69.387051 
L 672.980723 67.314102 
L 674.744079 66.032949 
L 672.564451 66.032949 
z
" style="fill:#c00000;stroke:#c00000;stroke-linejoin:bevel;"/>
   <path clip-path="url(#p9b0acc7555)" d="M 737.345455 111.568163 
L 736.671913 113.641112 
L 734.492285 113.641112 
L 736.255641 114.922265 
L 735.582099 116.995214 
L 737.345455 115.714061 
L 739.10881 116.995214 
L 738.435268 114.922265 
L 740.198624 113.641112 
L 738.018996 113.641112 
z
" style="fill:#c00000;stroke:#c00000;stroke-linejoin:bevel;"/>
   <g id="patch_17">
    <path d="M 108 384.48 
L 108 51.84 
" style="fill:none;stroke:#000000;stroke-linecap:square;stroke-linejoin:miter;stroke-width:0.8;"/>
   </g>
   <g id="patch_18">
    <path d="M 777.6 384.48 
L 777.6 51.84 
" style="fill:none;stroke:#000000;stroke-linecap:square;stroke-linejoin:miter;stroke-width:0.8;"/>
   </g>
   <g id="patch_19">
    <path d="M 108 384.48 
L 777.6 384.48 
" style="fill:none;stroke:#000000;stroke-linecap:square;stroke-linejoin:miter;stroke-width:0.8;"/>
   </g>
   <g id="patch_20">
    <path d="M 108 51.84 
L 777.6 51.84 
" style="fill:none;stroke:#000000;stroke-linecap:square;stroke-linejoin:miter;stroke-width:0.8;"/>
   </g>
   <g id="text_25">
    <!-- 营业总收入与净利润率 -->
    <defs>
     <path d="M 13.484375 16.546875 
L 86.53125 16.546875 
L 86.53125 -13.234375 
L 79.109375 -13.234375 
L 79.109375 -8.34375 
L 20.90625 -8.34375 
L 20.90625 -13.234375 
L 13.484375 -13.234375 
z
M 20.515625 46.625 
L 79.5 46.625 
L 79.5 22.21875 
L 72.078125 22.21875 
L 72.078125 24.46875 
L 27.9375 24.46875 
L 27.9375 22.21875 
L 20.515625 22.21875 
z
M 61.53125 83.25 
L 68.65625 83.25 
L 68.65625 75.25 
L 97.953125 75.25 
L 97.953125 68.796875 
L 68.65625 68.796875 
L 68.65625 62.9375 
L 61.53125 62.9375 
L 61.53125 68.796875 
L 38.375 68.796875 
L 38.375 62.9375 
L 31.25 62.9375 
L 31.25 68.796875 
L 2.34375 68.796875 
L 2.34375 75.25 
L 31.25 75.25 
L 31.25 83.25 
L 38.375 83.25 
L 38.375 75.25 
L 61.53125 75.25 
z
M 5.28125 60.296875 
L 94.734375 60.296875 
L 94.734375 42.4375 
L 87.3125 42.4375 
L 87.3125 53.859375 
L 12.703125 53.859375 
L 12.703125 42.4375 
L 5.28125 42.4375 
z
M 79.109375 10.5 
L 20.90625 10.5 
L 20.90625 -2.296875 
L 79.109375 -2.296875 
z
M 72.078125 40.578125 
L 27.9375 40.578125 
L 27.9375 30.515625 
L 72.078125 30.515625 
z
" id="MicrosoftYaHei-8425"/>
     <path d="M 1.859375 0.734375 
L 33.203125 0.734375 
L 33.203125 81.390625 
L 41.40625 81.390625 
L 41.40625 0.734375 
L 58.5 0.734375 
L 58.5 81.390625 
L 66.703125 81.390625 
L 66.703125 0.734375 
L 98.34375 0.734375 
L 98.34375 -6.5 
L 1.859375 -6.5 
z
M 13.1875 62.25 
Q 21.1875 43.40625 28.71875 22.21875 
L 20.703125 18.609375 
Q 14.15625 39.203125 6.0625 59.125 
z
M 70.21875 21.34375 
Q 79.984375 42.046875 86.625 61.375 
L 94.53125 58.25 
Q 85.453125 34.90625 77.25 18.109375 
z
" id="MicrosoftYaHei-4e1a"/>
     <path d="M 14.0625 66.453125 
L 56.734375 66.453125 
Q 62.84375 75.34375 67.671875 83.640625 
L 75.203125 79.734375 
Q 70.3125 73.046875 65.234375 66.453125 
L 85.9375 66.453125 
L 85.9375 26.609375 
L 78.125 26.609375 
L 78.125 30.90625 
L 21.875 30.90625 
L 21.875 26.609375 
L 14.0625 26.609375 
z
M 78.125 59.421875 
L 21.875 59.421875 
L 21.875 37.9375 
L 78.125 37.9375 
z
M 26.46875 21.53125 
L 34.078125 21.53125 
L 34.078125 4.4375 
Q 34.078125 -3.171875 40.921875 -3.171875 
L 60.546875 -3.171875 
Q 66.3125 -3.171875 67.78125 2.6875 
Q 68.65625 5.71875 69.53125 13.625 
Q 72.359375 12.359375 77.046875 10.6875 
Q 75.78125 3.265625 74.21875 -1.515625 
Q 71.1875 -10.015625 60.9375 -10.015625 
L 39.359375 -10.015625 
Q 26.46875 -10.015625 26.46875 3.078125 
z
M 11.234375 22.21875 
L 18.5625 19.875 
Q 14.546875 7.671875 8.40625 -5.21875 
Q 5.28125 -3.859375 1.265625 -2.09375 
Q 6.9375 9.328125 11.234375 22.21875 
z
M 76.265625 18.796875 
L 81.84375 23.09375 
Q 90.828125 13.140625 98.734375 3.078125 
L 92.1875 -2.09375 
Q 85.25 7.671875 76.265625 18.796875 
z
M 41.609375 24.859375 
L 47.5625 28.765625 
Q 54.5 21.4375 60.359375 13.140625 
L 53.8125 8.546875 
Q 47.953125 17.328125 41.609375 24.859375 
z
M 24.90625 79.828125 
L 30.859375 83.640625 
Q 36.71875 77.484375 41.40625 70.953125 
L 34.765625 66.65625 
Q 30.5625 72.703125 24.90625 79.828125 
z
" id="MicrosoftYaHei-603b"/>
     <path d="M 35.0625 41.546875 
Q 47.5625 63.234375 53.125 83.453125 
L 61.03125 81.203125 
Q 57.90625 72.171875 54.5 63.921875 
L 97.078125 63.921875 
L 97.078125 56.6875 
L 85.59375 56.6875 
Q 84.125 28.421875 71.09375 10.640625 
Q 81 1.859375 99.21875 -4.640625 
Q 96.1875 -8.453125 93.65625 -12.453125 
Q 76.265625 -5.03125 65.921875 4.6875 
Q 56.5 -4.59375 39.84375 -13.328125 
Q 37.796875 -10.109375 34.859375 -6.78125 
Q 51.515625 1.5625 60.59375 10.5 
Q 49.3125 24.609375 46 45.5625 
Q 43.265625 40.234375 40.328125 35.296875 
Q 38.484375 38.140625 35.0625 41.546875 
z
M 26.265625 82.671875 
L 33.6875 82.671875 
L 33.6875 -12.75 
L 26.265625 -12.75 
L 26.265625 17.390625 
Q 20.3125 14.0625 14.15625 10.015625 
Q 11.625 8.15625 9.1875 5.609375 
L 3.609375 12.15625 
Q 6.640625 15.375 6.640625 20.5625 
L 6.640625 69 
L 14.0625 69 
L 14.0625 19 
Q 19.875 22.078125 26.265625 25.53125 
z
M 77.875 56.6875 
L 51.90625 56.6875 
Q 53.328125 32.859375 65.671875 16.546875 
Q 76.8125 32.234375 77.875 56.6875 
z
" id="MicrosoftYaHei-6536"/>
     <path d="M 28.609375 77.296875 
L 35.0625 81.890625 
Q 46 75.140625 59.078125 47.3125 
Q 77.34375 7.375 98.734375 -1.421875 
L 91.890625 -10.015625 
Q 70.515625 2.6875 52.34375 43.5 
Q 50.875 46.78125 49.46875 49.75 
Q 38.140625 10.9375 7.328125 -10.59375 
Q 4.6875 -6.6875 1.375 -3.265625 
Q 33.0625 16.703125 44.046875 59.90625 
Q 36.375 72.703125 28.609375 77.296875 
z
" id="MicrosoftYaHei-5165"/>
     <path d="M 18.171875 37.25 
L 18.171875 44.671875 
L 22.078125 83.25 
L 30.171875 83.25 
L 28.65625 67.71875 
L 97.953125 67.71875 
L 97.953125 60.296875 
L 27.984375 60.296875 
L 26.46875 44.671875 
L 90.828125 44.671875 
Q 89.65625 24.171875 88.1875 6.5 
Q 86.8125 -3.859375 82.234375 -7.46875 
Q 77.828125 -10.984375 67.53125 -10.984375 
Q 57.90625 -10.890625 45.3125 -10.59375 
Q 44.734375 -7.28125 43.65625 -2.09375 
Q 58.5 -3.171875 65.828125 -3.265625 
Q 78.90625 -4.15625 80.078125 6.984375 
Q 81.34375 19.96875 82.234375 37.25 
z
M 1.65625 22.015625 
L 74.03125 22.015625 
L 74.03125 14.59375 
L 1.65625 14.59375 
z
" id="MicrosoftYaHei-4e0e"/>
     <path d="M 31.453125 19.96875 
L 55.859375 19.96875 
L 55.859375 30.421875 
L 26.65625 30.421875 
L 26.65625 37.453125 
L 55.859375 37.453125 
L 55.859375 47.796875 
L 33.203125 47.796875 
L 33.203125 51.515625 
Q 31.390625 49.65625 29.59375 47.90625 
Q 27.9375 49.65625 24.3125 53.375 
Q 36.71875 65.09375 47.65625 83.640625 
L 55.078125 81.6875 
Q 53.125 78.125 51.03125 74.75 
L 80.375 74.75 
L 80.375 68.21875 
L 69.046875 54.640625 
L 89.0625 54.640625 
L 89.0625 37.453125 
L 97.953125 37.453125 
L 97.953125 30.421875 
L 89.0625 30.421875 
L 89.0625 9.125 
L 81.640625 9.125 
L 81.640625 13.140625 
L 63.484375 13.140625 
L 63.484375 0.046875 
Q 63.484375 -11.96875 51.171875 -12.0625 
Q 44.734375 -12.0625 38.875 -12.0625 
Q 38.1875 -7.859375 37.3125 -3.953125 
Q 43.453125 -4.640625 49.421875 -4.640625 
Q 55.859375 -4.640625 55.859375 1.8125 
L 55.859375 13.140625 
L 31.453125 13.140625 
z
M 70.90625 68.015625 
L 46.625 68.015625 
Q 41.703125 60.890625 36.078125 54.640625 
L 60.109375 54.640625 
z
M 14.453125 36.46875 
Q 17.96875 34.71875 21.78125 33.15625 
Q 16.609375 15.484375 11.140625 -3.765625 
L 3.21875 -0.734375 
Q 9.96875 18.109375 14.453125 36.46875 
z
M 63.484375 19.96875 
L 81.640625 19.96875 
L 81.640625 30.421875 
L 63.484375 30.421875 
z
M 10.359375 76.421875 
Q 16.609375 65.671875 21.96875 54.828125 
Q 17.96875 52.6875 14.65625 51.125 
Q 9.671875 62.359375 4 73.09375 
z
M 81.640625 47.796875 
L 63.484375 47.796875 
L 63.484375 37.453125 
L 81.640625 37.453125 
z
" id="MicrosoftYaHei-51c0"/>
     <path d="M 1.171875 11.578125 
Q 14.265625 25.828125 23.25 46.828125 
L 1.65625 46.828125 
L 1.65625 53.953125 
L 25.09375 53.953125 
L 25.09375 68.609375 
Q 15.046875 67.625 5.171875 66.75 
Q 4.5 70.359375 3.21875 74.171875 
Q 26.65625 76.03125 51.078125 79.15625 
L 53.03125 71.734375 
Q 42.671875 70.453125 32.515625 69.390625 
L 32.515625 53.953125 
L 54.6875 53.953125 
L 54.6875 46.828125 
L 32.515625 46.828125 
L 32.515625 33.734375 
L 36.8125 37.84375 
Q 46 30.03125 55.078125 21.046875 
L 49.125 14.984375 
Q 43.171875 21.921875 32.515625 32.078125 
L 32.515625 -12.9375 
L 25.09375 -12.9375 
L 25.09375 35.890625 
Q 16.703125 16.9375 5.078125 2.78125 
Q 2.4375 9.125 1.171875 11.578125 
z
M 85.0625 81.203125 
L 92.78125 81.203125 
L 92.78125 -0.140625 
Q 92.78125 -12.546875 80.28125 -12.453125 
Q 76.265625 -12.453125 67.28125 -12.359375 
Q 66.703125 -8.34375 65.828125 -3.5625 
Q 73.734375 -4.4375 77.828125 -4.4375 
Q 85.0625 -4.546875 85.0625 2.875 
z
M 61.921875 71.4375 
L 69.34375 71.4375 
L 69.34375 9.71875 
L 61.921875 9.71875 
z
" id="MicrosoftYaHei-5229"/>
     <path d="M 54.6875 76.8125 
L 95.125 76.8125 
L 95.125 -0.53125 
Q 95.125 -11.96875 83.40625 -11.96875 
Q 77.9375 -11.96875 70.21875 -11.859375 
Q 69.734375 -8.640625 68.75 -4.34375 
Q 76.953125 -4.9375 81.453125 -4.9375 
Q 87.703125 -4.9375 87.703125 0.734375 
L 87.703125 70.171875 
L 54.6875 70.171875 
z
M 40.828125 14.703125 
L 58.59375 14.703125 
L 58.59375 31.203125 
L 43.359375 31.203125 
L 43.359375 37.25 
L 58.59375 37.25 
L 58.59375 52.296875 
L 41.890625 52.296875 
L 41.890625 58.546875 
L 82.328125 58.546875 
L 82.328125 52.296875 
L 65.625 52.296875 
L 65.625 37.25 
L 81.0625 37.25 
L 81.0625 31.203125 
L 65.625 31.203125 
L 65.625 14.703125 
L 83.59375 14.703125 
L 83.59375 8.453125 
L 40.828125 8.453125 
z
M 36.71875 -13.234375 
L 29.296875 -13.234375 
L 29.296875 65.484375 
L 36.71875 65.484375 
z
M 4 -9.90625 
Q 9.671875 6.890625 14.0625 27.875 
Q 18.359375 26.03125 21.96875 24.859375 
Q 15.921875 1.125 12.59375 -12.546875 
z
M 5.078125 75.828125 
L 10.15625 81 
Q 16.609375 76.125 26.953125 67.234375 
Q 23.640625 64.015625 21.09375 61.46875 
Q 11.03125 70.953125 5.078125 75.828125 
z
M 1.265625 50.34375 
L 6.25 55.90625 
Q 14.65625 50.140625 23.046875 43.40625 
Q 19.828125 39.984375 17.390625 37.0625 
Q 7.8125 45.5625 1.265625 50.34375 
z
M 34.1875 78.46875 
L 39.65625 82.671875 
Q 45.515625 76.21875 50.390625 70.171875 
L 44.046875 65.484375 
Q 39.9375 71.4375 34.1875 78.46875 
z
" id="MicrosoftYaHei-6da6"/>
     <path d="M 39.453125 31.390625 
Q 40.96875 31.5 61.375 32.515625 
Q 58.9375 35.9375 56.640625 38.921875 
L 61.921875 42.234375 
Q 68.953125 34.421875 74.90625 25.828125 
L 68.65625 21.921875 
Q 66.9375 24.515625 65.28125 26.953125 
Q 46.734375 25.921875 34.578125 24.953125 
Q 32.421875 24.75 29.390625 24.078125 
L 26.953125 30.71875 
Q 29.890625 31.6875 31.34375 32.5625 
Q 39.59375 38.140625 47.65625 45.515625 
Q 40.578125 45.21875 35.546875 44.78125 
Q 33.5 44.484375 31.0625 43.890625 
L 28.125 49.859375 
Q 30.5625 50.734375 32.625 52.59375 
Q 39.203125 58.15625 44.921875 66.0625 
L 3.609375 66.0625 
L 3.609375 72.90625 
L 47.359375 72.90625 
Q 44.96875 77.25 42.875 80.515625 
L 49.90625 83.9375 
Q 53.71875 78.125 56.5 72.90625 
L 96.484375 72.90625 
L 96.484375 66.0625 
L 47.703125 66.0625 
L 52.34375 63.625 
Q 44.4375 55.515625 38.96875 50.734375 
Q 44.53125 50.875 53.515625 51.078125 
Q 57.421875 54.984375 61.328125 59.328125 
L 68.0625 55.421875 
Q 52.546875 40.671875 39.453125 31.390625 
z
M 2.25 15.484375 
L 46.78125 15.484375 
L 46.78125 24.078125 
L 54.5 24.078125 
L 54.5 15.484375 
L 98.046875 15.484375 
L 98.046875 8.640625 
L 54.5 8.640625 
L 54.5 -13.328125 
L 46.78125 -13.328125 
L 46.78125 8.640625 
L 2.25 8.640625 
z
M 26.859375 41.75 
L 30.375 35.984375 
Q 18.75 29.15625 6.640625 22.015625 
L 2.546875 28.5625 
Q 12.703125 33.34375 26.859375 41.75 
z
M 75.875 41.84375 
Q 89.84375 33.9375 97.65625 28.375 
L 93.359375 22.015625 
Q 83.296875 29.828125 71.875 36.578125 
z
M 93.65625 56.109375 
Q 86.234375 49.65625 77.546875 43.890625 
L 72.5625 49.078125 
Q 81.9375 55.21875 88.09375 61.375 
z
M 5.671875 56.78125 
L 10.640625 61.578125 
Q 18.75 55.125 24.8125 49.359375 
L 19.34375 44 
Q 13.671875 49.953125 5.671875 56.78125 
z
" id="MicrosoftYaHei-7387"/>
    </defs>
    <g transform="translate(382.8 45.84)scale(0.12 -0.12)">
     <use xlink:href="#MicrosoftYaHei-8425"/>
     <use x="100" xlink:href="#MicrosoftYaHei-4e1a"/>
     <use x="200" xlink:href="#MicrosoftYaHei-603b"/>
     <use x="300" xlink:href="#MicrosoftYaHei-6536"/>
     <use x="400" xlink:href="#MicrosoftYaHei-5165"/>
     <use x="500" xlink:href="#MicrosoftYaHei-4e0e"/>
     <use x="600" xlink:href="#MicrosoftYaHei-51c0"/>
     <use x="700" xlink:href="#MicrosoftYaHei-5229"/>
     <use x="800" xlink:href="#MicrosoftYaHei-6da6"/>
     <use x="900" xlink:href="#MicrosoftYaHei-7387"/>
    </g>
   </g>
   <g id="legend_1">
    <g id="patch_21">
     <path d="M 263.461875 429.287625 
L 622.138125 429.287625 
Q 624.538125 429.287625 624.538125 426.887625 
L 624.538125 409.512 
Q 624.538125 407.112 622.138125 407.112 
L 263.461875 407.112 
Q 261.061875 407.112 261.061875 409.512 
L 261.061875 426.887625 
Q 261.061875 429.287625 263.461875 429.287625 
z
" style="fill:#ffffff;opacity:0.8;stroke:#cccccc;stroke-linejoin:miter;"/>
    </g>
    <g id="patch_22">
     <path d="M 265.861875 421.5045 
L 289.861875 421.5045 
L 289.861875 413.1045 
L 265.861875 413.1045 
z
" style="fill:#a6a6a6;stroke-dasharray:11.1,4.8;stroke-dashoffset:0;"/>
    </g>
    <g id="text_26">
     <!-- 营业总收入（单位：亿元） -->
     <defs>
      <path d="M 57.625 -17.1875 
Q 40.1875 1.859375 40.1875 28.90625 
Q 40.1875 56.296875 57.625 75.59375 
L 66.015625 75.59375 
Q 48.6875 55.8125 48.6875 29 
Q 48.6875 2.59375 65.921875 -17.1875 
z
" id="MicrosoftYaHei-ff08"/>
      <path d="M 1.953125 14.203125 
L 46.1875 14.203125 
L 46.1875 25.25 
L 19.140625 25.25 
L 19.140625 20.65625 
L 11.71875 20.65625 
L 11.71875 68.015625 
L 31.984375 68.015625 
Q 27.296875 73.484375 21.875 79.25 
L 27.4375 83.84375 
Q 34.671875 76.90625 40.140625 71.046875 
L 36.53125 68.015625 
L 59.421875 68.015625 
Q 64.796875 75.140625 70.3125 83.546875 
L 78.125 79.34375 
Q 73.09375 73.25 68.40625 68.015625 
L 88.375 68.015625 
L 88.375 20.65625 
L 80.953125 20.65625 
L 80.953125 25.25 
L 53.8125 25.25 
L 53.8125 14.203125 
L 98.046875 14.203125 
L 98.046875 7.171875 
L 53.8125 7.171875 
L 53.8125 -13.421875 
L 46.1875 -13.421875 
L 46.1875 7.171875 
L 1.953125 7.171875 
z
M 53.8125 32.078125 
L 80.953125 32.078125 
L 80.953125 43.40625 
L 53.8125 43.40625 
z
M 19.140625 32.078125 
L 46.1875 32.078125 
L 46.1875 43.40625 
L 19.140625 43.40625 
z
M 80.953125 61.1875 
L 53.8125 61.1875 
L 53.8125 50.046875 
L 80.953125 50.046875 
z
M 19.140625 50.046875 
L 46.1875 50.046875 
L 46.1875 61.1875 
L 19.140625 61.1875 
z
" id="MicrosoftYaHei-5355"/>
      <path d="M 27.9375 -0.921875 
L 66.0625 -0.921875 
Q 73.09375 17.875 82.328125 52.6875 
L 91.109375 50.046875 
Q 85.203125 31.9375 74.3125 -0.921875 
L 98.734375 -0.921875 
L 98.734375 -8.15625 
L 27.9375 -8.15625 
z
M 1.265625 35.796875 
Q 15.234375 56.890625 22.359375 83.15625 
L 30.671875 81.109375 
Q 26.609375 68.703125 21.96875 57.953125 
L 21.96875 -13.328125 
L 14.65625 -13.328125 
L 14.65625 42.671875 
Q 10.0625 34.078125 4.984375 26.8125 
Q 3.609375 30.515625 1.265625 35.796875 
z
M 29.984375 65.484375 
L 64.40625 65.484375 
Q 60.0625 72.796875 54.78125 79.046875 
L 61.421875 83.640625 
Q 65.71875 78.65625 72.078125 70.265625 
L 64.84375 65.484375 
L 96.96875 65.484375 
L 96.96875 58.25 
L 29.984375 58.25 
z
M 43.265625 51.703125 
Q 49.703125 34.125 57.328125 9.125 
L 49.21875 6.78125 
Q 42.578125 30.71875 35.84375 49.171875 
z
" id="MicrosoftYaHei-4f4d"/>
      <path d="M 50.09375 55.171875 
Q 52.6875 55.171875 54.53125 53.359375 
Q 56.390625 51.5625 56.390625 49.03125 
Q 56.390625 46.484375 54.578125 44.65625 
Q 52.78125 42.828125 50.09375 42.828125 
Q 47.40625 42.828125 45.59375 44.65625 
Q 43.796875 46.484375 43.796875 49.03125 
Q 43.796875 51.5625 45.65625 53.359375 
Q 47.515625 55.171875 50.09375 55.171875 
z
M 50.09375 11.1875 
Q 52.6875 11.1875 54.53125 9.375 
Q 56.390625 7.5625 56.390625 4.984375 
Q 56.390625 2.34375 54.53125 0.5625 
Q 52.6875 -1.21875 50.09375 -1.21875 
Q 47.515625 -1.21875 45.65625 0.5625 
Q 43.796875 2.34375 43.796875 4.984375 
Q 43.796875 7.5625 45.65625 9.375 
Q 47.515625 11.1875 50.09375 11.1875 
z
" id="MicrosoftYaHei-ff1a"/>
      <path d="M 90.53125 25.828125 
Q 92.96875 24.65625 98.734375 22.90625 
Q 97.859375 12.0625 96.484375 4.046875 
Q 94.34375 -8.34375 79.203125 -8.453125 
Q 63.671875 -9.03125 49.703125 -8.453125 
Q 36.71875 -7.765625 33.984375 -0.140625 
Q 31.453125 7.671875 40.140625 19.78125 
Q 48.640625 31.390625 79.984375 67.625 
L 36.71875 67.625 
L 36.71875 75.34375 
L 90.140625 75.34375 
L 90.140625 66.265625 
Q 66.5 40.484375 49.03125 18.40625 
Q 40.828125 7.375 41.796875 3.375 
Q 42.1875 -0.734375 52.640625 -1.03125 
Q 64.546875 -1.515625 76.375 -0.921875 
Q 83.296875 -0.640625 85.546875 1.03125 
Q 88.09375 2.6875 88.875 7.859375 
Q 89.84375 13.234375 90.53125 25.828125 
z
M 1.375 34.515625 
Q 15.625 54.25 23.921875 82.859375 
L 31.9375 80.515625 
Q 27.9375 68.5625 23.25 58.0625 
L 23.25 -12.453125 
L 15.625 -12.453125 
L 15.625 42.828125 
Q 10.5 33.640625 4.6875 25.921875 
Q 3.328125 30.21875 1.375 34.515625 
z
" id="MicrosoftYaHei-4ebf"/>
      <path d="M 2.9375 48.1875 
L 97.265625 48.1875 
L 97.265625 40.765625 
L 66.40625 40.765625 
L 66.40625 2.6875 
Q 66.40625 -3.078125 72.265625 -3.078125 
L 80.671875 -3.078125 
Q 87.703125 -3.078125 88.671875 3.375 
Q 89.546875 8.84375 90.140625 17.234375 
Q 94.046875 15.875 98.640625 14.796875 
Q 97.65625 6.390625 96.578125 0.734375 
Q 94.625 -10.015625 82.421875 -10.015625 
L 70.515625 -10.015625 
Q 58.203125 -10.015625 58.203125 2 
L 58.203125 40.765625 
L 38.28125 40.765625 
L 38.28125 37.640625 
Q 38.28125 16.9375 32.03125 6.984375 
Q 25.78125 -3.859375 7.328125 -13.234375 
Q 3.8125 -8.9375 1.5625 -6.6875 
Q 18.453125 1.609375 24.3125 10.796875 
Q 30.078125 19.578125 30.078125 37.25 
L 30.078125 40.765625 
L 2.9375 40.765625 
z
M 12.3125 76.609375 
L 88.09375 76.609375 
L 88.09375 69.1875 
L 12.3125 69.1875 
z
" id="MicrosoftYaHei-5143"/>
      <path d="M 42.390625 -17.1875 
L 33.984375 -17.1875 
Q 51.3125 2.546875 51.3125 29.5 
Q 51.3125 55.953125 34.078125 75.59375 
L 42.390625 75.59375 
Q 59.71875 56.6875 59.71875 29.5 
Q 59.71875 2 42.390625 -17.1875 
z
" id="MicrosoftYaHei-ff09"/>
     </defs>
     <g transform="translate(299.461875 421.5045)scale(0.12 -0.12)">
      <use xlink:href="#MicrosoftYaHei-8425"/>
      <use x="100" xlink:href="#MicrosoftYaHei-4e1a"/>
      <use x="200" xlink:href="#MicrosoftYaHei-603b"/>
      <use x="300" xlink:href="#MicrosoftYaHei-6536"/>
      <use x="400" xlink:href="#MicrosoftYaHei-5165"/>
      <use x="500" xlink:href="#MicrosoftYaHei-ff08"/>
      <use x="600" xlink:href="#MicrosoftYaHei-5355"/>
      <use x="700" xlink:href="#MicrosoftYaHei-4f4d"/>
      <use x="800" xlink:href="#MicrosoftYaHei-ff1a"/>
      <use x="900" xlink:href="#MicrosoftYaHei-4ebf"/>
      <use x="1000" xlink:href="#MicrosoftYaHei-5143"/>
      <use x="1100" xlink:href="#MicrosoftYaHei-ff09"/>
     </g>
    </g>
    <path d="M 469.461875 419.3045 
L 493.461875 419.3045 
" style="fill:none;opacity:0.3;stroke:#000000;stroke-linecap:square;stroke-width:2;"/>
    <path d="M 467.461875 417.3045 
L 491.461875 417.3045 
" style="fill:none;stroke:#c00000;stroke-linecap:square;stroke-width:2;"/>
    <path d="M 481.461875 416.3045 
L 480.788333 418.377449 
L 478.608705 418.377449 
L 480.372061 419.658602 
L 479.698519 421.731551 
L 481.461875 420.450398 
L 483.225231 421.731551 
L 482.551689 419.658602 
L 484.315045 418.377449 
L 482.135417 418.377449 
z
" style="fill:none;opacity:0.3;stroke:#000000;stroke-linejoin:bevel;"/>
    <path d="M 479.461875 414.3045 
L 478.788333 416.377449 
L 476.608705 416.377449 
L 478.372061 417.658602 
L 477.698519 419.731551 
L 479.461875 418.450398 
L 481.225231 419.731551 
L 480.551689 417.658602 
L 482.315045 416.377449 
L 480.135417 416.377449 
z
" style="fill:#c00000;stroke:#c00000;stroke-linejoin:bevel;"/>
    <g id="text_27">
     <!-- 净利润率（单位：%） -->
     <defs>
      <path d="M 4.25 56.546875 
Q 4.25 65.828125 9.203125 71.296875 
Q 14.15625 76.765625 22.5625 76.765625 
Q 30.609375 76.765625 35.125 71.734375 
Q 39.65625 66.703125 39.65625 57.71875 
Q 39.65625 48.78125 34.671875 43.203125 
Q 29.6875 37.640625 21.4375 37.640625 
Q 13.625 37.640625 8.9375 42.8125 
Q 4.25 48 4.25 56.546875 
z
M 11.765625 57.03125 
Q 11.765625 50.734375 14.5 47.3125 
Q 17.234375 43.890625 21.96875 43.890625 
Q 26.859375 43.890625 29.515625 47.4375 
Q 32.171875 50.984375 32.171875 57.421875 
Q 32.171875 63.71875 29.5625 67.15625 
Q 26.953125 70.609375 22.21875 70.609375 
Q 17.390625 70.609375 14.578125 67.015625 
Q 11.765625 63.421875 11.765625 57.03125 
z
M 72.609375 75.640625 
L 24.03125 -0.484375 
L 15.875 -0.484375 
L 64.453125 75.640625 
z
M 49.5625 17.71875 
Q 49.5625 27 54.515625 32.546875 
Q 59.46875 38.09375 67.828125 38.09375 
Q 75.828125 38.09375 80.359375 33.03125 
Q 84.90625 27.984375 84.90625 18.796875 
Q 84.90625 9.90625 79.875 4.359375 
Q 74.859375 -1.171875 66.75 -1.171875 
Q 58.890625 -1.171875 54.21875 4.078125 
Q 49.5625 9.328125 49.5625 17.71875 
z
M 57.03125 18.171875 
Q 57.03125 12.015625 59.765625 8.5625 
Q 62.5 5.125 67.234375 5.125 
Q 72.125 5.125 74.78125 8.6875 
Q 77.4375 12.25 77.4375 18.65625 
Q 77.4375 25 74.78125 28.359375 
Q 72.125 31.734375 67.484375 31.734375 
Q 62.5 31.734375 59.765625 28.140625 
Q 57.03125 24.5625 57.03125 18.171875 
z
" id="MicrosoftYaHei-25"/>
     </defs>
     <g transform="translate(501.061875 421.5045)scale(0.12 -0.12)">
      <use xlink:href="#MicrosoftYaHei-51c0"/>
      <use x="100" xlink:href="#MicrosoftYaHei-5229"/>
      <use x="200" xlink:href="#MicrosoftYaHei-6da6"/>
      <use x="300" xlink:href="#MicrosoftYaHei-7387"/>
      <use x="400" xlink:href="#MicrosoftYaHei-ff08"/>
      <use x="500" xlink:href="#MicrosoftYaHei-5355"/>
      <use x="600" xlink:href="#MicrosoftYaHei-4f4d"/>
      <use x="700" xlink:href="#MicrosoftYaHei-ff1a"/>
      <use x="800" xlink:href="#MicrosoftYaHei-25"/>
      <use x="888.964844" xlink:href="#MicrosoftYaHei-ff09"/>
     </g>
    </g>
   </g>
  </g>
 </g>
 <defs>
  <clipPath id="p9b0acc7555">
   <rect height="332.64" width="669.6" x="108" y="51.84"/>
  </clipPath>
 </defs>
</svg>
