<?xml version="1.0" encoding="utf-8" standalone="no"?>
<!DOCTYPE svg PUBLIC "-//W3C//DTD SVG 1.1//EN"
  "http://www.w3.org/Graphics/SVG/1.1/DTD/svg11.dtd">
<!-- Created with matplotlib (http://matplotlib.org/) -->
<svg height="432pt" version="1.1" viewBox="0 0 864 432" width="864pt" xmlns="http://www.w3.org/2000/svg" xmlns:xlink="http://www.w3.org/1999/xlink">
 <defs>
  <style type="text/css">
*{stroke-linecap:butt;stroke-linejoin:round;}
  </style>
 </defs>
 <g id="figure_1">
  <g id="patch_1">
   <path d="M 0 432 
L 864 432 
L 864 0 
L 0 0 
z
" style="fill:#ffffff;"/>
  </g>
  <g id="axes_1">
   <g id="patch_2">
    <path d="M 108 384.48 
L 777.6 384.48 
L 777.6 51.84 
L 108 51.84 
z
" style="fill:#ffffff;"/>
   </g>
   <g id="patch_3">
    <path clip-path="url(#pbf5b9955f6)" d="M 138.436364 384.48 
L 151.206866 384.48 
L 151.206866 354.052881 
L 138.436364 354.052881 
z
" style="fill:#c00000;stroke-dasharray:11.1,4.8;stroke-dashoffset:0;"/>
   </g>
   <g id="patch_4">
    <path clip-path="url(#pbf5b9955f6)" d="M 181.004704 384.48 
L 193.775207 384.48 
L 193.775207 345.103729 
L 181.004704 345.103729 
z
" style="fill:#c00000;stroke-dasharray:11.1,4.8;stroke-dashoffset:0;"/>
   </g>
   <g id="patch_5">
    <path clip-path="url(#pbf5b9955f6)" d="M 223.573045 384.48 
L 236.343547 384.48 
L 236.343547 343.313898 
L 223.573045 343.313898 
z
" style="fill:#c00000;stroke-dasharray:11.1,4.8;stroke-dashoffset:0;"/>
   </g>
   <g id="patch_6">
    <path clip-path="url(#pbf5b9955f6)" d="M 266.141386 384.48 
L 278.911888 384.48 
L 278.911888 341.524068 
L 266.141386 341.524068 
z
" style="fill:#c00000;stroke-dasharray:11.1,4.8;stroke-dashoffset:0;"/>
   </g>
   <g id="patch_7">
    <path clip-path="url(#pbf5b9955f6)" d="M 308.709727 384.48 
L 321.480229 384.48 
L 321.480229 337.944407 
L 308.709727 337.944407 
z
" style="fill:#c00000;stroke-dasharray:11.1,4.8;stroke-dashoffset:0;"/>
   </g>
   <g id="patch_8">
    <path clip-path="url(#pbf5b9955f6)" d="M 351.278067 384.48 
L 364.04857 384.48 
L 364.04857 336.154576 
L 351.278067 336.154576 
z
" style="fill:#c00000;stroke-dasharray:11.1,4.8;stroke-dashoffset:0;"/>
   </g>
   <g id="patch_9">
    <path clip-path="url(#pbf5b9955f6)" d="M 393.846408 384.48 
L 406.61691 384.48 
L 406.61691 330.785085 
L 393.846408 330.785085 
z
" style="fill:#c00000;stroke-dasharray:11.1,4.8;stroke-dashoffset:0;"/>
   </g>
   <g id="patch_10">
    <path clip-path="url(#pbf5b9955f6)" d="M 436.414749 384.48 
L 449.185251 384.48 
L 449.185251 318.256271 
L 436.414749 318.256271 
z
" style="fill:#c00000;stroke-dasharray:11.1,4.8;stroke-dashoffset:0;"/>
   </g>
   <g id="patch_11">
    <path clip-path="url(#pbf5b9955f6)" d="M 478.98309 384.48 
L 491.753592 384.48 
L 491.753592 307.517288 
L 478.98309 307.517288 
z
" style="fill:#c00000;stroke-dasharray:11.1,4.8;stroke-dashoffset:0;"/>
   </g>
   <g id="patch_12">
    <path clip-path="url(#pbf5b9955f6)" d="M 521.55143 384.48 
L 534.321933 384.48 
L 534.321933 307.517288 
L 521.55143 307.517288 
z
" style="fill:#c00000;stroke-dasharray:11.1,4.8;stroke-dashoffset:0;"/>
   </g>
   <g id="patch_13">
    <path clip-path="url(#pbf5b9955f6)" d="M 564.119771 384.48 
L 576.890273 384.48 
L 576.890273 158.961356 
L 564.119771 158.961356 
z
" style="fill:#c00000;stroke-dasharray:11.1,4.8;stroke-dashoffset:0;"/>
   </g>
   <g id="patch_14">
    <path clip-path="url(#pbf5b9955f6)" d="M 606.688112 384.48 
L 619.458614 384.48 
L 619.458614 116.005424 
L 606.688112 116.005424 
z
" style="fill:#c00000;stroke-dasharray:11.1,4.8;stroke-dashoffset:0;"/>
   </g>
   <g id="patch_15">
    <path clip-path="url(#pbf5b9955f6)" d="M 649.256453 384.48 
L 662.026955 384.48 
L 662.026955 90.947797 
L 649.256453 90.947797 
z
" style="fill:#c00000;stroke-dasharray:11.1,4.8;stroke-dashoffset:0;"/>
   </g>
   <g id="patch_16">
    <path clip-path="url(#pbf5b9955f6)" d="M 691.824793 384.48 
L 704.595296 384.48 
L 704.595296 67.68 
L 691.824793 67.68 
z
" style="fill:#c00000;stroke-dasharray:11.1,4.8;stroke-dashoffset:0;"/>
   </g>
   <g id="patch_17">
    <path clip-path="url(#pbf5b9955f6)" d="M 734.393134 384.48 
L 747.163636 384.48 
L 747.163636 114.215593 
L 734.393134 114.215593 
z
" style="fill:#c00000;stroke-dasharray:11.1,4.8;stroke-dashoffset:0;"/>
   </g>
   <g id="matplotlib.axis_1">
    <g id="xtick_1">
     <g id="line2d_1">
      <defs>
       <path d="M 0 0 
L 0 2 
" id="m9f9c7a3889" style="stroke:#000000;stroke-width:2;"/>
      </defs>
      <g>
       <use style="stroke:#000000;stroke-width:2;" x="144.821615" xlink:href="#m9f9c7a3889" y="384.48"/>
      </g>
     </g>
     <g id="text_1">
      <!-- 2002 -->
      <defs>
       <path d="M 19.1875 8.296875 
L 53.609375 8.296875 
L 53.609375 0 
L 7.328125 0 
L 7.328125 8.296875 
Q 12.9375 14.109375 22.625 23.890625 
Q 32.328125 33.6875 34.8125 36.53125 
Q 39.546875 41.84375 41.421875 45.53125 
Q 43.3125 49.21875 43.3125 52.78125 
Q 43.3125 58.59375 39.234375 62.25 
Q 35.15625 65.921875 28.609375 65.921875 
Q 23.96875 65.921875 18.8125 64.3125 
Q 13.671875 62.703125 7.8125 59.421875 
L 7.8125 69.390625 
Q 13.765625 71.78125 18.9375 73 
Q 24.125 74.21875 28.421875 74.21875 
Q 39.75 74.21875 46.484375 68.546875 
Q 53.21875 62.890625 53.21875 53.421875 
Q 53.21875 48.921875 51.53125 44.890625 
Q 49.859375 40.875 45.40625 35.40625 
Q 44.1875 33.984375 37.640625 27.21875 
Q 31.109375 20.453125 19.1875 8.296875 
z
" id="DejaVuSans-32"/>
       <path d="M 31.78125 66.40625 
Q 24.171875 66.40625 20.328125 58.90625 
Q 16.5 51.421875 16.5 36.375 
Q 16.5 21.390625 20.328125 13.890625 
Q 24.171875 6.390625 31.78125 6.390625 
Q 39.453125 6.390625 43.28125 13.890625 
Q 47.125 21.390625 47.125 36.375 
Q 47.125 51.421875 43.28125 58.90625 
Q 39.453125 66.40625 31.78125 66.40625 
z
M 31.78125 74.21875 
Q 44.046875 74.21875 50.515625 64.515625 
Q 56.984375 54.828125 56.984375 36.375 
Q 56.984375 17.96875 50.515625 8.265625 
Q 44.046875 -1.421875 31.78125 -1.421875 
Q 19.53125 -1.421875 13.0625 8.265625 
Q 6.59375 17.96875 6.59375 36.375 
Q 6.59375 54.828125 13.0625 64.515625 
Q 19.53125 74.21875 31.78125 74.21875 
z
" id="DejaVuSans-30"/>
      </defs>
      <g transform="translate(132.096615 397.578438)scale(0.1 -0.1)">
       <use xlink:href="#DejaVuSans-32"/>
       <use x="63.623047" xlink:href="#DejaVuSans-30"/>
       <use x="127.246094" xlink:href="#DejaVuSans-30"/>
       <use x="190.869141" xlink:href="#DejaVuSans-32"/>
      </g>
     </g>
    </g>
    <g id="xtick_2">
     <g id="line2d_2">
      <g>
       <use style="stroke:#000000;stroke-width:2;" x="187.389955" xlink:href="#m9f9c7a3889" y="384.48"/>
      </g>
     </g>
     <g id="text_2">
      <!-- 2003 -->
      <defs>
       <path d="M 40.578125 39.3125 
Q 47.65625 37.796875 51.625 33 
Q 55.609375 28.21875 55.609375 21.1875 
Q 55.609375 10.40625 48.1875 4.484375 
Q 40.765625 -1.421875 27.09375 -1.421875 
Q 22.515625 -1.421875 17.65625 -0.515625 
Q 12.796875 0.390625 7.625 2.203125 
L 7.625 11.71875 
Q 11.71875 9.328125 16.59375 8.109375 
Q 21.484375 6.890625 26.8125 6.890625 
Q 36.078125 6.890625 40.9375 10.546875 
Q 45.796875 14.203125 45.796875 21.1875 
Q 45.796875 27.640625 41.28125 31.265625 
Q 36.765625 34.90625 28.71875 34.90625 
L 20.21875 34.90625 
L 20.21875 43.015625 
L 29.109375 43.015625 
Q 36.375 43.015625 40.234375 45.921875 
Q 44.09375 48.828125 44.09375 54.296875 
Q 44.09375 59.90625 40.109375 62.90625 
Q 36.140625 65.921875 28.71875 65.921875 
Q 24.65625 65.921875 20.015625 65.03125 
Q 15.375 64.15625 9.8125 62.3125 
L 9.8125 71.09375 
Q 15.4375 72.65625 20.34375 73.4375 
Q 25.25 74.21875 29.59375 74.21875 
Q 40.828125 74.21875 47.359375 69.109375 
Q 53.90625 64.015625 53.90625 55.328125 
Q 53.90625 49.265625 50.4375 45.09375 
Q 46.96875 40.921875 40.578125 39.3125 
z
" id="DejaVuSans-33"/>
      </defs>
      <g transform="translate(174.664955 397.578438)scale(0.1 -0.1)">
       <use xlink:href="#DejaVuSans-32"/>
       <use x="63.623047" xlink:href="#DejaVuSans-30"/>
       <use x="127.246094" xlink:href="#DejaVuSans-30"/>
       <use x="190.869141" xlink:href="#DejaVuSans-33"/>
      </g>
     </g>
    </g>
    <g id="xtick_3">
     <g id="line2d_3">
      <g>
       <use style="stroke:#000000;stroke-width:2;" x="229.958296" xlink:href="#m9f9c7a3889" y="384.48"/>
      </g>
     </g>
     <g id="text_3">
      <!-- 2004 -->
      <defs>
       <path d="M 37.796875 64.3125 
L 12.890625 25.390625 
L 37.796875 25.390625 
z
M 35.203125 72.90625 
L 47.609375 72.90625 
L 47.609375 25.390625 
L 58.015625 25.390625 
L 58.015625 17.1875 
L 47.609375 17.1875 
L 47.609375 0 
L 37.796875 0 
L 37.796875 17.1875 
L 4.890625 17.1875 
L 4.890625 26.703125 
z
" id="DejaVuSans-34"/>
      </defs>
      <g transform="translate(217.233296 397.578438)scale(0.1 -0.1)">
       <use xlink:href="#DejaVuSans-32"/>
       <use x="63.623047" xlink:href="#DejaVuSans-30"/>
       <use x="127.246094" xlink:href="#DejaVuSans-30"/>
       <use x="190.869141" xlink:href="#DejaVuSans-34"/>
      </g>
     </g>
    </g>
    <g id="xtick_4">
     <g id="line2d_4">
      <g>
       <use style="stroke:#000000;stroke-width:2;" x="272.526637" xlink:href="#m9f9c7a3889" y="384.48"/>
      </g>
     </g>
     <g id="text_4">
      <!-- 2005 -->
      <defs>
       <path d="M 10.796875 72.90625 
L 49.515625 72.90625 
L 49.515625 64.59375 
L 19.828125 64.59375 
L 19.828125 46.734375 
Q 21.96875 47.46875 24.109375 47.828125 
Q 26.265625 48.1875 28.421875 48.1875 
Q 40.625 48.1875 47.75 41.5 
Q 54.890625 34.8125 54.890625 23.390625 
Q 54.890625 11.625 47.5625 5.09375 
Q 40.234375 -1.421875 26.90625 -1.421875 
Q 22.3125 -1.421875 17.546875 -0.640625 
Q 12.796875 0.140625 7.71875 1.703125 
L 7.71875 11.625 
Q 12.109375 9.234375 16.796875 8.0625 
Q 21.484375 6.890625 26.703125 6.890625 
Q 35.15625 6.890625 40.078125 11.328125 
Q 45.015625 15.765625 45.015625 23.390625 
Q 45.015625 31 40.078125 35.4375 
Q 35.15625 39.890625 26.703125 39.890625 
Q 22.75 39.890625 18.8125 39.015625 
Q 14.890625 38.140625 10.796875 36.28125 
z
" id="DejaVuSans-35"/>
      </defs>
      <g transform="translate(259.801637 397.578438)scale(0.1 -0.1)">
       <use xlink:href="#DejaVuSans-32"/>
       <use x="63.623047" xlink:href="#DejaVuSans-30"/>
       <use x="127.246094" xlink:href="#DejaVuSans-30"/>
       <use x="190.869141" xlink:href="#DejaVuSans-35"/>
      </g>
     </g>
    </g>
    <g id="xtick_5">
     <g id="line2d_5">
      <g>
       <use style="stroke:#000000;stroke-width:2;" x="315.094978" xlink:href="#m9f9c7a3889" y="384.48"/>
      </g>
     </g>
     <g id="text_5">
      <!-- 2006 -->
      <defs>
       <path d="M 33.015625 40.375 
Q 26.375 40.375 22.484375 35.828125 
Q 18.609375 31.296875 18.609375 23.390625 
Q 18.609375 15.53125 22.484375 10.953125 
Q 26.375 6.390625 33.015625 6.390625 
Q 39.65625 6.390625 43.53125 10.953125 
Q 47.40625 15.53125 47.40625 23.390625 
Q 47.40625 31.296875 43.53125 35.828125 
Q 39.65625 40.375 33.015625 40.375 
z
M 52.59375 71.296875 
L 52.59375 62.3125 
Q 48.875 64.0625 45.09375 64.984375 
Q 41.3125 65.921875 37.59375 65.921875 
Q 27.828125 65.921875 22.671875 59.328125 
Q 17.53125 52.734375 16.796875 39.40625 
Q 19.671875 43.65625 24.015625 45.921875 
Q 28.375 48.1875 33.59375 48.1875 
Q 44.578125 48.1875 50.953125 41.515625 
Q 57.328125 34.859375 57.328125 23.390625 
Q 57.328125 12.15625 50.6875 5.359375 
Q 44.046875 -1.421875 33.015625 -1.421875 
Q 20.359375 -1.421875 13.671875 8.265625 
Q 6.984375 17.96875 6.984375 36.375 
Q 6.984375 53.65625 15.1875 63.9375 
Q 23.390625 74.21875 37.203125 74.21875 
Q 40.921875 74.21875 44.703125 73.484375 
Q 48.484375 72.75 52.59375 71.296875 
z
" id="DejaVuSans-36"/>
      </defs>
      <g transform="translate(302.369978 397.578438)scale(0.1 -0.1)">
       <use xlink:href="#DejaVuSans-32"/>
       <use x="63.623047" xlink:href="#DejaVuSans-30"/>
       <use x="127.246094" xlink:href="#DejaVuSans-30"/>
       <use x="190.869141" xlink:href="#DejaVuSans-36"/>
      </g>
     </g>
    </g>
    <g id="xtick_6">
     <g id="line2d_6">
      <g>
       <use style="stroke:#000000;stroke-width:2;" x="357.663318" xlink:href="#m9f9c7a3889" y="384.48"/>
      </g>
     </g>
     <g id="text_6">
      <!-- 2007 -->
      <defs>
       <path d="M 8.203125 72.90625 
L 55.078125 72.90625 
L 55.078125 68.703125 
L 28.609375 0 
L 18.3125 0 
L 43.21875 64.59375 
L 8.203125 64.59375 
z
" id="DejaVuSans-37"/>
      </defs>
      <g transform="translate(344.938318 397.578438)scale(0.1 -0.1)">
       <use xlink:href="#DejaVuSans-32"/>
       <use x="63.623047" xlink:href="#DejaVuSans-30"/>
       <use x="127.246094" xlink:href="#DejaVuSans-30"/>
       <use x="190.869141" xlink:href="#DejaVuSans-37"/>
      </g>
     </g>
    </g>
    <g id="xtick_7">
     <g id="line2d_7">
      <g>
       <use style="stroke:#000000;stroke-width:2;" x="400.231659" xlink:href="#m9f9c7a3889" y="384.48"/>
      </g>
     </g>
     <g id="text_7">
      <!-- 2008 -->
      <defs>
       <path d="M 31.78125 34.625 
Q 24.75 34.625 20.71875 30.859375 
Q 16.703125 27.09375 16.703125 20.515625 
Q 16.703125 13.921875 20.71875 10.15625 
Q 24.75 6.390625 31.78125 6.390625 
Q 38.8125 6.390625 42.859375 10.171875 
Q 46.921875 13.96875 46.921875 20.515625 
Q 46.921875 27.09375 42.890625 30.859375 
Q 38.875 34.625 31.78125 34.625 
z
M 21.921875 38.8125 
Q 15.578125 40.375 12.03125 44.71875 
Q 8.5 49.078125 8.5 55.328125 
Q 8.5 64.0625 14.71875 69.140625 
Q 20.953125 74.21875 31.78125 74.21875 
Q 42.671875 74.21875 48.875 69.140625 
Q 55.078125 64.0625 55.078125 55.328125 
Q 55.078125 49.078125 51.53125 44.71875 
Q 48 40.375 41.703125 38.8125 
Q 48.828125 37.15625 52.796875 32.3125 
Q 56.78125 27.484375 56.78125 20.515625 
Q 56.78125 9.90625 50.3125 4.234375 
Q 43.84375 -1.421875 31.78125 -1.421875 
Q 19.734375 -1.421875 13.25 4.234375 
Q 6.78125 9.90625 6.78125 20.515625 
Q 6.78125 27.484375 10.78125 32.3125 
Q 14.796875 37.15625 21.921875 38.8125 
z
M 18.3125 54.390625 
Q 18.3125 48.734375 21.84375 45.5625 
Q 25.390625 42.390625 31.78125 42.390625 
Q 38.140625 42.390625 41.71875 45.5625 
Q 45.3125 48.734375 45.3125 54.390625 
Q 45.3125 60.0625 41.71875 63.234375 
Q 38.140625 66.40625 31.78125 66.40625 
Q 25.390625 66.40625 21.84375 63.234375 
Q 18.3125 60.0625 18.3125 54.390625 
z
" id="DejaVuSans-38"/>
      </defs>
      <g transform="translate(387.506659 397.578438)scale(0.1 -0.1)">
       <use xlink:href="#DejaVuSans-32"/>
       <use x="63.623047" xlink:href="#DejaVuSans-30"/>
       <use x="127.246094" xlink:href="#DejaVuSans-30"/>
       <use x="190.869141" xlink:href="#DejaVuSans-38"/>
      </g>
     </g>
    </g>
    <g id="xtick_8">
     <g id="line2d_8">
      <g>
       <use style="stroke:#000000;stroke-width:2;" x="442.8" xlink:href="#m9f9c7a3889" y="384.48"/>
      </g>
     </g>
     <g id="text_8">
      <!-- 2009 -->
      <defs>
       <path d="M 10.984375 1.515625 
L 10.984375 10.5 
Q 14.703125 8.734375 18.5 7.8125 
Q 22.3125 6.890625 25.984375 6.890625 
Q 35.75 6.890625 40.890625 13.453125 
Q 46.046875 20.015625 46.78125 33.40625 
Q 43.953125 29.203125 39.59375 26.953125 
Q 35.25 24.703125 29.984375 24.703125 
Q 19.046875 24.703125 12.671875 31.3125 
Q 6.296875 37.9375 6.296875 49.421875 
Q 6.296875 60.640625 12.9375 67.421875 
Q 19.578125 74.21875 30.609375 74.21875 
Q 43.265625 74.21875 49.921875 64.515625 
Q 56.59375 54.828125 56.59375 36.375 
Q 56.59375 19.140625 48.40625 8.859375 
Q 40.234375 -1.421875 26.421875 -1.421875 
Q 22.703125 -1.421875 18.890625 -0.6875 
Q 15.09375 0.046875 10.984375 1.515625 
z
M 30.609375 32.421875 
Q 37.25 32.421875 41.125 36.953125 
Q 45.015625 41.5 45.015625 49.421875 
Q 45.015625 57.28125 41.125 61.84375 
Q 37.25 66.40625 30.609375 66.40625 
Q 23.96875 66.40625 20.09375 61.84375 
Q 16.21875 57.28125 16.21875 49.421875 
Q 16.21875 41.5 20.09375 36.953125 
Q 23.96875 32.421875 30.609375 32.421875 
z
" id="DejaVuSans-39"/>
      </defs>
      <g transform="translate(430.075 397.578438)scale(0.1 -0.1)">
       <use xlink:href="#DejaVuSans-32"/>
       <use x="63.623047" xlink:href="#DejaVuSans-30"/>
       <use x="127.246094" xlink:href="#DejaVuSans-30"/>
       <use x="190.869141" xlink:href="#DejaVuSans-39"/>
      </g>
     </g>
    </g>
    <g id="xtick_9">
     <g id="line2d_9">
      <g>
       <use style="stroke:#000000;stroke-width:2;" x="485.368341" xlink:href="#m9f9c7a3889" y="384.48"/>
      </g>
     </g>
     <g id="text_9">
      <!-- 2010 -->
      <defs>
       <path d="M 12.40625 8.296875 
L 28.515625 8.296875 
L 28.515625 63.921875 
L 10.984375 60.40625 
L 10.984375 69.390625 
L 28.421875 72.90625 
L 38.28125 72.90625 
L 38.28125 8.296875 
L 54.390625 8.296875 
L 54.390625 0 
L 12.40625 0 
z
" id="DejaVuSans-31"/>
      </defs>
      <g transform="translate(472.643341 397.578438)scale(0.1 -0.1)">
       <use xlink:href="#DejaVuSans-32"/>
       <use x="63.623047" xlink:href="#DejaVuSans-30"/>
       <use x="127.246094" xlink:href="#DejaVuSans-31"/>
       <use x="190.869141" xlink:href="#DejaVuSans-30"/>
      </g>
     </g>
    </g>
    <g id="xtick_10">
     <g id="line2d_10">
      <g>
       <use style="stroke:#000000;stroke-width:2;" x="527.936682" xlink:href="#m9f9c7a3889" y="384.48"/>
      </g>
     </g>
     <g id="text_10">
      <!-- 2011 -->
      <g transform="translate(515.211682 397.578438)scale(0.1 -0.1)">
       <use xlink:href="#DejaVuSans-32"/>
       <use x="63.623047" xlink:href="#DejaVuSans-30"/>
       <use x="127.246094" xlink:href="#DejaVuSans-31"/>
       <use x="190.869141" xlink:href="#DejaVuSans-31"/>
      </g>
     </g>
    </g>
    <g id="xtick_11">
     <g id="line2d_11">
      <g>
       <use style="stroke:#000000;stroke-width:2;" x="570.505022" xlink:href="#m9f9c7a3889" y="384.48"/>
      </g>
     </g>
     <g id="text_11">
      <!-- 2012 -->
      <g transform="translate(557.780022 397.578438)scale(0.1 -0.1)">
       <use xlink:href="#DejaVuSans-32"/>
       <use x="63.623047" xlink:href="#DejaVuSans-30"/>
       <use x="127.246094" xlink:href="#DejaVuSans-31"/>
       <use x="190.869141" xlink:href="#DejaVuSans-32"/>
      </g>
     </g>
    </g>
    <g id="xtick_12">
     <g id="line2d_12">
      <g>
       <use style="stroke:#000000;stroke-width:2;" x="613.073363" xlink:href="#m9f9c7a3889" y="384.48"/>
      </g>
     </g>
     <g id="text_12">
      <!-- 2013 -->
      <g transform="translate(600.348363 397.578438)scale(0.1 -0.1)">
       <use xlink:href="#DejaVuSans-32"/>
       <use x="63.623047" xlink:href="#DejaVuSans-30"/>
       <use x="127.246094" xlink:href="#DejaVuSans-31"/>
       <use x="190.869141" xlink:href="#DejaVuSans-33"/>
      </g>
     </g>
    </g>
    <g id="xtick_13">
     <g id="line2d_13">
      <g>
       <use style="stroke:#000000;stroke-width:2;" x="655.641704" xlink:href="#m9f9c7a3889" y="384.48"/>
      </g>
     </g>
     <g id="text_13">
      <!-- 2014 -->
      <g transform="translate(642.916704 397.578438)scale(0.1 -0.1)">
       <use xlink:href="#DejaVuSans-32"/>
       <use x="63.623047" xlink:href="#DejaVuSans-30"/>
       <use x="127.246094" xlink:href="#DejaVuSans-31"/>
       <use x="190.869141" xlink:href="#DejaVuSans-34"/>
      </g>
     </g>
    </g>
    <g id="xtick_14">
     <g id="line2d_14">
      <g>
       <use style="stroke:#000000;stroke-width:2;" x="698.210045" xlink:href="#m9f9c7a3889" y="384.48"/>
      </g>
     </g>
     <g id="text_14">
      <!-- 2015 -->
      <g transform="translate(685.485045 397.578438)scale(0.1 -0.1)">
       <use xlink:href="#DejaVuSans-32"/>
       <use x="63.623047" xlink:href="#DejaVuSans-30"/>
       <use x="127.246094" xlink:href="#DejaVuSans-31"/>
       <use x="190.869141" xlink:href="#DejaVuSans-35"/>
      </g>
     </g>
    </g>
    <g id="xtick_15">
     <g id="line2d_15">
      <g>
       <use style="stroke:#000000;stroke-width:2;" x="740.778385" xlink:href="#m9f9c7a3889" y="384.48"/>
      </g>
     </g>
     <g id="text_15">
      <!-- 2016 -->
      <g transform="translate(728.053385 397.578438)scale(0.1 -0.1)">
       <use xlink:href="#DejaVuSans-32"/>
       <use x="63.623047" xlink:href="#DejaVuSans-30"/>
       <use x="127.246094" xlink:href="#DejaVuSans-31"/>
       <use x="190.869141" xlink:href="#DejaVuSans-36"/>
      </g>
     </g>
    </g>
   </g>
   <g id="matplotlib.axis_2">
    <g id="ytick_1">
     <g id="line2d_16">
      <defs>
       <path d="M 0 0 
L -2 0 
" id="m37da1ebbf1" style="stroke:#000000;stroke-width:2;"/>
      </defs>
      <g>
       <use style="stroke:#000000;stroke-width:2;" x="108" xlink:href="#m37da1ebbf1" y="384.48"/>
      </g>
     </g>
     <g id="text_16">
      <!-- 0 -->
      <g transform="translate(96.1375 388.279219)scale(0.1 -0.1)">
       <use xlink:href="#DejaVuSans-30"/>
      </g>
     </g>
    </g>
    <g id="ytick_2">
     <g id="line2d_17">
      <g>
       <use style="stroke:#000000;stroke-width:2;" x="108" xlink:href="#m37da1ebbf1" y="339.734237"/>
      </g>
     </g>
     <g id="text_17">
      <!-- 25 -->
      <g transform="translate(89.775 343.533456)scale(0.1 -0.1)">
       <use xlink:href="#DejaVuSans-32"/>
       <use x="63.623047" xlink:href="#DejaVuSans-35"/>
      </g>
     </g>
    </g>
    <g id="ytick_3">
     <g id="line2d_18">
      <g>
       <use style="stroke:#000000;stroke-width:2;" x="108" xlink:href="#m37da1ebbf1" y="294.988475"/>
      </g>
     </g>
     <g id="text_18">
      <!-- 50 -->
      <g transform="translate(89.775 298.787693)scale(0.1 -0.1)">
       <use xlink:href="#DejaVuSans-35"/>
       <use x="63.623047" xlink:href="#DejaVuSans-30"/>
      </g>
     </g>
    </g>
    <g id="ytick_4">
     <g id="line2d_19">
      <g>
       <use style="stroke:#000000;stroke-width:2;" x="108" xlink:href="#m37da1ebbf1" y="250.242712"/>
      </g>
     </g>
     <g id="text_19">
      <!-- 75 -->
      <g transform="translate(89.775 254.041931)scale(0.1 -0.1)">
       <use xlink:href="#DejaVuSans-37"/>
       <use x="63.623047" xlink:href="#DejaVuSans-35"/>
      </g>
     </g>
    </g>
    <g id="ytick_5">
     <g id="line2d_20">
      <g>
       <use style="stroke:#000000;stroke-width:2;" x="108" xlink:href="#m37da1ebbf1" y="205.496949"/>
      </g>
     </g>
     <g id="text_20">
      <!-- 100 -->
      <g transform="translate(83.4125 209.296168)scale(0.1 -0.1)">
       <use xlink:href="#DejaVuSans-31"/>
       <use x="63.623047" xlink:href="#DejaVuSans-30"/>
       <use x="127.246094" xlink:href="#DejaVuSans-30"/>
      </g>
     </g>
    </g>
    <g id="ytick_6">
     <g id="line2d_21">
      <g>
       <use style="stroke:#000000;stroke-width:2;" x="108" xlink:href="#m37da1ebbf1" y="160.751186"/>
      </g>
     </g>
     <g id="text_21">
      <!-- 125 -->
      <g transform="translate(83.4125 164.550405)scale(0.1 -0.1)">
       <use xlink:href="#DejaVuSans-31"/>
       <use x="63.623047" xlink:href="#DejaVuSans-32"/>
       <use x="127.246094" xlink:href="#DejaVuSans-35"/>
      </g>
     </g>
    </g>
    <g id="ytick_7">
     <g id="line2d_22">
      <g>
       <use style="stroke:#000000;stroke-width:2;" x="108" xlink:href="#m37da1ebbf1" y="116.005424"/>
      </g>
     </g>
     <g id="text_22">
      <!-- 150 -->
      <g transform="translate(83.4125 119.804642)scale(0.1 -0.1)">
       <use xlink:href="#DejaVuSans-31"/>
       <use x="63.623047" xlink:href="#DejaVuSans-35"/>
       <use x="127.246094" xlink:href="#DejaVuSans-30"/>
      </g>
     </g>
    </g>
    <g id="ytick_8">
     <g id="line2d_23">
      <g>
       <use style="stroke:#000000;stroke-width:2;" x="108" xlink:href="#m37da1ebbf1" y="71.259661"/>
      </g>
     </g>
     <g id="text_23">
      <!-- 175 -->
      <g transform="translate(83.4125 75.05888)scale(0.1 -0.1)">
       <use xlink:href="#DejaVuSans-31"/>
       <use x="63.623047" xlink:href="#DejaVuSans-37"/>
       <use x="127.246094" xlink:href="#DejaVuSans-35"/>
      </g>
     </g>
    </g>
   </g>
   <g id="patch_18">
    <path d="M 108 384.48 
L 108 51.84 
" style="fill:none;stroke:#000000;stroke-linecap:square;stroke-linejoin:miter;stroke-width:0.8;"/>
   </g>
   <g id="patch_19">
    <path d="M 777.6 384.48 
L 777.6 51.84 
" style="fill:none;stroke:#000000;stroke-linecap:square;stroke-linejoin:miter;stroke-width:0.8;"/>
   </g>
   <g id="patch_20">
    <path d="M 108 384.48 
L 777.6 384.48 
" style="fill:none;stroke:#000000;stroke-linecap:square;stroke-linejoin:miter;stroke-width:0.8;"/>
   </g>
   <g id="patch_21">
    <path d="M 108 51.84 
L 777.6 51.84 
" style="fill:none;stroke:#000000;stroke-linecap:square;stroke-linejoin:miter;stroke-width:0.8;"/>
   </g>
  </g>
  <g id="axes_2">
   <g id="matplotlib.axis_3">
    <g id="ytick_9">
     <g id="line2d_24">
      <path clip-path="url(#pbf5b9955f6)" d="M 108 351.768024 
L 777.6 351.768024 
" style="fill:none;stroke:#b0b0b0;stroke-dasharray:2.96,1.28;stroke-dashoffset:0;stroke-width:0.8;"/>
     </g>
     <g id="line2d_25">
      <defs>
       <path d="M 0 0 
L 2 0 
" id="ma8a7f54874" style="stroke:#000000;stroke-width:2;"/>
      </defs>
      <g>
       <use style="stroke:#000000;stroke-width:2;" x="777.6" xlink:href="#ma8a7f54874" y="351.768024"/>
      </g>
     </g>
     <g id="text_24">
      <!-- 15.0 -->
      <defs>
       <path d="M 10.6875 12.40625 
L 21 12.40625 
L 21 0 
L 10.6875 0 
z
" id="DejaVuSans-2e"/>
      </defs>
      <g transform="translate(783.1 355.567243)scale(0.1 -0.1)">
       <use xlink:href="#DejaVuSans-31"/>
       <use x="63.623047" xlink:href="#DejaVuSans-35"/>
       <use x="127.246094" xlink:href="#DejaVuSans-2e"/>
       <use x="159.033203" xlink:href="#DejaVuSans-30"/>
      </g>
     </g>
    </g>
    <g id="ytick_10">
     <g id="line2d_26">
      <path clip-path="url(#pbf5b9955f6)" d="M 108 313.854283 
L 777.6 313.854283 
" style="fill:none;stroke:#b0b0b0;stroke-dasharray:2.96,1.28;stroke-dashoffset:0;stroke-width:0.8;"/>
     </g>
     <g id="line2d_27">
      <g>
       <use style="stroke:#000000;stroke-width:2;" x="777.6" xlink:href="#ma8a7f54874" y="313.854283"/>
      </g>
     </g>
     <g id="text_25">
      <!-- 17.5 -->
      <g transform="translate(783.1 317.653502)scale(0.1 -0.1)">
       <use xlink:href="#DejaVuSans-31"/>
       <use x="63.623047" xlink:href="#DejaVuSans-37"/>
       <use x="127.246094" xlink:href="#DejaVuSans-2e"/>
       <use x="159.033203" xlink:href="#DejaVuSans-35"/>
      </g>
     </g>
    </g>
    <g id="ytick_11">
     <g id="line2d_28">
      <path clip-path="url(#pbf5b9955f6)" d="M 108 275.940542 
L 777.6 275.940542 
" style="fill:none;stroke:#b0b0b0;stroke-dasharray:2.96,1.28;stroke-dashoffset:0;stroke-width:0.8;"/>
     </g>
     <g id="line2d_29">
      <g>
       <use style="stroke:#000000;stroke-width:2;" x="777.6" xlink:href="#ma8a7f54874" y="275.940542"/>
      </g>
     </g>
     <g id="text_26">
      <!-- 20.0 -->
      <g transform="translate(783.1 279.73976)scale(0.1 -0.1)">
       <use xlink:href="#DejaVuSans-32"/>
       <use x="63.623047" xlink:href="#DejaVuSans-30"/>
       <use x="127.246094" xlink:href="#DejaVuSans-2e"/>
       <use x="159.033203" xlink:href="#DejaVuSans-30"/>
      </g>
     </g>
    </g>
    <g id="ytick_12">
     <g id="line2d_30">
      <path clip-path="url(#pbf5b9955f6)" d="M 108 238.0268 
L 777.6 238.0268 
" style="fill:none;stroke:#b0b0b0;stroke-dasharray:2.96,1.28;stroke-dashoffset:0;stroke-width:0.8;"/>
     </g>
     <g id="line2d_31">
      <g>
       <use style="stroke:#000000;stroke-width:2;" x="777.6" xlink:href="#ma8a7f54874" y="238.0268"/>
      </g>
     </g>
     <g id="text_27">
      <!-- 22.5 -->
      <g transform="translate(783.1 241.826019)scale(0.1 -0.1)">
       <use xlink:href="#DejaVuSans-32"/>
       <use x="63.623047" xlink:href="#DejaVuSans-32"/>
       <use x="127.246094" xlink:href="#DejaVuSans-2e"/>
       <use x="159.033203" xlink:href="#DejaVuSans-35"/>
      </g>
     </g>
    </g>
    <g id="ytick_13">
     <g id="line2d_32">
      <path clip-path="url(#pbf5b9955f6)" d="M 108 200.113059 
L 777.6 200.113059 
" style="fill:none;stroke:#b0b0b0;stroke-dasharray:2.96,1.28;stroke-dashoffset:0;stroke-width:0.8;"/>
     </g>
     <g id="line2d_33">
      <g>
       <use style="stroke:#000000;stroke-width:2;" x="777.6" xlink:href="#ma8a7f54874" y="200.113059"/>
      </g>
     </g>
     <g id="text_28">
      <!-- 25.0 -->
      <g transform="translate(783.1 203.912278)scale(0.1 -0.1)">
       <use xlink:href="#DejaVuSans-32"/>
       <use x="63.623047" xlink:href="#DejaVuSans-35"/>
       <use x="127.246094" xlink:href="#DejaVuSans-2e"/>
       <use x="159.033203" xlink:href="#DejaVuSans-30"/>
      </g>
     </g>
    </g>
    <g id="ytick_14">
     <g id="line2d_34">
      <path clip-path="url(#pbf5b9955f6)" d="M 108 162.199318 
L 777.6 162.199318 
" style="fill:none;stroke:#b0b0b0;stroke-dasharray:2.96,1.28;stroke-dashoffset:0;stroke-width:0.8;"/>
     </g>
     <g id="line2d_35">
      <g>
       <use style="stroke:#000000;stroke-width:2;" x="777.6" xlink:href="#ma8a7f54874" y="162.199318"/>
      </g>
     </g>
     <g id="text_29">
      <!-- 27.5 -->
      <g transform="translate(783.1 165.998537)scale(0.1 -0.1)">
       <use xlink:href="#DejaVuSans-32"/>
       <use x="63.623047" xlink:href="#DejaVuSans-37"/>
       <use x="127.246094" xlink:href="#DejaVuSans-2e"/>
       <use x="159.033203" xlink:href="#DejaVuSans-35"/>
      </g>
     </g>
    </g>
    <g id="ytick_15">
     <g id="line2d_36">
      <path clip-path="url(#pbf5b9955f6)" d="M 108 124.285577 
L 777.6 124.285577 
" style="fill:none;stroke:#b0b0b0;stroke-dasharray:2.96,1.28;stroke-dashoffset:0;stroke-width:0.8;"/>
     </g>
     <g id="line2d_37">
      <g>
       <use style="stroke:#000000;stroke-width:2;" x="777.6" xlink:href="#ma8a7f54874" y="124.285577"/>
      </g>
     </g>
     <g id="text_30">
      <!-- 30.0 -->
      <g transform="translate(783.1 128.084795)scale(0.1 -0.1)">
       <use xlink:href="#DejaVuSans-33"/>
       <use x="63.623047" xlink:href="#DejaVuSans-30"/>
       <use x="127.246094" xlink:href="#DejaVuSans-2e"/>
       <use x="159.033203" xlink:href="#DejaVuSans-30"/>
      </g>
     </g>
    </g>
    <g id="ytick_16">
     <g id="line2d_38">
      <path clip-path="url(#pbf5b9955f6)" d="M 108 86.371836 
L 777.6 86.371836 
" style="fill:none;stroke:#b0b0b0;stroke-dasharray:2.96,1.28;stroke-dashoffset:0;stroke-width:0.8;"/>
     </g>
     <g id="line2d_39">
      <g>
       <use style="stroke:#000000;stroke-width:2;" x="777.6" xlink:href="#ma8a7f54874" y="86.371836"/>
      </g>
     </g>
     <g id="text_31">
      <!-- 32.5 -->
      <g transform="translate(783.1 90.171054)scale(0.1 -0.1)">
       <use xlink:href="#DejaVuSans-33"/>
       <use x="63.623047" xlink:href="#DejaVuSans-32"/>
       <use x="127.246094" xlink:href="#DejaVuSans-2e"/>
       <use x="159.033203" xlink:href="#DejaVuSans-35"/>
      </g>
     </g>
    </g>
   </g>
   <path clip-path="url(#pbf5b9955f6)" d="M 146.821615 371.36 
L 189.389955 363.473942 
L 231.958296 341.332317 
L 274.526637 292.651073 
L 317.094978 254.434022 
L 359.663318 215.458696 
L 402.231659 171.630411 
L 444.8 130.076951 
L 487.368341 80.940742 
L 529.936682 68.96 
L 572.505022 210.454082 
L 615.073363 169.962207 
L 657.641704 190.435627 
L 700.210045 202.568024 
L 742.778385 122.190893 
" style="fill:none;opacity:0.3;stroke:#000000;stroke-linecap:square;stroke-width:2.5;"/>
   <path clip-path="url(#pbf5b9955f6)" d="M 144.821615 369.36 
L 187.389955 361.473942 
L 229.958296 339.332317 
L 272.526637 290.651073 
L 315.094978 252.434022 
L 357.663318 213.458696 
L 400.231659 169.630411 
L 442.8 128.076951 
L 485.368341 78.940742 
L 527.936682 66.96 
L 570.505022 208.454082 
L 613.073363 167.962207 
L 655.641704 188.435627 
L 698.210045 200.568024 
L 740.778385 120.190893 
" style="fill:none;stroke:#7f7f7f;stroke-linecap:square;stroke-width:2.5;"/>
   <path clip-path="url(#pbf5b9955f6)" d="M 146.821615 368.36 
L 146.148073 370.432949 
L 143.968445 370.432949 
L 145.731801 371.714102 
L 145.058259 373.787051 
L 146.821615 372.505898 
L 148.584971 373.787051 
L 147.911429 371.714102 
L 149.674784 370.432949 
L 147.495157 370.432949 
z
" style="fill:none;opacity:0.3;stroke:#000000;stroke-linejoin:bevel;"/>
   <path clip-path="url(#pbf5b9955f6)" d="M 189.389955 360.473942 
L 188.716414 362.546891 
L 186.536786 362.546891 
L 188.300142 363.828044 
L 187.6266 365.900993 
L 189.389955 364.61984 
L 191.153311 365.900993 
L 190.479769 363.828044 
L 192.243125 362.546891 
L 190.063497 362.546891 
z
" style="fill:none;opacity:0.3;stroke:#000000;stroke-linejoin:bevel;"/>
   <path clip-path="url(#pbf5b9955f6)" d="M 231.958296 338.332317 
L 231.284754 340.405266 
L 229.105127 340.405266 
L 230.868482 341.686419 
L 230.19494 343.759368 
L 231.958296 342.478215 
L 233.721652 343.759368 
L 233.04811 341.686419 
L 234.811466 340.405266 
L 232.631838 340.405266 
z
" style="fill:none;opacity:0.3;stroke:#000000;stroke-linejoin:bevel;"/>
   <path clip-path="url(#pbf5b9955f6)" d="M 274.526637 289.651073 
L 273.853095 291.724022 
L 271.673467 291.724022 
L 273.436823 293.005175 
L 272.763281 295.078124 
L 274.526637 293.796971 
L 276.289993 295.078124 
L 275.616451 293.005175 
L 277.379807 291.724022 
L 275.200179 291.724022 
z
" style="fill:none;opacity:0.3;stroke:#000000;stroke-linejoin:bevel;"/>
   <path clip-path="url(#pbf5b9955f6)" d="M 317.094978 251.434022 
L 316.421436 253.506971 
L 314.241808 253.506971 
L 316.005164 254.788124 
L 315.331622 256.861073 
L 317.094978 255.57992 
L 318.858334 256.861073 
L 318.184792 254.788124 
L 319.948147 253.506971 
L 317.76852 253.506971 
z
" style="fill:none;opacity:0.3;stroke:#000000;stroke-linejoin:bevel;"/>
   <path clip-path="url(#pbf5b9955f6)" d="M 359.663318 212.458696 
L 358.989777 214.531645 
L 356.810149 214.531645 
L 358.573505 215.812798 
L 357.899963 217.885747 
L 359.663318 216.604594 
L 361.426674 217.885747 
L 360.753132 215.812798 
L 362.516488 214.531645 
L 360.33686 214.531645 
z
" style="fill:none;opacity:0.3;stroke:#000000;stroke-linejoin:bevel;"/>
   <path clip-path="url(#pbf5b9955f6)" d="M 402.231659 168.630411 
L 401.558117 170.70336 
L 399.37849 170.70336 
L 401.141845 171.984513 
L 400.468303 174.057462 
L 402.231659 172.776309 
L 403.995015 174.057462 
L 403.321473 171.984513 
L 405.084829 170.70336 
L 402.905201 170.70336 
z
" style="fill:none;opacity:0.3;stroke:#000000;stroke-linejoin:bevel;"/>
   <path clip-path="url(#pbf5b9955f6)" d="M 444.8 127.076951 
L 444.126458 129.1499 
L 441.94683 129.1499 
L 443.710186 130.431053 
L 443.036644 132.504002 
L 444.8 131.222849 
L 446.563356 132.504002 
L 445.889814 130.431053 
L 447.65317 129.1499 
L 445.473542 129.1499 
z
" style="fill:none;opacity:0.3;stroke:#000000;stroke-linejoin:bevel;"/>
   <path clip-path="url(#pbf5b9955f6)" d="M 487.368341 77.940742 
L 486.694799 80.013691 
L 484.515171 80.013691 
L 486.278527 81.294844 
L 485.604985 83.367793 
L 487.368341 82.08664 
L 489.131697 83.367793 
L 488.458155 81.294844 
L 490.22151 80.013691 
L 488.041883 80.013691 
z
" style="fill:none;opacity:0.3;stroke:#000000;stroke-linejoin:bevel;"/>
   <path clip-path="url(#pbf5b9955f6)" d="M 529.936682 65.96 
L 529.26314 68.032949 
L 527.083512 68.032949 
L 528.846868 69.314102 
L 528.173326 71.387051 
L 529.936682 70.105898 
L 531.700037 71.387051 
L 531.026495 69.314102 
L 532.789851 68.032949 
L 530.610223 68.032949 
z
" style="fill:none;opacity:0.3;stroke:#000000;stroke-linejoin:bevel;"/>
   <path clip-path="url(#pbf5b9955f6)" d="M 572.505022 207.454082 
L 571.83148 209.527031 
L 569.651853 209.527031 
L 571.415208 210.808184 
L 570.741666 212.881133 
L 572.505022 211.59998 
L 574.268378 212.881133 
L 573.594836 210.808184 
L 575.358192 209.527031 
L 573.178564 209.527031 
z
" style="fill:none;opacity:0.3;stroke:#000000;stroke-linejoin:bevel;"/>
   <path clip-path="url(#pbf5b9955f6)" d="M 615.073363 166.962207 
L 614.399821 169.035156 
L 612.220193 169.035156 
L 613.983549 170.316309 
L 613.310007 172.389258 
L 615.073363 171.108105 
L 616.836719 172.389258 
L 616.163177 170.316309 
L 617.926533 169.035156 
L 615.746905 169.035156 
z
" style="fill:none;opacity:0.3;stroke:#000000;stroke-linejoin:bevel;"/>
   <path clip-path="url(#pbf5b9955f6)" d="M 657.641704 187.435627 
L 656.968162 189.508576 
L 654.788534 189.508576 
L 656.55189 190.789729 
L 655.878348 192.862678 
L 657.641704 191.581525 
L 659.40506 192.862678 
L 658.731518 190.789729 
L 660.494873 189.508576 
L 658.315246 189.508576 
z
" style="fill:none;opacity:0.3;stroke:#000000;stroke-linejoin:bevel;"/>
   <path clip-path="url(#pbf5b9955f6)" d="M 700.210045 199.568024 
L 699.536503 201.640973 
L 697.356875 201.640973 
L 699.120231 202.922126 
L 698.446689 204.995075 
L 700.210045 203.713922 
L 701.9734 204.995075 
L 701.299858 202.922126 
L 703.063214 201.640973 
L 700.883586 201.640973 
z
" style="fill:none;opacity:0.3;stroke:#000000;stroke-linejoin:bevel;"/>
   <path clip-path="url(#pbf5b9955f6)" d="M 742.778385 119.190893 
L 742.104843 121.263842 
L 739.925216 121.263842 
L 741.688571 122.544995 
L 741.015029 124.617944 
L 742.778385 123.336791 
L 744.541741 124.617944 
L 743.868199 122.544995 
L 745.631555 121.263842 
L 743.451927 121.263842 
z
" style="fill:none;opacity:0.3;stroke:#000000;stroke-linejoin:bevel;"/>
   <path clip-path="url(#pbf5b9955f6)" d="M 144.821615 366.36 
L 144.148073 368.432949 
L 141.968445 368.432949 
L 143.731801 369.714102 
L 143.058259 371.787051 
L 144.821615 370.505898 
L 146.584971 371.787051 
L 145.911429 369.714102 
L 147.674784 368.432949 
L 145.495157 368.432949 
z
" style="fill:#7f7f7f;stroke:#7f7f7f;stroke-linejoin:bevel;"/>
   <path clip-path="url(#pbf5b9955f6)" d="M 187.389955 358.473942 
L 186.716414 360.546891 
L 184.536786 360.546891 
L 186.300142 361.828044 
L 185.6266 363.900993 
L 187.389955 362.61984 
L 189.153311 363.900993 
L 188.479769 361.828044 
L 190.243125 360.546891 
L 188.063497 360.546891 
z
" style="fill:#7f7f7f;stroke:#7f7f7f;stroke-linejoin:bevel;"/>
   <path clip-path="url(#pbf5b9955f6)" d="M 229.958296 336.332317 
L 229.284754 338.405266 
L 227.105127 338.405266 
L 228.868482 339.686419 
L 228.19494 341.759368 
L 229.958296 340.478215 
L 231.721652 341.759368 
L 231.04811 339.686419 
L 232.811466 338.405266 
L 230.631838 338.405266 
z
" style="fill:#7f7f7f;stroke:#7f7f7f;stroke-linejoin:bevel;"/>
   <path clip-path="url(#pbf5b9955f6)" d="M 272.526637 287.651073 
L 271.853095 289.724022 
L 269.673467 289.724022 
L 271.436823 291.005175 
L 270.763281 293.078124 
L 272.526637 291.796971 
L 274.289993 293.078124 
L 273.616451 291.005175 
L 275.379807 289.724022 
L 273.200179 289.724022 
z
" style="fill:#7f7f7f;stroke:#7f7f7f;stroke-linejoin:bevel;"/>
   <path clip-path="url(#pbf5b9955f6)" d="M 315.094978 249.434022 
L 314.421436 251.506971 
L 312.241808 251.506971 
L 314.005164 252.788124 
L 313.331622 254.861073 
L 315.094978 253.57992 
L 316.858334 254.861073 
L 316.184792 252.788124 
L 317.948147 251.506971 
L 315.76852 251.506971 
z
" style="fill:#7f7f7f;stroke:#7f7f7f;stroke-linejoin:bevel;"/>
   <path clip-path="url(#pbf5b9955f6)" d="M 357.663318 210.458696 
L 356.989777 212.531645 
L 354.810149 212.531645 
L 356.573505 213.812798 
L 355.899963 215.885747 
L 357.663318 214.604594 
L 359.426674 215.885747 
L 358.753132 213.812798 
L 360.516488 212.531645 
L 358.33686 212.531645 
z
" style="fill:#7f7f7f;stroke:#7f7f7f;stroke-linejoin:bevel;"/>
   <path clip-path="url(#pbf5b9955f6)" d="M 400.231659 166.630411 
L 399.558117 168.70336 
L 397.37849 168.70336 
L 399.141845 169.984513 
L 398.468303 172.057462 
L 400.231659 170.776309 
L 401.995015 172.057462 
L 401.321473 169.984513 
L 403.084829 168.70336 
L 400.905201 168.70336 
z
" style="fill:#7f7f7f;stroke:#7f7f7f;stroke-linejoin:bevel;"/>
   <path clip-path="url(#pbf5b9955f6)" d="M 442.8 125.076951 
L 442.126458 127.1499 
L 439.94683 127.1499 
L 441.710186 128.431053 
L 441.036644 130.504002 
L 442.8 129.222849 
L 444.563356 130.504002 
L 443.889814 128.431053 
L 445.65317 127.1499 
L 443.473542 127.1499 
z
" style="fill:#7f7f7f;stroke:#7f7f7f;stroke-linejoin:bevel;"/>
   <path clip-path="url(#pbf5b9955f6)" d="M 485.368341 75.940742 
L 484.694799 78.013691 
L 482.515171 78.013691 
L 484.278527 79.294844 
L 483.604985 81.367793 
L 485.368341 80.08664 
L 487.131697 81.367793 
L 486.458155 79.294844 
L 488.22151 78.013691 
L 486.041883 78.013691 
z
" style="fill:#7f7f7f;stroke:#7f7f7f;stroke-linejoin:bevel;"/>
   <path clip-path="url(#pbf5b9955f6)" d="M 527.936682 63.96 
L 527.26314 66.032949 
L 525.083512 66.032949 
L 526.846868 67.314102 
L 526.173326 69.387051 
L 527.936682 68.105898 
L 529.700037 69.387051 
L 529.026495 67.314102 
L 530.789851 66.032949 
L 528.610223 66.032949 
z
" style="fill:#7f7f7f;stroke:#7f7f7f;stroke-linejoin:bevel;"/>
   <path clip-path="url(#pbf5b9955f6)" d="M 570.505022 205.454082 
L 569.83148 207.527031 
L 567.651853 207.527031 
L 569.415208 208.808184 
L 568.741666 210.881133 
L 570.505022 209.59998 
L 572.268378 210.881133 
L 571.594836 208.808184 
L 573.358192 207.527031 
L 571.178564 207.527031 
z
" style="fill:#7f7f7f;stroke:#7f7f7f;stroke-linejoin:bevel;"/>
   <path clip-path="url(#pbf5b9955f6)" d="M 613.073363 164.962207 
L 612.399821 167.035156 
L 610.220193 167.035156 
L 611.983549 168.316309 
L 611.310007 170.389258 
L 613.073363 169.108105 
L 614.836719 170.389258 
L 614.163177 168.316309 
L 615.926533 167.035156 
L 613.746905 167.035156 
z
" style="fill:#7f7f7f;stroke:#7f7f7f;stroke-linejoin:bevel;"/>
   <path clip-path="url(#pbf5b9955f6)" d="M 655.641704 185.435627 
L 654.968162 187.508576 
L 652.788534 187.508576 
L 654.55189 188.789729 
L 653.878348 190.862678 
L 655.641704 189.581525 
L 657.40506 190.862678 
L 656.731518 188.789729 
L 658.494873 187.508576 
L 656.315246 187.508576 
z
" style="fill:#7f7f7f;stroke:#7f7f7f;stroke-linejoin:bevel;"/>
   <path clip-path="url(#pbf5b9955f6)" d="M 698.210045 197.568024 
L 697.536503 199.640973 
L 695.356875 199.640973 
L 697.120231 200.922126 
L 696.446689 202.995075 
L 698.210045 201.713922 
L 699.9734 202.995075 
L 699.299858 200.922126 
L 701.063214 199.640973 
L 698.883586 199.640973 
z
" style="fill:#7f7f7f;stroke:#7f7f7f;stroke-linejoin:bevel;"/>
   <path clip-path="url(#pbf5b9955f6)" d="M 740.778385 117.190893 
L 740.104843 119.263842 
L 737.925216 119.263842 
L 739.688571 120.544995 
L 739.015029 122.617944 
L 740.778385 121.336791 
L 742.541741 122.617944 
L 741.868199 120.544995 
L 743.631555 119.263842 
L 741.451927 119.263842 
z
" style="fill:#7f7f7f;stroke:#7f7f7f;stroke-linejoin:bevel;"/>
   <g id="patch_22">
    <path d="M 108 384.48 
L 108 51.84 
" style="fill:none;stroke:#000000;stroke-linecap:square;stroke-linejoin:miter;stroke-width:0.8;"/>
   </g>
   <g id="patch_23">
    <path d="M 777.6 384.48 
L 777.6 51.84 
" style="fill:none;stroke:#000000;stroke-linecap:square;stroke-linejoin:miter;stroke-width:0.8;"/>
   </g>
   <g id="patch_24">
    <path d="M 108 384.48 
L 777.6 384.48 
" style="fill:none;stroke:#000000;stroke-linecap:square;stroke-linejoin:miter;stroke-width:0.8;"/>
   </g>
   <g id="patch_25">
    <path d="M 108 51.84 
L 777.6 51.84 
" style="fill:none;stroke:#000000;stroke-linecap:square;stroke-linejoin:miter;stroke-width:0.8;"/>
   </g>
   <g id="text_32">
    <!-- 净资产 与 净资产收益率ROE -->
    <defs>
     <path d="M 31.453125 19.96875 
L 55.859375 19.96875 
L 55.859375 30.421875 
L 26.65625 30.421875 
L 26.65625 37.453125 
L 55.859375 37.453125 
L 55.859375 47.796875 
L 33.203125 47.796875 
L 33.203125 51.515625 
Q 31.390625 49.65625 29.59375 47.90625 
Q 27.9375 49.65625 24.3125 53.375 
Q 36.71875 65.09375 47.65625 83.640625 
L 55.078125 81.6875 
Q 53.125 78.125 51.03125 74.75 
L 80.375 74.75 
L 80.375 68.21875 
L 69.046875 54.640625 
L 89.0625 54.640625 
L 89.0625 37.453125 
L 97.953125 37.453125 
L 97.953125 30.421875 
L 89.0625 30.421875 
L 89.0625 9.125 
L 81.640625 9.125 
L 81.640625 13.140625 
L 63.484375 13.140625 
L 63.484375 0.046875 
Q 63.484375 -11.96875 51.171875 -12.0625 
Q 44.734375 -12.0625 38.875 -12.0625 
Q 38.1875 -7.859375 37.3125 -3.953125 
Q 43.453125 -4.640625 49.421875 -4.640625 
Q 55.859375 -4.640625 55.859375 1.8125 
L 55.859375 13.140625 
L 31.453125 13.140625 
z
M 70.90625 68.015625 
L 46.625 68.015625 
Q 41.703125 60.890625 36.078125 54.640625 
L 60.109375 54.640625 
z
M 14.453125 36.46875 
Q 17.96875 34.71875 21.78125 33.15625 
Q 16.609375 15.484375 11.140625 -3.765625 
L 3.21875 -0.734375 
Q 9.96875 18.109375 14.453125 36.46875 
z
M 63.484375 19.96875 
L 81.640625 19.96875 
L 81.640625 30.421875 
L 63.484375 30.421875 
z
M 10.359375 76.421875 
Q 16.609375 65.671875 21.96875 54.828125 
Q 17.96875 52.6875 14.65625 51.125 
Q 9.671875 62.359375 4 73.09375 
z
M 81.640625 47.796875 
L 63.484375 47.796875 
L 63.484375 37.453125 
L 81.640625 37.453125 
z
" id="MicrosoftYaHei-51c0"/>
     <path d="M 28.609375 42.4375 
Q 57.90625 49.953125 60.359375 67.828125 
L 44.734375 67.828125 
Q 41.21875 60.59375 36.921875 54.828125 
Q 33.796875 56.984375 30.375 59.03125 
Q 39.546875 69.875 43.359375 84.125 
L 50.6875 82.375 
Q 49.21875 78.078125 47.65625 74.265625 
L 93.953125 74.265625 
L 93.953125 68.109375 
L 87.3125 54.828125 
Q 83.984375 56.390625 80.171875 57.859375 
L 85.359375 67.828125 
L 67.96875 67.828125 
Q 67.1875 64.703125 66.21875 61.765625 
Q 74.609375 47.90625 97.75 42.53125 
Q 95.015625 38.8125 92.875 35.40625 
Q 72.078125 42.046875 63.1875 54.9375 
Q 56.453125 43.21875 33.59375 35.984375 
Q 31.640625 38.921875 28.609375 42.4375 
z
M 16.015625 35.59375 
L 83.890625 35.59375 
L 83.890625 3.765625 
L 76.265625 3.765625 
L 76.265625 28.765625 
L 23.640625 28.765625 
L 23.640625 3.765625 
L 16.015625 3.765625 
z
M 27.25 61.28125 
Q 29 57.46875 31.0625 54.34375 
Q 19.4375 45.65625 6.84375 35.5 
L 1.765625 42.140625 
Q 15.53125 51.609375 27.25 61.28125 
z
M 9.859375 82.46875 
Q 18.265625 77.203125 26.171875 71.53125 
L 21.1875 65.484375 
Q 14.15625 71.046875 5.5625 77.09375 
z
M 53.8125 25.046875 
Q 53.71875 14.5 52.34375 8.84375 
Q 74.609375 1.609375 94.828125 -6.203125 
L 90.71875 -13.328125 
Q 72.265625 -5.71875 49.609375 2.390625 
Q 43.0625 -9.234375 7.90625 -13.71875 
Q 6.15625 -10.015625 3.71875 -6.109375 
Q 36.03125 -3.265625 42.78125 6 
Q 46.390625 10.890625 46.1875 25.046875 
z
" id="MicrosoftYaHei-8d44"/>
     <path d="M 11.625 43.890625 
L 57.8125 43.890625 
Q 64.40625 53.609375 69.625 63.234375 
L 77.15625 58.453125 
Q 71.96875 51.171875 66.3125 43.890625 
L 95.21875 43.890625 
L 95.21875 37.0625 
L 19.53125 37.0625 
L 19.53125 30.21875 
Q 19.53125 12.9375 16.890625 4.4375 
Q 14.15625 -5.03125 6.546875 -13.328125 
Q 4 -10.203125 1.265625 -6.6875 
Q 7.03125 -0.53125 9.375 7.765625 
Q 11.625 15.875 11.625 30.21875 
z
M 3.609375 71.828125 
L 48.1875 71.828125 
Q 46.046875 75.828125 43.453125 80.03125 
L 50.6875 83.640625 
Q 53.859375 78.46875 57.171875 71.828125 
L 97.75 71.828125 
L 97.75 64.890625 
L 3.609375 64.890625 
z
M 24.03125 59.328125 
L 30.46875 63.625 
Q 36.53125 56 41.21875 49.171875 
L 34.28125 44.390625 
Q 30.46875 50.828125 24.03125 59.328125 
z
" id="MicrosoftYaHei-4ea7"/>
     <path id="MicrosoftYaHei-20"/>
     <path d="M 18.171875 37.25 
L 18.171875 44.671875 
L 22.078125 83.25 
L 30.171875 83.25 
L 28.65625 67.71875 
L 97.953125 67.71875 
L 97.953125 60.296875 
L 27.984375 60.296875 
L 26.46875 44.671875 
L 90.828125 44.671875 
Q 89.65625 24.171875 88.1875 6.5 
Q 86.8125 -3.859375 82.234375 -7.46875 
Q 77.828125 -10.984375 67.53125 -10.984375 
Q 57.90625 -10.890625 45.3125 -10.59375 
Q 44.734375 -7.28125 43.65625 -2.09375 
Q 58.5 -3.171875 65.828125 -3.265625 
Q 78.90625 -4.15625 80.078125 6.984375 
Q 81.34375 19.96875 82.234375 37.25 
z
M 1.65625 22.015625 
L 74.03125 22.015625 
L 74.03125 14.59375 
L 1.65625 14.59375 
z
" id="MicrosoftYaHei-4e0e"/>
     <path d="M 35.0625 41.546875 
Q 47.5625 63.234375 53.125 83.453125 
L 61.03125 81.203125 
Q 57.90625 72.171875 54.5 63.921875 
L 97.078125 63.921875 
L 97.078125 56.6875 
L 85.59375 56.6875 
Q 84.125 28.421875 71.09375 10.640625 
Q 81 1.859375 99.21875 -4.640625 
Q 96.1875 -8.453125 93.65625 -12.453125 
Q 76.265625 -5.03125 65.921875 4.6875 
Q 56.5 -4.59375 39.84375 -13.328125 
Q 37.796875 -10.109375 34.859375 -6.78125 
Q 51.515625 1.5625 60.59375 10.5 
Q 49.3125 24.609375 46 45.5625 
Q 43.265625 40.234375 40.328125 35.296875 
Q 38.484375 38.140625 35.0625 41.546875 
z
M 26.265625 82.671875 
L 33.6875 82.671875 
L 33.6875 -12.75 
L 26.265625 -12.75 
L 26.265625 17.390625 
Q 20.3125 14.0625 14.15625 10.015625 
Q 11.625 8.15625 9.1875 5.609375 
L 3.609375 12.15625 
Q 6.640625 15.375 6.640625 20.5625 
L 6.640625 69 
L 14.0625 69 
L 14.0625 19 
Q 19.875 22.078125 26.265625 25.53125 
z
M 77.875 56.6875 
L 51.90625 56.6875 
Q 53.328125 32.859375 65.671875 16.546875 
Q 76.8125 32.234375 77.875 56.6875 
z
" id="MicrosoftYaHei-6536"/>
     <path d="M 1.765625 -1.609375 
L 15.921875 -1.609375 
L 15.921875 31.203125 
L 84.46875 31.203125 
L 84.46875 -1.609375 
L 97.953125 -1.609375 
L 97.953125 -8.453125 
L 1.765625 -8.453125 
z
M 4.109375 64.3125 
L 57.375 64.3125 
Q 66.015625 72.65625 74.125 83.34375 
L 81.25 78.859375 
Q 74.609375 71.140625 67.671875 64.3125 
L 96.484375 64.3125 
L 96.484375 57.46875 
L 4.109375 57.46875 
z
M 77.4375 24.5625 
L 63.765625 24.5625 
L 63.765625 -1.609375 
L 77.4375 -1.609375 
z
M 22.953125 -1.609375 
L 36.53125 -1.609375 
L 36.53125 24.5625 
L 22.953125 24.5625 
z
M 43.359375 -1.609375 
L 56.9375 -1.609375 
L 56.9375 24.5625 
L 43.359375 24.5625 
z
M 36.53125 54.4375 
L 41.3125 48.09375 
Q 26.078125 38.8125 7.125 29.25 
Q 5.171875 33.0625 3.125 36.078125 
Q 21.390625 44.875 36.53125 54.4375 
z
M 59.28125 48.296875 
L 63.28125 54.25 
Q 82.8125 45.0625 97.078125 37.25 
L 92.78125 30.03125 
Q 73.53125 41.15625 59.28125 48.296875 
z
M 19.34375 78.375 
L 24.421875 83.453125 
Q 32.8125 77.390625 39.546875 71.625 
L 33.984375 65.765625 
Q 27.640625 71.828125 19.34375 78.375 
z
" id="MicrosoftYaHei-76ca"/>
     <path d="M 39.453125 31.390625 
Q 40.96875 31.5 61.375 32.515625 
Q 58.9375 35.9375 56.640625 38.921875 
L 61.921875 42.234375 
Q 68.953125 34.421875 74.90625 25.828125 
L 68.65625 21.921875 
Q 66.9375 24.515625 65.28125 26.953125 
Q 46.734375 25.921875 34.578125 24.953125 
Q 32.421875 24.75 29.390625 24.078125 
L 26.953125 30.71875 
Q 29.890625 31.6875 31.34375 32.5625 
Q 39.59375 38.140625 47.65625 45.515625 
Q 40.578125 45.21875 35.546875 44.78125 
Q 33.5 44.484375 31.0625 43.890625 
L 28.125 49.859375 
Q 30.5625 50.734375 32.625 52.59375 
Q 39.203125 58.15625 44.921875 66.0625 
L 3.609375 66.0625 
L 3.609375 72.90625 
L 47.359375 72.90625 
Q 44.96875 77.25 42.875 80.515625 
L 49.90625 83.9375 
Q 53.71875 78.125 56.5 72.90625 
L 96.484375 72.90625 
L 96.484375 66.0625 
L 47.703125 66.0625 
L 52.34375 63.625 
Q 44.4375 55.515625 38.96875 50.734375 
Q 44.53125 50.875 53.515625 51.078125 
Q 57.421875 54.984375 61.328125 59.328125 
L 68.0625 55.421875 
Q 52.546875 40.671875 39.453125 31.390625 
z
M 2.25 15.484375 
L 46.78125 15.484375 
L 46.78125 24.078125 
L 54.5 24.078125 
L 54.5 15.484375 
L 98.046875 15.484375 
L 98.046875 8.640625 
L 54.5 8.640625 
L 54.5 -13.328125 
L 46.78125 -13.328125 
L 46.78125 8.640625 
L 2.25 8.640625 
z
M 26.859375 41.75 
L 30.375 35.984375 
Q 18.75 29.15625 6.640625 22.015625 
L 2.546875 28.5625 
Q 12.703125 33.34375 26.859375 41.75 
z
M 75.875 41.84375 
Q 89.84375 33.9375 97.65625 28.375 
L 93.359375 22.015625 
Q 83.296875 29.828125 71.875 36.578125 
z
M 93.65625 56.109375 
Q 86.234375 49.65625 77.546875 43.890625 
L 72.5625 49.078125 
Q 81.9375 55.21875 88.09375 61.375 
z
M 5.671875 56.78125 
L 10.640625 61.578125 
Q 18.75 55.125 24.8125 49.359375 
L 19.34375 44 
Q 13.671875 49.953125 5.671875 56.78125 
z
" id="MicrosoftYaHei-7387"/>
     <path d="M 64.984375 0 
L 53.46875 0 
L 40.921875 21 
Q 37.15625 27.296875 34.03125 29.5625 
Q 30.90625 31.84375 26.5625 31.84375 
L 19.53125 31.84375 
L 19.53125 0 
L 9.765625 0 
L 9.765625 75.640625 
L 32.8125 75.640625 
Q 43.84375 75.640625 50.09375 70.3125 
Q 56.34375 64.984375 56.34375 55.421875 
Q 56.34375 39.703125 39.546875 35.015625 
L 39.546875 34.765625 
Q 42.671875 33.453125 44.9375 31 
Q 47.21875 28.5625 50.828125 22.65625 
z
M 19.53125 67.09375 
L 19.53125 40.375 
L 31.0625 40.375 
Q 37.75 40.375 41.921875 44.28125 
Q 46.09375 48.1875 46.09375 54.546875 
Q 46.09375 60.453125 42.28125 63.765625 
Q 38.484375 67.09375 31.203125 67.09375 
z
" id="MicrosoftYaHei-52"/>
     <path d="M 4.890625 36.921875 
Q 4.890625 55.21875 14.796875 66.0625 
Q 24.703125 76.90625 41.65625 76.90625 
Q 57.421875 76.90625 67.03125 66.3125 
Q 76.65625 55.71875 76.65625 38.71875 
Q 76.65625 20.3125 66.796875 9.515625 
Q 56.9375 -1.265625 40.4375 -1.265625 
Q 24.3125 -1.265625 14.59375 9.328125 
Q 4.890625 19.921875 4.890625 36.921875 
z
M 15.140625 37.703125 
Q 15.140625 23.96875 22.140625 15.6875 
Q 29.15625 7.421875 40.4375 7.421875 
Q 52.546875 7.421875 59.453125 15.359375 
Q 66.359375 23.296875 66.359375 37.546875 
Q 66.359375 52.203125 59.59375 60.15625 
Q 52.828125 68.109375 41.0625 68.109375 
Q 29.5 68.109375 22.3125 59.703125 
Q 15.140625 51.3125 15.140625 37.703125 
z
" id="MicrosoftYaHei-4f"/>
     <path d="M 50.4375 0 
L 9.765625 0 
L 9.765625 75.640625 
L 48.734375 75.640625 
L 48.734375 66.9375 
L 19.53125 66.9375 
L 19.53125 42.71875 
L 46.578125 42.71875 
L 46.578125 34.078125 
L 19.53125 34.078125 
L 19.53125 8.640625 
L 50.4375 8.640625 
z
" id="MicrosoftYaHei-45"/>
    </defs>
    <g transform="translate(367.14375 45.84)scale(0.12 -0.12)">
     <use xlink:href="#MicrosoftYaHei-51c0"/>
     <use x="100" xlink:href="#MicrosoftYaHei-8d44"/>
     <use x="200" xlink:href="#MicrosoftYaHei-4ea7"/>
     <use x="300" xlink:href="#MicrosoftYaHei-20"/>
     <use x="329.589844" xlink:href="#MicrosoftYaHei-4e0e"/>
     <use x="429.589844" xlink:href="#MicrosoftYaHei-20"/>
     <use x="459.179688" xlink:href="#MicrosoftYaHei-51c0"/>
     <use x="559.179688" xlink:href="#MicrosoftYaHei-8d44"/>
     <use x="659.179688" xlink:href="#MicrosoftYaHei-4ea7"/>
     <use x="759.179688" xlink:href="#MicrosoftYaHei-6536"/>
     <use x="859.179688" xlink:href="#MicrosoftYaHei-76ca"/>
     <use x="959.179688" xlink:href="#MicrosoftYaHei-7387"/>
     <use x="1059.179688" xlink:href="#MicrosoftYaHei-52"/>
     <use x="1124.447266" xlink:href="#MicrosoftYaHei-4f"/>
     <use x="1205.941406" xlink:href="#MicrosoftYaHei-45"/>
    </g>
   </g>
   <g id="legend_1">
    <g id="patch_26">
     <path d="M 233.356875 429.287625 
L 652.243125 429.287625 
Q 654.643125 429.287625 654.643125 426.887625 
L 654.643125 409.512 
Q 654.643125 407.112 652.243125 407.112 
L 233.356875 407.112 
Q 230.956875 407.112 230.956875 409.512 
L 230.956875 426.887625 
Q 230.956875 429.287625 233.356875 429.287625 
z
" style="fill:#ffffff;opacity:0.8;stroke:#cccccc;stroke-linejoin:miter;"/>
    </g>
    <g id="patch_27">
     <path d="M 235.756875 421.5045 
L 259.756875 421.5045 
L 259.756875 413.1045 
L 235.756875 413.1045 
z
" style="fill:#c00000;stroke-dasharray:11.1,4.8;stroke-dashoffset:0;"/>
    </g>
    <g id="text_33">
     <!-- 净资产（单位：亿元） -->
     <defs>
      <path d="M 57.625 -17.1875 
Q 40.1875 1.859375 40.1875 28.90625 
Q 40.1875 56.296875 57.625 75.59375 
L 66.015625 75.59375 
Q 48.6875 55.8125 48.6875 29 
Q 48.6875 2.59375 65.921875 -17.1875 
z
" id="MicrosoftYaHei-ff08"/>
      <path d="M 1.953125 14.203125 
L 46.1875 14.203125 
L 46.1875 25.25 
L 19.140625 25.25 
L 19.140625 20.65625 
L 11.71875 20.65625 
L 11.71875 68.015625 
L 31.984375 68.015625 
Q 27.296875 73.484375 21.875 79.25 
L 27.4375 83.84375 
Q 34.671875 76.90625 40.140625 71.046875 
L 36.53125 68.015625 
L 59.421875 68.015625 
Q 64.796875 75.140625 70.3125 83.546875 
L 78.125 79.34375 
Q 73.09375 73.25 68.40625 68.015625 
L 88.375 68.015625 
L 88.375 20.65625 
L 80.953125 20.65625 
L 80.953125 25.25 
L 53.8125 25.25 
L 53.8125 14.203125 
L 98.046875 14.203125 
L 98.046875 7.171875 
L 53.8125 7.171875 
L 53.8125 -13.421875 
L 46.1875 -13.421875 
L 46.1875 7.171875 
L 1.953125 7.171875 
z
M 53.8125 32.078125 
L 80.953125 32.078125 
L 80.953125 43.40625 
L 53.8125 43.40625 
z
M 19.140625 32.078125 
L 46.1875 32.078125 
L 46.1875 43.40625 
L 19.140625 43.40625 
z
M 80.953125 61.1875 
L 53.8125 61.1875 
L 53.8125 50.046875 
L 80.953125 50.046875 
z
M 19.140625 50.046875 
L 46.1875 50.046875 
L 46.1875 61.1875 
L 19.140625 61.1875 
z
" id="MicrosoftYaHei-5355"/>
      <path d="M 27.9375 -0.921875 
L 66.0625 -0.921875 
Q 73.09375 17.875 82.328125 52.6875 
L 91.109375 50.046875 
Q 85.203125 31.9375 74.3125 -0.921875 
L 98.734375 -0.921875 
L 98.734375 -8.15625 
L 27.9375 -8.15625 
z
M 1.265625 35.796875 
Q 15.234375 56.890625 22.359375 83.15625 
L 30.671875 81.109375 
Q 26.609375 68.703125 21.96875 57.953125 
L 21.96875 -13.328125 
L 14.65625 -13.328125 
L 14.65625 42.671875 
Q 10.0625 34.078125 4.984375 26.8125 
Q 3.609375 30.515625 1.265625 35.796875 
z
M 29.984375 65.484375 
L 64.40625 65.484375 
Q 60.0625 72.796875 54.78125 79.046875 
L 61.421875 83.640625 
Q 65.71875 78.65625 72.078125 70.265625 
L 64.84375 65.484375 
L 96.96875 65.484375 
L 96.96875 58.25 
L 29.984375 58.25 
z
M 43.265625 51.703125 
Q 49.703125 34.125 57.328125 9.125 
L 49.21875 6.78125 
Q 42.578125 30.71875 35.84375 49.171875 
z
" id="MicrosoftYaHei-4f4d"/>
      <path d="M 50.09375 55.171875 
Q 52.6875 55.171875 54.53125 53.359375 
Q 56.390625 51.5625 56.390625 49.03125 
Q 56.390625 46.484375 54.578125 44.65625 
Q 52.78125 42.828125 50.09375 42.828125 
Q 47.40625 42.828125 45.59375 44.65625 
Q 43.796875 46.484375 43.796875 49.03125 
Q 43.796875 51.5625 45.65625 53.359375 
Q 47.515625 55.171875 50.09375 55.171875 
z
M 50.09375 11.1875 
Q 52.6875 11.1875 54.53125 9.375 
Q 56.390625 7.5625 56.390625 4.984375 
Q 56.390625 2.34375 54.53125 0.5625 
Q 52.6875 -1.21875 50.09375 -1.21875 
Q 47.515625 -1.21875 45.65625 0.5625 
Q 43.796875 2.34375 43.796875 4.984375 
Q 43.796875 7.5625 45.65625 9.375 
Q 47.515625 11.1875 50.09375 11.1875 
z
" id="MicrosoftYaHei-ff1a"/>
      <path d="M 90.53125 25.828125 
Q 92.96875 24.65625 98.734375 22.90625 
Q 97.859375 12.0625 96.484375 4.046875 
Q 94.34375 -8.34375 79.203125 -8.453125 
Q 63.671875 -9.03125 49.703125 -8.453125 
Q 36.71875 -7.765625 33.984375 -0.140625 
Q 31.453125 7.671875 40.140625 19.78125 
Q 48.640625 31.390625 79.984375 67.625 
L 36.71875 67.625 
L 36.71875 75.34375 
L 90.140625 75.34375 
L 90.140625 66.265625 
Q 66.5 40.484375 49.03125 18.40625 
Q 40.828125 7.375 41.796875 3.375 
Q 42.1875 -0.734375 52.640625 -1.03125 
Q 64.546875 -1.515625 76.375 -0.921875 
Q 83.296875 -0.640625 85.546875 1.03125 
Q 88.09375 2.6875 88.875 7.859375 
Q 89.84375 13.234375 90.53125 25.828125 
z
M 1.375 34.515625 
Q 15.625 54.25 23.921875 82.859375 
L 31.9375 80.515625 
Q 27.9375 68.5625 23.25 58.0625 
L 23.25 -12.453125 
L 15.625 -12.453125 
L 15.625 42.828125 
Q 10.5 33.640625 4.6875 25.921875 
Q 3.328125 30.21875 1.375 34.515625 
z
" id="MicrosoftYaHei-4ebf"/>
      <path d="M 2.9375 48.1875 
L 97.265625 48.1875 
L 97.265625 40.765625 
L 66.40625 40.765625 
L 66.40625 2.6875 
Q 66.40625 -3.078125 72.265625 -3.078125 
L 80.671875 -3.078125 
Q 87.703125 -3.078125 88.671875 3.375 
Q 89.546875 8.84375 90.140625 17.234375 
Q 94.046875 15.875 98.640625 14.796875 
Q 97.65625 6.390625 96.578125 0.734375 
Q 94.625 -10.015625 82.421875 -10.015625 
L 70.515625 -10.015625 
Q 58.203125 -10.015625 58.203125 2 
L 58.203125 40.765625 
L 38.28125 40.765625 
L 38.28125 37.640625 
Q 38.28125 16.9375 32.03125 6.984375 
Q 25.78125 -3.859375 7.328125 -13.234375 
Q 3.8125 -8.9375 1.5625 -6.6875 
Q 18.453125 1.609375 24.3125 10.796875 
Q 30.078125 19.578125 30.078125 37.25 
L 30.078125 40.765625 
L 2.9375 40.765625 
z
M 12.3125 76.609375 
L 88.09375 76.609375 
L 88.09375 69.1875 
L 12.3125 69.1875 
z
" id="MicrosoftYaHei-5143"/>
      <path d="M 42.390625 -17.1875 
L 33.984375 -17.1875 
Q 51.3125 2.546875 51.3125 29.5 
Q 51.3125 55.953125 34.078125 75.59375 
L 42.390625 75.59375 
Q 59.71875 56.6875 59.71875 29.5 
Q 59.71875 2 42.390625 -17.1875 
z
" id="MicrosoftYaHei-ff09"/>
     </defs>
     <g transform="translate(269.356875 421.5045)scale(0.12 -0.12)">
      <use xlink:href="#MicrosoftYaHei-51c0"/>
      <use x="100" xlink:href="#MicrosoftYaHei-8d44"/>
      <use x="200" xlink:href="#MicrosoftYaHei-4ea7"/>
      <use x="300" xlink:href="#MicrosoftYaHei-ff08"/>
      <use x="400" xlink:href="#MicrosoftYaHei-5355"/>
      <use x="500" xlink:href="#MicrosoftYaHei-4f4d"/>
      <use x="600" xlink:href="#MicrosoftYaHei-ff1a"/>
      <use x="700" xlink:href="#MicrosoftYaHei-4ebf"/>
      <use x="800" xlink:href="#MicrosoftYaHei-5143"/>
      <use x="900" xlink:href="#MicrosoftYaHei-ff09"/>
     </g>
    </g>
    <path d="M 415.356875 419.3045 
L 439.356875 419.3045 
" style="fill:none;opacity:0.3;stroke:#000000;stroke-linecap:square;stroke-width:2.5;"/>
    <path d="M 413.356875 417.3045 
L 437.356875 417.3045 
" style="fill:none;stroke:#7f7f7f;stroke-linecap:square;stroke-width:2.5;"/>
    <path d="M 427.356875 416.3045 
L 426.683333 418.377449 
L 424.503705 418.377449 
L 426.267061 419.658602 
L 425.593519 421.731551 
L 427.356875 420.450398 
L 429.120231 421.731551 
L 428.446689 419.658602 
L 430.210045 418.377449 
L 428.030417 418.377449 
z
" style="fill:none;opacity:0.3;stroke:#000000;stroke-linejoin:bevel;"/>
    <path d="M 425.356875 414.3045 
L 424.683333 416.377449 
L 422.503705 416.377449 
L 424.267061 417.658602 
L 423.593519 419.731551 
L 425.356875 418.450398 
L 427.120231 419.731551 
L 426.446689 417.658602 
L 428.210045 416.377449 
L 426.030417 416.377449 
z
" style="fill:#7f7f7f;stroke:#7f7f7f;stroke-linejoin:bevel;"/>
    <g id="text_34">
     <!-- 净资产收益率ROE（单位：百分比%） -->
     <defs>
      <path d="M 12.703125 57.078125 
L 42.71875 57.078125 
L 45.40625 70.359375 
L 2.546875 70.359375 
L 2.546875 77.59375 
L 97.5625 77.59375 
L 97.5625 70.359375 
L 53.375 70.359375 
L 50.25 57.078125 
L 87.5 57.078125 
L 87.5 -12.25 
L 79.6875 -12.25 
L 79.6875 -5.03125 
L 20.515625 -5.03125 
L 20.515625 -12.25 
L 12.703125 -12.25 
z
M 20.515625 2 
L 79.6875 2 
L 79.6875 22.703125 
L 20.515625 22.703125 
z
M 79.6875 50.046875 
L 20.515625 50.046875 
L 20.515625 29.734375 
L 79.6875 29.734375 
z
" id="MicrosoftYaHei-767e"/>
      <path d="M 14.0625 39.984375 
L 79 39.984375 
Q 78.515625 23.390625 77.546875 7.5625 
Q 76.375 -10.6875 60.25 -10.59375 
Q 52.34375 -10.6875 43.5625 -10.109375 
Q 42.96875 -6 42.1875 -1.8125 
Q 49.703125 -2.875 58.984375 -2.984375 
Q 68.75 -3.171875 69.734375 8.453125 
Q 70.515625 19 70.90625 32.765625 
L 40.875 32.765625 
Q 39.703125 16.453125 34.078125 6.5 
Q 26.65625 -6.59375 9.1875 -13.71875 
Q 6.640625 -10.40625 3.609375 -7.171875 
Q 19.828125 -1.125 26.953125 10.40625 
Q 32.078125 19.140625 32.859375 32.765625 
L 14.0625 32.765625 
z
M 54.5 80.609375 
L 61.53125 83.640625 
Q 72.265625 57.46875 99.21875 44.484375 
Q 94.828125 39.890625 92.875 37.0625 
Q 66.015625 52.59375 54.5 80.609375 
z
M 0.78125 43.21875 
Q 20.90625 57.46875 35.15625 82.078125 
L 42.09375 78.265625 
Q 27.25 52.296875 6.453125 36.578125 
Q 4.390625 39.59375 0.78125 43.21875 
z
" id="MicrosoftYaHei-5206"/>
      <path d="M 50.390625 83.0625 
L 58.5 83.0625 
L 58.5 41.75 
Q 77.484375 55.46875 89.75 70.453125 
L 96.6875 65.28125 
Q 80.859375 47.859375 58.5 32.125 
L 58.5 3.859375 
Q 58.5 -2.59375 64.15625 -2.59375 
L 80.859375 -2.59375 
Q 87.3125 -2.59375 88.28125 3.171875 
Q 89.453125 10.59375 90.046875 19.484375 
Q 94.140625 17.921875 98.4375 16.65625 
Q 97.5625 7.5625 96.09375 0.34375 
Q 94.046875 -9.71875 83.109375 -9.71875 
L 61.625 -9.71875 
Q 50.390625 -9.71875 50.390625 2.484375 
z
M 16.609375 80.515625 
L 16.609375 51.21875 
L 44.140625 51.21875 
L 44.140625 43.890625 
L 16.609375 43.890625 
L 16.609375 2.390625 
Q 26.765625 6.6875 43.171875 14.5 
Q 43.171875 9.90625 43.5625 5.71875 
Q 29.203125 -0.046875 19.234375 -5.125 
Q 14.9375 -7.375 11.328125 -10.5 
L 5.375 -2.875 
Q 8.5 -0.53125 8.5 4.25 
L 8.5 80.515625 
z
" id="MicrosoftYaHei-6bd4"/>
      <path d="M 4.25 56.546875 
Q 4.25 65.828125 9.203125 71.296875 
Q 14.15625 76.765625 22.5625 76.765625 
Q 30.609375 76.765625 35.125 71.734375 
Q 39.65625 66.703125 39.65625 57.71875 
Q 39.65625 48.78125 34.671875 43.203125 
Q 29.6875 37.640625 21.4375 37.640625 
Q 13.625 37.640625 8.9375 42.8125 
Q 4.25 48 4.25 56.546875 
z
M 11.765625 57.03125 
Q 11.765625 50.734375 14.5 47.3125 
Q 17.234375 43.890625 21.96875 43.890625 
Q 26.859375 43.890625 29.515625 47.4375 
Q 32.171875 50.984375 32.171875 57.421875 
Q 32.171875 63.71875 29.5625 67.15625 
Q 26.953125 70.609375 22.21875 70.609375 
Q 17.390625 70.609375 14.578125 67.015625 
Q 11.765625 63.421875 11.765625 57.03125 
z
M 72.609375 75.640625 
L 24.03125 -0.484375 
L 15.875 -0.484375 
L 64.453125 75.640625 
z
M 49.5625 17.71875 
Q 49.5625 27 54.515625 32.546875 
Q 59.46875 38.09375 67.828125 38.09375 
Q 75.828125 38.09375 80.359375 33.03125 
Q 84.90625 27.984375 84.90625 18.796875 
Q 84.90625 9.90625 79.875 4.359375 
Q 74.859375 -1.171875 66.75 -1.171875 
Q 58.890625 -1.171875 54.21875 4.078125 
Q 49.5625 9.328125 49.5625 17.71875 
z
M 57.03125 18.171875 
Q 57.03125 12.015625 59.765625 8.5625 
Q 62.5 5.125 67.234375 5.125 
Q 72.125 5.125 74.78125 8.6875 
Q 77.4375 12.25 77.4375 18.65625 
Q 77.4375 25 74.78125 28.359375 
Q 72.125 31.734375 67.484375 31.734375 
Q 62.5 31.734375 59.765625 28.140625 
Q 57.03125 24.5625 57.03125 18.171875 
z
" id="MicrosoftYaHei-25"/>
     </defs>
     <g transform="translate(446.956875 421.5045)scale(0.12 -0.12)">
      <use xlink:href="#MicrosoftYaHei-51c0"/>
      <use x="100" xlink:href="#MicrosoftYaHei-8d44"/>
      <use x="200" xlink:href="#MicrosoftYaHei-4ea7"/>
      <use x="300" xlink:href="#MicrosoftYaHei-6536"/>
      <use x="400" xlink:href="#MicrosoftYaHei-76ca"/>
      <use x="500" xlink:href="#MicrosoftYaHei-7387"/>
      <use x="600" xlink:href="#MicrosoftYaHei-52"/>
      <use x="665.267578" xlink:href="#MicrosoftYaHei-4f"/>
      <use x="746.761719" xlink:href="#MicrosoftYaHei-45"/>
      <use x="801.742188" xlink:href="#MicrosoftYaHei-ff08"/>
      <use x="901.742188" xlink:href="#MicrosoftYaHei-5355"/>
      <use x="1001.742188" xlink:href="#MicrosoftYaHei-4f4d"/>
      <use x="1101.742188" xlink:href="#MicrosoftYaHei-ff1a"/>
      <use x="1201.742188" xlink:href="#MicrosoftYaHei-767e"/>
      <use x="1301.742188" xlink:href="#MicrosoftYaHei-5206"/>
      <use x="1401.742188" xlink:href="#MicrosoftYaHei-6bd4"/>
      <use x="1501.742188" xlink:href="#MicrosoftYaHei-25"/>
      <use x="1590.707031" xlink:href="#MicrosoftYaHei-ff09"/>
     </g>
    </g>
   </g>
  </g>
 </g>
 <defs>
  <clipPath id="pbf5b9955f6">
   <rect height="332.64" width="669.6" x="108" y="51.84"/>
  </clipPath>
 </defs>
</svg>
