<?xml version="1.0" encoding="utf-8" standalone="no"?>
<!DOCTYPE svg PUBLIC "-//W3C//DTD SVG 1.1//EN"
  "http://www.w3.org/Graphics/SVG/1.1/DTD/svg11.dtd">
<!-- Created with matplotlib (http://matplotlib.org/) -->
<svg height="432pt" version="1.1" viewBox="0 0 864 432" width="864pt" xmlns="http://www.w3.org/2000/svg" xmlns:xlink="http://www.w3.org/1999/xlink">
 <defs>
  <style type="text/css">
*{stroke-linecap:butt;stroke-linejoin:round;}
  </style>
 </defs>
 <g id="figure_1">
  <g id="patch_1">
   <path d="M 0 432 
L 864 432 
L 864 0 
L 0 0 
z
" style="fill:#ffffff;"/>
  </g>
  <g id="axes_1">
   <g id="patch_2">
    <path d="M 108 384.48 
L 777.6 384.48 
L 777.6 51.84 
L 108 51.84 
z
" style="fill:#ffffff;"/>
   </g>
   <g id="patch_3">
    <path clip-path="url(#pc32f6aa267)" d="M 138.436364 363.777785 
L 146.861655 363.777785 
L 146.861655 258.271135 
L 138.436364 258.271135 
z
" style="fill:#c00000;"/>
   </g>
   <g id="patch_4">
    <path clip-path="url(#pc32f6aa267)" d="M 180.562818 363.777785 
L 188.988109 363.777785 
L 188.988109 233.975915 
L 180.562818 233.975915 
z
" style="fill:#c00000;"/>
   </g>
   <g id="patch_5">
    <path clip-path="url(#pc32f6aa267)" d="M 222.689273 363.777785 
L 231.114564 363.777785 
L 231.114564 261.477278 
L 222.689273 261.477278 
z
" style="fill:#c00000;"/>
   </g>
   <g id="patch_6">
    <path clip-path="url(#pc32f6aa267)" d="M 264.815728 363.777785 
L 273.241019 363.777785 
L 273.241019 277.353483 
L 264.815728 277.353483 
z
" style="fill:#c00000;"/>
   </g>
   <g id="patch_7">
    <path clip-path="url(#pc32f6aa267)" d="M 306.942183 363.777785 
L 315.367474 363.777785 
L 315.367474 326.3816 
L 306.942183 326.3816 
z
" style="fill:#c00000;"/>
   </g>
   <g id="patch_8">
    <path clip-path="url(#pc32f6aa267)" d="M 349.068638 363.777785 
L 357.493929 363.777785 
L 357.493929 257.6662 
L 349.068638 257.6662 
z
" style="fill:#c00000;"/>
   </g>
   <g id="patch_9">
    <path clip-path="url(#pc32f6aa267)" d="M 391.195093 363.777785 
L 399.620384 363.777785 
L 399.620384 315.091747 
L 391.195093 315.091747 
z
" style="fill:#c00000;"/>
   </g>
   <g id="patch_10">
    <path clip-path="url(#pc32f6aa267)" d="M 433.321548 363.777785 
L 441.746839 363.777785 
L 441.746839 340.794172 
L 433.321548 340.794172 
z
" style="fill:#c00000;"/>
   </g>
   <g id="patch_11">
    <path clip-path="url(#pc32f6aa267)" d="M 475.448003 363.777785 
L 483.873293 363.777785 
L 483.873293 292.102368 
L 475.448003 292.102368 
z
" style="fill:#c00000;"/>
   </g>
   <g id="patch_12">
    <path clip-path="url(#pc32f6aa267)" d="M 517.574457 363.777785 
L 525.999748 363.777785 
L 525.999748 367.142007 
L 517.574457 367.142007 
z
" style="fill:#c00000;"/>
   </g>
   <g id="patch_13">
    <path clip-path="url(#pc32f6aa267)" d="M 559.700912 363.777785 
L 568.126203 363.777785 
L 568.126203 336.18232 
L 559.700912 336.18232 
z
" style="fill:#c00000;"/>
   </g>
   <g id="patch_14">
    <path clip-path="url(#pc32f6aa267)" d="M 601.827367 363.777785 
L 610.252658 363.777785 
L 610.252658 330.043562 
L 601.827367 330.043562 
z
" style="fill:#c00000;"/>
   </g>
   <g id="patch_15">
    <path clip-path="url(#pc32f6aa267)" d="M 643.953822 363.777785 
L 652.379113 363.777785 
L 652.379113 359.544574 
L 643.953822 359.544574 
z
" style="fill:#c00000;"/>
   </g>
   <g id="patch_16">
    <path clip-path="url(#pc32f6aa267)" d="M 686.080277 363.777785 
L 694.505568 363.777785 
L 694.505568 369.36 
L 686.080277 369.36 
z
" style="fill:#c00000;"/>
   </g>
   <g id="patch_17">
    <path clip-path="url(#pc32f6aa267)" d="M 728.206732 363.777785 
L 736.632023 363.777785 
L 736.632023 322.94364 
L 728.206732 322.94364 
z
" style="fill:#c00000;"/>
   </g>
   <g id="patch_18">
    <path clip-path="url(#pc32f6aa267)" d="M 148.967977 363.777785 
L 157.393268 363.777785 
L 157.393268 363.777785 
L 148.967977 363.777785 
z
" style="fill:#a6a6a6;"/>
   </g>
   <g id="patch_19">
    <path clip-path="url(#pc32f6aa267)" d="M 191.094432 363.777785 
L 199.519723 363.777785 
L 199.519723 363.777785 
L 191.094432 363.777785 
z
" style="fill:#a6a6a6;"/>
   </g>
   <g id="patch_20">
    <path clip-path="url(#pc32f6aa267)" d="M 233.220887 363.777785 
L 241.646178 363.777785 
L 241.646178 363.777785 
L 233.220887 363.777785 
z
" style="fill:#a6a6a6;"/>
   </g>
   <g id="patch_21">
    <path clip-path="url(#pc32f6aa267)" d="M 275.347342 363.777785 
L 283.772633 363.777785 
L 283.772633 363.777785 
L 275.347342 363.777785 
z
" style="fill:#a6a6a6;"/>
   </g>
   <g id="patch_22">
    <path clip-path="url(#pc32f6aa267)" d="M 317.473797 363.777785 
L 325.899088 363.777785 
L 325.899088 363.777785 
L 317.473797 363.777785 
z
" style="fill:#a6a6a6;"/>
   </g>
   <g id="patch_23">
    <path clip-path="url(#pc32f6aa267)" d="M 359.600252 363.777785 
L 368.025543 363.777785 
L 368.025543 363.777785 
L 359.600252 363.777785 
z
" style="fill:#a6a6a6;"/>
   </g>
   <g id="patch_24">
    <path clip-path="url(#pc32f6aa267)" d="M 401.726707 363.777785 
L 410.151997 363.777785 
L 410.151997 301.518666 
L 401.726707 301.518666 
z
" style="fill:#a6a6a6;"/>
   </g>
   <g id="patch_25">
    <path clip-path="url(#pc32f6aa267)" d="M 443.853161 363.777785 
L 452.278452 363.777785 
L 452.278452 286.414867 
L 443.853161 286.414867 
z
" style="fill:#a6a6a6;"/>
   </g>
   <g id="patch_26">
    <path clip-path="url(#pc32f6aa267)" d="M 485.979616 363.777785 
L 494.404907 363.777785 
L 494.404907 294.091432 
L 485.979616 294.091432 
z
" style="fill:#a6a6a6;"/>
   </g>
   <g id="patch_27">
    <path clip-path="url(#pc32f6aa267)" d="M 528.106071 363.777785 
L 536.531362 363.777785 
L 536.531362 325.233957 
L 528.106071 325.233957 
z
" style="fill:#a6a6a6;"/>
   </g>
   <g id="patch_28">
    <path clip-path="url(#pc32f6aa267)" d="M 570.232526 363.777785 
L 578.657817 363.777785 
L 578.657817 66.96 
L 570.232526 66.96 
z
" style="fill:#a6a6a6;"/>
   </g>
   <g id="patch_29">
    <path clip-path="url(#pc32f6aa267)" d="M 612.358981 363.777785 
L 620.784272 363.777785 
L 620.784272 277.677414 
L 612.358981 277.677414 
z
" style="fill:#a6a6a6;"/>
   </g>
   <g id="patch_30">
    <path clip-path="url(#pc32f6aa267)" d="M 654.485436 363.777785 
L 662.910727 363.777785 
L 662.910727 351.755667 
L 654.485436 351.755667 
z
" style="fill:#a6a6a6;"/>
   </g>
   <g id="patch_31">
    <path clip-path="url(#pc32f6aa267)" d="M 696.611891 363.777785 
L 705.037182 363.777785 
L 705.037182 350.146737 
L 696.611891 350.146737 
z
" style="fill:#a6a6a6;"/>
   </g>
   <g id="patch_32">
    <path clip-path="url(#pc32f6aa267)" d="M 738.738345 363.777785 
L 747.163636 363.777785 
L 747.163636 354.807236 
L 738.738345 354.807236 
z
" style="fill:#a6a6a6;"/>
   </g>
   <g id="matplotlib.axis_1">
    <g id="xtick_1">
     <g id="line2d_1">
      <defs>
       <path d="M 0 0 
L 0 3.5 
" id="maf4ad47ff3" style="stroke:#000000;stroke-width:0.8;"/>
      </defs>
      <g>
       <use style="stroke:#000000;stroke-width:0.8;" x="147.914816" xlink:href="#maf4ad47ff3" y="384.48"/>
      </g>
     </g>
     <g id="text_1">
      <!-- 2002 -->
      <defs>
       <path d="M 19.1875 8.296875 
L 53.609375 8.296875 
L 53.609375 0 
L 7.328125 0 
L 7.328125 8.296875 
Q 12.9375 14.109375 22.625 23.890625 
Q 32.328125 33.6875 34.8125 36.53125 
Q 39.546875 41.84375 41.421875 45.53125 
Q 43.3125 49.21875 43.3125 52.78125 
Q 43.3125 58.59375 39.234375 62.25 
Q 35.15625 65.921875 28.609375 65.921875 
Q 23.96875 65.921875 18.8125 64.3125 
Q 13.671875 62.703125 7.8125 59.421875 
L 7.8125 69.390625 
Q 13.765625 71.78125 18.9375 73 
Q 24.125 74.21875 28.421875 74.21875 
Q 39.75 74.21875 46.484375 68.546875 
Q 53.21875 62.890625 53.21875 53.421875 
Q 53.21875 48.921875 51.53125 44.890625 
Q 49.859375 40.875 45.40625 35.40625 
Q 44.1875 33.984375 37.640625 27.21875 
Q 31.109375 20.453125 19.1875 8.296875 
z
" id="DejaVuSans-32"/>
       <path d="M 31.78125 66.40625 
Q 24.171875 66.40625 20.328125 58.90625 
Q 16.5 51.421875 16.5 36.375 
Q 16.5 21.390625 20.328125 13.890625 
Q 24.171875 6.390625 31.78125 6.390625 
Q 39.453125 6.390625 43.28125 13.890625 
Q 47.125 21.390625 47.125 36.375 
Q 47.125 51.421875 43.28125 58.90625 
Q 39.453125 66.40625 31.78125 66.40625 
z
M 31.78125 74.21875 
Q 44.046875 74.21875 50.515625 64.515625 
Q 56.984375 54.828125 56.984375 36.375 
Q 56.984375 17.96875 50.515625 8.265625 
Q 44.046875 -1.421875 31.78125 -1.421875 
Q 19.53125 -1.421875 13.0625 8.265625 
Q 6.59375 17.96875 6.59375 36.375 
Q 6.59375 54.828125 13.0625 64.515625 
Q 19.53125 74.21875 31.78125 74.21875 
z
" id="DejaVuSans-30"/>
      </defs>
      <g transform="translate(135.189816 399.078438)scale(0.1 -0.1)">
       <use xlink:href="#DejaVuSans-32"/>
       <use x="63.623047" xlink:href="#DejaVuSans-30"/>
       <use x="127.246094" xlink:href="#DejaVuSans-30"/>
       <use x="190.869141" xlink:href="#DejaVuSans-32"/>
      </g>
     </g>
    </g>
    <g id="xtick_2">
     <g id="line2d_2">
      <g>
       <use style="stroke:#000000;stroke-width:0.8;" x="190.041271" xlink:href="#maf4ad47ff3" y="384.48"/>
      </g>
     </g>
     <g id="text_2">
      <!-- 2003 -->
      <defs>
       <path d="M 40.578125 39.3125 
Q 47.65625 37.796875 51.625 33 
Q 55.609375 28.21875 55.609375 21.1875 
Q 55.609375 10.40625 48.1875 4.484375 
Q 40.765625 -1.421875 27.09375 -1.421875 
Q 22.515625 -1.421875 17.65625 -0.515625 
Q 12.796875 0.390625 7.625 2.203125 
L 7.625 11.71875 
Q 11.71875 9.328125 16.59375 8.109375 
Q 21.484375 6.890625 26.8125 6.890625 
Q 36.078125 6.890625 40.9375 10.546875 
Q 45.796875 14.203125 45.796875 21.1875 
Q 45.796875 27.640625 41.28125 31.265625 
Q 36.765625 34.90625 28.71875 34.90625 
L 20.21875 34.90625 
L 20.21875 43.015625 
L 29.109375 43.015625 
Q 36.375 43.015625 40.234375 45.921875 
Q 44.09375 48.828125 44.09375 54.296875 
Q 44.09375 59.90625 40.109375 62.90625 
Q 36.140625 65.921875 28.71875 65.921875 
Q 24.65625 65.921875 20.015625 65.03125 
Q 15.375 64.15625 9.8125 62.3125 
L 9.8125 71.09375 
Q 15.4375 72.65625 20.34375 73.4375 
Q 25.25 74.21875 29.59375 74.21875 
Q 40.828125 74.21875 47.359375 69.109375 
Q 53.90625 64.015625 53.90625 55.328125 
Q 53.90625 49.265625 50.4375 45.09375 
Q 46.96875 40.921875 40.578125 39.3125 
z
" id="DejaVuSans-33"/>
      </defs>
      <g transform="translate(177.316271 399.078438)scale(0.1 -0.1)">
       <use xlink:href="#DejaVuSans-32"/>
       <use x="63.623047" xlink:href="#DejaVuSans-30"/>
       <use x="127.246094" xlink:href="#DejaVuSans-30"/>
       <use x="190.869141" xlink:href="#DejaVuSans-33"/>
      </g>
     </g>
    </g>
    <g id="xtick_3">
     <g id="line2d_3">
      <g>
       <use style="stroke:#000000;stroke-width:0.8;" x="232.167726" xlink:href="#maf4ad47ff3" y="384.48"/>
      </g>
     </g>
     <g id="text_3">
      <!-- 2004 -->
      <defs>
       <path d="M 37.796875 64.3125 
L 12.890625 25.390625 
L 37.796875 25.390625 
z
M 35.203125 72.90625 
L 47.609375 72.90625 
L 47.609375 25.390625 
L 58.015625 25.390625 
L 58.015625 17.1875 
L 47.609375 17.1875 
L 47.609375 0 
L 37.796875 0 
L 37.796875 17.1875 
L 4.890625 17.1875 
L 4.890625 26.703125 
z
" id="DejaVuSans-34"/>
      </defs>
      <g transform="translate(219.442726 399.078438)scale(0.1 -0.1)">
       <use xlink:href="#DejaVuSans-32"/>
       <use x="63.623047" xlink:href="#DejaVuSans-30"/>
       <use x="127.246094" xlink:href="#DejaVuSans-30"/>
       <use x="190.869141" xlink:href="#DejaVuSans-34"/>
      </g>
     </g>
    </g>
    <g id="xtick_4">
     <g id="line2d_4">
      <g>
       <use style="stroke:#000000;stroke-width:0.8;" x="274.294181" xlink:href="#maf4ad47ff3" y="384.48"/>
      </g>
     </g>
     <g id="text_4">
      <!-- 2005 -->
      <defs>
       <path d="M 10.796875 72.90625 
L 49.515625 72.90625 
L 49.515625 64.59375 
L 19.828125 64.59375 
L 19.828125 46.734375 
Q 21.96875 47.46875 24.109375 47.828125 
Q 26.265625 48.1875 28.421875 48.1875 
Q 40.625 48.1875 47.75 41.5 
Q 54.890625 34.8125 54.890625 23.390625 
Q 54.890625 11.625 47.5625 5.09375 
Q 40.234375 -1.421875 26.90625 -1.421875 
Q 22.3125 -1.421875 17.546875 -0.640625 
Q 12.796875 0.140625 7.71875 1.703125 
L 7.71875 11.625 
Q 12.109375 9.234375 16.796875 8.0625 
Q 21.484375 6.890625 26.703125 6.890625 
Q 35.15625 6.890625 40.078125 11.328125 
Q 45.015625 15.765625 45.015625 23.390625 
Q 45.015625 31 40.078125 35.4375 
Q 35.15625 39.890625 26.703125 39.890625 
Q 22.75 39.890625 18.8125 39.015625 
Q 14.890625 38.140625 10.796875 36.28125 
z
" id="DejaVuSans-35"/>
      </defs>
      <g transform="translate(261.569181 399.078438)scale(0.1 -0.1)">
       <use xlink:href="#DejaVuSans-32"/>
       <use x="63.623047" xlink:href="#DejaVuSans-30"/>
       <use x="127.246094" xlink:href="#DejaVuSans-30"/>
       <use x="190.869141" xlink:href="#DejaVuSans-35"/>
      </g>
     </g>
    </g>
    <g id="xtick_5">
     <g id="line2d_5">
      <g>
       <use style="stroke:#000000;stroke-width:0.8;" x="316.420635" xlink:href="#maf4ad47ff3" y="384.48"/>
      </g>
     </g>
     <g id="text_5">
      <!-- 2006 -->
      <defs>
       <path d="M 33.015625 40.375 
Q 26.375 40.375 22.484375 35.828125 
Q 18.609375 31.296875 18.609375 23.390625 
Q 18.609375 15.53125 22.484375 10.953125 
Q 26.375 6.390625 33.015625 6.390625 
Q 39.65625 6.390625 43.53125 10.953125 
Q 47.40625 15.53125 47.40625 23.390625 
Q 47.40625 31.296875 43.53125 35.828125 
Q 39.65625 40.375 33.015625 40.375 
z
M 52.59375 71.296875 
L 52.59375 62.3125 
Q 48.875 64.0625 45.09375 64.984375 
Q 41.3125 65.921875 37.59375 65.921875 
Q 27.828125 65.921875 22.671875 59.328125 
Q 17.53125 52.734375 16.796875 39.40625 
Q 19.671875 43.65625 24.015625 45.921875 
Q 28.375 48.1875 33.59375 48.1875 
Q 44.578125 48.1875 50.953125 41.515625 
Q 57.328125 34.859375 57.328125 23.390625 
Q 57.328125 12.15625 50.6875 5.359375 
Q 44.046875 -1.421875 33.015625 -1.421875 
Q 20.359375 -1.421875 13.671875 8.265625 
Q 6.984375 17.96875 6.984375 36.375 
Q 6.984375 53.65625 15.1875 63.9375 
Q 23.390625 74.21875 37.203125 74.21875 
Q 40.921875 74.21875 44.703125 73.484375 
Q 48.484375 72.75 52.59375 71.296875 
z
" id="DejaVuSans-36"/>
      </defs>
      <g transform="translate(303.695635 399.078438)scale(0.1 -0.1)">
       <use xlink:href="#DejaVuSans-32"/>
       <use x="63.623047" xlink:href="#DejaVuSans-30"/>
       <use x="127.246094" xlink:href="#DejaVuSans-30"/>
       <use x="190.869141" xlink:href="#DejaVuSans-36"/>
      </g>
     </g>
    </g>
    <g id="xtick_6">
     <g id="line2d_6">
      <g>
       <use style="stroke:#000000;stroke-width:0.8;" x="358.54709" xlink:href="#maf4ad47ff3" y="384.48"/>
      </g>
     </g>
     <g id="text_6">
      <!-- 2007 -->
      <defs>
       <path d="M 8.203125 72.90625 
L 55.078125 72.90625 
L 55.078125 68.703125 
L 28.609375 0 
L 18.3125 0 
L 43.21875 64.59375 
L 8.203125 64.59375 
z
" id="DejaVuSans-37"/>
      </defs>
      <g transform="translate(345.82209 399.078438)scale(0.1 -0.1)">
       <use xlink:href="#DejaVuSans-32"/>
       <use x="63.623047" xlink:href="#DejaVuSans-30"/>
       <use x="127.246094" xlink:href="#DejaVuSans-30"/>
       <use x="190.869141" xlink:href="#DejaVuSans-37"/>
      </g>
     </g>
    </g>
    <g id="xtick_7">
     <g id="line2d_7">
      <g>
       <use style="stroke:#000000;stroke-width:0.8;" x="400.673545" xlink:href="#maf4ad47ff3" y="384.48"/>
      </g>
     </g>
     <g id="text_7">
      <!-- 2008 -->
      <defs>
       <path d="M 31.78125 34.625 
Q 24.75 34.625 20.71875 30.859375 
Q 16.703125 27.09375 16.703125 20.515625 
Q 16.703125 13.921875 20.71875 10.15625 
Q 24.75 6.390625 31.78125 6.390625 
Q 38.8125 6.390625 42.859375 10.171875 
Q 46.921875 13.96875 46.921875 20.515625 
Q 46.921875 27.09375 42.890625 30.859375 
Q 38.875 34.625 31.78125 34.625 
z
M 21.921875 38.8125 
Q 15.578125 40.375 12.03125 44.71875 
Q 8.5 49.078125 8.5 55.328125 
Q 8.5 64.0625 14.71875 69.140625 
Q 20.953125 74.21875 31.78125 74.21875 
Q 42.671875 74.21875 48.875 69.140625 
Q 55.078125 64.0625 55.078125 55.328125 
Q 55.078125 49.078125 51.53125 44.71875 
Q 48 40.375 41.703125 38.8125 
Q 48.828125 37.15625 52.796875 32.3125 
Q 56.78125 27.484375 56.78125 20.515625 
Q 56.78125 9.90625 50.3125 4.234375 
Q 43.84375 -1.421875 31.78125 -1.421875 
Q 19.734375 -1.421875 13.25 4.234375 
Q 6.78125 9.90625 6.78125 20.515625 
Q 6.78125 27.484375 10.78125 32.3125 
Q 14.796875 37.15625 21.921875 38.8125 
z
M 18.3125 54.390625 
Q 18.3125 48.734375 21.84375 45.5625 
Q 25.390625 42.390625 31.78125 42.390625 
Q 38.140625 42.390625 41.71875 45.5625 
Q 45.3125 48.734375 45.3125 54.390625 
Q 45.3125 60.0625 41.71875 63.234375 
Q 38.140625 66.40625 31.78125 66.40625 
Q 25.390625 66.40625 21.84375 63.234375 
Q 18.3125 60.0625 18.3125 54.390625 
z
" id="DejaVuSans-38"/>
      </defs>
      <g transform="translate(387.948545 399.078438)scale(0.1 -0.1)">
       <use xlink:href="#DejaVuSans-32"/>
       <use x="63.623047" xlink:href="#DejaVuSans-30"/>
       <use x="127.246094" xlink:href="#DejaVuSans-30"/>
       <use x="190.869141" xlink:href="#DejaVuSans-38"/>
      </g>
     </g>
    </g>
    <g id="xtick_8">
     <g id="line2d_8">
      <g>
       <use style="stroke:#000000;stroke-width:0.8;" x="442.8" xlink:href="#maf4ad47ff3" y="384.48"/>
      </g>
     </g>
     <g id="text_8">
      <!-- 2009 -->
      <defs>
       <path d="M 10.984375 1.515625 
L 10.984375 10.5 
Q 14.703125 8.734375 18.5 7.8125 
Q 22.3125 6.890625 25.984375 6.890625 
Q 35.75 6.890625 40.890625 13.453125 
Q 46.046875 20.015625 46.78125 33.40625 
Q 43.953125 29.203125 39.59375 26.953125 
Q 35.25 24.703125 29.984375 24.703125 
Q 19.046875 24.703125 12.671875 31.3125 
Q 6.296875 37.9375 6.296875 49.421875 
Q 6.296875 60.640625 12.9375 67.421875 
Q 19.578125 74.21875 30.609375 74.21875 
Q 43.265625 74.21875 49.921875 64.515625 
Q 56.59375 54.828125 56.59375 36.375 
Q 56.59375 19.140625 48.40625 8.859375 
Q 40.234375 -1.421875 26.421875 -1.421875 
Q 22.703125 -1.421875 18.890625 -0.6875 
Q 15.09375 0.046875 10.984375 1.515625 
z
M 30.609375 32.421875 
Q 37.25 32.421875 41.125 36.953125 
Q 45.015625 41.5 45.015625 49.421875 
Q 45.015625 57.28125 41.125 61.84375 
Q 37.25 66.40625 30.609375 66.40625 
Q 23.96875 66.40625 20.09375 61.84375 
Q 16.21875 57.28125 16.21875 49.421875 
Q 16.21875 41.5 20.09375 36.953125 
Q 23.96875 32.421875 30.609375 32.421875 
z
" id="DejaVuSans-39"/>
      </defs>
      <g transform="translate(430.075 399.078438)scale(0.1 -0.1)">
       <use xlink:href="#DejaVuSans-32"/>
       <use x="63.623047" xlink:href="#DejaVuSans-30"/>
       <use x="127.246094" xlink:href="#DejaVuSans-30"/>
       <use x="190.869141" xlink:href="#DejaVuSans-39"/>
      </g>
     </g>
    </g>
    <g id="xtick_9">
     <g id="line2d_9">
      <g>
       <use style="stroke:#000000;stroke-width:0.8;" x="484.926455" xlink:href="#maf4ad47ff3" y="384.48"/>
      </g>
     </g>
     <g id="text_9">
      <!-- 2010 -->
      <defs>
       <path d="M 12.40625 8.296875 
L 28.515625 8.296875 
L 28.515625 63.921875 
L 10.984375 60.40625 
L 10.984375 69.390625 
L 28.421875 72.90625 
L 38.28125 72.90625 
L 38.28125 8.296875 
L 54.390625 8.296875 
L 54.390625 0 
L 12.40625 0 
z
" id="DejaVuSans-31"/>
      </defs>
      <g transform="translate(472.201455 399.078438)scale(0.1 -0.1)">
       <use xlink:href="#DejaVuSans-32"/>
       <use x="63.623047" xlink:href="#DejaVuSans-30"/>
       <use x="127.246094" xlink:href="#DejaVuSans-31"/>
       <use x="190.869141" xlink:href="#DejaVuSans-30"/>
      </g>
     </g>
    </g>
    <g id="xtick_10">
     <g id="line2d_10">
      <g>
       <use style="stroke:#000000;stroke-width:0.8;" x="527.05291" xlink:href="#maf4ad47ff3" y="384.48"/>
      </g>
     </g>
     <g id="text_10">
      <!-- 2011 -->
      <g transform="translate(514.32791 399.078438)scale(0.1 -0.1)">
       <use xlink:href="#DejaVuSans-32"/>
       <use x="63.623047" xlink:href="#DejaVuSans-30"/>
       <use x="127.246094" xlink:href="#DejaVuSans-31"/>
       <use x="190.869141" xlink:href="#DejaVuSans-31"/>
      </g>
     </g>
    </g>
    <g id="xtick_11">
     <g id="line2d_11">
      <g>
       <use style="stroke:#000000;stroke-width:0.8;" x="569.179365" xlink:href="#maf4ad47ff3" y="384.48"/>
      </g>
     </g>
     <g id="text_11">
      <!-- 2012 -->
      <g transform="translate(556.454365 399.078438)scale(0.1 -0.1)">
       <use xlink:href="#DejaVuSans-32"/>
       <use x="63.623047" xlink:href="#DejaVuSans-30"/>
       <use x="127.246094" xlink:href="#DejaVuSans-31"/>
       <use x="190.869141" xlink:href="#DejaVuSans-32"/>
      </g>
     </g>
    </g>
    <g id="xtick_12">
     <g id="line2d_12">
      <g>
       <use style="stroke:#000000;stroke-width:0.8;" x="611.305819" xlink:href="#maf4ad47ff3" y="384.48"/>
      </g>
     </g>
     <g id="text_12">
      <!-- 2013 -->
      <g transform="translate(598.580819 399.078438)scale(0.1 -0.1)">
       <use xlink:href="#DejaVuSans-32"/>
       <use x="63.623047" xlink:href="#DejaVuSans-30"/>
       <use x="127.246094" xlink:href="#DejaVuSans-31"/>
       <use x="190.869141" xlink:href="#DejaVuSans-33"/>
      </g>
     </g>
    </g>
    <g id="xtick_13">
     <g id="line2d_13">
      <g>
       <use style="stroke:#000000;stroke-width:0.8;" x="653.432274" xlink:href="#maf4ad47ff3" y="384.48"/>
      </g>
     </g>
     <g id="text_13">
      <!-- 2014 -->
      <g transform="translate(640.707274 399.078438)scale(0.1 -0.1)">
       <use xlink:href="#DejaVuSans-32"/>
       <use x="63.623047" xlink:href="#DejaVuSans-30"/>
       <use x="127.246094" xlink:href="#DejaVuSans-31"/>
       <use x="190.869141" xlink:href="#DejaVuSans-34"/>
      </g>
     </g>
    </g>
    <g id="xtick_14">
     <g id="line2d_14">
      <g>
       <use style="stroke:#000000;stroke-width:0.8;" x="695.558729" xlink:href="#maf4ad47ff3" y="384.48"/>
      </g>
     </g>
     <g id="text_14">
      <!-- 2015 -->
      <g transform="translate(682.833729 399.078438)scale(0.1 -0.1)">
       <use xlink:href="#DejaVuSans-32"/>
       <use x="63.623047" xlink:href="#DejaVuSans-30"/>
       <use x="127.246094" xlink:href="#DejaVuSans-31"/>
       <use x="190.869141" xlink:href="#DejaVuSans-35"/>
      </g>
     </g>
    </g>
    <g id="xtick_15">
     <g id="line2d_15">
      <g>
       <use style="stroke:#000000;stroke-width:0.8;" x="737.685184" xlink:href="#maf4ad47ff3" y="384.48"/>
      </g>
     </g>
     <g id="text_15">
      <!-- 2016 -->
      <g transform="translate(724.960184 399.078438)scale(0.1 -0.1)">
       <use xlink:href="#DejaVuSans-32"/>
       <use x="63.623047" xlink:href="#DejaVuSans-30"/>
       <use x="127.246094" xlink:href="#DejaVuSans-31"/>
       <use x="190.869141" xlink:href="#DejaVuSans-36"/>
      </g>
     </g>
    </g>
   </g>
   <g id="matplotlib.axis_2">
    <g id="ytick_1">
     <g id="line2d_16">
      <path clip-path="url(#pc32f6aa267)" d="M 108 363.777785 
L 777.6 363.777785 
" style="fill:none;stroke:#b0b0b0;stroke-dasharray:2.96,1.28;stroke-dashoffset:0;stroke-width:0.8;"/>
     </g>
     <g id="line2d_17">
      <defs>
       <path d="M 0 0 
L -3.5 0 
" id="m5c51e9139f" style="stroke:#000000;stroke-width:0.8;"/>
      </defs>
      <g>
       <use style="stroke:#000000;stroke-width:0.8;" x="108" xlink:href="#m5c51e9139f" y="363.777785"/>
      </g>
     </g>
     <g id="text_16">
      <!-- 0 -->
      <g transform="translate(94.6375 367.577003)scale(0.1 -0.1)">
       <use xlink:href="#DejaVuSans-30"/>
      </g>
     </g>
    </g>
    <g id="ytick_2">
     <g id="line2d_18">
      <path clip-path="url(#pc32f6aa267)" d="M 108 312.713162 
L 777.6 312.713162 
" style="fill:none;stroke:#b0b0b0;stroke-dasharray:2.96,1.28;stroke-dashoffset:0;stroke-width:0.8;"/>
     </g>
     <g id="line2d_19">
      <g>
       <use style="stroke:#000000;stroke-width:0.8;" x="108" xlink:href="#m5c51e9139f" y="312.713162"/>
      </g>
     </g>
     <g id="text_17">
      <!-- 20 -->
      <g transform="translate(88.275 316.512381)scale(0.1 -0.1)">
       <use xlink:href="#DejaVuSans-32"/>
       <use x="63.623047" xlink:href="#DejaVuSans-30"/>
      </g>
     </g>
    </g>
    <g id="ytick_3">
     <g id="line2d_20">
      <path clip-path="url(#pc32f6aa267)" d="M 108 261.64854 
L 777.6 261.64854 
" style="fill:none;stroke:#b0b0b0;stroke-dasharray:2.96,1.28;stroke-dashoffset:0;stroke-width:0.8;"/>
     </g>
     <g id="line2d_21">
      <g>
       <use style="stroke:#000000;stroke-width:0.8;" x="108" xlink:href="#m5c51e9139f" y="261.64854"/>
      </g>
     </g>
     <g id="text_18">
      <!-- 40 -->
      <g transform="translate(88.275 265.447759)scale(0.1 -0.1)">
       <use xlink:href="#DejaVuSans-34"/>
       <use x="63.623047" xlink:href="#DejaVuSans-30"/>
      </g>
     </g>
    </g>
    <g id="ytick_4">
     <g id="line2d_22">
      <path clip-path="url(#pc32f6aa267)" d="M 108 210.583918 
L 777.6 210.583918 
" style="fill:none;stroke:#b0b0b0;stroke-dasharray:2.96,1.28;stroke-dashoffset:0;stroke-width:0.8;"/>
     </g>
     <g id="line2d_23">
      <g>
       <use style="stroke:#000000;stroke-width:0.8;" x="108" xlink:href="#m5c51e9139f" y="210.583918"/>
      </g>
     </g>
     <g id="text_19">
      <!-- 60 -->
      <g transform="translate(88.275 214.383136)scale(0.1 -0.1)">
       <use xlink:href="#DejaVuSans-36"/>
       <use x="63.623047" xlink:href="#DejaVuSans-30"/>
      </g>
     </g>
    </g>
    <g id="ytick_5">
     <g id="line2d_24">
      <path clip-path="url(#pc32f6aa267)" d="M 108 159.519295 
L 777.6 159.519295 
" style="fill:none;stroke:#b0b0b0;stroke-dasharray:2.96,1.28;stroke-dashoffset:0;stroke-width:0.8;"/>
     </g>
     <g id="line2d_25">
      <g>
       <use style="stroke:#000000;stroke-width:0.8;" x="108" xlink:href="#m5c51e9139f" y="159.519295"/>
      </g>
     </g>
     <g id="text_20">
      <!-- 80 -->
      <g transform="translate(88.275 163.318514)scale(0.1 -0.1)">
       <use xlink:href="#DejaVuSans-38"/>
       <use x="63.623047" xlink:href="#DejaVuSans-30"/>
      </g>
     </g>
    </g>
    <g id="ytick_6">
     <g id="line2d_26">
      <path clip-path="url(#pc32f6aa267)" d="M 108 108.454673 
L 777.6 108.454673 
" style="fill:none;stroke:#b0b0b0;stroke-dasharray:2.96,1.28;stroke-dashoffset:0;stroke-width:0.8;"/>
     </g>
     <g id="line2d_27">
      <g>
       <use style="stroke:#000000;stroke-width:0.8;" x="108" xlink:href="#m5c51e9139f" y="108.454673"/>
      </g>
     </g>
     <g id="text_21">
      <!-- 100 -->
      <g transform="translate(81.9125 112.253892)scale(0.1 -0.1)">
       <use xlink:href="#DejaVuSans-31"/>
       <use x="63.623047" xlink:href="#DejaVuSans-30"/>
       <use x="127.246094" xlink:href="#DejaVuSans-30"/>
      </g>
     </g>
    </g>
    <g id="ytick_7">
     <g id="line2d_28">
      <path clip-path="url(#pc32f6aa267)" d="M 108 57.390051 
L 777.6 57.390051 
" style="fill:none;stroke:#b0b0b0;stroke-dasharray:2.96,1.28;stroke-dashoffset:0;stroke-width:0.8;"/>
     </g>
     <g id="line2d_29">
      <g>
       <use style="stroke:#000000;stroke-width:0.8;" x="108" xlink:href="#m5c51e9139f" y="57.390051"/>
      </g>
     </g>
     <g id="text_22">
      <!-- 120 -->
      <g transform="translate(81.9125 61.189269)scale(0.1 -0.1)">
       <use xlink:href="#DejaVuSans-31"/>
       <use x="63.623047" xlink:href="#DejaVuSans-32"/>
       <use x="127.246094" xlink:href="#DejaVuSans-30"/>
      </g>
     </g>
    </g>
   </g>
   <g id="patch_33">
    <path d="M 108 384.48 
L 108 51.84 
" style="fill:none;stroke:#000000;stroke-linecap:square;stroke-linejoin:miter;stroke-width:0.8;"/>
   </g>
   <g id="patch_34">
    <path d="M 777.6 384.48 
L 777.6 51.84 
" style="fill:none;stroke:#000000;stroke-linecap:square;stroke-linejoin:miter;stroke-width:0.8;"/>
   </g>
   <g id="patch_35">
    <path d="M 108 384.48 
L 777.6 384.48 
" style="fill:none;stroke:#000000;stroke-linecap:square;stroke-linejoin:miter;stroke-width:0.8;"/>
   </g>
   <g id="patch_36">
    <path d="M 108 51.84 
L 777.6 51.84 
" style="fill:none;stroke:#000000;stroke-linecap:square;stroke-linejoin:miter;stroke-width:0.8;"/>
   </g>
   <g id="text_23">
    <!-- 收入增长率 与 利润增长率 -->
    <defs>
     <path d="M 35.0625 41.546875 
Q 47.5625 63.234375 53.125 83.453125 
L 61.03125 81.203125 
Q 57.90625 72.171875 54.5 63.921875 
L 97.078125 63.921875 
L 97.078125 56.6875 
L 85.59375 56.6875 
Q 84.125 28.421875 71.09375 10.640625 
Q 81 1.859375 99.21875 -4.640625 
Q 96.1875 -8.453125 93.65625 -12.453125 
Q 76.265625 -5.03125 65.921875 4.6875 
Q 56.5 -4.59375 39.84375 -13.328125 
Q 37.796875 -10.109375 34.859375 -6.78125 
Q 51.515625 1.5625 60.59375 10.5 
Q 49.3125 24.609375 46 45.5625 
Q 43.265625 40.234375 40.328125 35.296875 
Q 38.484375 38.140625 35.0625 41.546875 
z
M 26.265625 82.671875 
L 33.6875 82.671875 
L 33.6875 -12.75 
L 26.265625 -12.75 
L 26.265625 17.390625 
Q 20.3125 14.0625 14.15625 10.015625 
Q 11.625 8.15625 9.1875 5.609375 
L 3.609375 12.15625 
Q 6.640625 15.375 6.640625 20.5625 
L 6.640625 69 
L 14.0625 69 
L 14.0625 19 
Q 19.875 22.078125 26.265625 25.53125 
z
M 77.875 56.6875 
L 51.90625 56.6875 
Q 53.328125 32.859375 65.671875 16.546875 
Q 76.8125 32.234375 77.875 56.6875 
z
" id="MicrosoftYaHei-6536"/>
     <path d="M 28.609375 77.296875 
L 35.0625 81.890625 
Q 46 75.140625 59.078125 47.3125 
Q 77.34375 7.375 98.734375 -1.421875 
L 91.890625 -10.015625 
Q 70.515625 2.6875 52.34375 43.5 
Q 50.875 46.78125 49.46875 49.75 
Q 38.140625 10.9375 7.328125 -10.59375 
Q 4.6875 -6.6875 1.375 -3.265625 
Q 33.0625 16.703125 44.046875 59.90625 
Q 36.375 72.703125 28.609375 77.296875 
z
" id="MicrosoftYaHei-5165"/>
     <path d="M 34.1875 69.671875 
L 50.921875 69.671875 
Q 47.515625 74.703125 43.359375 79.9375 
L 48.921875 83.84375 
Q 54 77.984375 57.71875 72.90625 
L 53.171875 69.671875 
L 69.578125 69.671875 
Q 74.359375 76.375 78.90625 83.9375 
L 85.9375 79.9375 
Q 81.78125 74.5625 77.78125 69.671875 
L 94.34375 69.671875 
L 94.34375 33.15625 
L 87.5 33.15625 
L 87.5 36.078125 
L 41.015625 36.078125 
L 41.015625 33.15625 
L 34.1875 33.15625 
z
M 38.09375 28.078125 
L 90.4375 28.078125 
L 90.4375 -13.234375 
L 83.40625 -13.234375 
L 83.40625 -8.546875 
L 45.125 -8.546875 
L 45.125 -13.234375 
L 38.09375 -13.234375 
z
M 1.265625 6.6875 
Q 7.28125 8.40625 13.96875 10.5 
L 13.96875 50.828125 
L 2.25 50.828125 
L 2.25 57.765625 
L 13.96875 57.765625 
L 13.96875 82.171875 
L 21.1875 82.171875 
L 21.1875 57.765625 
L 31.25 57.765625 
L 31.25 50.828125 
L 21.1875 50.828125 
L 21.1875 12.796875 
Q 26.703125 14.546875 32.71875 16.546875 
Q 32.90625 11.859375 33.203125 8.640625 
Q 20.40625 4.9375 3.90625 -0.828125 
z
M 87.5 63.8125 
L 67.578125 63.8125 
L 67.578125 41.9375 
L 87.5 41.9375 
z
M 41.015625 41.9375 
L 60.84375 41.9375 
L 60.84375 63.8125 
L 41.015625 63.8125 
z
M 83.40625 22.015625 
L 45.125 22.015625 
L 45.125 12.640625 
L 83.40625 12.640625 
z
M 45.125 -2.484375 
L 83.40625 -2.484375 
L 83.40625 6.78125 
L 45.125 6.78125 
z
M 83.59375 56.390625 
Q 78.21875 47.90625 75.875 45.0625 
L 70.609375 48.1875 
Q 74.125 52.984375 77.828125 59.8125 
z
M 44.734375 56.203125 
L 49.703125 59.421875 
Q 54.109375 53.765625 57.328125 48.78125 
L 51.859375 45.265625 
Q 48.734375 50.4375 44.734375 56.203125 
z
" id="MicrosoftYaHei-589e"/>
     <path d="M 2.640625 43.21875 
L 19.828125 43.21875 
L 19.828125 83.0625 
L 27.828125 83.0625 
L 27.828125 43.21875 
L 96.78125 43.21875 
L 96.78125 35.59375 
L 54 35.59375 
Q 66.21875 8.84375 98.828125 -1.21875 
Q 95.515625 -5.609375 92.875 -9.234375 
Q 57.765625 4.15625 45.703125 35.59375 
L 27.828125 35.59375 
L 27.828125 0.25 
Q 38.96875 4.734375 51.46875 10.59375 
Q 51.46875 6 51.859375 1.8125 
Q 40.234375 -2.984375 29.59375 -8.25 
Q 25.6875 -10.40625 22.359375 -13.03125 
L 16.5 -5.515625 
Q 19.828125 -2.875 19.828125 1.609375 
L 19.828125 35.59375 
L 2.640625 35.59375 
z
M 33.6875 55.125 
Q 57.90625 63.234375 80.28125 79.828125 
L 85.359375 73.484375 
Q 62.5 56.78125 37.5 47.90625 
Q 35.9375 51.21875 33.6875 55.125 
z
" id="MicrosoftYaHei-957f"/>
     <path d="M 39.453125 31.390625 
Q 40.96875 31.5 61.375 32.515625 
Q 58.9375 35.9375 56.640625 38.921875 
L 61.921875 42.234375 
Q 68.953125 34.421875 74.90625 25.828125 
L 68.65625 21.921875 
Q 66.9375 24.515625 65.28125 26.953125 
Q 46.734375 25.921875 34.578125 24.953125 
Q 32.421875 24.75 29.390625 24.078125 
L 26.953125 30.71875 
Q 29.890625 31.6875 31.34375 32.5625 
Q 39.59375 38.140625 47.65625 45.515625 
Q 40.578125 45.21875 35.546875 44.78125 
Q 33.5 44.484375 31.0625 43.890625 
L 28.125 49.859375 
Q 30.5625 50.734375 32.625 52.59375 
Q 39.203125 58.15625 44.921875 66.0625 
L 3.609375 66.0625 
L 3.609375 72.90625 
L 47.359375 72.90625 
Q 44.96875 77.25 42.875 80.515625 
L 49.90625 83.9375 
Q 53.71875 78.125 56.5 72.90625 
L 96.484375 72.90625 
L 96.484375 66.0625 
L 47.703125 66.0625 
L 52.34375 63.625 
Q 44.4375 55.515625 38.96875 50.734375 
Q 44.53125 50.875 53.515625 51.078125 
Q 57.421875 54.984375 61.328125 59.328125 
L 68.0625 55.421875 
Q 52.546875 40.671875 39.453125 31.390625 
z
M 2.25 15.484375 
L 46.78125 15.484375 
L 46.78125 24.078125 
L 54.5 24.078125 
L 54.5 15.484375 
L 98.046875 15.484375 
L 98.046875 8.640625 
L 54.5 8.640625 
L 54.5 -13.328125 
L 46.78125 -13.328125 
L 46.78125 8.640625 
L 2.25 8.640625 
z
M 26.859375 41.75 
L 30.375 35.984375 
Q 18.75 29.15625 6.640625 22.015625 
L 2.546875 28.5625 
Q 12.703125 33.34375 26.859375 41.75 
z
M 75.875 41.84375 
Q 89.84375 33.9375 97.65625 28.375 
L 93.359375 22.015625 
Q 83.296875 29.828125 71.875 36.578125 
z
M 93.65625 56.109375 
Q 86.234375 49.65625 77.546875 43.890625 
L 72.5625 49.078125 
Q 81.9375 55.21875 88.09375 61.375 
z
M 5.671875 56.78125 
L 10.640625 61.578125 
Q 18.75 55.125 24.8125 49.359375 
L 19.34375 44 
Q 13.671875 49.953125 5.671875 56.78125 
z
" id="MicrosoftYaHei-7387"/>
     <path id="MicrosoftYaHei-20"/>
     <path d="M 18.171875 37.25 
L 18.171875 44.671875 
L 22.078125 83.25 
L 30.171875 83.25 
L 28.65625 67.71875 
L 97.953125 67.71875 
L 97.953125 60.296875 
L 27.984375 60.296875 
L 26.46875 44.671875 
L 90.828125 44.671875 
Q 89.65625 24.171875 88.1875 6.5 
Q 86.8125 -3.859375 82.234375 -7.46875 
Q 77.828125 -10.984375 67.53125 -10.984375 
Q 57.90625 -10.890625 45.3125 -10.59375 
Q 44.734375 -7.28125 43.65625 -2.09375 
Q 58.5 -3.171875 65.828125 -3.265625 
Q 78.90625 -4.15625 80.078125 6.984375 
Q 81.34375 19.96875 82.234375 37.25 
z
M 1.65625 22.015625 
L 74.03125 22.015625 
L 74.03125 14.59375 
L 1.65625 14.59375 
z
" id="MicrosoftYaHei-4e0e"/>
     <path d="M 1.171875 11.578125 
Q 14.265625 25.828125 23.25 46.828125 
L 1.65625 46.828125 
L 1.65625 53.953125 
L 25.09375 53.953125 
L 25.09375 68.609375 
Q 15.046875 67.625 5.171875 66.75 
Q 4.5 70.359375 3.21875 74.171875 
Q 26.65625 76.03125 51.078125 79.15625 
L 53.03125 71.734375 
Q 42.671875 70.453125 32.515625 69.390625 
L 32.515625 53.953125 
L 54.6875 53.953125 
L 54.6875 46.828125 
L 32.515625 46.828125 
L 32.515625 33.734375 
L 36.8125 37.84375 
Q 46 30.03125 55.078125 21.046875 
L 49.125 14.984375 
Q 43.171875 21.921875 32.515625 32.078125 
L 32.515625 -12.9375 
L 25.09375 -12.9375 
L 25.09375 35.890625 
Q 16.703125 16.9375 5.078125 2.78125 
Q 2.4375 9.125 1.171875 11.578125 
z
M 85.0625 81.203125 
L 92.78125 81.203125 
L 92.78125 -0.140625 
Q 92.78125 -12.546875 80.28125 -12.453125 
Q 76.265625 -12.453125 67.28125 -12.359375 
Q 66.703125 -8.34375 65.828125 -3.5625 
Q 73.734375 -4.4375 77.828125 -4.4375 
Q 85.0625 -4.546875 85.0625 2.875 
z
M 61.921875 71.4375 
L 69.34375 71.4375 
L 69.34375 9.71875 
L 61.921875 9.71875 
z
" id="MicrosoftYaHei-5229"/>
     <path d="M 54.6875 76.8125 
L 95.125 76.8125 
L 95.125 -0.53125 
Q 95.125 -11.96875 83.40625 -11.96875 
Q 77.9375 -11.96875 70.21875 -11.859375 
Q 69.734375 -8.640625 68.75 -4.34375 
Q 76.953125 -4.9375 81.453125 -4.9375 
Q 87.703125 -4.9375 87.703125 0.734375 
L 87.703125 70.171875 
L 54.6875 70.171875 
z
M 40.828125 14.703125 
L 58.59375 14.703125 
L 58.59375 31.203125 
L 43.359375 31.203125 
L 43.359375 37.25 
L 58.59375 37.25 
L 58.59375 52.296875 
L 41.890625 52.296875 
L 41.890625 58.546875 
L 82.328125 58.546875 
L 82.328125 52.296875 
L 65.625 52.296875 
L 65.625 37.25 
L 81.0625 37.25 
L 81.0625 31.203125 
L 65.625 31.203125 
L 65.625 14.703125 
L 83.59375 14.703125 
L 83.59375 8.453125 
L 40.828125 8.453125 
z
M 36.71875 -13.234375 
L 29.296875 -13.234375 
L 29.296875 65.484375 
L 36.71875 65.484375 
z
M 4 -9.90625 
Q 9.671875 6.890625 14.0625 27.875 
Q 18.359375 26.03125 21.96875 24.859375 
Q 15.921875 1.125 12.59375 -12.546875 
z
M 5.078125 75.828125 
L 10.15625 81 
Q 16.609375 76.125 26.953125 67.234375 
Q 23.640625 64.015625 21.09375 61.46875 
Q 11.03125 70.953125 5.078125 75.828125 
z
M 1.265625 50.34375 
L 6.25 55.90625 
Q 14.65625 50.140625 23.046875 43.40625 
Q 19.828125 39.984375 17.390625 37.0625 
Q 7.8125 45.5625 1.265625 50.34375 
z
M 34.1875 78.46875 
L 39.65625 82.671875 
Q 45.515625 76.21875 50.390625 70.171875 
L 44.046875 65.484375 
Q 39.9375 71.4375 34.1875 78.46875 
z
" id="MicrosoftYaHei-6da6"/>
    </defs>
    <g transform="translate(373.24875 45.84)scale(0.12 -0.12)">
     <use xlink:href="#MicrosoftYaHei-6536"/>
     <use x="100" xlink:href="#MicrosoftYaHei-5165"/>
     <use x="200" xlink:href="#MicrosoftYaHei-589e"/>
     <use x="300" xlink:href="#MicrosoftYaHei-957f"/>
     <use x="400" xlink:href="#MicrosoftYaHei-7387"/>
     <use x="500" xlink:href="#MicrosoftYaHei-20"/>
     <use x="529.589844" xlink:href="#MicrosoftYaHei-4e0e"/>
     <use x="629.589844" xlink:href="#MicrosoftYaHei-20"/>
     <use x="659.179688" xlink:href="#MicrosoftYaHei-5229"/>
     <use x="759.179688" xlink:href="#MicrosoftYaHei-6da6"/>
     <use x="859.179688" xlink:href="#MicrosoftYaHei-589e"/>
     <use x="959.179688" xlink:href="#MicrosoftYaHei-957f"/>
     <use x="1059.179688" xlink:href="#MicrosoftYaHei-7387"/>
    </g>
   </g>
   <g id="legend_1">
    <g id="patch_37">
     <path d="M 264.12375 429.287625 
L 621.47625 429.287625 
Q 623.87625 429.287625 623.87625 426.887625 
L 623.87625 409.512 
Q 623.87625 407.112 621.47625 407.112 
L 264.12375 407.112 
Q 261.72375 407.112 261.72375 409.512 
L 261.72375 426.887625 
Q 261.72375 429.287625 264.12375 429.287625 
z
" style="fill:#ffffff;opacity:0.8;stroke:#cccccc;stroke-linejoin:miter;"/>
    </g>
    <g id="patch_38">
     <path d="M 266.52375 421.5045 
L 290.52375 421.5045 
L 290.52375 413.1045 
L 266.52375 413.1045 
z
" style="fill:#c00000;"/>
    </g>
    <g id="text_24">
     <!-- 收入增长率（单位：%） -->
     <defs>
      <path d="M 57.625 -17.1875 
Q 40.1875 1.859375 40.1875 28.90625 
Q 40.1875 56.296875 57.625 75.59375 
L 66.015625 75.59375 
Q 48.6875 55.8125 48.6875 29 
Q 48.6875 2.59375 65.921875 -17.1875 
z
" id="MicrosoftYaHei-ff08"/>
      <path d="M 1.953125 14.203125 
L 46.1875 14.203125 
L 46.1875 25.25 
L 19.140625 25.25 
L 19.140625 20.65625 
L 11.71875 20.65625 
L 11.71875 68.015625 
L 31.984375 68.015625 
Q 27.296875 73.484375 21.875 79.25 
L 27.4375 83.84375 
Q 34.671875 76.90625 40.140625 71.046875 
L 36.53125 68.015625 
L 59.421875 68.015625 
Q 64.796875 75.140625 70.3125 83.546875 
L 78.125 79.34375 
Q 73.09375 73.25 68.40625 68.015625 
L 88.375 68.015625 
L 88.375 20.65625 
L 80.953125 20.65625 
L 80.953125 25.25 
L 53.8125 25.25 
L 53.8125 14.203125 
L 98.046875 14.203125 
L 98.046875 7.171875 
L 53.8125 7.171875 
L 53.8125 -13.421875 
L 46.1875 -13.421875 
L 46.1875 7.171875 
L 1.953125 7.171875 
z
M 53.8125 32.078125 
L 80.953125 32.078125 
L 80.953125 43.40625 
L 53.8125 43.40625 
z
M 19.140625 32.078125 
L 46.1875 32.078125 
L 46.1875 43.40625 
L 19.140625 43.40625 
z
M 80.953125 61.1875 
L 53.8125 61.1875 
L 53.8125 50.046875 
L 80.953125 50.046875 
z
M 19.140625 50.046875 
L 46.1875 50.046875 
L 46.1875 61.1875 
L 19.140625 61.1875 
z
" id="MicrosoftYaHei-5355"/>
      <path d="M 27.9375 -0.921875 
L 66.0625 -0.921875 
Q 73.09375 17.875 82.328125 52.6875 
L 91.109375 50.046875 
Q 85.203125 31.9375 74.3125 -0.921875 
L 98.734375 -0.921875 
L 98.734375 -8.15625 
L 27.9375 -8.15625 
z
M 1.265625 35.796875 
Q 15.234375 56.890625 22.359375 83.15625 
L 30.671875 81.109375 
Q 26.609375 68.703125 21.96875 57.953125 
L 21.96875 -13.328125 
L 14.65625 -13.328125 
L 14.65625 42.671875 
Q 10.0625 34.078125 4.984375 26.8125 
Q 3.609375 30.515625 1.265625 35.796875 
z
M 29.984375 65.484375 
L 64.40625 65.484375 
Q 60.0625 72.796875 54.78125 79.046875 
L 61.421875 83.640625 
Q 65.71875 78.65625 72.078125 70.265625 
L 64.84375 65.484375 
L 96.96875 65.484375 
L 96.96875 58.25 
L 29.984375 58.25 
z
M 43.265625 51.703125 
Q 49.703125 34.125 57.328125 9.125 
L 49.21875 6.78125 
Q 42.578125 30.71875 35.84375 49.171875 
z
" id="MicrosoftYaHei-4f4d"/>
      <path d="M 50.09375 55.171875 
Q 52.6875 55.171875 54.53125 53.359375 
Q 56.390625 51.5625 56.390625 49.03125 
Q 56.390625 46.484375 54.578125 44.65625 
Q 52.78125 42.828125 50.09375 42.828125 
Q 47.40625 42.828125 45.59375 44.65625 
Q 43.796875 46.484375 43.796875 49.03125 
Q 43.796875 51.5625 45.65625 53.359375 
Q 47.515625 55.171875 50.09375 55.171875 
z
M 50.09375 11.1875 
Q 52.6875 11.1875 54.53125 9.375 
Q 56.390625 7.5625 56.390625 4.984375 
Q 56.390625 2.34375 54.53125 0.5625 
Q 52.6875 -1.21875 50.09375 -1.21875 
Q 47.515625 -1.21875 45.65625 0.5625 
Q 43.796875 2.34375 43.796875 4.984375 
Q 43.796875 7.5625 45.65625 9.375 
Q 47.515625 11.1875 50.09375 11.1875 
z
" id="MicrosoftYaHei-ff1a"/>
      <path d="M 4.25 56.546875 
Q 4.25 65.828125 9.203125 71.296875 
Q 14.15625 76.765625 22.5625 76.765625 
Q 30.609375 76.765625 35.125 71.734375 
Q 39.65625 66.703125 39.65625 57.71875 
Q 39.65625 48.78125 34.671875 43.203125 
Q 29.6875 37.640625 21.4375 37.640625 
Q 13.625 37.640625 8.9375 42.8125 
Q 4.25 48 4.25 56.546875 
z
M 11.765625 57.03125 
Q 11.765625 50.734375 14.5 47.3125 
Q 17.234375 43.890625 21.96875 43.890625 
Q 26.859375 43.890625 29.515625 47.4375 
Q 32.171875 50.984375 32.171875 57.421875 
Q 32.171875 63.71875 29.5625 67.15625 
Q 26.953125 70.609375 22.21875 70.609375 
Q 17.390625 70.609375 14.578125 67.015625 
Q 11.765625 63.421875 11.765625 57.03125 
z
M 72.609375 75.640625 
L 24.03125 -0.484375 
L 15.875 -0.484375 
L 64.453125 75.640625 
z
M 49.5625 17.71875 
Q 49.5625 27 54.515625 32.546875 
Q 59.46875 38.09375 67.828125 38.09375 
Q 75.828125 38.09375 80.359375 33.03125 
Q 84.90625 27.984375 84.90625 18.796875 
Q 84.90625 9.90625 79.875 4.359375 
Q 74.859375 -1.171875 66.75 -1.171875 
Q 58.890625 -1.171875 54.21875 4.078125 
Q 49.5625 9.328125 49.5625 17.71875 
z
M 57.03125 18.171875 
Q 57.03125 12.015625 59.765625 8.5625 
Q 62.5 5.125 67.234375 5.125 
Q 72.125 5.125 74.78125 8.6875 
Q 77.4375 12.25 77.4375 18.65625 
Q 77.4375 25 74.78125 28.359375 
Q 72.125 31.734375 67.484375 31.734375 
Q 62.5 31.734375 59.765625 28.140625 
Q 57.03125 24.5625 57.03125 18.171875 
z
" id="MicrosoftYaHei-25"/>
      <path d="M 42.390625 -17.1875 
L 33.984375 -17.1875 
Q 51.3125 2.546875 51.3125 29.5 
Q 51.3125 55.953125 34.078125 75.59375 
L 42.390625 75.59375 
Q 59.71875 56.6875 59.71875 29.5 
Q 59.71875 2 42.390625 -17.1875 
z
" id="MicrosoftYaHei-ff09"/>
     </defs>
     <g transform="translate(300.12375 421.5045)scale(0.12 -0.12)">
      <use xlink:href="#MicrosoftYaHei-6536"/>
      <use x="100" xlink:href="#MicrosoftYaHei-5165"/>
      <use x="200" xlink:href="#MicrosoftYaHei-589e"/>
      <use x="300" xlink:href="#MicrosoftYaHei-957f"/>
      <use x="400" xlink:href="#MicrosoftYaHei-7387"/>
      <use x="500" xlink:href="#MicrosoftYaHei-ff08"/>
      <use x="600" xlink:href="#MicrosoftYaHei-5355"/>
      <use x="700" xlink:href="#MicrosoftYaHei-4f4d"/>
      <use x="800" xlink:href="#MicrosoftYaHei-ff1a"/>
      <use x="900" xlink:href="#MicrosoftYaHei-25"/>
      <use x="988.964844" xlink:href="#MicrosoftYaHei-ff09"/>
     </g>
    </g>
    <g id="patch_39">
     <path d="M 454.8 421.5045 
L 478.8 421.5045 
L 478.8 413.1045 
L 454.8 413.1045 
z
" style="fill:#a6a6a6;"/>
    </g>
    <g id="text_25">
     <!-- 利润增长率（单位：%） -->
     <g transform="translate(488.4 421.5045)scale(0.12 -0.12)">
      <use xlink:href="#MicrosoftYaHei-5229"/>
      <use x="100" xlink:href="#MicrosoftYaHei-6da6"/>
      <use x="200" xlink:href="#MicrosoftYaHei-589e"/>
      <use x="300" xlink:href="#MicrosoftYaHei-957f"/>
      <use x="400" xlink:href="#MicrosoftYaHei-7387"/>
      <use x="500" xlink:href="#MicrosoftYaHei-ff08"/>
      <use x="600" xlink:href="#MicrosoftYaHei-5355"/>
      <use x="700" xlink:href="#MicrosoftYaHei-4f4d"/>
      <use x="800" xlink:href="#MicrosoftYaHei-ff1a"/>
      <use x="900" xlink:href="#MicrosoftYaHei-25"/>
      <use x="988.964844" xlink:href="#MicrosoftYaHei-ff09"/>
     </g>
    </g>
   </g>
  </g>
 </g>
 <defs>
  <clipPath id="pc32f6aa267">
   <rect height="332.64" width="669.6" x="108" y="51.84"/>
  </clipPath>
 </defs>
</svg>
