<?xml version="1.0" encoding="utf-8" standalone="no"?>
<!DOCTYPE svg PUBLIC "-//W3C//DTD SVG 1.1//EN"
  "http://www.w3.org/Graphics/SVG/1.1/DTD/svg11.dtd">
<!-- Created with matplotlib (http://matplotlib.org/) -->
<svg height="432pt" version="1.1" viewBox="0 0 864 432" width="864pt" xmlns="http://www.w3.org/2000/svg" xmlns:xlink="http://www.w3.org/1999/xlink">
 <defs>
  <style type="text/css">
*{stroke-linecap:butt;stroke-linejoin:round;}
  </style>
 </defs>
 <g id="figure_1">
  <g id="patch_1">
   <path d="M 0 432 
L 864 432 
L 864 0 
L 0 0 
z
" style="fill:#ffffff;"/>
  </g>
  <g id="axes_1">
   <g id="patch_2">
    <path d="M 108 384.48 
L 777.6 384.48 
L 777.6 51.84 
L 108 51.84 
z
" style="fill:#ffffff;"/>
   </g>
   <g id="patch_3">
    <path clip-path="url(#p2ec8b04377)" d="M 138.436364 384.48 
L 151.206866 384.48 
L 151.206866 355.395761 
L 138.436364 355.395761 
z
" style="fill:#a6a6a6;stroke-dasharray:11.1,4.8;stroke-dashoffset:0;"/>
   </g>
   <g id="patch_4">
    <path clip-path="url(#p2ec8b04377)" d="M 181.004704 384.48 
L 193.775207 384.48 
L 193.775207 340.609835 
L 181.004704 340.609835 
z
" style="fill:#a6a6a6;stroke-dasharray:11.1,4.8;stroke-dashoffset:0;"/>
   </g>
   <g id="patch_5">
    <path clip-path="url(#p2ec8b04377)" d="M 223.573045 384.48 
L 236.343547 384.48 
L 236.343547 323.032342 
L 223.573045 323.032342 
z
" style="fill:#a6a6a6;stroke-dasharray:11.1,4.8;stroke-dashoffset:0;"/>
   </g>
   <g id="patch_6">
    <path clip-path="url(#p2ec8b04377)" d="M 266.141386 384.48 
L 278.911888 384.48 
L 278.911888 302.232929 
L 266.141386 302.232929 
z
" style="fill:#a6a6a6;stroke-dasharray:11.1,4.8;stroke-dashoffset:0;"/>
   </g>
   <g id="patch_7">
    <path clip-path="url(#p2ec8b04377)" d="M 308.709727 384.48 
L 321.480229 384.48 
L 321.480229 290.18652 
L 308.709727 290.18652 
z
" style="fill:#a6a6a6;stroke-dasharray:11.1,4.8;stroke-dashoffset:0;"/>
   </g>
   <g id="patch_8">
    <path clip-path="url(#p2ec8b04377)" d="M 351.278067 384.48 
L 364.04857 384.48 
L 364.04857 250.998408 
L 351.278067 250.998408 
z
" style="fill:#a6a6a6;stroke-dasharray:11.1,4.8;stroke-dashoffset:0;"/>
   </g>
   <g id="patch_9">
    <path clip-path="url(#p2ec8b04377)" d="M 393.846408 384.48 
L 406.61691 384.48 
L 406.61691 225.545601 
L 393.846408 225.545601 
z
" style="fill:#a6a6a6;stroke-dasharray:11.1,4.8;stroke-dashoffset:0;"/>
   </g>
   <g id="patch_10">
    <path clip-path="url(#p2ec8b04377)" d="M 436.414749 384.48 
L 449.185251 384.48 
L 449.185251 211.238683 
L 436.414749 211.238683 
z
" style="fill:#a6a6a6;stroke-dasharray:11.1,4.8;stroke-dashoffset:0;"/>
   </g>
   <g id="patch_11">
    <path clip-path="url(#p2ec8b04377)" d="M 478.98309 384.48 
L 491.753592 384.48 
L 491.753592 162.605626 
L 478.98309 162.605626 
z
" style="fill:#a6a6a6;stroke-dasharray:11.1,4.8;stroke-dashoffset:0;"/>
   </g>
   <g id="patch_12">
    <path clip-path="url(#p2ec8b04377)" d="M 521.55143 384.48 
L 534.321933 384.48 
L 534.321933 165.529117 
L 521.55143 165.529117 
z
" style="fill:#a6a6a6;stroke-dasharray:11.1,4.8;stroke-dashoffset:0;"/>
   </g>
   <g id="patch_13">
    <path clip-path="url(#p2ec8b04377)" d="M 564.119771 384.48 
L 576.890273 384.48 
L 576.890273 141.864783 
L 564.119771 141.864783 
z
" style="fill:#a6a6a6;stroke-dasharray:11.1,4.8;stroke-dashoffset:0;"/>
   </g>
   <g id="patch_14">
    <path clip-path="url(#p2ec8b04377)" d="M 606.688112 384.48 
L 619.458614 384.48 
L 619.458614 109.809574 
L 606.688112 109.809574 
z
" style="fill:#a6a6a6;stroke-dasharray:11.1,4.8;stroke-dashoffset:0;"/>
   </g>
   <g id="patch_15">
    <path clip-path="url(#p2ec8b04377)" d="M 649.256453 384.48 
L 662.026955 384.48 
L 662.026955 105.255588 
L 649.256453 105.255588 
z
" style="fill:#a6a6a6;stroke-dasharray:11.1,4.8;stroke-dashoffset:0;"/>
   </g>
   <g id="patch_16">
    <path clip-path="url(#p2ec8b04377)" d="M 691.824793 384.48 
L 704.595296 384.48 
L 704.595296 111.360365 
L 691.824793 111.360365 
z
" style="fill:#a6a6a6;stroke-dasharray:11.1,4.8;stroke-dashoffset:0;"/>
   </g>
   <g id="patch_17">
    <path clip-path="url(#p2ec8b04377)" d="M 734.393134 384.48 
L 747.163636 384.48 
L 747.163636 67.68 
L 734.393134 67.68 
z
" style="fill:#a6a6a6;stroke-dasharray:11.1,4.8;stroke-dashoffset:0;"/>
   </g>
   <g id="matplotlib.axis_1">
    <g id="xtick_1">
     <g id="line2d_1">
      <defs>
       <path d="M 0 0 
L 0 2 
" id="m0842548353" style="stroke:#000000;stroke-width:2;"/>
      </defs>
      <g>
       <use style="stroke:#000000;stroke-width:2;" x="144.821615" xlink:href="#m0842548353" y="384.48"/>
      </g>
     </g>
     <g id="text_1">
      <!-- 2002 -->
      <defs>
       <path d="M 19.1875 8.296875 
L 53.609375 8.296875 
L 53.609375 0 
L 7.328125 0 
L 7.328125 8.296875 
Q 12.9375 14.109375 22.625 23.890625 
Q 32.328125 33.6875 34.8125 36.53125 
Q 39.546875 41.84375 41.421875 45.53125 
Q 43.3125 49.21875 43.3125 52.78125 
Q 43.3125 58.59375 39.234375 62.25 
Q 35.15625 65.921875 28.609375 65.921875 
Q 23.96875 65.921875 18.8125 64.3125 
Q 13.671875 62.703125 7.8125 59.421875 
L 7.8125 69.390625 
Q 13.765625 71.78125 18.9375 73 
Q 24.125 74.21875 28.421875 74.21875 
Q 39.75 74.21875 46.484375 68.546875 
Q 53.21875 62.890625 53.21875 53.421875 
Q 53.21875 48.921875 51.53125 44.890625 
Q 49.859375 40.875 45.40625 35.40625 
Q 44.1875 33.984375 37.640625 27.21875 
Q 31.109375 20.453125 19.1875 8.296875 
z
" id="DejaVuSans-32"/>
       <path d="M 31.78125 66.40625 
Q 24.171875 66.40625 20.328125 58.90625 
Q 16.5 51.421875 16.5 36.375 
Q 16.5 21.390625 20.328125 13.890625 
Q 24.171875 6.390625 31.78125 6.390625 
Q 39.453125 6.390625 43.28125 13.890625 
Q 47.125 21.390625 47.125 36.375 
Q 47.125 51.421875 43.28125 58.90625 
Q 39.453125 66.40625 31.78125 66.40625 
z
M 31.78125 74.21875 
Q 44.046875 74.21875 50.515625 64.515625 
Q 56.984375 54.828125 56.984375 36.375 
Q 56.984375 17.96875 50.515625 8.265625 
Q 44.046875 -1.421875 31.78125 -1.421875 
Q 19.53125 -1.421875 13.0625 8.265625 
Q 6.59375 17.96875 6.59375 36.375 
Q 6.59375 54.828125 13.0625 64.515625 
Q 19.53125 74.21875 31.78125 74.21875 
z
" id="DejaVuSans-30"/>
      </defs>
      <g transform="translate(132.096615 397.578438)scale(0.1 -0.1)">
       <use xlink:href="#DejaVuSans-32"/>
       <use x="63.623047" xlink:href="#DejaVuSans-30"/>
       <use x="127.246094" xlink:href="#DejaVuSans-30"/>
       <use x="190.869141" xlink:href="#DejaVuSans-32"/>
      </g>
     </g>
    </g>
    <g id="xtick_2">
     <g id="line2d_2">
      <g>
       <use style="stroke:#000000;stroke-width:2;" x="187.389955" xlink:href="#m0842548353" y="384.48"/>
      </g>
     </g>
     <g id="text_2">
      <!-- 2003 -->
      <defs>
       <path d="M 40.578125 39.3125 
Q 47.65625 37.796875 51.625 33 
Q 55.609375 28.21875 55.609375 21.1875 
Q 55.609375 10.40625 48.1875 4.484375 
Q 40.765625 -1.421875 27.09375 -1.421875 
Q 22.515625 -1.421875 17.65625 -0.515625 
Q 12.796875 0.390625 7.625 2.203125 
L 7.625 11.71875 
Q 11.71875 9.328125 16.59375 8.109375 
Q 21.484375 6.890625 26.8125 6.890625 
Q 36.078125 6.890625 40.9375 10.546875 
Q 45.796875 14.203125 45.796875 21.1875 
Q 45.796875 27.640625 41.28125 31.265625 
Q 36.765625 34.90625 28.71875 34.90625 
L 20.21875 34.90625 
L 20.21875 43.015625 
L 29.109375 43.015625 
Q 36.375 43.015625 40.234375 45.921875 
Q 44.09375 48.828125 44.09375 54.296875 
Q 44.09375 59.90625 40.109375 62.90625 
Q 36.140625 65.921875 28.71875 65.921875 
Q 24.65625 65.921875 20.015625 65.03125 
Q 15.375 64.15625 9.8125 62.3125 
L 9.8125 71.09375 
Q 15.4375 72.65625 20.34375 73.4375 
Q 25.25 74.21875 29.59375 74.21875 
Q 40.828125 74.21875 47.359375 69.109375 
Q 53.90625 64.015625 53.90625 55.328125 
Q 53.90625 49.265625 50.4375 45.09375 
Q 46.96875 40.921875 40.578125 39.3125 
z
" id="DejaVuSans-33"/>
      </defs>
      <g transform="translate(174.664955 397.578438)scale(0.1 -0.1)">
       <use xlink:href="#DejaVuSans-32"/>
       <use x="63.623047" xlink:href="#DejaVuSans-30"/>
       <use x="127.246094" xlink:href="#DejaVuSans-30"/>
       <use x="190.869141" xlink:href="#DejaVuSans-33"/>
      </g>
     </g>
    </g>
    <g id="xtick_3">
     <g id="line2d_3">
      <g>
       <use style="stroke:#000000;stroke-width:2;" x="229.958296" xlink:href="#m0842548353" y="384.48"/>
      </g>
     </g>
     <g id="text_3">
      <!-- 2004 -->
      <defs>
       <path d="M 37.796875 64.3125 
L 12.890625 25.390625 
L 37.796875 25.390625 
z
M 35.203125 72.90625 
L 47.609375 72.90625 
L 47.609375 25.390625 
L 58.015625 25.390625 
L 58.015625 17.1875 
L 47.609375 17.1875 
L 47.609375 0 
L 37.796875 0 
L 37.796875 17.1875 
L 4.890625 17.1875 
L 4.890625 26.703125 
z
" id="DejaVuSans-34"/>
      </defs>
      <g transform="translate(217.233296 397.578438)scale(0.1 -0.1)">
       <use xlink:href="#DejaVuSans-32"/>
       <use x="63.623047" xlink:href="#DejaVuSans-30"/>
       <use x="127.246094" xlink:href="#DejaVuSans-30"/>
       <use x="190.869141" xlink:href="#DejaVuSans-34"/>
      </g>
     </g>
    </g>
    <g id="xtick_4">
     <g id="line2d_4">
      <g>
       <use style="stroke:#000000;stroke-width:2;" x="272.526637" xlink:href="#m0842548353" y="384.48"/>
      </g>
     </g>
     <g id="text_4">
      <!-- 2005 -->
      <defs>
       <path d="M 10.796875 72.90625 
L 49.515625 72.90625 
L 49.515625 64.59375 
L 19.828125 64.59375 
L 19.828125 46.734375 
Q 21.96875 47.46875 24.109375 47.828125 
Q 26.265625 48.1875 28.421875 48.1875 
Q 40.625 48.1875 47.75 41.5 
Q 54.890625 34.8125 54.890625 23.390625 
Q 54.890625 11.625 47.5625 5.09375 
Q 40.234375 -1.421875 26.90625 -1.421875 
Q 22.3125 -1.421875 17.546875 -0.640625 
Q 12.796875 0.140625 7.71875 1.703125 
L 7.71875 11.625 
Q 12.109375 9.234375 16.796875 8.0625 
Q 21.484375 6.890625 26.703125 6.890625 
Q 35.15625 6.890625 40.078125 11.328125 
Q 45.015625 15.765625 45.015625 23.390625 
Q 45.015625 31 40.078125 35.4375 
Q 35.15625 39.890625 26.703125 39.890625 
Q 22.75 39.890625 18.8125 39.015625 
Q 14.890625 38.140625 10.796875 36.28125 
z
" id="DejaVuSans-35"/>
      </defs>
      <g transform="translate(259.801637 397.578438)scale(0.1 -0.1)">
       <use xlink:href="#DejaVuSans-32"/>
       <use x="63.623047" xlink:href="#DejaVuSans-30"/>
       <use x="127.246094" xlink:href="#DejaVuSans-30"/>
       <use x="190.869141" xlink:href="#DejaVuSans-35"/>
      </g>
     </g>
    </g>
    <g id="xtick_5">
     <g id="line2d_5">
      <g>
       <use style="stroke:#000000;stroke-width:2;" x="315.094978" xlink:href="#m0842548353" y="384.48"/>
      </g>
     </g>
     <g id="text_5">
      <!-- 2006 -->
      <defs>
       <path d="M 33.015625 40.375 
Q 26.375 40.375 22.484375 35.828125 
Q 18.609375 31.296875 18.609375 23.390625 
Q 18.609375 15.53125 22.484375 10.953125 
Q 26.375 6.390625 33.015625 6.390625 
Q 39.65625 6.390625 43.53125 10.953125 
Q 47.40625 15.53125 47.40625 23.390625 
Q 47.40625 31.296875 43.53125 35.828125 
Q 39.65625 40.375 33.015625 40.375 
z
M 52.59375 71.296875 
L 52.59375 62.3125 
Q 48.875 64.0625 45.09375 64.984375 
Q 41.3125 65.921875 37.59375 65.921875 
Q 27.828125 65.921875 22.671875 59.328125 
Q 17.53125 52.734375 16.796875 39.40625 
Q 19.671875 43.65625 24.015625 45.921875 
Q 28.375 48.1875 33.59375 48.1875 
Q 44.578125 48.1875 50.953125 41.515625 
Q 57.328125 34.859375 57.328125 23.390625 
Q 57.328125 12.15625 50.6875 5.359375 
Q 44.046875 -1.421875 33.015625 -1.421875 
Q 20.359375 -1.421875 13.671875 8.265625 
Q 6.984375 17.96875 6.984375 36.375 
Q 6.984375 53.65625 15.1875 63.9375 
Q 23.390625 74.21875 37.203125 74.21875 
Q 40.921875 74.21875 44.703125 73.484375 
Q 48.484375 72.75 52.59375 71.296875 
z
" id="DejaVuSans-36"/>
      </defs>
      <g transform="translate(302.369978 397.578438)scale(0.1 -0.1)">
       <use xlink:href="#DejaVuSans-32"/>
       <use x="63.623047" xlink:href="#DejaVuSans-30"/>
       <use x="127.246094" xlink:href="#DejaVuSans-30"/>
       <use x="190.869141" xlink:href="#DejaVuSans-36"/>
      </g>
     </g>
    </g>
    <g id="xtick_6">
     <g id="line2d_6">
      <g>
       <use style="stroke:#000000;stroke-width:2;" x="357.663318" xlink:href="#m0842548353" y="384.48"/>
      </g>
     </g>
     <g id="text_6">
      <!-- 2007 -->
      <defs>
       <path d="M 8.203125 72.90625 
L 55.078125 72.90625 
L 55.078125 68.703125 
L 28.609375 0 
L 18.3125 0 
L 43.21875 64.59375 
L 8.203125 64.59375 
z
" id="DejaVuSans-37"/>
      </defs>
      <g transform="translate(344.938318 397.578438)scale(0.1 -0.1)">
       <use xlink:href="#DejaVuSans-32"/>
       <use x="63.623047" xlink:href="#DejaVuSans-30"/>
       <use x="127.246094" xlink:href="#DejaVuSans-30"/>
       <use x="190.869141" xlink:href="#DejaVuSans-37"/>
      </g>
     </g>
    </g>
    <g id="xtick_7">
     <g id="line2d_7">
      <g>
       <use style="stroke:#000000;stroke-width:2;" x="400.231659" xlink:href="#m0842548353" y="384.48"/>
      </g>
     </g>
     <g id="text_7">
      <!-- 2008 -->
      <defs>
       <path d="M 31.78125 34.625 
Q 24.75 34.625 20.71875 30.859375 
Q 16.703125 27.09375 16.703125 20.515625 
Q 16.703125 13.921875 20.71875 10.15625 
Q 24.75 6.390625 31.78125 6.390625 
Q 38.8125 6.390625 42.859375 10.171875 
Q 46.921875 13.96875 46.921875 20.515625 
Q 46.921875 27.09375 42.890625 30.859375 
Q 38.875 34.625 31.78125 34.625 
z
M 21.921875 38.8125 
Q 15.578125 40.375 12.03125 44.71875 
Q 8.5 49.078125 8.5 55.328125 
Q 8.5 64.0625 14.71875 69.140625 
Q 20.953125 74.21875 31.78125 74.21875 
Q 42.671875 74.21875 48.875 69.140625 
Q 55.078125 64.0625 55.078125 55.328125 
Q 55.078125 49.078125 51.53125 44.71875 
Q 48 40.375 41.703125 38.8125 
Q 48.828125 37.15625 52.796875 32.3125 
Q 56.78125 27.484375 56.78125 20.515625 
Q 56.78125 9.90625 50.3125 4.234375 
Q 43.84375 -1.421875 31.78125 -1.421875 
Q 19.734375 -1.421875 13.25 4.234375 
Q 6.78125 9.90625 6.78125 20.515625 
Q 6.78125 27.484375 10.78125 32.3125 
Q 14.796875 37.15625 21.921875 38.8125 
z
M 18.3125 54.390625 
Q 18.3125 48.734375 21.84375 45.5625 
Q 25.390625 42.390625 31.78125 42.390625 
Q 38.140625 42.390625 41.71875 45.5625 
Q 45.3125 48.734375 45.3125 54.390625 
Q 45.3125 60.0625 41.71875 63.234375 
Q 38.140625 66.40625 31.78125 66.40625 
Q 25.390625 66.40625 21.84375 63.234375 
Q 18.3125 60.0625 18.3125 54.390625 
z
" id="DejaVuSans-38"/>
      </defs>
      <g transform="translate(387.506659 397.578438)scale(0.1 -0.1)">
       <use xlink:href="#DejaVuSans-32"/>
       <use x="63.623047" xlink:href="#DejaVuSans-30"/>
       <use x="127.246094" xlink:href="#DejaVuSans-30"/>
       <use x="190.869141" xlink:href="#DejaVuSans-38"/>
      </g>
     </g>
    </g>
    <g id="xtick_8">
     <g id="line2d_8">
      <g>
       <use style="stroke:#000000;stroke-width:2;" x="442.8" xlink:href="#m0842548353" y="384.48"/>
      </g>
     </g>
     <g id="text_8">
      <!-- 2009 -->
      <defs>
       <path d="M 10.984375 1.515625 
L 10.984375 10.5 
Q 14.703125 8.734375 18.5 7.8125 
Q 22.3125 6.890625 25.984375 6.890625 
Q 35.75 6.890625 40.890625 13.453125 
Q 46.046875 20.015625 46.78125 33.40625 
Q 43.953125 29.203125 39.59375 26.953125 
Q 35.25 24.703125 29.984375 24.703125 
Q 19.046875 24.703125 12.671875 31.3125 
Q 6.296875 37.9375 6.296875 49.421875 
Q 6.296875 60.640625 12.9375 67.421875 
Q 19.578125 74.21875 30.609375 74.21875 
Q 43.265625 74.21875 49.921875 64.515625 
Q 56.59375 54.828125 56.59375 36.375 
Q 56.59375 19.140625 48.40625 8.859375 
Q 40.234375 -1.421875 26.421875 -1.421875 
Q 22.703125 -1.421875 18.890625 -0.6875 
Q 15.09375 0.046875 10.984375 1.515625 
z
M 30.609375 32.421875 
Q 37.25 32.421875 41.125 36.953125 
Q 45.015625 41.5 45.015625 49.421875 
Q 45.015625 57.28125 41.125 61.84375 
Q 37.25 66.40625 30.609375 66.40625 
Q 23.96875 66.40625 20.09375 61.84375 
Q 16.21875 57.28125 16.21875 49.421875 
Q 16.21875 41.5 20.09375 36.953125 
Q 23.96875 32.421875 30.609375 32.421875 
z
" id="DejaVuSans-39"/>
      </defs>
      <g transform="translate(430.075 397.578438)scale(0.1 -0.1)">
       <use xlink:href="#DejaVuSans-32"/>
       <use x="63.623047" xlink:href="#DejaVuSans-30"/>
       <use x="127.246094" xlink:href="#DejaVuSans-30"/>
       <use x="190.869141" xlink:href="#DejaVuSans-39"/>
      </g>
     </g>
    </g>
    <g id="xtick_9">
     <g id="line2d_9">
      <g>
       <use style="stroke:#000000;stroke-width:2;" x="485.368341" xlink:href="#m0842548353" y="384.48"/>
      </g>
     </g>
     <g id="text_9">
      <!-- 2010 -->
      <defs>
       <path d="M 12.40625 8.296875 
L 28.515625 8.296875 
L 28.515625 63.921875 
L 10.984375 60.40625 
L 10.984375 69.390625 
L 28.421875 72.90625 
L 38.28125 72.90625 
L 38.28125 8.296875 
L 54.390625 8.296875 
L 54.390625 0 
L 12.40625 0 
z
" id="DejaVuSans-31"/>
      </defs>
      <g transform="translate(472.643341 397.578438)scale(0.1 -0.1)">
       <use xlink:href="#DejaVuSans-32"/>
       <use x="63.623047" xlink:href="#DejaVuSans-30"/>
       <use x="127.246094" xlink:href="#DejaVuSans-31"/>
       <use x="190.869141" xlink:href="#DejaVuSans-30"/>
      </g>
     </g>
    </g>
    <g id="xtick_10">
     <g id="line2d_10">
      <g>
       <use style="stroke:#000000;stroke-width:2;" x="527.936682" xlink:href="#m0842548353" y="384.48"/>
      </g>
     </g>
     <g id="text_10">
      <!-- 2011 -->
      <g transform="translate(515.211682 397.578438)scale(0.1 -0.1)">
       <use xlink:href="#DejaVuSans-32"/>
       <use x="63.623047" xlink:href="#DejaVuSans-30"/>
       <use x="127.246094" xlink:href="#DejaVuSans-31"/>
       <use x="190.869141" xlink:href="#DejaVuSans-31"/>
      </g>
     </g>
    </g>
    <g id="xtick_11">
     <g id="line2d_11">
      <g>
       <use style="stroke:#000000;stroke-width:2;" x="570.505022" xlink:href="#m0842548353" y="384.48"/>
      </g>
     </g>
     <g id="text_11">
      <!-- 2012 -->
      <g transform="translate(557.780022 397.578438)scale(0.1 -0.1)">
       <use xlink:href="#DejaVuSans-32"/>
       <use x="63.623047" xlink:href="#DejaVuSans-30"/>
       <use x="127.246094" xlink:href="#DejaVuSans-31"/>
       <use x="190.869141" xlink:href="#DejaVuSans-32"/>
      </g>
     </g>
    </g>
    <g id="xtick_12">
     <g id="line2d_12">
      <g>
       <use style="stroke:#000000;stroke-width:2;" x="613.073363" xlink:href="#m0842548353" y="384.48"/>
      </g>
     </g>
     <g id="text_12">
      <!-- 2013 -->
      <g transform="translate(600.348363 397.578438)scale(0.1 -0.1)">
       <use xlink:href="#DejaVuSans-32"/>
       <use x="63.623047" xlink:href="#DejaVuSans-30"/>
       <use x="127.246094" xlink:href="#DejaVuSans-31"/>
       <use x="190.869141" xlink:href="#DejaVuSans-33"/>
      </g>
     </g>
    </g>
    <g id="xtick_13">
     <g id="line2d_13">
      <g>
       <use style="stroke:#000000;stroke-width:2;" x="655.641704" xlink:href="#m0842548353" y="384.48"/>
      </g>
     </g>
     <g id="text_13">
      <!-- 2014 -->
      <g transform="translate(642.916704 397.578438)scale(0.1 -0.1)">
       <use xlink:href="#DejaVuSans-32"/>
       <use x="63.623047" xlink:href="#DejaVuSans-30"/>
       <use x="127.246094" xlink:href="#DejaVuSans-31"/>
       <use x="190.869141" xlink:href="#DejaVuSans-34"/>
      </g>
     </g>
    </g>
    <g id="xtick_14">
     <g id="line2d_14">
      <g>
       <use style="stroke:#000000;stroke-width:2;" x="698.210045" xlink:href="#m0842548353" y="384.48"/>
      </g>
     </g>
     <g id="text_14">
      <!-- 2015 -->
      <g transform="translate(685.485045 397.578438)scale(0.1 -0.1)">
       <use xlink:href="#DejaVuSans-32"/>
       <use x="63.623047" xlink:href="#DejaVuSans-30"/>
       <use x="127.246094" xlink:href="#DejaVuSans-31"/>
       <use x="190.869141" xlink:href="#DejaVuSans-35"/>
      </g>
     </g>
    </g>
    <g id="xtick_15">
     <g id="line2d_15">
      <g>
       <use style="stroke:#000000;stroke-width:2;" x="740.778385" xlink:href="#m0842548353" y="384.48"/>
      </g>
     </g>
     <g id="text_15">
      <!-- 2016 -->
      <g transform="translate(728.053385 397.578438)scale(0.1 -0.1)">
       <use xlink:href="#DejaVuSans-32"/>
       <use x="63.623047" xlink:href="#DejaVuSans-30"/>
       <use x="127.246094" xlink:href="#DejaVuSans-31"/>
       <use x="190.869141" xlink:href="#DejaVuSans-36"/>
      </g>
     </g>
    </g>
   </g>
   <g id="matplotlib.axis_2">
    <g id="ytick_1">
     <g id="line2d_16">
      <defs>
       <path d="M 0 0 
L -2 0 
" id="ma2af2d8e5c" style="stroke:#000000;stroke-width:2;"/>
      </defs>
      <g>
       <use style="stroke:#000000;stroke-width:2;" x="108" xlink:href="#ma2af2d8e5c" y="384.48"/>
      </g>
     </g>
     <g id="text_16">
      <!-- 0 -->
      <g transform="translate(96.1375 388.279219)scale(0.1 -0.1)">
       <use xlink:href="#DejaVuSans-30"/>
      </g>
     </g>
    </g>
    <g id="ytick_2">
     <g id="line2d_17">
      <g>
       <use style="stroke:#000000;stroke-width:2;" x="108" xlink:href="#ma2af2d8e5c" y="323.374855"/>
      </g>
     </g>
     <g id="text_17">
      <!-- 100 -->
      <g transform="translate(83.4125 327.174074)scale(0.1 -0.1)">
       <use xlink:href="#DejaVuSans-31"/>
       <use x="63.623047" xlink:href="#DejaVuSans-30"/>
       <use x="127.246094" xlink:href="#DejaVuSans-30"/>
      </g>
     </g>
    </g>
    <g id="ytick_3">
     <g id="line2d_18">
      <g>
       <use style="stroke:#000000;stroke-width:2;" x="108" xlink:href="#ma2af2d8e5c" y="262.26971"/>
      </g>
     </g>
     <g id="text_18">
      <!-- 200 -->
      <g transform="translate(83.4125 266.068929)scale(0.1 -0.1)">
       <use xlink:href="#DejaVuSans-32"/>
       <use x="63.623047" xlink:href="#DejaVuSans-30"/>
       <use x="127.246094" xlink:href="#DejaVuSans-30"/>
      </g>
     </g>
    </g>
    <g id="ytick_4">
     <g id="line2d_19">
      <g>
       <use style="stroke:#000000;stroke-width:2;" x="108" xlink:href="#ma2af2d8e5c" y="201.164566"/>
      </g>
     </g>
     <g id="text_19">
      <!-- 300 -->
      <g transform="translate(83.4125 204.963784)scale(0.1 -0.1)">
       <use xlink:href="#DejaVuSans-33"/>
       <use x="63.623047" xlink:href="#DejaVuSans-30"/>
       <use x="127.246094" xlink:href="#DejaVuSans-30"/>
      </g>
     </g>
    </g>
    <g id="ytick_5">
     <g id="line2d_20">
      <g>
       <use style="stroke:#000000;stroke-width:2;" x="108" xlink:href="#ma2af2d8e5c" y="140.059421"/>
      </g>
     </g>
     <g id="text_20">
      <!-- 400 -->
      <g transform="translate(83.4125 143.85864)scale(0.1 -0.1)">
       <use xlink:href="#DejaVuSans-34"/>
       <use x="63.623047" xlink:href="#DejaVuSans-30"/>
       <use x="127.246094" xlink:href="#DejaVuSans-30"/>
      </g>
     </g>
    </g>
    <g id="ytick_6">
     <g id="line2d_21">
      <g>
       <use style="stroke:#000000;stroke-width:2;" x="108" xlink:href="#ma2af2d8e5c" y="78.954276"/>
      </g>
     </g>
     <g id="text_21">
      <!-- 500 -->
      <g transform="translate(83.4125 82.753495)scale(0.1 -0.1)">
       <use xlink:href="#DejaVuSans-35"/>
       <use x="63.623047" xlink:href="#DejaVuSans-30"/>
       <use x="127.246094" xlink:href="#DejaVuSans-30"/>
      </g>
     </g>
    </g>
   </g>
   <g id="patch_18">
    <path d="M 108 384.48 
L 108 51.84 
" style="fill:none;stroke:#000000;stroke-linecap:square;stroke-linejoin:miter;stroke-width:0.8;"/>
   </g>
   <g id="patch_19">
    <path d="M 777.6 384.48 
L 777.6 51.84 
" style="fill:none;stroke:#000000;stroke-linecap:square;stroke-linejoin:miter;stroke-width:0.8;"/>
   </g>
   <g id="patch_20">
    <path d="M 108 384.48 
L 777.6 384.48 
" style="fill:none;stroke:#000000;stroke-linecap:square;stroke-linejoin:miter;stroke-width:0.8;"/>
   </g>
   <g id="patch_21">
    <path d="M 108 51.84 
L 777.6 51.84 
" style="fill:none;stroke:#000000;stroke-linecap:square;stroke-linejoin:miter;stroke-width:0.8;"/>
   </g>
  </g>
  <g id="axes_2">
   <g id="matplotlib.axis_3">
    <g id="ytick_7">
     <g id="line2d_22">
      <path clip-path="url(#p2ec8b04377)" d="M 108 370.241633 
L 777.6 370.241633 
" style="fill:none;stroke:#b0b0b0;stroke-dasharray:2.96,1.28;stroke-dashoffset:0;stroke-width:0.8;"/>
     </g>
     <g id="line2d_23">
      <defs>
       <path d="M 0 0 
L 2 0 
" id="m3830a149e9" style="stroke:#cd0000;stroke-width:2;"/>
      </defs>
      <g>
       <use style="fill:#cd0000;stroke:#cd0000;stroke-width:2;" x="777.6" xlink:href="#m3830a149e9" y="370.241633"/>
      </g>
     </g>
     <g id="text_22">
      <!-- 3 -->
      <g style="fill:#cd0000;" transform="translate(783.1 374.040851)scale(0.1 -0.1)">
       <use xlink:href="#DejaVuSans-33"/>
      </g>
     </g>
    </g>
    <g id="ytick_8">
     <g id="line2d_24">
      <path clip-path="url(#p2ec8b04377)" d="M 108 326.16 
L 777.6 326.16 
" style="fill:none;stroke:#b0b0b0;stroke-dasharray:2.96,1.28;stroke-dashoffset:0;stroke-width:0.8;"/>
     </g>
     <g id="line2d_25">
      <g>
       <use style="fill:#cd0000;stroke:#cd0000;stroke-width:2;" x="777.6" xlink:href="#m3830a149e9" y="326.16"/>
      </g>
     </g>
     <g id="text_23">
      <!-- 4 -->
      <g style="fill:#cd0000;" transform="translate(783.1 329.959219)scale(0.1 -0.1)">
       <use xlink:href="#DejaVuSans-34"/>
      </g>
     </g>
    </g>
    <g id="ytick_9">
     <g id="line2d_26">
      <path clip-path="url(#p2ec8b04377)" d="M 108 282.078367 
L 777.6 282.078367 
" style="fill:none;stroke:#b0b0b0;stroke-dasharray:2.96,1.28;stroke-dashoffset:0;stroke-width:0.8;"/>
     </g>
     <g id="line2d_27">
      <g>
       <use style="fill:#cd0000;stroke:#cd0000;stroke-width:2;" x="777.6" xlink:href="#m3830a149e9" y="282.078367"/>
      </g>
     </g>
     <g id="text_24">
      <!-- 5 -->
      <g style="fill:#cd0000;" transform="translate(783.1 285.877586)scale(0.1 -0.1)">
       <use xlink:href="#DejaVuSans-35"/>
      </g>
     </g>
    </g>
    <g id="ytick_10">
     <g id="line2d_28">
      <path clip-path="url(#p2ec8b04377)" d="M 108 237.996735 
L 777.6 237.996735 
" style="fill:none;stroke:#b0b0b0;stroke-dasharray:2.96,1.28;stroke-dashoffset:0;stroke-width:0.8;"/>
     </g>
     <g id="line2d_29">
      <g>
       <use style="fill:#cd0000;stroke:#cd0000;stroke-width:2;" x="777.6" xlink:href="#m3830a149e9" y="237.996735"/>
      </g>
     </g>
     <g id="text_25">
      <!-- 6 -->
      <g style="fill:#cd0000;" transform="translate(783.1 241.795953)scale(0.1 -0.1)">
       <use xlink:href="#DejaVuSans-36"/>
      </g>
     </g>
    </g>
    <g id="ytick_11">
     <g id="line2d_30">
      <path clip-path="url(#p2ec8b04377)" d="M 108 193.915102 
L 777.6 193.915102 
" style="fill:none;stroke:#b0b0b0;stroke-dasharray:2.96,1.28;stroke-dashoffset:0;stroke-width:0.8;"/>
     </g>
     <g id="line2d_31">
      <g>
       <use style="fill:#cd0000;stroke:#cd0000;stroke-width:2;" x="777.6" xlink:href="#m3830a149e9" y="193.915102"/>
      </g>
     </g>
     <g id="text_26">
      <!-- 7 -->
      <g style="fill:#cd0000;" transform="translate(783.1 197.714321)scale(0.1 -0.1)">
       <use xlink:href="#DejaVuSans-37"/>
      </g>
     </g>
    </g>
    <g id="ytick_12">
     <g id="line2d_32">
      <path clip-path="url(#p2ec8b04377)" d="M 108 149.833469 
L 777.6 149.833469 
" style="fill:none;stroke:#b0b0b0;stroke-dasharray:2.96,1.28;stroke-dashoffset:0;stroke-width:0.8;"/>
     </g>
     <g id="line2d_33">
      <g>
       <use style="fill:#cd0000;stroke:#cd0000;stroke-width:2;" x="777.6" xlink:href="#m3830a149e9" y="149.833469"/>
      </g>
     </g>
     <g id="text_27">
      <!-- 8 -->
      <g style="fill:#cd0000;" transform="translate(783.1 153.632688)scale(0.1 -0.1)">
       <use xlink:href="#DejaVuSans-38"/>
      </g>
     </g>
    </g>
    <g id="ytick_13">
     <g id="line2d_34">
      <path clip-path="url(#p2ec8b04377)" d="M 108 105.751837 
L 777.6 105.751837 
" style="fill:none;stroke:#b0b0b0;stroke-dasharray:2.96,1.28;stroke-dashoffset:0;stroke-width:0.8;"/>
     </g>
     <g id="line2d_35">
      <g>
       <use style="fill:#cd0000;stroke:#cd0000;stroke-width:2;" x="777.6" xlink:href="#m3830a149e9" y="105.751837"/>
      </g>
     </g>
     <g id="text_28">
      <!-- 9 -->
      <g style="fill:#cd0000;" transform="translate(783.1 109.551055)scale(0.1 -0.1)">
       <use xlink:href="#DejaVuSans-39"/>
      </g>
     </g>
    </g>
    <g id="ytick_14">
     <g id="line2d_36">
      <path clip-path="url(#p2ec8b04377)" d="M 108 61.670204 
L 777.6 61.670204 
" style="fill:none;stroke:#b0b0b0;stroke-dasharray:2.96,1.28;stroke-dashoffset:0;stroke-width:0.8;"/>
     </g>
     <g id="line2d_37">
      <g>
       <use style="fill:#cd0000;stroke:#cd0000;stroke-width:2;" x="777.6" xlink:href="#m3830a149e9" y="61.670204"/>
      </g>
     </g>
     <g id="text_29">
      <!-- 10 -->
      <g style="fill:#cd0000;" transform="translate(783.1 65.469423)scale(0.1 -0.1)">
       <use xlink:href="#DejaVuSans-31"/>
       <use x="63.623047" xlink:href="#DejaVuSans-30"/>
      </g>
     </g>
    </g>
   </g>
   <path clip-path="url(#p2ec8b04377)" d="M 146.821615 287.164082 
L 189.389955 311.849796 
L 231.958296 342.706939 
L 274.526637 357.253878 
L 317.094978 345.351837 
L 359.663318 371.36 
L 402.231659 366.070204 
L 444.8 332.568163 
L 487.368341 332.127347 
L 529.936682 324.192653 
L 572.505022 163.73551 
L 615.073363 105.547755 
L 657.641704 97.613061 
L 700.210045 68.96 
L 742.778385 116.568163 
" style="fill:none;opacity:0.3;stroke:#000000;stroke-linecap:square;stroke-width:2;"/>
   <path clip-path="url(#p2ec8b04377)" d="M 144.821615 285.164082 
L 187.389955 309.849796 
L 229.958296 340.706939 
L 272.526637 355.253878 
L 315.094978 343.351837 
L 357.663318 369.36 
L 400.231659 364.070204 
L 442.8 330.568163 
L 485.368341 330.127347 
L 527.936682 322.192653 
L 570.505022 161.73551 
L 613.073363 103.547755 
L 655.641704 95.613061 
L 698.210045 66.96 
L 740.778385 114.568163 
" style="fill:none;stroke:#c00000;stroke-linecap:square;stroke-width:2;"/>
   <path clip-path="url(#p2ec8b04377)" d="M 146.821615 284.164082 
L 146.148073 286.237031 
L 143.968445 286.237031 
L 145.731801 287.518184 
L 145.058259 289.591133 
L 146.821615 288.30998 
L 148.584971 289.591133 
L 147.911429 287.518184 
L 149.674784 286.237031 
L 147.495157 286.237031 
z
" style="fill:none;opacity:0.3;stroke:#000000;stroke-linejoin:bevel;"/>
   <path clip-path="url(#p2ec8b04377)" d="M 189.389955 308.849796 
L 188.716414 310.922745 
L 186.536786 310.922745 
L 188.300142 312.203898 
L 187.6266 314.276847 
L 189.389955 312.995694 
L 191.153311 314.276847 
L 190.479769 312.203898 
L 192.243125 310.922745 
L 190.063497 310.922745 
z
" style="fill:none;opacity:0.3;stroke:#000000;stroke-linejoin:bevel;"/>
   <path clip-path="url(#p2ec8b04377)" d="M 231.958296 339.706939 
L 231.284754 341.779888 
L 229.105127 341.779888 
L 230.868482 343.061041 
L 230.19494 345.13399 
L 231.958296 343.852837 
L 233.721652 345.13399 
L 233.04811 343.061041 
L 234.811466 341.779888 
L 232.631838 341.779888 
z
" style="fill:none;opacity:0.3;stroke:#000000;stroke-linejoin:bevel;"/>
   <path clip-path="url(#p2ec8b04377)" d="M 274.526637 354.253878 
L 273.853095 356.326827 
L 271.673467 356.326827 
L 273.436823 357.60798 
L 272.763281 359.680929 
L 274.526637 358.399776 
L 276.289993 359.680929 
L 275.616451 357.60798 
L 277.379807 356.326827 
L 275.200179 356.326827 
z
" style="fill:none;opacity:0.3;stroke:#000000;stroke-linejoin:bevel;"/>
   <path clip-path="url(#p2ec8b04377)" d="M 317.094978 342.351837 
L 316.421436 344.424786 
L 314.241808 344.424786 
L 316.005164 345.705939 
L 315.331622 347.778888 
L 317.094978 346.497735 
L 318.858334 347.778888 
L 318.184792 345.705939 
L 319.948147 344.424786 
L 317.76852 344.424786 
z
" style="fill:none;opacity:0.3;stroke:#000000;stroke-linejoin:bevel;"/>
   <path clip-path="url(#p2ec8b04377)" d="M 359.663318 368.36 
L 358.989777 370.432949 
L 356.810149 370.432949 
L 358.573505 371.714102 
L 357.899963 373.787051 
L 359.663318 372.505898 
L 361.426674 373.787051 
L 360.753132 371.714102 
L 362.516488 370.432949 
L 360.33686 370.432949 
z
" style="fill:none;opacity:0.3;stroke:#000000;stroke-linejoin:bevel;"/>
   <path clip-path="url(#p2ec8b04377)" d="M 402.231659 363.070204 
L 401.558117 365.143153 
L 399.37849 365.143153 
L 401.141845 366.424306 
L 400.468303 368.497255 
L 402.231659 367.216102 
L 403.995015 368.497255 
L 403.321473 366.424306 
L 405.084829 365.143153 
L 402.905201 365.143153 
z
" style="fill:none;opacity:0.3;stroke:#000000;stroke-linejoin:bevel;"/>
   <path clip-path="url(#p2ec8b04377)" d="M 444.8 329.568163 
L 444.126458 331.641112 
L 441.94683 331.641112 
L 443.710186 332.922265 
L 443.036644 334.995214 
L 444.8 333.714061 
L 446.563356 334.995214 
L 445.889814 332.922265 
L 447.65317 331.641112 
L 445.473542 331.641112 
z
" style="fill:none;opacity:0.3;stroke:#000000;stroke-linejoin:bevel;"/>
   <path clip-path="url(#p2ec8b04377)" d="M 487.368341 329.127347 
L 486.694799 331.200296 
L 484.515171 331.200296 
L 486.278527 332.481449 
L 485.604985 334.554398 
L 487.368341 333.273245 
L 489.131697 334.554398 
L 488.458155 332.481449 
L 490.22151 331.200296 
L 488.041883 331.200296 
z
" style="fill:none;opacity:0.3;stroke:#000000;stroke-linejoin:bevel;"/>
   <path clip-path="url(#p2ec8b04377)" d="M 529.936682 321.192653 
L 529.26314 323.265602 
L 527.083512 323.265602 
L 528.846868 324.546755 
L 528.173326 326.619704 
L 529.936682 325.338551 
L 531.700037 326.619704 
L 531.026495 324.546755 
L 532.789851 323.265602 
L 530.610223 323.265602 
z
" style="fill:none;opacity:0.3;stroke:#000000;stroke-linejoin:bevel;"/>
   <path clip-path="url(#p2ec8b04377)" d="M 572.505022 160.73551 
L 571.83148 162.808459 
L 569.651853 162.808459 
L 571.415208 164.089612 
L 570.741666 166.162561 
L 572.505022 164.881408 
L 574.268378 166.162561 
L 573.594836 164.089612 
L 575.358192 162.808459 
L 573.178564 162.808459 
z
" style="fill:none;opacity:0.3;stroke:#000000;stroke-linejoin:bevel;"/>
   <path clip-path="url(#p2ec8b04377)" d="M 615.073363 102.547755 
L 614.399821 104.620704 
L 612.220193 104.620704 
L 613.983549 105.901857 
L 613.310007 107.974806 
L 615.073363 106.693653 
L 616.836719 107.974806 
L 616.163177 105.901857 
L 617.926533 104.620704 
L 615.746905 104.620704 
z
" style="fill:none;opacity:0.3;stroke:#000000;stroke-linejoin:bevel;"/>
   <path clip-path="url(#p2ec8b04377)" d="M 657.641704 94.613061 
L 656.968162 96.68601 
L 654.788534 96.68601 
L 656.55189 97.967163 
L 655.878348 100.040112 
L 657.641704 98.758959 
L 659.40506 100.040112 
L 658.731518 97.967163 
L 660.494873 96.68601 
L 658.315246 96.68601 
z
" style="fill:none;opacity:0.3;stroke:#000000;stroke-linejoin:bevel;"/>
   <path clip-path="url(#p2ec8b04377)" d="M 700.210045 65.96 
L 699.536503 68.032949 
L 697.356875 68.032949 
L 699.120231 69.314102 
L 698.446689 71.387051 
L 700.210045 70.105898 
L 701.9734 71.387051 
L 701.299858 69.314102 
L 703.063214 68.032949 
L 700.883586 68.032949 
z
" style="fill:none;opacity:0.3;stroke:#000000;stroke-linejoin:bevel;"/>
   <path clip-path="url(#p2ec8b04377)" d="M 742.778385 113.568163 
L 742.104843 115.641112 
L 739.925216 115.641112 
L 741.688571 116.922265 
L 741.015029 118.995214 
L 742.778385 117.714061 
L 744.541741 118.995214 
L 743.868199 116.922265 
L 745.631555 115.641112 
L 743.451927 115.641112 
z
" style="fill:none;opacity:0.3;stroke:#000000;stroke-linejoin:bevel;"/>
   <path clip-path="url(#p2ec8b04377)" d="M 144.821615 282.164082 
L 144.148073 284.237031 
L 141.968445 284.237031 
L 143.731801 285.518184 
L 143.058259 287.591133 
L 144.821615 286.30998 
L 146.584971 287.591133 
L 145.911429 285.518184 
L 147.674784 284.237031 
L 145.495157 284.237031 
z
" style="fill:#c00000;stroke:#c00000;stroke-linejoin:bevel;"/>
   <path clip-path="url(#p2ec8b04377)" d="M 187.389955 306.849796 
L 186.716414 308.922745 
L 184.536786 308.922745 
L 186.300142 310.203898 
L 185.6266 312.276847 
L 187.389955 310.995694 
L 189.153311 312.276847 
L 188.479769 310.203898 
L 190.243125 308.922745 
L 188.063497 308.922745 
z
" style="fill:#c00000;stroke:#c00000;stroke-linejoin:bevel;"/>
   <path clip-path="url(#p2ec8b04377)" d="M 229.958296 337.706939 
L 229.284754 339.779888 
L 227.105127 339.779888 
L 228.868482 341.061041 
L 228.19494 343.13399 
L 229.958296 341.852837 
L 231.721652 343.13399 
L 231.04811 341.061041 
L 232.811466 339.779888 
L 230.631838 339.779888 
z
" style="fill:#c00000;stroke:#c00000;stroke-linejoin:bevel;"/>
   <path clip-path="url(#p2ec8b04377)" d="M 272.526637 352.253878 
L 271.853095 354.326827 
L 269.673467 354.326827 
L 271.436823 355.60798 
L 270.763281 357.680929 
L 272.526637 356.399776 
L 274.289993 357.680929 
L 273.616451 355.60798 
L 275.379807 354.326827 
L 273.200179 354.326827 
z
" style="fill:#c00000;stroke:#c00000;stroke-linejoin:bevel;"/>
   <path clip-path="url(#p2ec8b04377)" d="M 315.094978 340.351837 
L 314.421436 342.424786 
L 312.241808 342.424786 
L 314.005164 343.705939 
L 313.331622 345.778888 
L 315.094978 344.497735 
L 316.858334 345.778888 
L 316.184792 343.705939 
L 317.948147 342.424786 
L 315.76852 342.424786 
z
" style="fill:#c00000;stroke:#c00000;stroke-linejoin:bevel;"/>
   <path clip-path="url(#p2ec8b04377)" d="M 357.663318 366.36 
L 356.989777 368.432949 
L 354.810149 368.432949 
L 356.573505 369.714102 
L 355.899963 371.787051 
L 357.663318 370.505898 
L 359.426674 371.787051 
L 358.753132 369.714102 
L 360.516488 368.432949 
L 358.33686 368.432949 
z
" style="fill:#c00000;stroke:#c00000;stroke-linejoin:bevel;"/>
   <path clip-path="url(#p2ec8b04377)" d="M 400.231659 361.070204 
L 399.558117 363.143153 
L 397.37849 363.143153 
L 399.141845 364.424306 
L 398.468303 366.497255 
L 400.231659 365.216102 
L 401.995015 366.497255 
L 401.321473 364.424306 
L 403.084829 363.143153 
L 400.905201 363.143153 
z
" style="fill:#c00000;stroke:#c00000;stroke-linejoin:bevel;"/>
   <path clip-path="url(#p2ec8b04377)" d="M 442.8 327.568163 
L 442.126458 329.641112 
L 439.94683 329.641112 
L 441.710186 330.922265 
L 441.036644 332.995214 
L 442.8 331.714061 
L 444.563356 332.995214 
L 443.889814 330.922265 
L 445.65317 329.641112 
L 443.473542 329.641112 
z
" style="fill:#c00000;stroke:#c00000;stroke-linejoin:bevel;"/>
   <path clip-path="url(#p2ec8b04377)" d="M 485.368341 327.127347 
L 484.694799 329.200296 
L 482.515171 329.200296 
L 484.278527 330.481449 
L 483.604985 332.554398 
L 485.368341 331.273245 
L 487.131697 332.554398 
L 486.458155 330.481449 
L 488.22151 329.200296 
L 486.041883 329.200296 
z
" style="fill:#c00000;stroke:#c00000;stroke-linejoin:bevel;"/>
   <path clip-path="url(#p2ec8b04377)" d="M 527.936682 319.192653 
L 527.26314 321.265602 
L 525.083512 321.265602 
L 526.846868 322.546755 
L 526.173326 324.619704 
L 527.936682 323.338551 
L 529.700037 324.619704 
L 529.026495 322.546755 
L 530.789851 321.265602 
L 528.610223 321.265602 
z
" style="fill:#c00000;stroke:#c00000;stroke-linejoin:bevel;"/>
   <path clip-path="url(#p2ec8b04377)" d="M 570.505022 158.73551 
L 569.83148 160.808459 
L 567.651853 160.808459 
L 569.415208 162.089612 
L 568.741666 164.162561 
L 570.505022 162.881408 
L 572.268378 164.162561 
L 571.594836 162.089612 
L 573.358192 160.808459 
L 571.178564 160.808459 
z
" style="fill:#c00000;stroke:#c00000;stroke-linejoin:bevel;"/>
   <path clip-path="url(#p2ec8b04377)" d="M 613.073363 100.547755 
L 612.399821 102.620704 
L 610.220193 102.620704 
L 611.983549 103.901857 
L 611.310007 105.974806 
L 613.073363 104.693653 
L 614.836719 105.974806 
L 614.163177 103.901857 
L 615.926533 102.620704 
L 613.746905 102.620704 
z
" style="fill:#c00000;stroke:#c00000;stroke-linejoin:bevel;"/>
   <path clip-path="url(#p2ec8b04377)" d="M 655.641704 92.613061 
L 654.968162 94.68601 
L 652.788534 94.68601 
L 654.55189 95.967163 
L 653.878348 98.040112 
L 655.641704 96.758959 
L 657.40506 98.040112 
L 656.731518 95.967163 
L 658.494873 94.68601 
L 656.315246 94.68601 
z
" style="fill:#c00000;stroke:#c00000;stroke-linejoin:bevel;"/>
   <path clip-path="url(#p2ec8b04377)" d="M 698.210045 63.96 
L 697.536503 66.032949 
L 695.356875 66.032949 
L 697.120231 67.314102 
L 696.446689 69.387051 
L 698.210045 68.105898 
L 699.9734 69.387051 
L 699.299858 67.314102 
L 701.063214 66.032949 
L 698.883586 66.032949 
z
" style="fill:#c00000;stroke:#c00000;stroke-linejoin:bevel;"/>
   <path clip-path="url(#p2ec8b04377)" d="M 740.778385 111.568163 
L 740.104843 113.641112 
L 737.925216 113.641112 
L 739.688571 114.922265 
L 739.015029 116.995214 
L 740.778385 115.714061 
L 742.541741 116.995214 
L 741.868199 114.922265 
L 743.631555 113.641112 
L 741.451927 113.641112 
z
" style="fill:#c00000;stroke:#c00000;stroke-linejoin:bevel;"/>
   <g id="patch_22">
    <path d="M 108 384.48 
L 108 51.84 
" style="fill:none;stroke:#000000;stroke-linecap:square;stroke-linejoin:miter;stroke-width:0.8;"/>
   </g>
   <g id="patch_23">
    <path d="M 777.6 384.48 
L 777.6 51.84 
" style="fill:none;stroke:#000000;stroke-linecap:square;stroke-linejoin:miter;stroke-width:0.8;"/>
   </g>
   <g id="patch_24">
    <path d="M 108 384.48 
L 777.6 384.48 
" style="fill:none;stroke:#000000;stroke-linecap:square;stroke-linejoin:miter;stroke-width:0.8;"/>
   </g>
   <g id="patch_25">
    <path d="M 108 51.84 
L 777.6 51.84 
" style="fill:none;stroke:#000000;stroke-linecap:square;stroke-linejoin:miter;stroke-width:0.8;"/>
   </g>
   <g id="text_30">
    <!-- 营业总收入与净利润率 -->
    <defs>
     <path d="M 13.484375 16.546875 
L 86.53125 16.546875 
L 86.53125 -13.234375 
L 79.109375 -13.234375 
L 79.109375 -8.34375 
L 20.90625 -8.34375 
L 20.90625 -13.234375 
L 13.484375 -13.234375 
z
M 20.515625 46.625 
L 79.5 46.625 
L 79.5 22.21875 
L 72.078125 22.21875 
L 72.078125 24.46875 
L 27.9375 24.46875 
L 27.9375 22.21875 
L 20.515625 22.21875 
z
M 61.53125 83.25 
L 68.65625 83.25 
L 68.65625 75.25 
L 97.953125 75.25 
L 97.953125 68.796875 
L 68.65625 68.796875 
L 68.65625 62.9375 
L 61.53125 62.9375 
L 61.53125 68.796875 
L 38.375 68.796875 
L 38.375 62.9375 
L 31.25 62.9375 
L 31.25 68.796875 
L 2.34375 68.796875 
L 2.34375 75.25 
L 31.25 75.25 
L 31.25 83.25 
L 38.375 83.25 
L 38.375 75.25 
L 61.53125 75.25 
z
M 5.28125 60.296875 
L 94.734375 60.296875 
L 94.734375 42.4375 
L 87.3125 42.4375 
L 87.3125 53.859375 
L 12.703125 53.859375 
L 12.703125 42.4375 
L 5.28125 42.4375 
z
M 79.109375 10.5 
L 20.90625 10.5 
L 20.90625 -2.296875 
L 79.109375 -2.296875 
z
M 72.078125 40.578125 
L 27.9375 40.578125 
L 27.9375 30.515625 
L 72.078125 30.515625 
z
" id="MicrosoftYaHei-8425"/>
     <path d="M 1.859375 0.734375 
L 33.203125 0.734375 
L 33.203125 81.390625 
L 41.40625 81.390625 
L 41.40625 0.734375 
L 58.5 0.734375 
L 58.5 81.390625 
L 66.703125 81.390625 
L 66.703125 0.734375 
L 98.34375 0.734375 
L 98.34375 -6.5 
L 1.859375 -6.5 
z
M 13.1875 62.25 
Q 21.1875 43.40625 28.71875 22.21875 
L 20.703125 18.609375 
Q 14.15625 39.203125 6.0625 59.125 
z
M 70.21875 21.34375 
Q 79.984375 42.046875 86.625 61.375 
L 94.53125 58.25 
Q 85.453125 34.90625 77.25 18.109375 
z
" id="MicrosoftYaHei-4e1a"/>
     <path d="M 14.0625 66.453125 
L 56.734375 66.453125 
Q 62.84375 75.34375 67.671875 83.640625 
L 75.203125 79.734375 
Q 70.3125 73.046875 65.234375 66.453125 
L 85.9375 66.453125 
L 85.9375 26.609375 
L 78.125 26.609375 
L 78.125 30.90625 
L 21.875 30.90625 
L 21.875 26.609375 
L 14.0625 26.609375 
z
M 78.125 59.421875 
L 21.875 59.421875 
L 21.875 37.9375 
L 78.125 37.9375 
z
M 26.46875 21.53125 
L 34.078125 21.53125 
L 34.078125 4.4375 
Q 34.078125 -3.171875 40.921875 -3.171875 
L 60.546875 -3.171875 
Q 66.3125 -3.171875 67.78125 2.6875 
Q 68.65625 5.71875 69.53125 13.625 
Q 72.359375 12.359375 77.046875 10.6875 
Q 75.78125 3.265625 74.21875 -1.515625 
Q 71.1875 -10.015625 60.9375 -10.015625 
L 39.359375 -10.015625 
Q 26.46875 -10.015625 26.46875 3.078125 
z
M 11.234375 22.21875 
L 18.5625 19.875 
Q 14.546875 7.671875 8.40625 -5.21875 
Q 5.28125 -3.859375 1.265625 -2.09375 
Q 6.9375 9.328125 11.234375 22.21875 
z
M 76.265625 18.796875 
L 81.84375 23.09375 
Q 90.828125 13.140625 98.734375 3.078125 
L 92.1875 -2.09375 
Q 85.25 7.671875 76.265625 18.796875 
z
M 41.609375 24.859375 
L 47.5625 28.765625 
Q 54.5 21.4375 60.359375 13.140625 
L 53.8125 8.546875 
Q 47.953125 17.328125 41.609375 24.859375 
z
M 24.90625 79.828125 
L 30.859375 83.640625 
Q 36.71875 77.484375 41.40625 70.953125 
L 34.765625 66.65625 
Q 30.5625 72.703125 24.90625 79.828125 
z
" id="MicrosoftYaHei-603b"/>
     <path d="M 35.0625 41.546875 
Q 47.5625 63.234375 53.125 83.453125 
L 61.03125 81.203125 
Q 57.90625 72.171875 54.5 63.921875 
L 97.078125 63.921875 
L 97.078125 56.6875 
L 85.59375 56.6875 
Q 84.125 28.421875 71.09375 10.640625 
Q 81 1.859375 99.21875 -4.640625 
Q 96.1875 -8.453125 93.65625 -12.453125 
Q 76.265625 -5.03125 65.921875 4.6875 
Q 56.5 -4.59375 39.84375 -13.328125 
Q 37.796875 -10.109375 34.859375 -6.78125 
Q 51.515625 1.5625 60.59375 10.5 
Q 49.3125 24.609375 46 45.5625 
Q 43.265625 40.234375 40.328125 35.296875 
Q 38.484375 38.140625 35.0625 41.546875 
z
M 26.265625 82.671875 
L 33.6875 82.671875 
L 33.6875 -12.75 
L 26.265625 -12.75 
L 26.265625 17.390625 
Q 20.3125 14.0625 14.15625 10.015625 
Q 11.625 8.15625 9.1875 5.609375 
L 3.609375 12.15625 
Q 6.640625 15.375 6.640625 20.5625 
L 6.640625 69 
L 14.0625 69 
L 14.0625 19 
Q 19.875 22.078125 26.265625 25.53125 
z
M 77.875 56.6875 
L 51.90625 56.6875 
Q 53.328125 32.859375 65.671875 16.546875 
Q 76.8125 32.234375 77.875 56.6875 
z
" id="MicrosoftYaHei-6536"/>
     <path d="M 28.609375 77.296875 
L 35.0625 81.890625 
Q 46 75.140625 59.078125 47.3125 
Q 77.34375 7.375 98.734375 -1.421875 
L 91.890625 -10.015625 
Q 70.515625 2.6875 52.34375 43.5 
Q 50.875 46.78125 49.46875 49.75 
Q 38.140625 10.9375 7.328125 -10.59375 
Q 4.6875 -6.6875 1.375 -3.265625 
Q 33.0625 16.703125 44.046875 59.90625 
Q 36.375 72.703125 28.609375 77.296875 
z
" id="MicrosoftYaHei-5165"/>
     <path d="M 18.171875 37.25 
L 18.171875 44.671875 
L 22.078125 83.25 
L 30.171875 83.25 
L 28.65625 67.71875 
L 97.953125 67.71875 
L 97.953125 60.296875 
L 27.984375 60.296875 
L 26.46875 44.671875 
L 90.828125 44.671875 
Q 89.65625 24.171875 88.1875 6.5 
Q 86.8125 -3.859375 82.234375 -7.46875 
Q 77.828125 -10.984375 67.53125 -10.984375 
Q 57.90625 -10.890625 45.3125 -10.59375 
Q 44.734375 -7.28125 43.65625 -2.09375 
Q 58.5 -3.171875 65.828125 -3.265625 
Q 78.90625 -4.15625 80.078125 6.984375 
Q 81.34375 19.96875 82.234375 37.25 
z
M 1.65625 22.015625 
L 74.03125 22.015625 
L 74.03125 14.59375 
L 1.65625 14.59375 
z
" id="MicrosoftYaHei-4e0e"/>
     <path d="M 31.453125 19.96875 
L 55.859375 19.96875 
L 55.859375 30.421875 
L 26.65625 30.421875 
L 26.65625 37.453125 
L 55.859375 37.453125 
L 55.859375 47.796875 
L 33.203125 47.796875 
L 33.203125 51.515625 
Q 31.390625 49.65625 29.59375 47.90625 
Q 27.9375 49.65625 24.3125 53.375 
Q 36.71875 65.09375 47.65625 83.640625 
L 55.078125 81.6875 
Q 53.125 78.125 51.03125 74.75 
L 80.375 74.75 
L 80.375 68.21875 
L 69.046875 54.640625 
L 89.0625 54.640625 
L 89.0625 37.453125 
L 97.953125 37.453125 
L 97.953125 30.421875 
L 89.0625 30.421875 
L 89.0625 9.125 
L 81.640625 9.125 
L 81.640625 13.140625 
L 63.484375 13.140625 
L 63.484375 0.046875 
Q 63.484375 -11.96875 51.171875 -12.0625 
Q 44.734375 -12.0625 38.875 -12.0625 
Q 38.1875 -7.859375 37.3125 -3.953125 
Q 43.453125 -4.640625 49.421875 -4.640625 
Q 55.859375 -4.640625 55.859375 1.8125 
L 55.859375 13.140625 
L 31.453125 13.140625 
z
M 70.90625 68.015625 
L 46.625 68.015625 
Q 41.703125 60.890625 36.078125 54.640625 
L 60.109375 54.640625 
z
M 14.453125 36.46875 
Q 17.96875 34.71875 21.78125 33.15625 
Q 16.609375 15.484375 11.140625 -3.765625 
L 3.21875 -0.734375 
Q 9.96875 18.109375 14.453125 36.46875 
z
M 63.484375 19.96875 
L 81.640625 19.96875 
L 81.640625 30.421875 
L 63.484375 30.421875 
z
M 10.359375 76.421875 
Q 16.609375 65.671875 21.96875 54.828125 
Q 17.96875 52.6875 14.65625 51.125 
Q 9.671875 62.359375 4 73.09375 
z
M 81.640625 47.796875 
L 63.484375 47.796875 
L 63.484375 37.453125 
L 81.640625 37.453125 
z
" id="MicrosoftYaHei-51c0"/>
     <path d="M 1.171875 11.578125 
Q 14.265625 25.828125 23.25 46.828125 
L 1.65625 46.828125 
L 1.65625 53.953125 
L 25.09375 53.953125 
L 25.09375 68.609375 
Q 15.046875 67.625 5.171875 66.75 
Q 4.5 70.359375 3.21875 74.171875 
Q 26.65625 76.03125 51.078125 79.15625 
L 53.03125 71.734375 
Q 42.671875 70.453125 32.515625 69.390625 
L 32.515625 53.953125 
L 54.6875 53.953125 
L 54.6875 46.828125 
L 32.515625 46.828125 
L 32.515625 33.734375 
L 36.8125 37.84375 
Q 46 30.03125 55.078125 21.046875 
L 49.125 14.984375 
Q 43.171875 21.921875 32.515625 32.078125 
L 32.515625 -12.9375 
L 25.09375 -12.9375 
L 25.09375 35.890625 
Q 16.703125 16.9375 5.078125 2.78125 
Q 2.4375 9.125 1.171875 11.578125 
z
M 85.0625 81.203125 
L 92.78125 81.203125 
L 92.78125 -0.140625 
Q 92.78125 -12.546875 80.28125 -12.453125 
Q 76.265625 -12.453125 67.28125 -12.359375 
Q 66.703125 -8.34375 65.828125 -3.5625 
Q 73.734375 -4.4375 77.828125 -4.4375 
Q 85.0625 -4.546875 85.0625 2.875 
z
M 61.921875 71.4375 
L 69.34375 71.4375 
L 69.34375 9.71875 
L 61.921875 9.71875 
z
" id="MicrosoftYaHei-5229"/>
     <path d="M 54.6875 76.8125 
L 95.125 76.8125 
L 95.125 -0.53125 
Q 95.125 -11.96875 83.40625 -11.96875 
Q 77.9375 -11.96875 70.21875 -11.859375 
Q 69.734375 -8.640625 68.75 -4.34375 
Q 76.953125 -4.9375 81.453125 -4.9375 
Q 87.703125 -4.9375 87.703125 0.734375 
L 87.703125 70.171875 
L 54.6875 70.171875 
z
M 40.828125 14.703125 
L 58.59375 14.703125 
L 58.59375 31.203125 
L 43.359375 31.203125 
L 43.359375 37.25 
L 58.59375 37.25 
L 58.59375 52.296875 
L 41.890625 52.296875 
L 41.890625 58.546875 
L 82.328125 58.546875 
L 82.328125 52.296875 
L 65.625 52.296875 
L 65.625 37.25 
L 81.0625 37.25 
L 81.0625 31.203125 
L 65.625 31.203125 
L 65.625 14.703125 
L 83.59375 14.703125 
L 83.59375 8.453125 
L 40.828125 8.453125 
z
M 36.71875 -13.234375 
L 29.296875 -13.234375 
L 29.296875 65.484375 
L 36.71875 65.484375 
z
M 4 -9.90625 
Q 9.671875 6.890625 14.0625 27.875 
Q 18.359375 26.03125 21.96875 24.859375 
Q 15.921875 1.125 12.59375 -12.546875 
z
M 5.078125 75.828125 
L 10.15625 81 
Q 16.609375 76.125 26.953125 67.234375 
Q 23.640625 64.015625 21.09375 61.46875 
Q 11.03125 70.953125 5.078125 75.828125 
z
M 1.265625 50.34375 
L 6.25 55.90625 
Q 14.65625 50.140625 23.046875 43.40625 
Q 19.828125 39.984375 17.390625 37.0625 
Q 7.8125 45.5625 1.265625 50.34375 
z
M 34.1875 78.46875 
L 39.65625 82.671875 
Q 45.515625 76.21875 50.390625 70.171875 
L 44.046875 65.484375 
Q 39.9375 71.4375 34.1875 78.46875 
z
" id="MicrosoftYaHei-6da6"/>
     <path d="M 39.453125 31.390625 
Q 40.96875 31.5 61.375 32.515625 
Q 58.9375 35.9375 56.640625 38.921875 
L 61.921875 42.234375 
Q 68.953125 34.421875 74.90625 25.828125 
L 68.65625 21.921875 
Q 66.9375 24.515625 65.28125 26.953125 
Q 46.734375 25.921875 34.578125 24.953125 
Q 32.421875 24.75 29.390625 24.078125 
L 26.953125 30.71875 
Q 29.890625 31.6875 31.34375 32.5625 
Q 39.59375 38.140625 47.65625 45.515625 
Q 40.578125 45.21875 35.546875 44.78125 
Q 33.5 44.484375 31.0625 43.890625 
L 28.125 49.859375 
Q 30.5625 50.734375 32.625 52.59375 
Q 39.203125 58.15625 44.921875 66.0625 
L 3.609375 66.0625 
L 3.609375 72.90625 
L 47.359375 72.90625 
Q 44.96875 77.25 42.875 80.515625 
L 49.90625 83.9375 
Q 53.71875 78.125 56.5 72.90625 
L 96.484375 72.90625 
L 96.484375 66.0625 
L 47.703125 66.0625 
L 52.34375 63.625 
Q 44.4375 55.515625 38.96875 50.734375 
Q 44.53125 50.875 53.515625 51.078125 
Q 57.421875 54.984375 61.328125 59.328125 
L 68.0625 55.421875 
Q 52.546875 40.671875 39.453125 31.390625 
z
M 2.25 15.484375 
L 46.78125 15.484375 
L 46.78125 24.078125 
L 54.5 24.078125 
L 54.5 15.484375 
L 98.046875 15.484375 
L 98.046875 8.640625 
L 54.5 8.640625 
L 54.5 -13.328125 
L 46.78125 -13.328125 
L 46.78125 8.640625 
L 2.25 8.640625 
z
M 26.859375 41.75 
L 30.375 35.984375 
Q 18.75 29.15625 6.640625 22.015625 
L 2.546875 28.5625 
Q 12.703125 33.34375 26.859375 41.75 
z
M 75.875 41.84375 
Q 89.84375 33.9375 97.65625 28.375 
L 93.359375 22.015625 
Q 83.296875 29.828125 71.875 36.578125 
z
M 93.65625 56.109375 
Q 86.234375 49.65625 77.546875 43.890625 
L 72.5625 49.078125 
Q 81.9375 55.21875 88.09375 61.375 
z
M 5.671875 56.78125 
L 10.640625 61.578125 
Q 18.75 55.125 24.8125 49.359375 
L 19.34375 44 
Q 13.671875 49.953125 5.671875 56.78125 
z
" id="MicrosoftYaHei-7387"/>
    </defs>
    <g transform="translate(382.8 45.84)scale(0.12 -0.12)">
     <use xlink:href="#MicrosoftYaHei-8425"/>
     <use x="100" xlink:href="#MicrosoftYaHei-4e1a"/>
     <use x="200" xlink:href="#MicrosoftYaHei-603b"/>
     <use x="300" xlink:href="#MicrosoftYaHei-6536"/>
     <use x="400" xlink:href="#MicrosoftYaHei-5165"/>
     <use x="500" xlink:href="#MicrosoftYaHei-4e0e"/>
     <use x="600" xlink:href="#MicrosoftYaHei-51c0"/>
     <use x="700" xlink:href="#MicrosoftYaHei-5229"/>
     <use x="800" xlink:href="#MicrosoftYaHei-6da6"/>
     <use x="900" xlink:href="#MicrosoftYaHei-7387"/>
    </g>
   </g>
   <g id="legend_1">
    <g id="patch_26">
     <path d="M 263.461875 429.287625 
L 622.138125 429.287625 
Q 624.538125 429.287625 624.538125 426.887625 
L 624.538125 409.512 
Q 624.538125 407.112 622.138125 407.112 
L 263.461875 407.112 
Q 261.061875 407.112 261.061875 409.512 
L 261.061875 426.887625 
Q 261.061875 429.287625 263.461875 429.287625 
z
" style="fill:#ffffff;opacity:0.8;stroke:#cccccc;stroke-linejoin:miter;"/>
    </g>
    <g id="patch_27">
     <path d="M 265.861875 421.5045 
L 289.861875 421.5045 
L 289.861875 413.1045 
L 265.861875 413.1045 
z
" style="fill:#a6a6a6;stroke-dasharray:11.1,4.8;stroke-dashoffset:0;"/>
    </g>
    <g id="text_31">
     <!-- 营业总收入（单位：亿元） -->
     <defs>
      <path d="M 57.625 -17.1875 
Q 40.1875 1.859375 40.1875 28.90625 
Q 40.1875 56.296875 57.625 75.59375 
L 66.015625 75.59375 
Q 48.6875 55.8125 48.6875 29 
Q 48.6875 2.59375 65.921875 -17.1875 
z
" id="MicrosoftYaHei-ff08"/>
      <path d="M 1.953125 14.203125 
L 46.1875 14.203125 
L 46.1875 25.25 
L 19.140625 25.25 
L 19.140625 20.65625 
L 11.71875 20.65625 
L 11.71875 68.015625 
L 31.984375 68.015625 
Q 27.296875 73.484375 21.875 79.25 
L 27.4375 83.84375 
Q 34.671875 76.90625 40.140625 71.046875 
L 36.53125 68.015625 
L 59.421875 68.015625 
Q 64.796875 75.140625 70.3125 83.546875 
L 78.125 79.34375 
Q 73.09375 73.25 68.40625 68.015625 
L 88.375 68.015625 
L 88.375 20.65625 
L 80.953125 20.65625 
L 80.953125 25.25 
L 53.8125 25.25 
L 53.8125 14.203125 
L 98.046875 14.203125 
L 98.046875 7.171875 
L 53.8125 7.171875 
L 53.8125 -13.421875 
L 46.1875 -13.421875 
L 46.1875 7.171875 
L 1.953125 7.171875 
z
M 53.8125 32.078125 
L 80.953125 32.078125 
L 80.953125 43.40625 
L 53.8125 43.40625 
z
M 19.140625 32.078125 
L 46.1875 32.078125 
L 46.1875 43.40625 
L 19.140625 43.40625 
z
M 80.953125 61.1875 
L 53.8125 61.1875 
L 53.8125 50.046875 
L 80.953125 50.046875 
z
M 19.140625 50.046875 
L 46.1875 50.046875 
L 46.1875 61.1875 
L 19.140625 61.1875 
z
" id="MicrosoftYaHei-5355"/>
      <path d="M 27.9375 -0.921875 
L 66.0625 -0.921875 
Q 73.09375 17.875 82.328125 52.6875 
L 91.109375 50.046875 
Q 85.203125 31.9375 74.3125 -0.921875 
L 98.734375 -0.921875 
L 98.734375 -8.15625 
L 27.9375 -8.15625 
z
M 1.265625 35.796875 
Q 15.234375 56.890625 22.359375 83.15625 
L 30.671875 81.109375 
Q 26.609375 68.703125 21.96875 57.953125 
L 21.96875 -13.328125 
L 14.65625 -13.328125 
L 14.65625 42.671875 
Q 10.0625 34.078125 4.984375 26.8125 
Q 3.609375 30.515625 1.265625 35.796875 
z
M 29.984375 65.484375 
L 64.40625 65.484375 
Q 60.0625 72.796875 54.78125 79.046875 
L 61.421875 83.640625 
Q 65.71875 78.65625 72.078125 70.265625 
L 64.84375 65.484375 
L 96.96875 65.484375 
L 96.96875 58.25 
L 29.984375 58.25 
z
M 43.265625 51.703125 
Q 49.703125 34.125 57.328125 9.125 
L 49.21875 6.78125 
Q 42.578125 30.71875 35.84375 49.171875 
z
" id="MicrosoftYaHei-4f4d"/>
      <path d="M 50.09375 55.171875 
Q 52.6875 55.171875 54.53125 53.359375 
Q 56.390625 51.5625 56.390625 49.03125 
Q 56.390625 46.484375 54.578125 44.65625 
Q 52.78125 42.828125 50.09375 42.828125 
Q 47.40625 42.828125 45.59375 44.65625 
Q 43.796875 46.484375 43.796875 49.03125 
Q 43.796875 51.5625 45.65625 53.359375 
Q 47.515625 55.171875 50.09375 55.171875 
z
M 50.09375 11.1875 
Q 52.6875 11.1875 54.53125 9.375 
Q 56.390625 7.5625 56.390625 4.984375 
Q 56.390625 2.34375 54.53125 0.5625 
Q 52.6875 -1.21875 50.09375 -1.21875 
Q 47.515625 -1.21875 45.65625 0.5625 
Q 43.796875 2.34375 43.796875 4.984375 
Q 43.796875 7.5625 45.65625 9.375 
Q 47.515625 11.1875 50.09375 11.1875 
z
" id="MicrosoftYaHei-ff1a"/>
      <path d="M 90.53125 25.828125 
Q 92.96875 24.65625 98.734375 22.90625 
Q 97.859375 12.0625 96.484375 4.046875 
Q 94.34375 -8.34375 79.203125 -8.453125 
Q 63.671875 -9.03125 49.703125 -8.453125 
Q 36.71875 -7.765625 33.984375 -0.140625 
Q 31.453125 7.671875 40.140625 19.78125 
Q 48.640625 31.390625 79.984375 67.625 
L 36.71875 67.625 
L 36.71875 75.34375 
L 90.140625 75.34375 
L 90.140625 66.265625 
Q 66.5 40.484375 49.03125 18.40625 
Q 40.828125 7.375 41.796875 3.375 
Q 42.1875 -0.734375 52.640625 -1.03125 
Q 64.546875 -1.515625 76.375 -0.921875 
Q 83.296875 -0.640625 85.546875 1.03125 
Q 88.09375 2.6875 88.875 7.859375 
Q 89.84375 13.234375 90.53125 25.828125 
z
M 1.375 34.515625 
Q 15.625 54.25 23.921875 82.859375 
L 31.9375 80.515625 
Q 27.9375 68.5625 23.25 58.0625 
L 23.25 -12.453125 
L 15.625 -12.453125 
L 15.625 42.828125 
Q 10.5 33.640625 4.6875 25.921875 
Q 3.328125 30.21875 1.375 34.515625 
z
" id="MicrosoftYaHei-4ebf"/>
      <path d="M 2.9375 48.1875 
L 97.265625 48.1875 
L 97.265625 40.765625 
L 66.40625 40.765625 
L 66.40625 2.6875 
Q 66.40625 -3.078125 72.265625 -3.078125 
L 80.671875 -3.078125 
Q 87.703125 -3.078125 88.671875 3.375 
Q 89.546875 8.84375 90.140625 17.234375 
Q 94.046875 15.875 98.640625 14.796875 
Q 97.65625 6.390625 96.578125 0.734375 
Q 94.625 -10.015625 82.421875 -10.015625 
L 70.515625 -10.015625 
Q 58.203125 -10.015625 58.203125 2 
L 58.203125 40.765625 
L 38.28125 40.765625 
L 38.28125 37.640625 
Q 38.28125 16.9375 32.03125 6.984375 
Q 25.78125 -3.859375 7.328125 -13.234375 
Q 3.8125 -8.9375 1.5625 -6.6875 
Q 18.453125 1.609375 24.3125 10.796875 
Q 30.078125 19.578125 30.078125 37.25 
L 30.078125 40.765625 
L 2.9375 40.765625 
z
M 12.3125 76.609375 
L 88.09375 76.609375 
L 88.09375 69.1875 
L 12.3125 69.1875 
z
" id="MicrosoftYaHei-5143"/>
      <path d="M 42.390625 -17.1875 
L 33.984375 -17.1875 
Q 51.3125 2.546875 51.3125 29.5 
Q 51.3125 55.953125 34.078125 75.59375 
L 42.390625 75.59375 
Q 59.71875 56.6875 59.71875 29.5 
Q 59.71875 2 42.390625 -17.1875 
z
" id="MicrosoftYaHei-ff09"/>
     </defs>
     <g transform="translate(299.461875 421.5045)scale(0.12 -0.12)">
      <use xlink:href="#MicrosoftYaHei-8425"/>
      <use x="100" xlink:href="#MicrosoftYaHei-4e1a"/>
      <use x="200" xlink:href="#MicrosoftYaHei-603b"/>
      <use x="300" xlink:href="#MicrosoftYaHei-6536"/>
      <use x="400" xlink:href="#MicrosoftYaHei-5165"/>
      <use x="500" xlink:href="#MicrosoftYaHei-ff08"/>
      <use x="600" xlink:href="#MicrosoftYaHei-5355"/>
      <use x="700" xlink:href="#MicrosoftYaHei-4f4d"/>
      <use x="800" xlink:href="#MicrosoftYaHei-ff1a"/>
      <use x="900" xlink:href="#MicrosoftYaHei-4ebf"/>
      <use x="1000" xlink:href="#MicrosoftYaHei-5143"/>
      <use x="1100" xlink:href="#MicrosoftYaHei-ff09"/>
     </g>
    </g>
    <path d="M 469.461875 419.3045 
L 493.461875 419.3045 
" style="fill:none;opacity:0.3;stroke:#000000;stroke-linecap:square;stroke-width:2;"/>
    <path d="M 467.461875 417.3045 
L 491.461875 417.3045 
" style="fill:none;stroke:#c00000;stroke-linecap:square;stroke-width:2;"/>
    <path d="M 481.461875 416.3045 
L 480.788333 418.377449 
L 478.608705 418.377449 
L 480.372061 419.658602 
L 479.698519 421.731551 
L 481.461875 420.450398 
L 483.225231 421.731551 
L 482.551689 419.658602 
L 484.315045 418.377449 
L 482.135417 418.377449 
z
" style="fill:none;opacity:0.3;stroke:#000000;stroke-linejoin:bevel;"/>
    <path d="M 479.461875 414.3045 
L 478.788333 416.377449 
L 476.608705 416.377449 
L 478.372061 417.658602 
L 477.698519 419.731551 
L 479.461875 418.450398 
L 481.225231 419.731551 
L 480.551689 417.658602 
L 482.315045 416.377449 
L 480.135417 416.377449 
z
" style="fill:#c00000;stroke:#c00000;stroke-linejoin:bevel;"/>
    <g id="text_32">
     <!-- 净利润率（单位：%） -->
     <defs>
      <path d="M 4.25 56.546875 
Q 4.25 65.828125 9.203125 71.296875 
Q 14.15625 76.765625 22.5625 76.765625 
Q 30.609375 76.765625 35.125 71.734375 
Q 39.65625 66.703125 39.65625 57.71875 
Q 39.65625 48.78125 34.671875 43.203125 
Q 29.6875 37.640625 21.4375 37.640625 
Q 13.625 37.640625 8.9375 42.8125 
Q 4.25 48 4.25 56.546875 
z
M 11.765625 57.03125 
Q 11.765625 50.734375 14.5 47.3125 
Q 17.234375 43.890625 21.96875 43.890625 
Q 26.859375 43.890625 29.515625 47.4375 
Q 32.171875 50.984375 32.171875 57.421875 
Q 32.171875 63.71875 29.5625 67.15625 
Q 26.953125 70.609375 22.21875 70.609375 
Q 17.390625 70.609375 14.578125 67.015625 
Q 11.765625 63.421875 11.765625 57.03125 
z
M 72.609375 75.640625 
L 24.03125 -0.484375 
L 15.875 -0.484375 
L 64.453125 75.640625 
z
M 49.5625 17.71875 
Q 49.5625 27 54.515625 32.546875 
Q 59.46875 38.09375 67.828125 38.09375 
Q 75.828125 38.09375 80.359375 33.03125 
Q 84.90625 27.984375 84.90625 18.796875 
Q 84.90625 9.90625 79.875 4.359375 
Q 74.859375 -1.171875 66.75 -1.171875 
Q 58.890625 -1.171875 54.21875 4.078125 
Q 49.5625 9.328125 49.5625 17.71875 
z
M 57.03125 18.171875 
Q 57.03125 12.015625 59.765625 8.5625 
Q 62.5 5.125 67.234375 5.125 
Q 72.125 5.125 74.78125 8.6875 
Q 77.4375 12.25 77.4375 18.65625 
Q 77.4375 25 74.78125 28.359375 
Q 72.125 31.734375 67.484375 31.734375 
Q 62.5 31.734375 59.765625 28.140625 
Q 57.03125 24.5625 57.03125 18.171875 
z
" id="MicrosoftYaHei-25"/>
     </defs>
     <g transform="translate(501.061875 421.5045)scale(0.12 -0.12)">
      <use xlink:href="#MicrosoftYaHei-51c0"/>
      <use x="100" xlink:href="#MicrosoftYaHei-5229"/>
      <use x="200" xlink:href="#MicrosoftYaHei-6da6"/>
      <use x="300" xlink:href="#MicrosoftYaHei-7387"/>
      <use x="400" xlink:href="#MicrosoftYaHei-ff08"/>
      <use x="500" xlink:href="#MicrosoftYaHei-5355"/>
      <use x="600" xlink:href="#MicrosoftYaHei-4f4d"/>
      <use x="700" xlink:href="#MicrosoftYaHei-ff1a"/>
      <use x="800" xlink:href="#MicrosoftYaHei-25"/>
      <use x="888.964844" xlink:href="#MicrosoftYaHei-ff09"/>
     </g>
    </g>
   </g>
  </g>
 </g>
 <defs>
  <clipPath id="p2ec8b04377">
   <rect height="332.64" width="669.6" x="108" y="51.84"/>
  </clipPath>
 </defs>
</svg>
